<?xml version="1.0" encoding="utf-8"?>
<!-- Generator: Adobe Illustrator 18.1.0, SVG Export Plug-In . SVG Version: 6.00 Build 0)  -->
<!DOCTYPE svg PUBLIC "-//W3C//DTD SVG 1.1//EN" "http://www.w3.org/Graphics/SVG/1.1/DTD/svg11.dtd">
<svg version="1.1" id="Layer_1" xmlns="http://www.w3.org/2000/svg" xmlns:xlink="http://www.w3.org/1999/xlink" x="0px" y="0px"
	 viewBox="0 0 402 402" enable-background="new 0 0 402 402" xml:space="preserve">
<circle fill="#1DADA5" cx="-120" cy="-499" r="201"/>
<g id="CYdu93_1_">
	<g>
		<path fill="#1DADA5" d="M-159.1-1957.3c0,4.1-3.4,7.5-7.5,7.6c-4.2,0-7.6-3.4-7.6-7.6c0-4.2,3.4-7.6,7.6-7.5
			C-162.5-1964.9-159.1-1961.4-159.1-1957.3z"/>
		<path fill="#FDFDFD" d="M-166.7-1950c-4,0-7.4-3.2-7.3-7.4c0-4.1,3.3-7.3,7.3-7.2c4.1,0,7.3,3.3,7.3,7.3
			C-159.4-1953.2-162.7-1950-166.7-1950z"/>
		<path fill="#1DADA5" d="M-166.7-1962.6c2.8,0,5.3,2.3,5.3,5.3c0,2.9-2.3,5.3-5.4,5.3c-3,0-5.3-2.5-5.3-5.3
			C-172-1960.2-169.6-1962.7-166.7-1962.6z"/>
		<path fill="#1DADA5" d="M-160.7-1957.9c0.2,0,0.5-0.1,0.7-0.1c0.1,0,0.1,0,0.1,0.1c0,0.1,0,0.1-0.1,0.1c-0.3,0-0.5,0.1-0.8,0.1
			c-0.1,0-0.1,0.1-0.1,0c0-0.1,0-0.2,0.1-0.2c0.1,0,0.1-0.1,0.2-0.1c0.1-0.1,0.3-0.2,0.4-0.3c-0.2-0.1-0.3,0-0.5,0
			c-0.1,0-0.3,0.1-0.3,0c0-0.2,0.2-0.1,0.2-0.1c0.2,0,0.4-0.1,0.7-0.1c0.1,0,0.1,0,0.1,0.1c0,0.1,0,0.1-0.1,0.2
			C-160.3-1958.2-160.5-1958-160.7-1957.9C-160.7-1957.9-160.7-1957.9-160.7-1957.9z"/>
		<path fill="#1DADA5" d="M-170-1952.2c-0.1,0.2-0.2,0.3-0.3,0.5c0,0.1-0.1,0.1-0.1,0.1c-0.1,0,0-0.1,0-0.1c0.1-0.2,0.3-0.5,0.4-0.7
			c0,0,0.1-0.1,0.1-0.1c0.1,0,0.1,0.1,0.1,0.2c0,0.1,0,0.3,0,0.4c0,0.1,0,0.2,0,0.4c0.1-0.1,0.2-0.3,0.3-0.4c0,0,0.1-0.1,0.1-0.1
			c0,0,0,0,0.1,0c0,0,0.1,0,0,0.1c0,0,0,0.1,0,0.1c-0.1,0.2-0.3,0.5-0.4,0.7c0,0.1-0.1,0.1-0.1,0.1c-0.1,0-0.1-0.1-0.1-0.1
			C-170-1951.7-170-1951.9-170-1952.2z"/>
		<path fill="#1DADA5" d="M-163.5-1963c-0.1,0.2-0.2,0.3-0.3,0.5c0,0-0.1,0.1-0.1,0.1c0,0-0.1,0-0.1,0c0,0,0,0,0-0.1
			c0,0,0-0.1,0-0.1c0.2-0.3,0.3-0.5,0.5-0.8c0.2,0,0.2,0.1,0.2,0.3c-0.1,0.2,0,0.4-0.1,0.6c0.2-0.1,0.2-0.3,0.3-0.4
			c0-0.1,0.1-0.2,0.2-0.1c0.1,0.1,0,0.1,0,0.2c-0.1,0.2-0.2,0.4-0.4,0.6c0,0-0.1,0.1-0.1,0.1c-0.1,0-0.1-0.1-0.1-0.1
			c0-0.1,0-0.2,0-0.3C-163.5-1962.7-163.5-1962.9-163.5-1963C-163.5-1963-163.5-1963-163.5-1963z"/>
		<path fill="#1DADA5" d="M-160.9-1958.9c-0.1,0-0.3-0.1-0.3-0.2c-0.1-0.1-0.1-0.3,0-0.4c0,0,0.1-0.1,0.1,0c0,0,0,0.1,0,0.1
			c0,0.1-0.1,0.1-0.1,0.1c-0.1,0.1,0,0.2,0.1,0.3c0.3,0,0.5-0.1,0.7-0.2c0.1-0.1,0.1-0.1,0-0.2c0-0.1-0.1-0.2-0.2-0.1
			c0,0-0.1,0-0.1,0c-0.1,0-0.2,0.1-0.1,0.2c0,0,0,0.1,0,0.1c0,0,0,0,0,0c0,0,0,0,0-0.1c-0.1-0.2-0.2-0.2,0.1-0.3c0,0,0,0,0,0
			c0.3-0.1,0.3-0.1,0.4,0.1c0.1,0.2,0.1,0.4,0,0.5C-160.5-1959-160.7-1958.9-160.9-1958.9z"/>
		<path fill="#1DADA5" d="M-172.4-1956.6c0.1,0.1,0.1,0.3,0.1,0.4c0,0.3-0.2,0.4-0.4,0.3c-0.1,0-0.1-0.1-0.1,0
			c-0.1,0.1-0.2,0.1-0.3,0.2c0,0-0.1,0-0.1,0c0,0,0-0.1,0-0.1c0,0,0.1,0,0.1-0.1c0.1,0,0.1,0,0.1-0.1c0.1,0,0.1-0.1,0.1-0.2
			c0-0.1-0.1,0-0.2,0c-0.1,0-0.1,0-0.2,0c0,0-0.1,0-0.1-0.1c0-0.1,0-0.1,0.1-0.1c0.2,0,0.5-0.1,0.7-0.1
			C-172.6-1956.5-172.5-1956.5-172.4-1956.6z"/>
		<path fill="#1DADA5" d="M-160.3-1955.2c-0.3-0.1-0.5-0.1-0.8-0.2c-0.1,0-0.1,0-0.1-0.1c0-0.1,0.1-0.1,0.1-0.1c0.1,0,0.1,0,0.2,0.1
			c0.1,0,0.1,0,0.2-0.1c0.1-0.2,0.1-0.2-0.2-0.3c0,0-0.1,0-0.1,0c-0.1,0-0.1,0-0.1-0.1c0-0.1,0.1-0.1,0.1-0.1
			c0.3,0.1,0.5,0.1,0.8,0.2c0.1,0,0.1,0,0.1,0.1c0,0.1-0.1,0.1-0.1,0.1c-0.1,0-0.1,0-0.2,0c-0.2-0.1-0.2-0.1-0.3,0.2
			c0,0.1,0,0.2,0.1,0.2c0.1,0,0.2,0,0.2,0.1c0.1,0,0.1,0,0.1,0.1C-160.2-1955.2-160.2-1955.2-160.3-1955.2z"/>
		<path fill="#1DADA5" d="M-165.7-1951c0,0.4-0.1,0.5-0.4,0.5c-0.2,0-0.3-0.1-0.4-0.3c0-0.1,0-0.3,0-0.4c0-0.2,0.1-0.3,0.3-0.3
			c0.2,0,0.3,0,0.4,0.2C-165.7-1951.3-165.6-1951.1-165.7-1951z"/>
		<path fill="#1DADA5" d="M-166.4-1964.1c0.1,0,0.2,0,0.3,0c0.3,0,0.4,0.1,0.4,0.4c0,0.2,0,0.3-0.1,0.5c-0.1,0.1-0.2,0.2-0.3,0.2
			c-0.1,0-0.2,0-0.2,0c-0.2,0-0.2,0-0.1-0.2c0-0.2,0-0.3,0-0.5C-166.5-1963.9-166.4-1964-166.4-1964.1z"/>
		<path fill="#1DADA5" d="M-164-1963.3c0,0.2-0.1,0.4-0.2,0.5c-0.1,0.1-0.3,0.2-0.4,0.1c-0.2-0.1-0.3-0.2-0.3-0.4
			c0-0.2,0.1-0.4,0.2-0.5c0.1-0.2,0.2-0.2,0.4-0.1C-164.1-1963.7-164-1963.6-164-1963.3z"/>
		<path fill="#1DADA5" d="M-172.8-1959.8c0.2,0.1,0.5,0.2,0.7,0.2c0,0,0.1,0.1,0,0.1c0,0.1-0.1,0.1-0.1,0.1c-0.2,0-0.3-0.1-0.5-0.1
			c-0.1,0-0.2-0.1-0.2-0.1c-0.1,0-0.2,0.1-0.2,0.1c0,0.1,0,0.1,0.1,0.2c0.1,0,0.1,0.1,0.2,0.1c0.2,0.1,0.3,0.1,0.5,0.2
			c0.1,0,0.1,0,0.1,0.1c0,0.1-0.1,0.1-0.2,0c-0.2-0.1-0.4-0.1-0.6-0.2c-0.2-0.1-0.2-0.2-0.1-0.4
			C-173.1-1959.7-173-1959.8-172.8-1959.8z"/>
		<path fill="#1DADA5" d="M-163.9-1951.1c-0.1-0.3-0.3-0.6-0.4-0.8c0,0,0-0.1,0-0.1c0.1,0,0.1,0,0.1,0c0,0.1,0.1,0.2,0.2,0.3
			c0.1-0.2,0-0.4,0.2-0.6c0.1,0.1,0,0.2,0,0.3c-0.1,0.2-0.1,0.2,0.2,0.3c0.1,0.1,0.3,0.1,0.4,0.2c-0.1,0.1-0.1,0.1-0.2,0.1
			c-0.1-0.1-0.2-0.1-0.4-0.2c0,0.1,0,0.2,0.1,0.3C-163.7-1951.2-163.7-1951.1-163.9-1951.1z"/>
		<path fill="#1DADA5" d="M-159.9-1956.5c0,0.1-0.1,0.1-0.1,0c-0.3-0.1-0.5-0.2-0.8-0.3c0,0,0,0-0.1,0c-0.1,0-0.1,0-0.1-0.1
			c0-0.1,0-0.1,0.1-0.1c0.3-0.1,0.6-0.2,0.9-0.2c0,0,0.1,0,0.1,0.1c0,0,0,0.1,0,0.1c0,0-0.1,0-0.1,0c-0.1,0-0.2,0-0.2,0.1
			c0,0.1,0,0.2,0,0.3c0,0.1,0.1,0.1,0.2,0.1C-160-1956.6-159.9-1956.6-159.9-1956.5z"/>
		<path fill="#1DADA5" d="M-161-1953.6c0,0.1-0.1,0.2-0.2,0.1c-0.1,0-0.2,0-0.3,0c0,0.1,0,0.1,0.1,0.2c0,0.1,0,0.1,0.1,0.2
			c0,0,0,0.1,0,0.1c0,0-0.1,0-0.1-0.1c0-0.1-0.1-0.2-0.1-0.3c-0.1-0.2-0.1-0.3-0.3-0.2c-0.1,0-0.2,0-0.2,0c0,0-0.1,0-0.1-0.1
			c0,0,0-0.1,0.1-0.1c0.1-0.1,0.2,0,0.4,0c0-0.1-0.1-0.2-0.1-0.3c0-0.1,0-0.1,0-0.1c0.1,0,0.1,0,0.1,0.1c0.1,0.3,0.3,0.5,0.6,0.4
			C-161.1-1953.6-161.1-1953.6-161-1953.6z"/>
		<path fill="#1DADA5" d="M-172.4-1955.3c0.1,0,0.2,0,0.2,0c0.1,0,0.1,0.1,0.1,0.2c0,0-0.1,0.1-0.1,0.1c-0.2,0.2-0.4,0.4-0.6,0.5
			c0,0-0.1,0.1-0.1,0c0,0,0-0.1,0-0.1c0,0,0,0,0.1-0.1c0.1-0.2,0.1-0.1,0.1-0.3c0-0.1-0.1-0.1-0.2-0.1c0,0-0.1,0-0.1,0
			c0,0-0.1,0-0.1-0.1c0-0.1,0-0.1,0.1-0.1C-172.9-1955.3-172.6-1955.3-172.4-1955.3C-172.4-1955.3-172.4-1955.3-172.4-1955.3z"/>
		<path fill="#1DADA5" d="M-172.2-1960.7c0,0-0.1-0.1-0.1-0.1c0-0.1-0.2-0.1-0.1-0.2c0.1-0.1,0.1,0,0.2,0.1c0.1,0.2,0.3,0.3,0.4,0.5
			c0,0,0.1,0.1,0.1,0.1c0.1,0.1,0,0.2-0.1,0.2c0,0-0.1,0-0.1,0c-0.3-0.1-0.5-0.1-0.8-0.2c0,0-0.1,0-0.1-0.1c0,0,0-0.1,0.1-0.1
			c0,0,0,0,0,0C-172.4-1960.3-172.3-1960.6-172.2-1960.7z"/>
		<path fill="#1DADA5" d="M-171.6-1952.6c0.3-0.2,0.6-0.3,0.9-0.5c0.1,0,0.1,0,0.2,0c0,0.1,0,0.1,0,0.2c-0.1,0.3-0.2,0.5-0.3,0.8
			c0,0.1,0,0.1-0.1,0.1c-0.1,0-0.1-0.1,0-0.1c0,0,0,0,0-0.1c0.1-0.1,0.1-0.2,0-0.3c-0.1-0.1-0.2-0.1-0.3,0
			C-171.4-1952.5-171.5-1952.4-171.6-1952.6z"/>
		<path fill="#1DADA5" d="M-162.1-1952.4c0.1-0.1,0.2-0.1,0.2-0.2c0,0,0.1-0.1,0.1,0c0,0,0,0.1,0,0.1c-0.1,0.1-0.2,0.2-0.3,0.4
			c-0.3-0.3-0.5-0.5-0.8-0.8c0.1-0.1,0.2-0.3,0.4-0.4c0,0,0.1,0,0.1,0c0,0,0,0.1,0,0.1c-0.1,0.1-0.1,0.1-0.2,0.2
			c0,0.1,0.1,0.2,0.2,0.3c0,0,0.1,0,0.1,0c0.1,0,0.2-0.2,0.2-0.1c0.1,0.1-0.1,0.2-0.1,0.2c-0.1,0.1,0,0.1,0,0.1
			C-162.3-1952.5-162.2-1952.5-162.1-1952.4z"/>
		<path fill="#1DADA5" d="M-173.2-1958.6c-0.1,0.1-0.1,0.2-0.1,0.3c0,0.1,0.1,0.2,0.2,0.1c0,0,0.1-0.1,0.1-0.1
			c0.1-0.1,0.1-0.1,0.2-0.2c0.2-0.2,0.4-0.1,0.4,0.1c0.1,0.1,0,0.3-0.1,0.4c0,0-0.1,0-0.1,0c0,0,0,0,0-0.1c0-0.1,0.1-0.1,0.1-0.2
			c0-0.1,0-0.1-0.1-0.1c-0.1-0.1-0.1,0-0.2,0c-0.1,0.1-0.1,0.2-0.2,0.3c-0.1,0.1-0.2,0.2-0.4,0.1c-0.2-0.1-0.2-0.5-0.1-0.6
			C-173.3-1958.6-173.3-1958.6-173.2-1958.6z"/>
		<path fill="#1DADA5" d="M-169-1962.8c0.1-0.1,0.2,0,0.3-0.1c0.1-0.1,0.1-0.2,0-0.3c-0.1,0-0.2-0.1-0.2-0.1c-0.1,0-0.2,0-0.2-0.1
			c-0.2-0.1-0.2-0.3,0-0.4c0.1-0.1,0.2-0.1,0.4-0.2c0,0,0.1,0,0.1,0.1c0,0,0,0.1,0,0.1c-0.1,0-0.2,0-0.2,0c0,0-0.1,0.1-0.1,0.1
			c0,0.1,0,0.1,0.1,0.1c0,0,0.1,0,0.1,0c0.1,0,0.2,0,0.2,0.1c0.2,0.1,0.3,0.3,0.1,0.5c-0.1,0.1-0.2,0.1-0.4,0.1
			C-169-1962.7-169-1962.7-169-1962.8z"/>
		<path fill="#1DADA5" d="M-168.2-1950.6c-0.1,0-0.2,0-0.3-0.1c-0.1,0-0.1-0.1,0-0.1c0-0.1,0.1,0,0.1,0c0,0,0.1,0.1,0.1,0.1
			c0.1,0.1,0.2,0,0.2-0.1c0-0.1,0-0.1,0-0.2c-0.1-0.1-0.1-0.1-0.2-0.2c-0.1-0.1-0.1-0.3-0.1-0.4c0.1-0.1,0.2-0.2,0.3-0.1
			c0,0,0.1,0,0.1,0c0.1,0,0.1,0,0.1,0.1c0,0.1-0.1,0-0.1,0c0,0-0.1,0-0.1,0c-0.1,0-0.1,0-0.1,0.1c0,0.1,0,0.1,0,0.2
			c0.1,0.1,0.1,0.1,0.2,0.2c0.1,0.1,0.1,0.2,0.1,0.3C-167.9-1950.7-168.1-1950.6-168.2-1950.6z"/>
		<path fill="#1DADA5" d="M-160.9-1954.3c0.3,0,0.3,0,0.4-0.3c0,0,0-0.1,0.1-0.1c0.1,0,0.1,0,0.1,0.1c0,0.3-0.2,0.5-0.5,0.4
			c-0.2,0-0.4-0.1-0.5-0.3c-0.1-0.1,0-0.3,0-0.4c0.1-0.1,0.2-0.2,0.3-0.1c0,0,0.1,0,0.1,0.1c0,0,0,0.1-0.1,0.1c0,0-0.1,0-0.2,0
			c-0.1,0-0.2,0.1-0.1,0.2C-161.3-1954.4-161.1-1954.3-160.9-1954.3z"/>
		<path fill="#1DADA5" d="M-165.1-1951.4c0,0.1,0,0.2,0.1,0.3c0.1,0.2,0.3,0.3,0.5,0.1c0,0,0.1-0.1,0.1,0c0,0,0,0.1,0,0.1
			c-0.2,0.2-0.5,0.2-0.7-0.1c-0.1-0.2-0.1-0.3-0.1-0.5c0-0.2,0.1-0.3,0.3-0.3c0.1-0.1,0.3,0,0.4,0.1c0,0,0.1,0.1,0,0.1
			c0,0-0.1,0.1-0.1,0c0,0,0,0,0,0c-0.1-0.1-0.1-0.1-0.2-0.1C-165.1-1951.7-165.1-1951.6-165.1-1951.4z"/>
		<path fill="#1DADA5" d="M-161.5-1959.9c-0.1-0.1-0.1-0.2-0.2-0.3c0,0-0.1-0.1,0-0.1c0.1,0,0.1,0.1,0.1,0.1c0,0.1,0.1,0.1,0.1,0.2
			c0.1,0,0.2-0.1,0.3-0.1c0-0.1-0.1-0.2-0.1-0.3c0,0,0-0.1,0-0.1c0,0,0.1,0,0.1,0c0,0.1,0.1,0.2,0.1,0.2c0.1,0,0.2-0.1,0.3-0.1
			c0-0.2-0.1-0.2-0.1-0.4c0.1,0,0.1,0.1,0.2,0.1c0.2,0.3,0.2,0.3-0.1,0.5C-161.1-1960.2-161.3-1960.1-161.5-1959.9
			C-161.5-1959.9-161.5-1959.9-161.5-1959.9z"/>
		<path fill="#1DADA5" d="M-166.8-1963.6c-0.1,0-0.1,0-0.2,0c-0.2,0-0.2,0-0.2,0.2c0,0.2,0,0.2,0.2,0.2c0.1,0,0.2,0,0.2,0
			c0,0.1-0.1,0.1-0.2,0.1c-0.4,0-0.4,0-0.4-0.3c0-0.2,0-0.4,0-0.5c0-0.1,0-0.2,0.1-0.2c0.1,0,0.2,0,0.3,0c0,0,0.1,0,0.1,0
			c0,0,0,0.1-0.1,0.1c-0.1,0-0.1,0-0.2,0c-0.1,0-0.1,0.1-0.1,0.1c0,0.2,0,0.2,0.2,0.2C-166.9-1963.7-166.9-1963.7-166.8-1963.6z"/>
		<path fill="#1DADA5" d="M-172.5-1956.9c-0.2-0.1-0.1-0.2-0.2-0.2c-0.1,0-0.2,0-0.3,0c-0.1,0-0.3,0-0.4,0c-0.1,0-0.1,0-0.2-0.1
			c0-0.1,0.1-0.1,0.1-0.1c0.2,0,0.4,0,0.6,0c0.1,0,0.2,0,0.2-0.2c0,0,0,0,0.1,0c0,0,0,0,0,0.1
			C-172.5-1957.3-172.5-1957.1-172.5-1956.9z"/>
		<path fill="#1DADA5" d="M-167.9-1964C-167.8-1964-167.8-1964-167.9-1964c0.1,0.1,0,0.1,0,0.1c-0.2,0-0.2,0.1-0.1,0.2
			c0.1,0.2,0.1,0.4,0.1,0.6c0,0.1,0,0.1-0.1,0.1c-0.1,0-0.1,0-0.1-0.1c0-0.2-0.1-0.4-0.1-0.6c0-0.1-0.1-0.2-0.2-0.1c0,0-0.1,0-0.1,0
			c0,0,0-0.1,0.1-0.1C-168.2-1964-168-1964-167.9-1964z"/>
		<path fill="#1DADA5" d="M-167.5-1951.5c0.2-0.1,0.5,0,0.7,0c0,0.1-0.1,0.1-0.1,0c-0.1,0-0.1,0-0.1,0.1c0,0.2,0,0.4-0.1,0.7
			c0,0.1,0,0.2-0.1,0.2c-0.1,0-0.1-0.1-0.1-0.2c0-0.2,0-0.3,0-0.5C-167.2-1951.4-167.2-1951.4-167.5-1951.5z"/>
		<path fill="#1DADA5" d="M-172.6-1954c0.3-0.2,0.5-0.3,0.8-0.5c0.1,0,0.1,0,0.1,0c0,0.1,0,0.1,0,0.1c-0.2,0.1-0.4,0.2-0.5,0.3
			c-0.2,0.1-0.2,0.1-0.1,0.3c0,0,0,0,0,0.1c0,0,0,0.1,0,0.1c-0.1,0-0.1,0-0.1-0.1c0-0.1-0.1-0.2-0.2-0.2
			C-172.6-1953.9-172.6-1953.9-172.6-1954z"/>
		<path fill="#1DADA5" d="M-170-1962.2c0.1,0,0.2-0.1,0.3-0.2c0,0,0.1,0,0.1,0c0,0,0,0.1,0,0.1c-0.1,0.1-0.3,0.2-0.4,0.3
			c-0.2-0.3-0.4-0.5-0.5-0.8c0,0,0-0.1,0-0.1c0.1,0,0.1,0,0.1,0c0.1,0.2,0.2,0.4,0.4,0.5C-170.1-1962.3-170-1962.2-170-1962.2z"/>
		<path fill="#1DADA5" d="M-171-1961.7c0,0.2-0.1,0.3-0.3,0.3c-0.1,0-0.3-0.1-0.3-0.3c0-0.2,0.1-0.3,0.3-0.3
			C-171.1-1962-171-1961.9-171-1961.7z"/>
		<path fill="#1DADA5" d="M-162.1-1961.4c-0.2,0-0.3-0.1-0.3-0.2c0-0.2,0.1-0.3,0.2-0.3c0.1,0,0.3,0.1,0.3,0.3
			C-161.9-1961.6-162-1961.5-162.1-1961.4z"/>
		<path fill="#1DADA5" d="M-171.9-1953C-172-1953-172-1953-171.9-1953c-0.1-0.1-0.1-0.1,0-0.1c0.2-0.2,0.5-0.4,0.7-0.6
			c0,0,0.1,0,0.1,0c0,0,0,0.1,0,0.1C-171.4-1953.4-171.6-1953.2-171.9-1953C-171.9-1953-171.9-1953-171.9-1953z"/>
		<path fill="#1DADA5" d="M-169.3-1962.5C-169.3-1962.5-169.3-1962.5-169.3-1962.5c-0.1,0.1-0.1,0.1-0.1,0.1c0,0,0,0,0-0.1
			c-0.1-0.2-0.2-0.5-0.4-0.7c0-0.1,0-0.1,0-0.2c0.1,0,0.1,0,0.1,0.1C-169.5-1963.1-169.4-1962.8-169.3-1962.5
			C-169.3-1962.6-169.3-1962.5-169.3-1962.5z"/>
		<path fill="#FBFCFB" d="M-166.7-1952.2c-2.7,0-5.1-2.2-5.1-5.1c0-2.8,2.3-5.1,5.1-5.1c2.8,0,5,2.4,5,5.1
			C-161.6-1954.5-164-1952.2-166.7-1952.2z"/>
		<path fill="#E6F2F3" d="M-172.5-1956.2c0,0.1-0.1,0.2-0.2,0.2c-0.1,0-0.2-0.1-0.2-0.2c0-0.1,0.1-0.1,0.3-0.1
			C-172.5-1956.3-172.5-1956.3-172.5-1956.2z"/>
		<path fill="#F6F9F9" d="M-166.3-1951.2c0,0,0-0.1,0-0.2c0-0.1,0.1-0.2,0.2-0.2c0.1,0,0.1,0,0.2,0.1c0.1,0.2,0.1,0.4,0.1,0.6
			c0,0.1-0.1,0.2-0.2,0.2c-0.1,0-0.1-0.1-0.2-0.2C-166.3-1950.9-166.3-1951-166.3-1951.2z"/>
		<path fill="#F8FBFA" d="M-166.3-1963.2c0-0.2,0-0.4,0-0.6c0-0.1,0-0.1,0.1-0.2c0.1,0,0.2,0,0.2,0.1c0.1,0.1,0.1,0.6,0,0.7
			C-166.1-1963.2-166.1-1963.2-166.3-1963.2z"/>
		<path fill="#F5F9F9" d="M-164.7-1963c0-0.2,0.1-0.4,0.2-0.5c0-0.1,0.1-0.1,0.2-0.1c0.1,0,0.1,0.1,0.1,0.2c0,0.2-0.1,0.4-0.2,0.5
			c-0.1,0.1-0.1,0.1-0.2,0.1C-164.7-1962.8-164.7-1962.9-164.7-1963z"/>
		<path fill="#E2EDF1" d="M-160.3-1956.7c-0.1,0-0.3-0.1-0.4-0.1c0.1,0,0.2-0.1,0.2-0.1C-160.3-1957-160.3-1957-160.3-1956.7z"/>
		<path fill="#D8E9EC" d="M-172.2-1955.2c-0.1,0.1-0.2,0.2-0.3,0.3c-0.1-0.1-0.1-0.1-0.1-0.2
			C-172.5-1955.1-172.4-1955.2-172.2-1955.2z"/>
		<path fill="#D9E9EF" d="M-171.9-1960.3c-0.1,0-0.2-0.1-0.4-0.1c0-0.1,0.1-0.2,0.1-0.3C-172-1960.5-171.9-1960.4-171.9-1960.3
			C-171.9-1960.3-171.9-1960.3-171.9-1960.3z"/>
		<path fill="#D4E7EB" d="M-170.7-1952.9c0,0.1-0.1,0.2-0.1,0.3c-0.1,0.1-0.1,0.1-0.2,0c0,0,0-0.1,0-0.1
			C-170.9-1952.8-170.9-1952.9-170.7-1952.9z"/>
		<path fill="#1DADA5" d="M-162.6-1959.4c0.2,0.4,0.4,0.9,0.5,1.3c0.1,0.6,0.1,1.3-0.1,1.9c-0.2,0.6-0.4,1.2-0.8,1.7
			c-0.8,1-1.8,1.6-3,1.7c-0.5,0.1-1.1,0.1-1.6-0.1c-0.3-0.1-0.6-0.2-0.9-0.3c0.2-0.2,0.4-0.2,0.7-0.2c0.2,0,0.4-0.1,0.6-0.1
			c0.7,0,1.2-0.3,1.8-0.6c0.2-0.1,0.4-0.3,0.6-0.4c0.1-0.1,0.2,0,0.4,0c0.1,0,0.2,0,0.3-0.1c0.1-0.2,0-0.4,0-0.6
			c0-0.2,0.1-0.3,0.2-0.4c0.3-0.2,0.4-0.4,0.6-0.7c0.3-0.7,0.6-1.4,0.7-2.1c0-0.2,0-0.5,0-0.7
			C-162.7-1959.3-162.8-1959.4-162.6-1959.4z"/>
		<path fill="#1DADA5" d="M-162.6-1959.4c-0.1,0.1-0.1,0.2,0,0.3c0,0,0.1,0.1,0.1,0.1c-0.1,0.1-0.1,0.3,0,0.4c0,0.1,0,0.1,0,0.2
			c-0.1,0.3-0.2,0.6-0.2,0.9c0,0.2-0.1,0.4-0.2,0.6c0,0.1-0.1,0.2-0.1,0.3c-0.1,0.3-0.3,0.6-0.4,0.8c-0.1,0.2-0.3,0.3-0.4,0.4
			c-0.1,0.1-0.1,0.1-0.1,0.2c0,0.2,0,0.4,0,0.5c0,0,0,0.1,0,0.1c-0.1-0.1-0.1-0.2-0.1-0.3c0.1-0.6-0.2-1-0.6-1.4c0,0.5,0,0.9,0,1.4
			c0,0.1,0,0.3-0.1,0.4c-0.1,0-0.1,0-0.1,0c0-0.1-0.1-0.1-0.1-0.2c0-0.6,0-1.3,0-1.9c0.5-0.4,0.7-1,0.9-1.6c0-0.1-0.1-0.2-0.1-0.3
			c0.1-0.3,0.1-0.7,0.1-1.1c0-0.1,0-0.3-0.1-0.4c0-0.4-0.2-0.8-0.4-1.1c0-0.1-0.1-0.2,0.1-0.2c0.2,0.1,0.5,0.3,0.7,0.5
			C-163.3-1960.5-162.9-1960.1-162.6-1959.4z"/>
		<path fill="#1DADA5" d="M-169.9-1960.7c0.2-0.2,0.4-0.3,0.6-0.5c0.3-0.1,0.6,0,0.9-0.1c0.2,0,0.4,0,0.6,0.2
			c0.1,0.1,0.2,0.2,0.3,0.2c0.3,0.1,0.5,0.3,0.6,0.6c0.1,0.2,0.1,0.3,0.2,0.5c0.2,0.2,0.1,0.5-0.2,0.6c-0.2-0.2-0.3-0.5-0.6-0.7
			c0,0.5-0.1,1,0.1,1.5c0,0,0,0.1,0,0.1c-0.1,0.2-0.1,0.5-0.1,0.7c0,1,0,2,0,3.1c-0.2,0.1-0.2-0.1-0.2-0.2c0-0.3,0-0.6,0-1
			c0-0.2,0-0.4,0-0.6c0-0.5,0-1,0-1.5c0-0.1,0-0.3-0.1-0.4c-0.1-0.2,0-0.4-0.1-0.7c0-0.4,0-0.7,0-1.1c0-0.2-0.1-0.2-0.3-0.2
			c-0.2,0-0.3,0-0.3,0.2c0,0.6,0,1.3,0,1.9c0,0.2,0.1,0.3,0.2,0.4c0.1,0.1-0.1,0.2-0.1,0.2c-0.5,0.1-0.9,0.1-1.3-0.3
			c-0.3-0.2-0.5-0.5-0.7-0.8c-0.2-0.3-0.1-0.7-0.2-1.1C-170.6-1960-170.1-1960.2-169.9-1960.7z"/>
		<path fill="#1DADA5" d="M-167.6-1956.2c0,0.5,0,1,0,1.6c0,0.1,0,0.1,0,0.2c0,0.1,0.1,0,0.1,0c0-0.1,0.1-0.2,0.1-0.3
			c0.2-0.2,0.4-0.4,0.5-0.7c0-0.3,0-0.5,0-0.8c0-0.1,0-0.2,0.1-0.2c0.1,0,0.1,0.1,0.1,0.2c0,0.3,0,0.5,0,0.8
			c0.2,0.3,0.4,0.5,0.6,0.9c0-0.2,0-0.4,0-0.6c0-0.1,0-0.3,0.1-0.3c0.1,0,0.1,0.1,0.2,0.1c0.1,0.2,0,0.4,0,0.6
			c0,0.2,0.1,0.3,0.3,0.3c0.1,0,0.2,0,0.3,0c0,0,0.1,0,0.1,0c0,0,0.1,0,0.1,0.1c0,0.1-0.1,0.1-0.1,0.2c-0.1,0-0.1,0-0.2,0.1
			c-0.2,0.3-0.5,0.4-0.8,0.5c-0.1,0-0.1,0.1-0.2,0.1c-0.2,0.1-0.4,0.2-0.7,0.2c-0.2,0-0.4,0-0.5,0.1c-0.1,0-0.3,0-0.4,0
			c-0.1,0-0.3,0-0.4,0.1c-0.1,0.1-0.1,0-0.2,0c-0.1,0-0.1,0-0.1,0.1c-0.8-0.4-1.4-0.9-1.9-1.6c0.2-0.2,0.4-0.2,0.6,0
			c0.2,0.1,0.4,0.1,0.7,0.1c0.1,0.1,0.1,0.1,0.2,0.1c0.3,0,0.4,0,0.4-0.3c0-0.1,0-0.2,0.1-0.3c0,0,0.1,0,0.1,0
			c0.1,0.1,0.1,0.1,0.1,0.2c0,0.4,0.1,0.5,0.6,0.3c0.1-0.1,0.1-0.2,0.1-0.4c0-0.3,0-0.7,0-1C-167.7-1956-167.7-1956.2-167.6-1956.2z
			"/>
		<path fill="#1DADA5" d="M-167.6-1956.2c-0.1,0-0.1,0.1-0.1,0.2c0,0.5,0,1,0,1.4c0,0.1,0,0.1-0.1,0.2c-0.1-0.1-0.1-0.3-0.1-0.4
			c0-0.8,0-1.6,0-2.4c0-0.1,0-0.2,0-0.3c-0.4,0.4-0.6,0.8-0.6,1.4c0,0.2,0,0.5,0,0.7c0,0.1,0,0.2-0.1,0.3c0,0-0.1,0-0.1,0
			c-0.1-0.1-0.1-0.2-0.1-0.3c0-0.3,0-0.6,0-0.9c-0.1,0-0.1,0.1-0.2,0.1c-0.2,0.2-0.4,0.1-0.7,0.1c-0.8-0.2-1.3-0.8-1.8-1.3
			c0-0.6,0.1-1.1,0.3-1.6c0.2-0.6,0.6-1.1,1-1.5c0,0,0.1,0,0.1-0.1c-0.1,0.2-0.1,0.3-0.2,0.5c-0.1,0.1-0.2,0.2-0.2,0.2
			c-0.1,0.1-0.2,0.1,0,0.3c0.1,0.1,0,0.1,0,0.2c-0.1,0.1-0.1,0.2,0,0.3c0.1,0.1,0.1,0.2,0,0.4c0,0.1,0,0.3,0.1,0.4
			c0.2,0.3,0.5,0.7,0.8,0.9c0.1,0.1,0.3,0.2,0.5,0.2c0.3,0,0.5,0,0.7-0.1c0-0.3,0.2-0.5,0.5-0.6c0,0,0.1-0.1,0.1,0
			c0,0.1,0,0.2,0,0.3C-167.6-1957.3-167.6-1956.7-167.6-1956.2z"/>
		<path fill="#1DADA5" d="M-165.8-1955.5c-0.1,0,0-0.1-0.1-0.1c-0.1,0-0.1-0.1-0.1-0.2c0-0.7,0-1.4,0-2.2c0.1-0.1,0.1-0.1,0.3-0.1
			c0.1,0.1,0.2,0.2,0.3,0.3c0,0.1,0.1,0.1,0.2,0.1c0.1,0,0.1-0.1,0.1-0.2c0-0.1,0-0.2,0-0.2c0-0.6,0-1.1,0-1.7c0-0.3,0-0.3-0.3-0.3
			c-0.1,0-0.2,0-0.3,0c-0.2-0.1-0.2-0.4-0.3-0.6c-0.2-0.4-0.5-0.7-0.8-0.9c-0.1-0.1-0.2-0.1-0.3-0.3c0.3,0,0.6,0,1,0
			c0.4,0,0.8,0.1,1.1,0.2c0.2,0.1,0.3,0.1,0.5,0.2c0,0-0.1,0-0.1,0.1c0.1,0.1,0.1,0.2,0.2,0.3c0.1,0.1,0.2,0.3,0.2,0.4
			c0,0.1,0,0.3,0,0.4c-0.1,0.1-0.2,0.1-0.3,0.1c-0.1,0-0.2,0.1-0.2,0.2c0,0.5,0,1,0,1.5c0,0.1,0,0.1,0.1,0.1c0.1,0,0.2-0.1,0.2-0.2
			c0.1-0.1,0.1-0.2,0.2-0.3c0.2,0,0.2,0.1,0.2,0.2c-0.1,0.1-0.1,0.3-0.1,0.4c-0.1,0.2-0.1,0.5-0.3,0.6c-0.1,0.2-0.3,0.4-0.3,0.6
			c0,0,0,0-0.1,0.1c0,0-0.1,0-0.1,0c0,0,0-0.1-0.1-0.1c-0.2,0-0.2-0.1-0.3-0.2c-0.1-0.2-0.2-0.3-0.4-0.5c0,0.6,0,1.2,0,1.7
			C-165.7-1955.7-165.7-1955.6-165.8-1955.5z"/>
		<path fill="#1DADA5" d="M-167.2-1961.9c0.2,0.1,0.2,0.3,0.4,0.3c0,0,0,0,0.1,0.1c0.1,0.2,0.3,0.4,0.5,0.5c0,0,0.1,0.1,0.1,0.1
			c0.1,0.3,0.3,0.5,0.3,0.8c0.1,0.1,0.1,0.2,0.1,0.3c0,0.6,0,1.1,0,1.7c0,0.1,0,0.1,0,0.2c-0.1,0.1-0.1,0-0.2,0
			c-0.2-0.1-0.3-0.3-0.4-0.4c-0.1-0.1-0.1-0.2-0.3-0.3c0,0.4,0,0.8,0,1.1c0,0.6,0,1.2,0,1.8c0,0.1,0,0.3-0.1,0.4
			c-0.1,0-0.1-0.1-0.1-0.2c0-0.3,0-0.6,0-0.8c0,0,0,0-0.1,0c0,0.2,0,0.5,0,0.7c0,0.1,0.1,0.2,0,0.3c-0.1-0.1-0.1-0.3-0.1-0.4
			c0-1,0-1.9,0-2.9c-0.2,0.1-0.2,0.4-0.5,0.4c0,0,0-0.1-0.1-0.1c0.1-0.3,0.3-0.6,0.6-0.8c0.1,0,0.2-0.1,0.2-0.2c0-0.1,0-0.1,0-0.1
			c0.1-0.1,0.1-0.1,0-0.2c-0.1-0.1-0.2-0.2-0.2-0.3c0-0.2-0.1-0.3-0.2-0.5c0-0.1-0.2-0.2-0.4-0.3c-0.2-0.1-0.4-0.1-0.6-0.3
			c-0.1-0.2-0.3-0.1-0.5-0.1c-0.2,0-0.3,0.1-0.4,0c-0.1,0-0.1,0-0.2,0c-0.1,0-0.2,0.1-0.2,0
			C-168.7-1961.6-167.9-1961.8-167.2-1961.9z"/>
		<path fill="#1DADA5" d="M-171.3-1957.4c0,0,0.1,0,0.1,0c0.1,0.3,0.5,0.4,0.6,0.6c0.3,0.2,0.5,0.5,0.9,0.5c0.1,0,0.2,0.1,0.3,0.1
			c0.1,0.1,0.2,0.1,0.3,0c0,0,0.1-0.1,0.2,0c0,0.1,0,0.1,0,0.2c-0.3,0.3-0.3,0.8-0.3,1.2c0,0.1,0,0.2-0.1,0.3
			c-0.2,0.1-0.3,0.1-0.5,0c-0.1-0.1-0.3-0.1-0.5-0.2c0,0-0.1,0.1,0,0.1c0,0,0,0.1,0,0.1c0,0-0.1,0-0.1,0c0,0-0.1-0.1-0.1,0
			c-0.4-0.5-0.6-1.1-0.7-1.7C-171.3-1956.8-171.3-1957.1-171.3-1957.4z"/>
		<path fill="#FBFCFD" d="M-164.9-1954.4L-164.9-1954.4L-164.9-1954.4c-0.1-0.1-0.1-0.1-0.1-0.2c0-0.6,0-1.3,0-1.9
			c0.1,0,0.1,0.1,0.2,0.2c0.1,0.2,0.2,0.4,0.4,0.5c0.2,0.2,0.2,0.4,0.2,0.6c0,0.2,0,0.4,0,0.7c0,0.1,0,0.2-0.2,0.2
			C-164.5-1954.4-164.7-1954.4-164.9-1954.4z"/>
		<path fill="#FDFDFD" d="M-165.8-1955.5c0-0.8,0-1.5,0-2.3c0.1,0,0.1,0.1,0.2,0.1c0.2,0.3,0.4,0.5,0.6,0.8c0,0.6,0,1.3,0,1.9
			c0,0.1,0,0.2,0,0.3c0,0.1,0,0.1,0,0.2c-0.1,0-0.3,0-0.4,0c-0.4,0-0.3,0-0.3-0.3C-165.8-1955-165.8-1955.2-165.8-1955.5z"/>
		<path fill="#F9FCFC" d="M-164.6-1958.2c-0.1,0.1-0.1,0.2-0.2,0.2c-0.1,0,0-0.1,0-0.1c0-0.6,0-1.3,0-1.9c0-0.2,0-0.2,0.2-0.2
			c0.2,0,0.3,0,0.5,0c0.1,0,0.2,0,0.2,0.2c0,0.3,0,0.7,0,1c0,0.1-0.1,0.2-0.2,0.3c-0.1,0.1-0.2,0.2-0.2,0.3
			C-164.5-1958.3-164.6-1958.2-164.6-1958.2z"/>
		<path fill="#1DADA5" d="M-165-1954.4c0-0.1,0-0.1,0-0.2c0,0,0.1,0,0.1,0c0,0.1,0,0.1,0,0.2C-164.9-1954.4-165-1954.4-165-1954.4z"
			/>
		<path fill="#FEFEFE" d="M-167.4-1958.3c0.2-0.1,0.2-0.3,0.3-0.4c0.1-0.1,0.1-0.2,0.2-0.3c0,1.2,0,2.4,0,3.5
			c-0.2,0.3-0.5,0.6-0.7,0.9c-0.1,0-0.1-0.1-0.1-0.1c0-1.1,0-2.2,0-3.3C-167.5-1958.1-167.4-1958.2-167.4-1958.3z"/>
		<path fill="#FBFCFB" d="M-167.7-1958.1c-0.2,0.2-0.3,0.4-0.5,0.6c-0.2,0-0.3-0.2-0.3-0.4c0-0.7,0-1.5,0-2.2c0-0.1,0-0.1,0.1-0.1
			c0,0,0,0,0,0c0.2,0,0.4-0.1,0.6,0c0.1,0.1,0,0.4,0,0.5C-167.7-1959.1-167.7-1958.6-167.7-1958.1z"/>
		<path fill="#F9FBFC" d="M-168.5-1957.9c-0.3-0.3-0.5-0.6-0.7-0.9c-0.1-0.1-0.1-0.1-0.1-0.2c0-0.3,0-0.7,0-1c0-0.1,0.1-0.2,0.2-0.2
			c0.1,0,0.3,0,0.4,0c0.1,0,0.2,0,0.2,0.1C-168.5-1959.3-168.5-1958.6-168.5-1957.9z"/>
		<path fill="#F9FBFA" d="M-166.9-1959.2c-0.2,0.3-0.4,0.5-0.6,0.8c0,0-0.1,0-0.1-0.1c0-0.5,0-1.1,0-1.6
			C-167.3-1959.7-167-1959.5-166.9-1959.2z"/>
		<path fill="#0298D2" d="M-167.6-1960c0,0.1,0,0.2,0,0.3C-167.6-1959.8-167.6-1959.9-167.6-1960z"/>
		<path fill="#FDFDFD" d="M-166.6-1955.4c0-1.2,0-2.4,0-3.6c0,0,0,0,0,0c0.2,0.3,0.5,0.7,0.7,1c0,0.8,0,1.6,0,2.4c0,0.4,0,0.7,0,1.1
			c0,0,0,0-0.1,0C-166.2-1954.8-166.4-1955.1-166.6-1955.4z"/>
		<path fill="#FBFDFB" d="M-168.4-1955.1c0-0.5,0-1,0-1.4c0-0.2,0-0.3,0.1-0.4c0.2-0.3,0.4-0.5,0.6-0.8c0.1,0,0,0.1,0,0.1
			c0,1,0,2.1,0,3.1c0,0,0,0.1,0,0.1c-0.2,0-0.4,0-0.5,0c-0.2,0-0.2,0-0.2-0.2C-168.4-1954.8-168.4-1955-168.4-1955.1z"/>
		<path fill="#F9FBFB" d="M-169.3-1954.6c0-0.2,0-0.5,0-0.7c0-0.2,0-0.4,0.2-0.5c0.1-0.1,0.2-0.3,0.3-0.4c0.1-0.1,0.2-0.3,0.3-0.4
			c0,0.5,0,1,0,1.5c0,0.2,0,0.4,0,0.6c0,0.1,0,0.1-0.1,0.1c-0.2,0-0.3,0-0.5,0C-169.3-1954.4-169.3-1954.5-169.3-1954.6z"/>
		<path fill="#FDFDFD" d="M-165.7-1958c0-0.1,0-0.2,0-0.2c0-0.6,0-1.2,0-1.9c0.2,0,0.4,0,0.6,0c0.2,0,0.2,0,0.2,0.2c0,0.5,0,1,0,1.5
			c0,0.2,0,0.3,0,0.5c0,0.3,0,0.3-0.2,0.5C-165.4-1957.6-165.6-1957.8-165.7-1958z"/>
		<path fill="#F4F9F9" d="M-165.9-1960.1c0,0.6,0,1.2,0,1.8c-0.2-0.2-0.3-0.4-0.4-0.5c-0.1-0.1-0.2-0.2-0.2-0.3
			c0-0.1,0.2-0.2,0.2-0.4C-166.2-1959.7-166.1-1959.9-165.9-1960.1z"/>
	</g>
</g>
<g id="JvXlQn_1_">
	<g>
		<path fill="#1DADA5" d="M-200.1-1967.5c0.1-0.6,0.5-1.1,1.1-1.3c0.1,0,0.1-0.1,0.2-0.1c0,0,0,0,0,0c0.1,0,0.2,0.1,0.3,0.1
			c0.1,0.1,0.1,0.1,0.2,0.2c0.1,0.1,0.1,0.1,0.1,0.2c0,0,0,0.1,0.1,0.1c0,0,0,0,0,0c0,0.1,0,0.2,0,0.4c0,0.1,0,0.2,0,0.3
			c0,0,0,0.1,0,0.1c0,0.2,0,0.4,0,0.6c0,0,0,0,0,0.1c0,0,0,0,0,0c0-0.1,0-0.2,0-0.2c0,0.1,0,0.2,0,0.3c0,0,0,0.1,0,0.1
			c0,0,0-0.1,0-0.1c0-0.2,0-0.4,0-0.6c0-0.1,0-0.1-0.1-0.2c0-0.1-0.1-0.1-0.1-0.2c0,0,0,0,0-0.1c0,0.4,0,0.8,0,1.1c0,0,0,0.1,0,0.1
			c0,0-0.1,0-0.1,0c0,0,0-0.1,0-0.1c0-0.4,0-0.8,0-1.2c0,0,0,0.1,0,0.1c0,0,0,0.1-0.1,0.1c-0.1,0.1-0.1,0.2-0.1,0.4
			c0,0.2,0,0.4,0,0.6c0,0,0,0.1,0,0.1c0,0,0,0,0,0c0,0,0-0.1,0-0.1c0,0,0,0.1,0,0.1c0,0,0,0,0,0c0,0,0-0.1,0-0.1c0-0.2,0-0.5,0-0.7
			c0,0,0,0,0-0.1c-0.1,0.1-0.2,0.2-0.2,0.3c0,0.1,0,0.1,0,0.2c0,0,0,0.1,0,0.1c0,0,0,0,0-0.1c0,0,0-0.1,0-0.1c0,0-0.1,0.1-0.1,0.1
			c-0.1,0-0.2,0-0.3-0.1c-0.2-0.1-0.3-0.2-0.4-0.3C-200-1967.3-200-1967.4-200.1-1967.5C-200.1-1967.5-200.1-1967.5-200.1-1967.5z"
			/>
		<path fill="#1DADA5" d="M-197.7-1968.8c0.2,0.1,0.4,0.2,0.5,0.4c0.2,0.2,0.3,0.4,0.4,0.7c0,0,0,0,0,0.1c0,0,0,0.1,0,0.1
			c0,0.2-0.1,0.3-0.1,0.5c-0.1,0.2-0.2,0.4-0.3,0.5c-0.1,0.1-0.1,0.2-0.2,0.2c0,0,0,0,0,0.1c0,0,0,0,0,0c0-0.1,0-0.1,0-0.2
			c0-0.2,0-0.3-0.1-0.4c0,0-0.1-0.1-0.1-0.2c0-0.1,0.1-0.2,0.2-0.3c0.1-0.2,0.1-0.3,0.1-0.5c0-0.1,0-0.1,0-0.2c0,0,0-0.1,0-0.1
			c0,0,0-0.1,0-0.1c0-0.2-0.1-0.3-0.2-0.4C-197.7-1968.7-197.7-1968.8-197.7-1968.8C-197.7-1968.8-197.7-1968.8-197.7-1968.8z"/>
		<path fill="#1DADA5" d="M-198.5-1966.6C-198.4-1966.6-198.5-1966.6-198.5-1966.6C-198.4-1966.6-198.4-1966.6-198.5-1966.6
			c0.1,0,0.1,0.1,0.2,0.1c0,0.1,0.1,0.1,0.1,0.2c0,0,0,0,0,0c0-0.1,0-0.1,0-0.2c0.1,0,0,0.1,0,0.1c0,0.1,0,0.1,0,0.2
			c0.1,0,0.1,0,0.2,0c0,0,0-0.1,0-0.1c0-0.2,0-0.3,0-0.5c0,0,0-0.1,0-0.1c0,0,0,0.1,0,0.1c0,0.2,0,0.3,0,0.5c0,0,0,0.1,0,0.1
			c0,0,0.1,0,0.1,0c0,0,0,0,0.1,0c0,0,0,0.1,0,0.1c-0.1,0.1-0.3,0.2-0.5,0.3c-0.2,0.1-0.5,0.2-0.8,0.2c0,0-0.1,0-0.1,0
			c-0.4-0.1-0.7-0.3-0.9-0.6c0,0,0,0,0,0l0,0c0,0,0,0,0,0c0,0,0,0,0,0c0,0,0,0,0,0l0,0c0,0,0,0,0,0c0,0,0,0,0,0c0,0,0,0,0,0
			c0,0,0,0,0,0c0,0,0,0,0,0c0,0,0,0,0,0c0,0,0.1,0,0.1,0c0.1,0.1,0.2,0.1,0.4,0.1c0,0,0.1,0,0.1,0c0.1,0,0.1,0,0.2,0
			c0-0.1,0-0.2,0-0.3c0,0,0.1,0,0.1,0c0,0,0,0.1,0,0.1c0,0,0,0.1,0,0.1c0.1,0,0.1,0,0.2,0c0,0,0.1,0,0.1,0
			C-198.7-1966.3-198.6-1966.4-198.5-1966.6C-198.5-1966.5-198.5-1966.6-198.5-1966.6z"/>
		<path fill="#1DADA5" d="M-198.9-1965.6C-198.9-1965.6-198.9-1965.6-198.9-1965.6c0.1-0.1,0.1-0.1,0.2-0.1c0.1,0,0.2,0,0.4-0.1
			c0.2,0,0.3-0.1,0.5-0.2c0.1-0.1,0.2-0.1,0.3-0.2c0,0,0,0,0,0c0,0,0.1,0,0.1,0c0,0,0,0,0-0.1c0.2-0.1,0.3-0.3,0.4-0.5
			c0.1-0.1,0.1-0.2,0.1-0.3c0,0,0-0.1,0-0.2c0-0.1,0.1-0.3,0.1-0.4c0,0,0-0.1,0-0.1l0,0c0,0,0,0,0,0c0,0,0,0,0,0c0,0,0,0,0,0
			c0,0,0,0,0,0c0,0,0,0,0,0c0,0,0,0,0,0c0,0,0,0,0,0.1c0,0,0,0.1,0,0.1c0,0.1,0,0.2,0,0.2c0,0.4-0.1,0.7-0.4,0.9
			c-0.4,0.5-0.9,0.7-1.5,0.7c0,0,0,0-0.1,0c0,0,0,0-0.1,0c0,0,0,0,0,0c0,0,0,0,0,0c0,0,0,0,0,0
			C-198.8-1965.6-198.8-1965.6-198.9-1965.6C-198.9-1965.6-198.9-1965.6-198.9-1965.6C-198.9-1965.6-198.9-1965.6-198.9-1965.6
			C-198.9-1965.6-198.9-1965.6-198.9-1965.6C-198.9-1965.6-198.9-1965.6-198.9-1965.6z"/>
		<path fill="#1DADA5" d="M-197.8-1966.2C-197.8-1966.2-197.8-1966.3-197.8-1966.2c0-0.3,0-0.4,0-0.6c0,0,0,0,0-0.1c0,0,0,0.1,0,0.1
			C-197.8-1966.6-197.8-1966.5-197.8-1966.2C-197.8-1966.2-197.8-1966.2-197.8-1966.2C-197.9-1966.2-197.9-1966.3-197.8-1966.2
			c-0.1-0.3-0.1-0.5-0.1-0.7c0-0.1,0-0.2-0.1-0.2c0,0,0-0.1-0.1-0.1c0,0,0,0,0,0c0,0,0,0,0,0c0,0,0,0,0,0c0,0,0,0,0,0c0,0,0,0,0,0
			c0,0,0,0,0,0c0,0-0.1-0.1,0-0.1c0,0,0,0,0,0c0,0,0,0,0,0c0,0,0,0,0,0c0,0,0,0,0,0c0,0,0,0,0,0c0,0,0,0,0,0c0,0,0,0,0,0
			c0,0,0,0,0,0c0,0,0,0,0,0c0,0,0,0,0,0c0,0,0,0,0,0c0,0,0,0,0,0c0,0,0-0.1,0-0.1c0-0.2,0-0.5,0-0.7c0,0,0,0,0-0.1
			c-0.1,0-0.2,0-0.2,0c0,0,0,0-0.1,0c-0.1-0.2-0.2-0.3-0.3-0.4c0,0-0.1,0-0.1-0.1c0,0-0.1,0-0.1,0c0,0-0.1,0-0.1,0c0,0,0,0,0-0.1
			c0,0,0,0,0,0c0,0,0,0,0,0c0,0,0,0,0,0c0,0,0,0,0,0c0,0,0,0,0.1,0c0,0,0,0,0,0c0,0,0.1,0,0.1,0c0,0,0,0,0,0c0,0,0,0,0,0
			c0,0,0,0,0,0c0.3,0,0.6,0,0.8,0.2c0,0,0,0,0,0.1c0.1,0.1,0.1,0.3,0.2,0.4c0,0,0,0,0,0.1c0,0-0.1,0-0.1,0c0,0-0.1,0-0.1,0
			c0,0.2,0,0.5,0,0.7c0.1-0.1,0.1-0.2,0.2-0.2c0,0,0.1-0.1,0.1-0.2c0-0.1,0-0.1,0-0.2c0,0,0,0.1,0,0.1c0,0.1,0,0.3,0,0.4
			c0,0.1,0,0.2-0.1,0.3c-0.1,0.1-0.1,0.2-0.2,0.3C-197.7-1966.8-197.8-1966.5-197.8-1966.2C-197.8-1966.3-197.8-1966.2-197.8-1966.2
			z"/>
		<path fill="#1DADA5" d="M-192.6-1966.6c-0.1,0-0.2,0-0.2,0c-0.1-0.2-0.3-0.5-0.4-0.7c-0.1,0.2-0.3,0.5-0.4,0.7c-0.1,0-0.1,0-0.2,0
			c0.2-0.3,0.4-0.6,0.5-0.9c-0.2-0.3-0.3-0.5-0.5-0.8c0.1,0,0.2,0,0.2,0c0.1,0.2,0.2,0.4,0.4,0.6c0.1-0.2,0.2-0.4,0.4-0.6
			c0.1,0,0.1,0,0.2,0c-0.2,0.3-0.3,0.5-0.5,0.8C-192.9-1967.2-192.8-1966.9-192.6-1966.6z"/>
		<path fill="#1DADA5" d="M-195-1966.6c0-0.1,0-0.1,0-0.2c0.1,0,0.1,0.1,0.2,0.1c0.1,0,0.2,0.1,0.4,0c0.1,0,0.2-0.1,0.2-0.2
			c0-0.1,0-0.2-0.1-0.3c-0.1-0.1-0.2-0.1-0.3-0.2c-0.1,0-0.2-0.1-0.2-0.1c-0.2-0.1-0.2-0.3-0.2-0.5c0-0.2,0.1-0.3,0.3-0.3
			c0.1,0,0.3,0,0.4,0c0.1,0,0.1,0,0.2,0c0,0.1,0,0.1,0,0.2c-0.1,0-0.2-0.1-0.3-0.1c-0.1,0-0.1,0-0.2,0c-0.2,0.1-0.3,0.3-0.1,0.4
			c0.1,0.1,0.2,0.1,0.3,0.2c0.1,0.1,0.2,0.1,0.3,0.2c0.2,0.1,0.2,0.3,0.2,0.4c0,0.2-0.1,0.3-0.3,0.4c-0.2,0.1-0.3,0.1-0.5,0
			C-194.8-1966.5-194.9-1966.6-195-1966.6z"/>
		<path fill="#1DADA5" d="M-199.4-1966.2c0,0-0.1,0-0.1,0c-0.1,0-0.2-0.1-0.3-0.1c-0.1,0-0.1,0-0.2,0c-0.1-0.1-0.2-0.3-0.2-0.5
			c0-0.1,0-0.2,0-0.4c0,0,0-0.1,0-0.1c0,0,0-0.1,0-0.1c0,0,0,0,0,0c0,0,0,0,0,0c0,0,0,0,0,0c0,0,0,0,0,0.1c0,0.1,0.1,0.2,0.2,0.3
			c0.2,0.2,0.3,0.3,0.6,0.3c0,0,0,0,0,0c0,0,0,0,0,0c0,0,0,0,0,0c0,0,0,0,0,0c0,0,0,0,0,0c0,0.1-0.1,0.1-0.1,0.2
			C-199.3-1966.4-199.3-1966.4-199.4-1966.2C-199.4-1966.3-199.3-1966.2-199.4-1966.2z"/>
		<path fill="#0069A5" d="M-196.7-1967.1c0-0.1,0-0.2,0-0.2C-196.7-1967.3-196.7-1967.2-196.7-1967.1z"/>
		<path fill="#018ECE" d="M-200.2-1967.4c0,0,0,0.1,0,0.1C-200.2-1967.3-200.2-1967.3-200.2-1967.4z"/>
		<path fill="#0069A5" d="M-198.7-1965.5C-198.6-1965.5-198.6-1965.5-198.7-1965.5C-198.6-1965.5-198.6-1965.5-198.7-1965.5z"/>
		<path fill="#0069A5" d="M-196.7-1967.4C-196.7-1967.5-196.7-1967.5-196.7-1967.4C-196.7-1967.5-196.7-1967.5-196.7-1967.4z"/>
		<path fill="#018ECE" d="M-198.6-1969C-198.6-1969-198.6-1969-198.6-1969C-198.6-1969-198.6-1969-198.6-1969z"/>
		<path fill="#0069A5" d="M-198.7-1965.6C-198.7-1965.6-198.7-1965.6-198.7-1965.6C-198.7-1965.5-198.7-1965.5-198.7-1965.6z"/>
		<path fill="#018ECE" d="M-200.1-1967.5C-200.1-1967.5-200.1-1967.5-200.1-1967.5C-200.2-1967.5-200.2-1967.5-200.1-1967.5z"/>
		<path fill="#0069A5" d="M-196.7-1967.5C-196.7-1967.6-196.7-1967.6-196.7-1967.5C-196.7-1967.6-196.7-1967.6-196.7-1967.5z"/>
		<path fill="#0069A5" d="M-198.8-1965.6C-198.8-1965.6-198.8-1965.6-198.8-1965.6C-198.8-1965.6-198.8-1965.6-198.8-1965.6z"/>
		<path fill="#0069A5" d="M-198.9-1965.6C-198.9-1965.6-198.9-1965.6-198.9-1965.6C-198.9-1965.6-198.9-1965.6-198.9-1965.6z"/>
		<path fill="#018ECE" d="M-198.7-1969C-198.7-1969-198.7-1969-198.7-1969C-198.7-1969-198.7-1969-198.7-1969z"/>
		<path fill="#018ECE" d="M-198.8-1968.9C-198.8-1968.9-198.8-1968.9-198.8-1968.9C-198.8-1968.9-198.8-1969-198.8-1968.9z"/>
		<path fill="#0069A5" d="M-198.9-1965.6C-198.9-1965.6-198.9-1965.6-198.9-1965.6C-198.9-1965.6-198.9-1965.6-198.9-1965.6z"/>
		<path fill="#0179B7" d="M-199.9-1966.3C-199.8-1966.3-199.8-1966.2-199.9-1966.3C-199.8-1966.2-199.9-1966.2-199.9-1966.3z"/>
		<path fill="#0179B7" d="M-199.9-1966.3C-199.9-1966.3-199.9-1966.3-199.9-1966.3C-199.9-1966.3-199.9-1966.3-199.9-1966.3z"/>
		<path fill="#0179B7" d="M-199.9-1966.3C-199.9-1966.3-199.9-1966.3-199.9-1966.3C-199.9-1966.3-199.9-1966.3-199.9-1966.3z"/>
		<path fill="#0179B7" d="M-199.9-1966.3C-199.9-1966.3-199.9-1966.3-199.9-1966.3C-199.9-1966.3-199.9-1966.3-199.9-1966.3z"/>
		<path fill="#0179B7" d="M-199.9-1966.3C-199.9-1966.3-199.9-1966.3-199.9-1966.3C-199.9-1966.3-199.9-1966.3-199.9-1966.3z"/>
		<path fill="#0179B7" d="M-199.9-1966.4C-199.9-1966.4-199.9-1966.4-199.9-1966.4C-199.9-1966.4-199.9-1966.4-199.9-1966.4z"/>
		<path fill="#018ECE" d="M-198.5-1969C-198.5-1969-198.5-1969-198.5-1969C-198.5-1969-198.5-1969-198.5-1969z"/>
		<path fill="#018ECE" d="M-198.8-1968.9C-198.8-1968.9-198.8-1968.9-198.8-1968.9C-198.8-1968.9-198.8-1968.9-198.8-1968.9z"/>
		<path fill="#0069A5" d="M-196.8-1967.7C-196.8-1967.7-196.8-1967.7-196.8-1967.7C-196.8-1967.7-196.8-1967.7-196.8-1967.7z"/>
		<path fill="#0069A5" d="M-196.7-1967.6C-196.8-1967.6-196.8-1967.6-196.7-1967.6C-196.8-1967.6-196.8-1967.6-196.7-1967.6z"/>
		<path fill="#FEFEFE" d="M-198.5-1966.6c-0.1,0.1-0.2,0.2-0.3,0.4c0,0,0,0,0-0.1c0-0.1,0-0.2,0-0.3c0-0.3,0-0.6,0-0.9
			c0,0,0-0.1,0-0.1c0.1-0.1,0.1-0.2,0.2-0.3C-198.5-1967.4-198.5-1967-198.5-1966.6z"/>
		<path fill="#FEFEFE" d="M-198.2-1966.2c-0.1-0.1-0.2-0.2-0.3-0.4c0-0.4,0-0.8,0-1.2c0,0,0,0,0-0.1c0.1,0.1,0.2,0.2,0.2,0.3
			c0,0,0,0.1,0,0.1c0,0.3,0,0.5,0,0.8c0,0,0,0.1,0,0.1C-198.2-1966.4-198.1-1966.3-198.2-1966.2
			C-198.1-1966.2-198.1-1966.2-198.2-1966.2z"/>
		<path fill="#FEFEFE" d="M-198.8-1966.2c-0.1,0-0.1,0-0.2,0c0,0,0,0-0.1,0c0,0,0,0,0,0c0-0.2,0-0.3,0-0.5c0-0.1,0-0.2,0-0.3
			c0.1-0.1,0.2-0.2,0.3-0.4c0,0,0,0,0,0c0,0.3,0,0.6,0,0.9C-198.8-1966.4-198.8-1966.3-198.8-1966.2z"/>
		<path fill="#FEFEFE" d="M-198.1-1967.4C-198.1-1967.4-198.1-1967.4-198.1-1967.4C-198.1-1967.4-198.1-1967.4-198.1-1967.4
			C-198.1-1967.4-198-1967.4-198.1-1967.4C-198-1967.4-198-1967.4-198.1-1967.4c0.1,0.1,0.1,0.1,0.1,0.1c0,0,0,0,0,0
			c0,0.1,0.1,0.1,0.1,0.2c0,0,0,0,0,0.1c0,0.3,0,0.5,0,0.8c0,0,0,0,0,0c-0.1,0-0.1,0-0.2,0c0,0,0,0-0.1,0c0-0.2,0-0.3,0-0.5
			c0,0,0,0,0-0.1C-198.1-1967-198.1-1967.2-198.1-1967.4C-198.1-1967.4-198.1-1967.4-198.1-1967.4z"/>
		<path fill="#FEFEFE" d="M-199.1-1968.3c0.1,0,0.2,0,0.3,0c0,0.3,0,0.5,0,0.8c-0.1,0.1-0.1,0.2-0.2,0.2c0,0-0.1-0.1-0.1-0.1
			c0-0.2,0-0.4,0-0.6C-199.1-1968.1-199.1-1968.2-199.1-1968.3z"/>
		<path fill="#FEFEFE" d="M-197.9-1967.3C-197.9-1967.3-198-1967.3-197.9-1967.3C-198-1967.3-198-1967.3-197.9-1967.3
			C-198-1967.4-198-1967.4-197.9-1967.3C-198-1967.4-198-1967.4-197.9-1967.3c-0.1-0.1-0.1-0.1-0.1-0.1c0,0,0,0,0,0c0,0,0,0,0,0
			c0,0,0,0,0,0l0,0c0,0,0,0,0,0c0,0,0,0,0,0c0-0.2,0-0.4,0-0.7c0,0,0-0.1,0-0.1c0.1,0,0.2,0,0.2,0c0,0,0,0.1,0,0.1
			c0,0.2,0,0.5,0,0.7C-197.8-1967.4-197.9-1967.3-197.9-1967.3C-197.9-1967.3-197.9-1967.3-197.9-1967.3z"/>
		<path fill="#FEFEFE" d="M-199.1-1967.7c0,0.1,0,0.2,0,0.3c0,0,0,0,0,0c-0.1-0.1-0.2-0.2-0.3-0.3c0-0.2,0-0.3,0-0.5
			c0.1,0,0.2,0,0.3,0c0,0,0,0.1,0,0.1c0,0,0,0,0,0.1C-199.1-1968-199.1-1967.9-199.1-1967.7
			C-199.1-1967.8-199.1-1967.7-199.1-1967.7z"/>
		<path fill="#FEFEFE" d="M-199.4-1966.2c0-0.1,0-0.3,0-0.4c0,0,0-0.1,0.1-0.1c0,0,0,0,0,0c0,0,0,0,0,0c0,0,0,0,0,0c0,0,0,0,0,0
			c0,0,0.1-0.1,0.1-0.1c0,0,0,0,0,0c0,0.1,0,0.1,0,0.2c0,0.1,0,0.2,0,0.3c0,0.1,0,0.2,0,0.3
			C-199.2-1966.2-199.3-1966.2-199.4-1966.2z"/>
		<path fill="#FDFDFE" d="M-198.2-1967.6c-0.1-0.1-0.2-0.2-0.2-0.3c0.1-0.1,0.2-0.2,0.2-0.3C-198.2-1968-198.2-1967.8-198.2-1967.6z
			"/>
		<path fill="#FDFDFD" d="M-198.7-1968.2c0.1,0.1,0.2,0.2,0.2,0.3c-0.1,0.1-0.2,0.2-0.2,0.3C-198.7-1967.8-198.7-1968-198.7-1968.2
			C-198.7-1968.2-198.7-1968.2-198.7-1968.2z"/>
		<path fill="#1DADA5" d="M-198.1-1966.8c0,0.2,0,0.4,0,0.5c0,0,0-0.1,0-0.1c0,0,0-0.1,0-0.1c0,0,0,0,0,0c0,0.1,0,0.1,0,0.2
			c0,0,0,0,0,0.1C-198.2-1966.4-198.2-1966.5-198.1-1966.8C-198.1-1966.7-198.1-1966.7-198.1-1966.8c0-0.1,0-0.2,0-0.3
			c0,0,0,0,0-0.1c0,0.1,0,0.1,0,0.2C-198.1-1966.9-198.1-1966.8-198.1-1966.8z"/>
		<path fill="#1DADA5" d="M-199.1-1967.7c0-0.1,0-0.3,0-0.4c0,0,0,0,0,0c0,0,0-0.1,0-0.1c0,0.2,0,0.5,0,0.7c0,0.1,0,0.1,0,0.2
			c0-0.1,0-0.1,0-0.2C-199.1-1967.6-199.1-1967.7-199.1-1967.7C-199.1-1967.7-199.1-1967.7-199.1-1967.7z"/>
		<path fill="#1DADA5" d="M-199.1-1966.5c0-0.1,0-0.2,0-0.3c0,0,0,0,0,0c0-0.1,0-0.2,0-0.3c0,0.3,0,0.5,0,0.8c0,0,0,0.1,0,0.1
			c0,0,0,0,0-0.1C-199.1-1966.3-199.1-1966.4-199.1-1966.5C-199.1-1966.5-199.1-1966.5-199.1-1966.5z"/>
		<path fill="#1DADA5" d="M-198.8-1966.2c0-0.1,0-0.2,0-0.3c0,0,0-0.1,0-0.1c0,0,0-0.1,0-0.1c0,0.1,0,0.1,0,0.2
			C-198.7-1966.4-198.7-1966.3-198.8-1966.2C-198.8-1966.2-198.8-1966.2-198.8-1966.2z"/>
		<path fill="#FEFEFE" d="M-197.5-1968.1c0,0.1,0,0.2,0,0.3c-0.1,0.1-0.2,0.2-0.3,0.4c0-0.3,0-0.5,0-0.8c0.1,0,0.2,0,0.3,0
			C-197.5-1968.2-197.5-1968.2-197.5-1968.1z"/>
		<path fill="#FEFEFE" d="M-197.8-1966.2c0-0.2,0-0.5,0-0.7c0,0,0-0.1,0-0.1c0.1,0.1,0.1,0.2,0.2,0.3c0,0,0,0.1,0,0.1
			c0,0.1,0,0.2,0,0.4c0,0-0.1,0-0.1,0C-197.7-1966.2-197.7-1966.2-197.8-1966.2z"/>
		<path fill="#018ECE" d="M-198-1967.4C-198-1967.4-198-1967.4-198-1967.4C-198-1967.4-198-1967.4-198-1967.4z"/>
		<path fill="#018ECE" d="M-198.1-1967.5C-198.1-1967.5-198.1-1967.5-198.1-1967.5C-198.1-1967.5-198.1-1967.5-198.1-1967.5z"/>
		<path fill="#018ECE" d="M-198.1-1967.4C-198.1-1967.4-198.1-1967.4-198.1-1967.4C-198.1-1967.4-198.1-1967.4-198.1-1967.4z"/>
		<path fill="#018ECE" d="M-198-1967.4C-198-1967.4-198-1967.4-198-1967.4C-198-1967.4-198-1967.4-198-1967.4z"/>
		<path fill="#018ECE" d="M-198.1-1967.5C-198.1-1967.5-198.1-1967.5-198.1-1967.5C-198.1-1967.5-198.1-1967.5-198.1-1967.5z"/>
		<path fill="#018ECE" d="M-198-1967.4C-198-1967.4-198-1967.4-198-1967.4C-198-1967.4-198-1967.4-198-1967.4z"/>
		<path fill="#018ECE" d="M-198-1967.4C-198-1967.3-198-1967.3-198-1967.4C-198-1967.3-198-1967.3-198-1967.4z"/>
		<path fill="#018ECE" d="M-197.9-1967.3C-197.9-1967.3-197.9-1967.3-197.9-1967.3C-197.9-1967.3-197.9-1967.3-197.9-1967.3z"/>
		<path fill="#018ECE" d="M-198-1967.3C-198-1967.3-198-1967.3-198-1967.3C-198-1967.3-198-1967.3-198-1967.3z"/>
		<path fill="#1DADA5" d="M-195.7-1968.4c-0.1,0-0.2,0-0.2,0c-0.2,0.7-0.4,1.2-0.6,1.8c0.1,0,0.1,0,0.2,0c0.1-0.2,0.1-0.3,0.2-0.6
			c0.2,0,0.4,0,0.6,0c0.1,0.2,0.1,0.5,0.2,0.7c0.1,0,0.1,0,0.2,0C-195.3-1967.2-195.5-1967.7-195.7-1968.4z M-196.1-1967.4
			c0.1,0,0.2-0.4,0.2-0.7c0,0,0,0,0,0c0.1,0.3,0.2,0.7,0.2,0.7C-195.8-1967.4-195.9-1967.4-196.1-1967.4z"/>
		<path fill="#018ECE" d="M-199.3-1966.8C-199.3-1966.8-199.3-1966.7-199.3-1966.8C-199.3-1966.7-199.3-1966.8-199.3-1966.8z"/>
		<path fill="#018ECE" d="M-199.3-1966.8C-199.3-1966.8-199.3-1966.8-199.3-1966.8C-199.3-1966.8-199.3-1966.8-199.3-1966.8z"/>
	</g>
</g>
<g id="XFOvHq.tif">
	<g>
		<circle fill="#1DADA5" cx="-168.8" cy="-1924.2" r="5.4"/>
		<path fill="#1DADA5" d="M-168.8-1920.2C-168.8-1920.3-168.8-1920.3-168.8-1920.2c0.5,0,0.9,0,1.4-0.1c0.4,0,0.7,0,1.1-0.1
			c0.5-0.1,0.6-0.1,0.7-0.7c0.1-0.6,0.1-1.3,0.1-1.9c0-0.3-0.1-0.6-0.1-0.9c0-0.3-0.2-0.5-0.5-0.5c-0.3,0-0.5-0.1-0.8-0.1
			c-1.2-0.1-2.4-0.1-3.6,0c-0.3,0-0.5,0.1-0.8,0.1c-0.3,0-0.5,0.2-0.5,0.5c0,0.2-0.1,0.4-0.1,0.7c-0.1,0.8-0.1,1.6,0.1,2.3
			c0.1,0.3,0.2,0.5,0.6,0.6c0.1,0,0.1,0,0.2,0C-170.4-1920.4-169.6-1920.3-168.8-1920.2z M-170.1-1925.5c0-0.1,0-0.2,0-0.3
			c-0.1-0.7,0.1-1.3,0.3-1.9c0.1-0.2,0.2-0.5,0.2-0.7c-0.2,0-0.3,0-0.5,0c-0.1,0.4-0.2,0.7-0.3,1.1c0,0,0,0,0,0
			c-0.1-0.4-0.2-0.7-0.3-1.1c-0.2,0-0.3,0-0.5,0c0.2,0.5,0.3,1,0.5,1.4c0.1,0.2,0.1,0.4,0.1,0.7c0,0.3,0,0.5,0,0.8
			C-170.4-1925.5-170.3-1925.5-170.1-1925.5z M-169.5-1926.6C-169.5-1926.6-169.5-1926.6-169.5-1926.6c0,0.2,0,0.4,0,0.6
			c0,0.3,0.2,0.5,0.5,0.5c0.4,0.1,0.8-0.1,0.8-0.6c0-0.3,0-0.7,0-1c0-0.5-0.4-0.7-0.8-0.6c-0.3,0.1-0.5,0.2-0.5,0.5
			C-169.5-1927-169.5-1926.8-169.5-1926.6z M-166.7-1927.6c-0.1,0-0.3,0-0.4,0c0,0.1,0,0.2,0,0.3c0,0.4,0,0.8,0,1.2
			c0,0.2-0.1,0.3-0.4,0.3c0-0.6,0-1.2,0-1.7c-0.2,0-0.3,0-0.4,0c0,0.6,0,1.2,0,1.8c0,0,0,0.1,0,0.1c0,0.2,0.1,0.2,0.3,0.2
			c0.2,0,0.3-0.1,0.4-0.2c0,0,0,0,0.1,0c0,0.1,0,0.1,0,0.2c0.1,0,0.3,0,0.4,0C-166.7-1926.2-166.7-1926.9-166.7-1927.6z"/>
		<path fill="#FEFDFD" d="M-168.8-1920.2c-0.8-0.1-1.6-0.1-2.3-0.2c-0.1,0-0.1,0-0.2,0c-0.3,0-0.5-0.3-0.6-0.6
			c-0.2-0.8-0.2-1.5-0.1-2.3c0-0.2,0.1-0.4,0.1-0.7c0.1-0.3,0.2-0.5,0.5-0.5c0.3,0,0.5-0.1,0.8-0.1c1.2-0.1,2.4-0.1,3.6,0
			c0.3,0,0.5,0.1,0.8,0.1c0.3,0,0.5,0.2,0.5,0.5c0,0.3,0.1,0.6,0.1,0.9c0,0.7,0,1.3-0.1,1.9c-0.1,0.6-0.2,0.6-0.7,0.7
			c-0.3,0.1-0.7,0.1-1.1,0.1C-167.9-1920.3-168.3-1920.3-168.8-1920.2C-168.8-1920.2-168.8-1920.3-168.8-1920.2z M-168.5-1923.8
			c0,0.9,0,1.7,0,2.6c0.2,0,0.3,0,0.5-0.1c0,0,0.1,0.1,0.2,0.1c0.2,0,0.4-0.1,0.4-0.3c0,0,0-0.1,0-0.1c0-0.3,0-0.7,0-1
			c0-0.5-0.2-0.6-0.6-0.4c0,0,0,0-0.1,0c0-0.2,0-0.5,0-0.7C-168.3-1923.8-168.4-1923.8-168.5-1923.8z M-166.1-1922.1
			c0-0.2,0-0.4,0-0.6c0-0.3-0.2-0.5-0.5-0.5c-0.3,0-0.6,0.1-0.6,0.4c0,0.4,0,0.8,0,1.2c0,0.2,0.2,0.3,0.4,0.4
			c0.4,0.1,0.7-0.2,0.7-0.7c-0.1,0-0.2,0-0.4,0c0,0.1,0,0.1,0,0.2c0,0.1,0,0.2-0.2,0.2c-0.1,0-0.1-0.1-0.2-0.2c0-0.1,0-0.3,0-0.4
			C-166.6-1922.1-166.4-1922.1-166.1-1922.1z M-170.5-1921.2c0-0.8,0-1.5,0-2.2c0.2,0,0.3,0,0.4,0c0-0.1,0-0.2,0-0.3
			c-0.4,0-0.9,0-1.3,0c0,0.1,0,0.2,0,0.4c0.1,0,0.3,0,0.4,0c0,0.3,0,0.5,0,0.8c0,0.2,0,0.5,0,0.7c0,0.2,0,0.5,0,0.7
			C-170.8-1921.2-170.7-1921.2-170.5-1921.2z M-169.2-1921.3c0,0.1,0,0.1,0.1,0.1c0.1,0,0.2,0,0.3,0c0-0.7,0-1.3,0-1.9
			c-0.1,0-0.2,0-0.4,0c0,0.1,0,0.2,0,0.3c0,0.3,0,0.7,0,1c0,0.2,0,0.2-0.3,0.3c-0.1-0.5,0-1.1,0-1.6c-0.1,0-0.2,0-0.4,0
			c0,0.4,0,0.7,0,1.1c0,0.2,0,0.4,0,0.6c0,0.2,0.2,0.3,0.4,0.3C-169.5-1921.2-169.4-1921.3-169.2-1921.3z"/>
		<path fill="#FEFDFD" d="M-170.1-1925.5c-0.2,0-0.3,0-0.5,0c0-0.3,0-0.5,0-0.8c0-0.2,0-0.5-0.1-0.7c-0.2-0.5-0.3-0.9-0.5-1.4
			c0.2,0,0.3,0,0.5,0c0.1,0.4,0.2,0.8,0.3,1.1c0,0,0,0,0,0c0.1-0.4,0.2-0.7,0.3-1.1c0.2,0,0.3,0,0.5,0c-0.1,0.3-0.1,0.5-0.2,0.7
			c-0.2,0.6-0.4,1.2-0.3,1.9C-170.1-1925.7-170.1-1925.6-170.1-1925.5z"/>
		<path fill="#FEFDFD" d="M-169.5-1926.6c0-0.2,0-0.4,0-0.5c0-0.3,0.2-0.5,0.5-0.5c0.4-0.1,0.8,0.1,0.8,0.6c0,0.3,0,0.7,0,1
			c0,0.5-0.3,0.7-0.8,0.6c-0.3-0.1-0.4-0.3-0.5-0.5C-169.5-1926.2-169.5-1926.4-169.5-1926.6
			C-169.5-1926.6-169.5-1926.6-169.5-1926.6z M-168.7-1926.6c0-0.2,0-0.4,0-0.5c0-0.1-0.1-0.2-0.2-0.2c-0.1,0-0.2,0.1-0.2,0.2
			c0,0.4,0,0.7,0,1.1c0,0.2,0.1,0.2,0.2,0.2c0.1,0,0.2-0.1,0.2-0.2C-168.7-1926.2-168.7-1926.4-168.7-1926.6z"/>
		<path fill="#FEFDFD" d="M-166.7-1927.6c0,0.7,0,1.4,0,2.1c-0.1,0-0.3,0-0.4,0c0-0.1,0-0.1,0-0.2c0,0-0.1,0-0.1,0
			c-0.1,0.1-0.2,0.2-0.4,0.2c-0.2,0-0.3-0.1-0.3-0.2c0,0,0-0.1,0-0.1c0-0.6,0-1.2,0-1.8c0.1,0,0.3,0,0.4,0c0,0.6,0,1.2,0,1.7
			c0.3,0,0.4,0,0.4-0.3c0-0.4,0-0.8,0-1.2c0-0.1,0-0.2,0-0.3C-167-1927.6-166.8-1927.6-166.7-1927.6z"/>
		<path fill="#1DADA5" d="M-168.5-1923.8c0.1,0,0.2,0,0.4,0c0,0.3,0,0.5,0,0.7c0,0,0.1,0,0.1,0c0.4-0.2,0.6,0,0.6,0.4
			c0,0.3,0,0.7,0,1c0,0,0,0.1,0,0.1c0,0.2-0.2,0.3-0.4,0.3c-0.1,0-0.1-0.1-0.2-0.1c-0.2,0-0.3,0-0.5,0.1
			C-168.5-1922.1-168.5-1922.9-168.5-1923.8z M-167.8-1922.1C-167.8-1922.1-167.8-1922.1-167.8-1922.1c0-0.2,0-0.4,0-0.5
			c0-0.1-0.1-0.2-0.2-0.2c-0.1,0-0.1,0.1-0.1,0.1c0,0.4,0,0.7,0,1.1c0,0.1,0.1,0.2,0.2,0.2c0.1,0,0.2-0.1,0.2-0.2
			C-167.8-1921.8-167.8-1922-167.8-1922.1z"/>
		<path fill="#1DADA5" d="M-166.1-1922.1c-0.3,0-0.5,0-0.7,0c0,0.2,0,0.3,0,0.4c0,0.1,0,0.2,0.2,0.2c0.1,0,0.2-0.1,0.2-0.2
			c0,0,0-0.1,0-0.2c0.1,0,0.2,0,0.4,0c0.1,0.5-0.2,0.8-0.7,0.7c-0.2-0.1-0.4-0.2-0.4-0.4c0-0.4,0-0.8,0-1.2c0-0.3,0.3-0.5,0.6-0.4
			c0.3,0,0.5,0.2,0.5,0.5C-166.1-1922.5-166.1-1922.3-166.1-1922.1z M-166.5-1922.4c0-0.1,0-0.2,0-0.3c0-0.1-0.1-0.2-0.2-0.2
			c-0.1,0-0.1,0.1-0.2,0.1c0,0.1,0,0.2,0,0.3C-166.7-1922.4-166.6-1922.4-166.5-1922.4z"/>
		<path fill="#1DADA5" d="M-170.5-1921.2c-0.2,0-0.3,0-0.4,0c0-0.2,0-0.5,0-0.7c0-0.2,0-0.5,0-0.7c0-0.2,0-0.5,0-0.8
			c-0.2,0-0.3,0-0.4,0c0-0.1,0-0.2,0-0.4c0.4,0,0.8,0,1.3,0c0,0.1,0,0.2,0,0.3c-0.1,0-0.3,0-0.4,0
			C-170.5-1922.7-170.5-1921.9-170.5-1921.2z"/>
		<path fill="#1DADA5" d="M-169.2-1921.3c-0.1,0.1-0.2,0.1-0.3,0.2c-0.2,0.1-0.4,0-0.4-0.3c0-0.2,0-0.4,0-0.6c0-0.4,0-0.7,0-1.1
			c0.1,0,0.2,0,0.4,0c0,0.5,0,1.1,0,1.6c0.3,0,0.3-0.1,0.3-0.3c0-0.3,0-0.7,0-1c0-0.1,0-0.2,0-0.3c0.1,0,0.3,0,0.4,0
			c0,0.6,0,1.3,0,1.9c-0.1,0-0.2,0-0.3,0C-169.2-1921.2-169.2-1921.3-169.2-1921.3z"/>
		<path fill="#1DADA5" d="M-168.7-1926.6c0,0.2,0,0.4,0,0.5c0,0.1-0.1,0.2-0.2,0.2c-0.1,0-0.2,0-0.2-0.2c0-0.4,0-0.7,0-1.1
			c0-0.2,0.1-0.2,0.2-0.2c0.1,0,0.2,0.1,0.2,0.2C-168.7-1926.9-168.7-1926.8-168.7-1926.6z"/>
		<path fill="#FEFDFD" d="M-167.8-1922.1c0,0.2,0,0.3,0,0.5c0,0.1,0,0.2-0.2,0.2c-0.1,0-0.2-0.1-0.2-0.2c0-0.4,0-0.7,0-1.1
			c0-0.1,0-0.1,0.1-0.1c0.1,0,0.2,0.1,0.2,0.2C-167.8-1922.5-167.8-1922.3-167.8-1922.1C-167.8-1922.1-167.8-1922.1-167.8-1922.1z"
			/>
		<path fill="#FEFDFD" d="M-166.5-1922.4c-0.1,0-0.2,0-0.3,0c0-0.1,0-0.2,0-0.3c0-0.1,0.1-0.1,0.2-0.1c0.1,0,0.2,0.1,0.2,0.2
			C-166.5-1922.6-166.5-1922.5-166.5-1922.4z"/>
	</g>
</g>
<g id="qo8JK3.tif">
</g>
<g>
	<circle fill="#1DADA5" cx="-355" cy="-1113" r="129"/>
	<g id="mT5kdH.tif">
		
			<image overflow="visible" width="172" height="140" id="Layer_0" xlink:href="B5596767682D85D3.png"  transform="matrix(1 0 0 1 -436.9799 -1175.9799)">
		</image>
	</g>
</g>
<g id="_x36_e4Hzv_1_">
	<g>
		<path fill="#FFFFFF" d="M-182.7-389.7c0-49.3,0-98.2,0-147.3c-16.3,0-32.3,0-48.5,0c0,49.2,0,98.2,0,147.3
			C-215-389.7-199-389.7-182.7-389.7z"/>
		<path fill="#FFFFFF" d="M-5.5-389.5c-16.1,0-32.3,0-49,0c0-2,0-3.8,0-5.6c0-24.7,0.1-49.3-0.1-74c0-5.3-0.7-10.7-2-15.7
			c-4.6-16.8-24.8-23.1-38.4-12c-7.7,6.3-11.5,14.4-11.4,24.4c0.1,25.7,0,51.3,0,77c0,1.8,0,3.6,0,5.6c-16.3,0-32.3,0-48.6,0
			c0-49,0-98,0-147.2c16.1,0,32,0,48.3,0c0,6.6,0,13,0,20.5c1.4-1.5,2.2-2.2,2.8-3c14.1-19.1,33.6-24.3,55.8-19.7
			c21.4,4.5,34.1,18.7,39.7,39.5c1,3.7,2,7.4,3,11.2c0,1,0,2,0,3c0,1.3,0,2.7,0,4C-5.5-450.8-5.5-420.2-5.5-389.5z"/>
		<path fill="#FFFFFF" d="M-234.5-588.5c3.3-8.7,8.4-15.7,17.8-18.3c11.2-3.1,21.9-2.3,30.4,6.5c7.6,7.8,8.8,17.4,5,27.3
			c-3.9,10.2-12.5,14.8-23,15.5c-15.9,1-23-4-30.3-19.9C-234.5-581.2-234.5-584.8-234.5-588.5z"/>
		<path fill="#FFFFFF" d="M-5.5-481.5c0-1.3,0-2.7,0-4C-5.5-484.2-5.5-482.8-5.5-481.5z"/>
		<path fill="#FFFFFF" d="M-182.7-389.7c-16.4,0-32.3,0-48.5,0c0-49.1,0-98.1,0-147.3c16.2,0,32.3,0,48.5,0
			C-182.7-487.9-182.7-439-182.7-389.7z"/>
	</g>
</g>
<g id="_x30_Z9pD9_1_">
</g>
</svg>
