<?xml version="1.0" encoding="utf-8"?>
<!-- Generator: Adobe Illustrator 18.1.0, SVG Export Plug-In . SVG Version: 6.00 Build 0)  -->
<!DOCTYPE svg PUBLIC "-//W3C//DTD SVG 1.1//EN" "http://www.w3.org/Graphics/SVG/1.1/DTD/svg11.dtd">
<svg version="1.1" id="Layer_1" xmlns="http://www.w3.org/2000/svg" xmlns:xlink="http://www.w3.org/1999/xlink" x="0px" y="0px"
	 viewBox="0 0 262.5 262.7" enable-background="new 0 0 262.5 262.7" xml:space="preserve">
<g id="CYdu93_1_">
	<g>
		<path fill="#1DADA5" d="M262.5,131.4c0.9,71.8-59,131-130.6,131.3C59.9,263-0.2,203.7,0,131C0.2,58.7,59.5-0.1,131.5,0
			C204.3,0.1,263.4,60.2,262.5,131.4z"/>
		<path fill="#FDFDFD" d="M131.7,258.2C61.5,258.3,3.9,201.8,4.5,130.3C5.1,59.8,61.7,4.3,131.7,4.5C202.4,4.7,258.6,62,258.2,132.1
			C257.8,202.2,200.6,258.2,131.7,258.2z"/>
		<path fill="#1DADA5" d="M131.5,39c48.7-0.8,92.5,39.1,92.5,92.4c0,51-40.5,92.9-93.5,92.6c-52.6-0.3-91.9-44.2-91.8-92.8
			C38.8,80.8,81.2,37.8,131.5,39z"/>
		<path fill="#1DADA5" d="M235.8,121.8c3.9-0.5,7.8-1.1,11.7-1.6c0.9-0.1,1.7,0.2,1.7,1.2c0,1-0.6,1.4-1.5,1.5
			c-4.6,0.5-9.2,1-13.9,1.5c-0.9,0.1-2,1-2.5-0.3c-0.5-1.3-0.5-2.6,0.9-3.5c1.3-0.8,2.5-1.6,3.7-2.5c2.2-1.5,4.3-3,6.7-4.7
			c-2.9-0.9-5.4,0.1-8,0.4c-1.6,0.1-4.4,1.5-4.7-0.8c-0.3-2.6,2.6-1.5,4.2-1.8c3.8-0.6,7.6-0.9,11.4-1.3c0.9-0.1,2.1-0.4,2.5,0.9
			c0.4,1.3-0.2,2.2-1.3,2.9c-3.7,2.5-7.4,5-11.1,7.4C235.7,121.5,235.8,121.7,235.8,121.8z"/>
		<path fill="#1DADA5" d="M73.4,220.4c-1.7,2.8-3.4,5.6-5.1,8.4c-0.5,0.9-1,1.9-2.2,1.4c-1.4-0.6-0.7-1.6-0.1-2.4
			c2.4-4,4.7-8,7.2-12c0.5-0.8,1-1.8,2.3-1.4c1.2,0.4,1.9,1.3,1.8,2.7c-0.2,2.3-0.1,4.6-0.6,6.9c-0.4,1.9-0.3,3.9,0.3,6.1
			c1.5-2.5,3.1-5,4.6-7.5c0.5-0.8,1-1.7,1.6-2.5c0.3-0.4,0.7-0.8,1.2-0.4c0.6,0.4,1.1,0.8,0.8,1.6c-0.2,0.5-0.4,0.9-0.7,1.3
			c-2.4,4-4.8,7.9-7.2,11.9c-0.5,0.9-1,1.8-2.3,1c-0.9-0.5-1.6-1-1.3-2.3C74.4,229.1,74.2,224.7,73.4,220.4z"/>
		<path fill="#1DADA5" d="M186.6,32.3c-1.6,2.6-3.2,5.3-4.9,7.9c-0.5,0.8-1,1.7-1.6,2.5c-0.2,0.3-1,0.3-1.3,0.1
			c-0.3-0.2-0.6-0.8-0.6-1.2c0-0.4,0.4-0.9,0.6-1.3c2.8-4.5,5.5-9,8.3-13.5c3,0.6,3.4,2.5,2.9,4.7c-0.9,3.4-0.5,6.9-0.9,11
			c2.8-2.3,3.6-5.2,5.3-7.4c0.8-1.1,1.3-3.4,3-2.5c2,1.2-0.2,2.6-0.8,3.7c-2,3.6-4.2,7.1-6.4,10.6c-0.5,0.8-1.1,1.8-2.3,1.3
			c-1-0.4-1.5-1.2-1.5-2.3c0.1-2,0.1-3.9,0.5-5.9c0.4-2.4,0.4-4.9,0.5-7.3C187.1,32.5,186.8,32.4,186.6,32.3z"/>
		<path fill="#1DADA5" d="M231.2,103.4c-2.5,0.2-4.4-1.4-5.4-4.1c-0.9-2.4-1.4-4.8,0.7-6.9c0.6-0.6,1.2-1.3,2.1-0.8
			c0.7,0.5,0.7,1.4,0.6,2.3c-0.1,0.9-1.2,1.1-1.6,1.8c-1.2,1.9-0.2,4.2,2,4.5c4.4,0.6,8.2-0.9,11.3-3.9c0.9-0.9,1.5-2.3,0.8-3.7
			c-0.6-1.3-1.3-2.8-3.3-1.8c-0.4,0.2-1,0.2-1.4,0.4c-1.8,0.6-3.6,1.1-2.2,3.7c0.3,0.5-0.2,0.9-0.7,1c-0.3,0-0.7-0.1-0.8-0.3
			c-0.3-0.4-0.5-0.8-0.7-1.3c-1.3-3.6-2.7-4.1,2.2-5.5c0.2,0,0.3-0.2,0.5-0.2c4.5-1.6,5.6-1.5,7.1,1.4c2.1,3.9,2.3,6.2-0.7,9.5
			C239.1,102.3,235.7,103.3,231.2,103.4z"/>
		<path fill="#1DADA5" d="M31.7,144.4c0.9,2.4,1.5,4.4,1.4,6.6c-0.1,4.7-3,6.5-7.2,4.4c-0.9-0.5-1.3-1.1-2.2,0.2
			c-1.3,2.1-4,2.1-6,3.2c-0.6,0.4-1.4,0.3-1.7-0.4c-0.3-0.8-0.4-1.7,0.4-2.2c0.7-0.5,1.5-0.7,2.2-1.1c0.9-0.4,1.8-0.8,2.6-1.4
			c1-0.8,2-1.9,1.3-3.4c-0.7-1.5-1.9-0.7-3-0.5c-1.1,0.2-2.3,0.3-3.4,0.5c-0.8,0.1-1.7,0-1.9-1c-0.2-1.2,0.4-1.8,1.6-2
			c4.2-0.7,8.5-1.4,12.7-2.1C29.5,145,30.5,144.7,31.7,144.4z"/>
		<path fill="#1DADA5" d="M241.8,168.1c-4.5-1.2-9.3-2.6-14-3.9c-0.9-0.2-1.5-0.6-1.4-1.6c0.1-1.3,1.1-1.6,2.2-1.4
			c1.3,0.2,2.5,0.7,3.8,1c1.4,0.3,2.4,0.1,2.9-1.7c1.2-3.9,1.3-3.8-2.6-5c-0.6-0.2-1.3-0.3-1.9-0.4c-1.2-0.2-1.8-0.7-1.6-2
			c0.3-1.4,1.4-1.2,2.4-1c4.6,1.2,9.2,2.6,13.8,3.8c1.1,0.3,1.9,0.6,1.6,1.9c-0.3,1.3-1.2,1.3-2.3,1.1c-1-0.3-1.9-0.6-2.8-0.8
			c-3.9-1-3.8-1-4.8,2.9c-0.5,1.8-0.3,2.8,1.7,3.1c1.5,0.3,2.9,0.8,4.3,1.1c1,0.2,1.3,0.8,1.2,1.8
			C244.1,168.5,243.1,168.3,241.8,168.1z"/>
		<path fill="#1DADA5" d="M149.2,240.6c0,6.3-2.4,8.9-7.4,8.8c-3.4-0.1-5.8-2-6.5-5.7c-0.5-2.5-0.6-5-0.2-7.5
			c0.5-3.4,2.4-5.3,5.9-5.8c2.7-0.4,5.1,0.8,6.6,3.4C148.9,236.1,149.5,238.5,149.2,240.6z"/>
		<path fill="#1DADA5" d="M136.5,12.8c1.5,0.1,3,0.2,4.4,0.3c4.4,0.5,6.6,2.5,7.1,6.9c0.3,2.8-0.4,5.6-1.6,8.1
			c-1,2.1-2.7,3.2-5.1,3.2c-1.3,0-2.6,0-4-0.1c-2.9-0.2-2.8-0.2-2.5-3.3c0.3-3,0.5-5.9,0.6-8.9C135.4,16.9,135.6,14.8,136.5,12.8z"
			/>
		<path fill="#1DADA5" d="M177.5,26.5c0.1,3.5-1.1,6.5-3.2,9.2c-2,2.5-4.6,3.2-7.6,2.1c-2.9-1-4.4-3.2-4.5-6.4
			c-0.1-3.5,1.2-6.5,3.3-9.2c2.3-2.9,4.2-3.4,7.4-2.3C176.5,21.1,177.5,22.5,177.5,26.5z"/>
		<path fill="#1DADA5" d="M25.2,88.4c3.9,1.3,8.2,2.7,12.4,4.1c0.6,0.2,0.9,0.9,0.7,1.7c-0.2,1.1-1,1.3-1.8,1.1
			c-2.7-0.8-5.3-1.7-8-2.6c-1.4-0.5-2.8-1-4.2-1.3c-2-0.4-3.1,0.9-3.7,2.5c-0.6,1.5,0.4,2.6,1.6,3.2c1,0.5,2.1,0.9,3.2,1.3
			c2.6,0.9,5.3,1.9,7.9,2.8c1.2,0.4,2.4,0.6,1.9,2.2c-0.5,1.7-1.9,1.1-2.9,0.8c-3.6-1.2-7.2-2.3-10.7-3.8c-3-1.3-3.7-3.5-2.6-7
			C20.1,89.7,22.1,88.1,25.2,88.4z"/>
		<path fill="#1DADA5" d="M180.4,238.9c-2.5-4.8-4.9-9.7-7.5-14.5c-0.4-0.8-0.9-1.5,0.1-2.1c1-0.6,1.9-0.4,2.5,0.7
			c0.8,1.4,1.5,2.8,2.7,4.9c1.6-3.6,0.5-7.5,3.4-10.4c0.9,2.4,0.4,4.2,0,5.9c-0.9,4.1-0.9,4.1,2.8,6.1c2.2,1.1,4.3,2.3,6.9,3.7
			c-1.4,1.6-2.6,2-4.3,1.1c-2-1.1-4.1-2.1-6.5-3.3c-0.6,2.2,0.8,3.6,1.6,5C183.4,238,182.4,238.5,180.4,238.9z"/>
		<path fill="#1DADA5" d="M249.1,145.9c-0.3,1.4-1.1,1.1-2.2,0.7c-4.4-1.9-8.8-3.7-13.3-5.5c-0.3-0.1-0.6-0.3-0.9-0.4
			c-0.9-0.4-1.8-0.8-1.7-2.1c0.1-1.1,0.6-1.9,1.7-2.2c5.3-1.4,10.5-2.8,15.8-4.1c0.7-0.2,1.3,0.1,1.4,0.9c0.1,0.7,0,1.4-0.6,1.8
			c-0.6,0.3-1.3,0.3-1.9,0.6c-1,0.6-2.7,0.1-3,1.3c-0.4,1.5-0.4,3.3-0.3,4.9c0,1.6,1.7,1.3,2.6,1.8
			C247.7,144.2,249.2,144.2,249.1,145.9z"/>
		<path fill="#1DADA5" d="M229.9,196.4c-0.4,2-1.3,3.2-3.4,2.5c-1.7-0.5-3.5-0.8-5.3-0.3c-0.4,1.6,0.7,2.6,1.1,3.8
			c0.3,0.9,0.7,1.8,0.9,2.8c0.1,0.6-0.1,1.4-0.7,1.7c-0.7,0.3-1.2-0.2-1.4-0.9c-0.6-1.5-1.4-3-1.9-4.6c-0.9-2.8-2.4-4.6-5.7-4.2
			c-1.3,0.2-2.6-0.2-4-0.2c-0.8,0-1.4-0.4-1.3-1.1c0.1-0.5,0.6-1.2,1.1-1.5c2-1,4.2,0.4,6.6-0.4c0.1-1.8-1.3-3.2-1.7-4.8
			c-0.3-1-0.4-2.1,0.8-2.5c1.1-0.4,1.4,0.8,1.5,1.5c1.1,5.5,4.5,7.9,10,7.7C227.6,195.8,228.8,196.2,229.9,196.4z"/>
		<path fill="#1DADA5" d="M32.5,166.3c1.3,0,2.7-0.1,4,0c1.7,0.2,2.4,1.9,1.5,3.3c-0.3,0.6-0.9,1-1.4,1.4c-3.7,3.1-7.4,6.2-11.2,9.2
			c-0.6,0.5-1.3,1.3-2,0.3c-0.5-0.7-0.5-1.6,0.1-2.3c0.3-0.4,0.7-0.7,1.1-1c2.6-2.6,2.5-2.6,1.2-5.8c-0.7-1.7-1.6-2.3-3.4-2.1
			c-0.8,0.1-1.7,0.1-2.5,0c-0.6-0.1-1.4-0.3-1.3-1.2c0.1-0.9,0.8-1,1.4-1C24.2,166.8,28.3,166.6,32.5,166.3
			C32.5,166.3,32.5,166.3,32.5,166.3z"/>
		<path fill="#1DADA5" d="M35,71.7c-0.5-0.6-1.2-1.1-1.6-1.8c-0.6-1-2.7-1.6-1.3-3.1c1.5-1.6,2.2,0.5,2.9,1.2c2.6,2.8,5,5.7,7.4,8.6
			c0.6,0.8,1.4,1.4,2,2.2c1.2,1.6,0.4,3.3-1.5,3.5c-0.8,0.1-1.7,0-2.5-0.2c-4.5-0.9-9-1.9-13.5-2.8c-0.8-0.2-1.8-0.2-1.5-1.4
			c0.2-0.8,0.8-1.5,1.7-1.5c0.2,0,0.4-0.1,0.5,0C32.5,78.6,33.6,75,35,71.7z"/>
		<path fill="#1DADA5" d="M46.3,213.5c5.1-2.8,10-5.5,14.9-8.3c1.1-0.6,2-0.9,3,0.2c0.9,0.9,0.6,1.7,0.2,2.7c-2,4.5-4,9.1-6,13.7
			c-0.4,0.9-0.7,2.1-2,1.3c-0.9-0.5-1.4-1.4-0.7-2.5c0.2-0.3,0.3-0.6,0.5-0.9c1.1-1.7,1.3-3.2-0.6-4.7c-1.7-1.3-3-2.6-5.2-0.8
			C49.3,215,47.8,216.1,46.3,213.5z"/>
		<path fill="#1DADA5" d="M210.3,216.6c1.6-1.4,2.7-2.6,4-3.7c0.5-0.4,1.1-0.9,1.7-0.3c0.6,0.6,0.3,1.2-0.2,1.7
			c-1.7,2-3.4,4.1-5.5,6.5c-4.9-5-9.1-9.4-13.2-13.6c2.2-2.3,4.1-4.4,6.1-6.4c0.4-0.4,0.9-0.5,1.3-0.3c0.8,0.5,0.5,1.2,0,1.7
			c-1.2,1.1-2.5,2.2-3.6,3.1c0.5,2.6,2.5,3.2,3.4,4.8c0.6-0.4,1-0.6,1.4-0.9c1.3-0.8,2.7-3.6,3.7-2.6c1.7,1.8-1.3,2.7-2.3,3.9
			c-0.9,1.1-0.6,1.7,0.1,2.5C208.2,214.3,209.2,215.4,210.3,216.6z"/>
		<path fill="#1DADA5" d="M18,109.2c-1,2-2.1,3.4-1.9,5.4c0.2,2.5,1.9,3.6,4,2.3c0.8-0.5,1.4-1.4,2.1-2.1c0.9-1,1.7-2.1,2.7-3
			c3.1-2.7,6.4-1.7,7.8,2.1c0.9,2.5-0.3,4.5-0.9,6.7c-0.2,0.7-1.1,0.6-1.7,0.3c-0.6-0.2-0.5-0.8-0.3-1.2c0.4-1.1,1-2.1,1.3-3.2
			c0.3-1.1-0.4-1.9-1.2-2.6c-1-0.9-2-0.4-2.7,0.3c-1.4,1.4-2.6,3-4,4.4c-2.2,2.2-4,2.6-6.2,1.5c-3.5-1.7-4.2-8.6-1-11.1
			C16.2,108.9,16.9,109.2,18,109.2z"/>
		<path fill="#1DADA5" d="M90.7,36.6c1.8-1,3.9,0.1,5.7-1.2c2.1-1.5,2.3-3.4,0.1-4.6c-1.3-0.7-2.8-1-4.2-1.3
			c-1.3-0.3-2.6-0.3-3.8-1.1c-2.6-1.7-3-5-0.8-7.2c1.7-1.7,4.1-2.1,6.3-2.7c0.8-0.2,1.2,0.5,1.2,1.2c0,0.5-0.1,1-0.7,1.2
			c-1.3,0.4-2.7-0.1-3.9,0.7c-0.7,0.4-1.4,0.9-1.5,1.9c-0.1,1.1,0.5,2,1.4,2.4c0.7,0.3,1.6,0.3,2.4,0.5c1.5,0.3,3,0.5,4.3,1
			c3.8,1.4,4.7,6,1.7,8.7c-1.8,1.6-3.9,2.3-6.4,2.4C91.4,38.5,91,37.7,90.7,36.6z"/>
		<path fill="#1DADA5" d="M104.6,247c-1.6-0.3-3.5-0.8-5.3-1.7c-0.9-0.5-1.1-1.3-0.8-2.1c0.4-1.2,1.2-0.6,2-0.2
			c0.8,0.5,1.7,1,2.6,1.5c1.6,0.9,3,0.3,3.9-1c0.8-1.2,0.4-2.6-0.6-3.6c-1-1.1-2.1-2.1-3.2-3.2c-2-2.1-2.5-4.4-1.6-6.3
			c0.9-1.9,3.2-2.8,6.1-2.3c0.8,0.1,1.6,0.5,2.3,0.8c0.9,0.3,2.3,0.3,2,1.7c-0.4,1.3-1.5,0.7-2.4,0.3c-0.7-0.3-1.5-0.6-2.3-0.8
			c-1-0.2-2,0-2.6,1c-0.6,1-0.3,1.9,0.5,2.7c1,1.1,2.1,2.1,3.2,3.1c1.6,1.6,2.5,3.5,2.1,5.8C109.8,245.4,107.7,247.1,104.6,247z"/>
		<path fill="#1DADA5" d="M231,183.4c4.5,0,5.2-0.7,6.3-4.8c0.2-0.6,0.1-1.4,1.1-1.3c0.9,0.1,0.9,0.8,1,1.4c0.2,5.2-3.9,8.6-9.1,7.7
			c-4-0.7-7.2-2.4-9.3-5.9c-1.4-2.5-0.7-4.8,0.7-7c1.2-1.8,2.8-2.9,5-2.5c0.6,0.1,1.4,0.1,1.4,1c0,0.7-0.4,1.3-0.9,1.7
			c-0.9,0.7-2,0.1-2.9,0.5c-2.1,0.7-2.8,2.5-1.4,4.3C225.3,181.6,228.4,183.4,231,183.4z"/>
		<path fill="#1DADA5" d="M159.1,233.1c-0.1,1.9,0.5,3.8,1.4,5.6c1.8,4,5,5.7,8.6,2.5c0.5-0.4,1.1-1,1.7-0.5
			c0.8,0.8,0.2,1.6-0.4,2.1c-3.6,3.6-9.2,3-12-1.3c-1.9-2.9-2.6-6-2.3-9.5c0.2-2.9,2-4.4,4.5-5.4c2.3-0.9,4.6-0.6,6.5,1
			c0.6,0.5,1.4,1.3,0.7,2.1c-0.6,0.7-1.5,1.3-2.6,0.8c-0.3-0.1-0.6-0.4-0.7-0.7c-0.9-1.4-2.1-2.2-3.8-1.3
			C158.9,229.5,159,231.3,159.1,233.1z"/>
		<path fill="#1DADA5" d="M220.6,85.9c-1.2-2-2.3-4-3.4-6c-0.5-0.8-1.5-1.9-0.2-2.5c1.2-0.6,1.4,1,2,1.8c0.7,0.9,1.2,2,1.8,3
			c2.1-0.2,3.4-1.5,5.1-2.4c-0.2-1.9-1.5-3.2-2.2-4.9c-0.2-0.5-0.2-1,0.3-1.3c0.5-0.3,1-0.2,1.3,0.3c0.9,1.4,1.7,2.8,2.5,4.3
			c2.3-0.2,3.6-1.9,5.4-2.4c0.1-2.6-2.4-4.1-2.3-6.6c2.2-0.4,2.5,1.5,3.2,2.6c3.3,5.2,3.3,5.3-2.1,8.3c-3.2,1.8-6.4,3.5-9.6,5.3
			C221.7,85.6,221.2,85.7,220.6,85.9z"/>
		<path fill="#1DADA5" d="M128.8,21.8c-1.3,0.8-2.5,0.4-3.6,0.6c-2.7,0.5-2.9,0.8-2.7,3.6c0.2,3,0.2,3,3.7,3.1
			c1.2,0,3.4-0.7,3.5,0.7c0.1,2.3-2.3,1.2-3.5,1.2c-6.5,0.4-6.6,0.4-6.8-6c-0.1-3.2-0.2-6.3-0.4-9.5c-0.1-2,0.6-2.7,2.5-2.6
			c1.8,0,3.6,0.1,5.4-0.5c0.5-0.2,1,0.1,1.2,0.6c0.3,0.8-0.2,1.1-1,1.3c-1,0.1-1.9,0.5-2.9,0.5c-1.8,0-2.1,0.9-2.1,2.5
			c0.1,3.5,0.1,3.7,3.6,3.3C126.9,20.6,128,20,128.8,21.8z"/>
		<path fill="#1DADA5" d="M31.3,138.9c-2.8-0.9-0.9-3.8-2.7-4.3c-1.9-0.5-3.9-0.2-5.9-0.2c-2.3,0-4.6,0.1-7,0
			c-1.1,0-2.5,0.4-2.6-1.4c-0.1-1.7,1.2-1.7,2.4-1.7c3.3,0,6.6-0.2,9.9,0c2.4,0.1,4.3,0,4-3.3c0-0.4,0.4-0.9,1-0.8
			c0.6,0.1,0.8,0.6,0.8,1C31.3,131.8,31.3,135.2,31.3,138.9z"/>
		<path fill="#1DADA5" d="M110.9,14.3c0.7,0,1.1,0.2,1.2,0.8c0.1,0.7-0.4,1-0.8,1c-3,0.1-2.8,1.8-2.2,4.1c0.9,3.5,1.5,7.1,2.2,10.7
			c0.2,0.9,0.4,2.1-1,2.4c-1.6,0.3-1.8-0.8-2.1-2c-0.6-3.6-1.5-7.1-2.1-10.7c-0.3-2.3-1-3.4-3.5-2.4c-0.6,0.2-1.4,0.1-1.5-0.7
			c-0.1-0.9,0.6-1,1.2-1.2C105.4,15.5,108.3,14.9,110.9,14.3z"/>
		<path fill="#1DADA5" d="M116.8,231.7c4.1-1.1,9.5-0.7,12.3,0.6c-0.3,1.1-1.2,0.9-2,0.8c-1.4-0.1-2,0.5-2.2,1.9
			c-0.5,3.8-0.8,7.5-0.9,11.3c0,1.2,0.4,3-1.7,2.8c-2.1-0.2-1.3-2-1.3-3.1c0-2.8,0.1-5.6,0.5-8.4C122.2,233,122.3,233,116.8,231.7z"
			/>
		<path fill="#1DADA5" d="M28.3,189.4c4.7-2.9,9.4-5.7,14.1-8.6c1.2-0.7,1.9-0.3,2.5,0.6c0.6,0.9,0,1.5-0.8,2
			c-3.1,1.9-6.2,3.8-9.3,5.8c-3,1.9-3,1.9-1.5,4.9c0.2,0.4,0.5,0.8,0.8,1.3c0.3,0.6,0.8,1.3,0,1.8c-1,0.6-1.4-0.2-1.8-1
			c-0.8-1.4-1.8-2.8-2.6-4.2C29.1,191.1,28.8,190.4,28.3,189.4z"/>
		<path fill="#1DADA5" d="M74.1,46.2c1.8-0.4,3.1-1.8,4.6-2.7c0.4-0.2,1.1-0.2,1.3,0.4c0.1,0.4,0.1,1.1-0.2,1.3
			c-2.3,1.6-4.7,3.1-7.3,4.9c-3.2-4.7-6.3-9.4-9.4-14c-0.4-0.7-0.8-1.3,0.3-2c1.1-0.7,1.7-0.5,2.4,0.5c2.1,3.2,4.2,6.3,6.3,9.5
			C72.7,44.8,73.1,45.7,74.1,46.2z"/>
		<path fill="#1DADA5" d="M56.3,54.6c0.1,2.8-1.8,4.7-4.6,4.7c-2.6,0-4.4-1.8-4.5-4.4c0-2.7,1.9-4.7,4.7-4.7
			C54.3,50.2,56.2,52.1,56.3,54.6z"/>
		<path fill="#1DADA5" d="M210.6,59.5c-2.9,0.1-4.4-1.3-4.6-4c-0.1-2.8,1.7-4.9,4.3-5.1c2.3-0.1,4.8,2.4,4.8,4.8
			C215.1,57.6,213.2,59.4,210.6,59.5z"/>
		<path fill="#1DADA5" d="M40,206.3c-0.3-0.3-0.7-0.5-1.1-0.9c-0.6-0.6-0.3-1.2,0.2-1.6c4.2-3.4,8.5-6.8,12.8-10.2
			c0.7-0.5,1.2-0.1,1.6,0.5c0.4,0.5,0.8,1.2,0.2,1.7c-4.2,3.5-8.4,6.9-12.7,10.3C40.9,206.3,40.5,206.3,40,206.3z"/>
		<path fill="#1DADA5" d="M86.4,40.9c-0.2,0.4-0.4,0.8-0.8,1.1c-0.6,0.5-1.2,0.5-1.8,0c-0.3-0.3-0.6-0.8-0.8-1.2
			c-2.1-4.1-4.2-8.3-6.3-12.4c-0.7-1.3-0.7-2.2,0.7-2.8c1.4-0.6,1.6,0.6,2.1,1.5c2.1,4.1,4.2,8.2,6.3,12.4
			C86.1,39.8,86.2,40.3,86.4,40.9z"/>
		<path fill="#FBFCFB" d="M131.2,219.3c-47.4,0.4-88-38.6-88-88.1c0-48.4,39.9-88.6,89.3-88c48.9,0.6,87.6,41.4,87,89.3
			C218.9,180.2,178.7,220.2,131.2,219.3z"/>
		<path fill="#E6F2F3" d="M31.2,150.1c0,2.2-1.2,3.3-3.4,3.2c-2-0.1-2.9-1.5-3.3-3.1c-0.4-1.4,1.5-2.2,4.7-2.2
			C30.8,148.1,31.3,148.8,31.2,150.1z"/>
		<path fill="#F6F9F9" d="M138.1,237.8c0-0.2,0-1.5,0.3-2.8c0.4-1.5,1.4-2.6,3.1-2.7c1.5-0.1,2.5,0.7,3.1,2c1.7,3.4,2,6.9,1.2,10.6
			c-0.4,1.7-1.7,3-3.5,3c-1.6,0-2.5-1.3-3.2-2.7C138.1,243.2,138.1,241.1,138.1,237.8z"/>
		<path fill="#F8FBFA" d="M137.9,28.9c0.2-3.6,0.3-7.2,0.5-10.8c0.1-1.1-0.4-2.6,1.2-2.9c1.5-0.3,3-0.1,4,1.3
			c1.9,2.4,1.4,9.6-0.8,11.8C141.8,29.3,141.6,29.3,137.9,28.9z"/>
		<path fill="#F5F9F9" d="M165.1,32.3c0.1-3.8,1.6-6.7,3.5-9.4c0.8-1.2,2.3-2.1,3.9-1.5c1.8,0.6,2.6,2.3,2.4,4
			c-0.4,3.3-1.4,6.4-3.4,9.1c-1.1,1.4-2.5,2.2-4.3,1.6C165.2,35.4,165,33.7,165.1,32.3z"/>
		<path fill="#E2EDF1" d="M241.7,141.3c-2.5-0.3-4.7-1.2-7.3-2.6c1.7-0.5,3-0.9,4.3-1.2C242.3,136.7,242.4,136.9,241.7,141.3z"/>
		<path fill="#D8E9EC" d="M35,168.3c-1.5,2.6-3.9,3.4-5.9,5.3c-1.2-1.2-1.7-2.4-1.9-4.2C29.7,169.1,32.2,168.7,35,168.3z"/>
		<path fill="#D9E9EF" d="M40.7,79.3c-2-0.5-4-0.9-6.2-1.4c-0.2-1.9,1-3,2.2-4.5c1.7,1.8,3.3,3.4,4.9,5.1C41.3,78.7,41,79,40.7,79.3
			z"/>
		<path fill="#D4E7EB" d="M61.1,208.1c0.1,2-0.9,3.2-1.5,4.4c-1.2,2.2-2.5,2.3-3.9,0.4c-0.6-0.9-0.4-1.5,0.3-2.1
			C57.4,209.7,58.8,208.6,61.1,208.1z"/>
		<path fill="#1DADA5" d="M202.1,94.2c4.2,7.3,6.6,15.3,8,23.4c1.9,11.1,2.1,22.3-1,33.4c-3,10.8-7.6,20.8-14.6,29.7
			c-13.5,17.1-31.2,27.2-52.6,30.2c-9.4,1.3-19.1,1.1-28.6-1.3c-5.2-1.3-10.3-2.8-15.1-5.2c2.8-4.3,7.6-3.7,11.7-4.3
			c3.6-0.6,7.3-0.9,10.9-1c11.6-0.3,21.4-5.6,31.2-10.8c3.9-2.1,7.1-5.4,11.1-7.5c2-1,4.2-0.8,6.3-0.9c1.8-0.1,3.7-0.1,4.8-2
			c1.5-3.2,0.7-6.6,0.7-9.8c0-3.3,1-5.9,3.9-7.5c5-2.9,7.7-7.8,10.1-12.7c5.8-11.6,9.9-23.9,12.5-36.5c0.8-4-0.4-8.2-0.8-12.2
			C200.3,97.2,199.3,95,202.1,94.2z"/>
		<path fill="#1DADA5" d="M202.1,94.2c-1.6,1.7-1.2,3.5-0.1,5.3c0.4,0.7,1.5,1.4,1,2.1c-1.8,2.4-1.1,4.4,0.1,6.7
			c0.5,0.9,0.3,2.4-0.2,3.4c-2,4.8-3.1,9.8-3.9,15c-0.5,3.4-2.4,6.7-3.8,9.9c-0.7,1.6-2.1,3.1-2.5,4.7c-1.4,5.3-4.5,9.7-7.1,14.4
			c-1.9,3.4-5.1,4.4-7.5,6.7c-1.3,1.3-2,2.2-1.9,4c0.1,3.2,0,6.3,0,9.5c0,0.8,0.1,1.7-0.8,2.2c-2-1.6-1.9-4-1.6-6
			c1.5-10-3.5-17.1-10.3-24.5c0,8.3,0,16,0,23.7c0,2.4,0.5,5-1.5,7.1c-0.9,0.3-1.8,0.1-2.4-0.7c-0.7-1.2-1-2.5-1-3.8
			c0.1-11.1-0.6-22.2,0.4-33.3c9.3-7.2,12.7-17.6,15.2-28.6c0.4-2-0.9-3.1-1.6-4.5c2.3-6,2.3-12.2,2.2-18.5c0-2.4-0.4-4.6-1.9-6.5
			c-0.2-7.1-3.2-13.3-6.6-19.3c-0.7-1.3-1.6-3.1,1.2-3.4c4.3,2.5,8.6,4.9,12.5,8C189.3,75.3,197.2,83.4,202.1,94.2z"/>
		<path fill="#1DADA5" d="M76.2,73.2c2.6-3.5,6.3-5.8,9.9-8.2c5.2-1,10.5,0,15.8-0.9c3.6-0.7,6.9,0.2,9.6,3c1.5,1.6,3.4,2.6,5.6,3.2
			c5.4,1.4,8.9,4.7,10.8,10c1,2.8,2.1,5.6,4,8c3.2,4,1.6,9-3.6,11.3c-3.4-3.4-5.5-7.8-9.8-11.9c0.6,8.9-1.2,17.2,1.1,25.4
			c0.4,0.8,0.5,1.6,0.4,2.5c-1.1,3.9-1.3,7.8-1.3,11.8c-0.1,17.8,0.3,35.5-0.2,53.3c-4.1,2.2-3.5-1.4-3.6-3.2
			c-0.3-5.6-0.1-11.2-0.1-16.9c0-3.3,0-6.6,0-9.9c0-8.6,0.1-17.3,0-25.9c0-2.3,0.4-4.7-1.2-6.7c-1.5-3.7-0.8-7.5-0.9-11.3
			c-0.1-6.3,0-12.6-0.1-18.9c-0.1-3.4-2.3-3.9-5-4c-2.9,0-4.9,0.7-4.9,4.1c0,11.1-0.1,22.2,0.1,33.3c0.1,2.8,1.6,5,3.2,7.1
			c1.2,2.6-0.9,2.8-2.4,3.2c-8.1,1.9-15.5,1.8-22.3-4.5c-4.6-4.2-8.5-8.8-11.9-13.9c-3.8-5.6-2.6-12.4-3.7-18.7
			C64.1,84.7,72.8,80.3,76.2,73.2z"/>
		<path fill="#1DADA5" d="M116.1,150.3c0,9,0,18,0.1,26.9c0,1.1-0.2,2.5,0.3,3.4c0.6,1,1.3,0.5,1.5-0.6c-0.8-2.5,1.1-4,2.3-5.7
			c2.7-4,6.1-7.4,8.1-11.8c0.8-4.4,0-8.9,0.5-13.4c0.1-1.1,0.3-2.7,1.6-2.8c1.8-0.1,1.8,1.6,1.9,2.8c0.6,4.4-0.5,8.9,0.7,13.3
			c2.7,5.2,6.7,9.3,10.5,15c0.5-4.2,0.1-7.4,0.3-10.5c0.1-2.1-0.5-4.3,1.4-6c1.6,0.1,2.2,1.4,2.7,2.6c0.9,3.5,0.6,7.2,0.5,10.7
			c-0.2,4,1.3,5.8,5.4,5.5c1.8-0.2,3.6-0.1,5.4,0c0.8,0.1,1.7,0.1,2.5,0.4c0.5,0.2,1,0.5,1.3,1c0.3,1.8-1.3,2-2.4,2.7
			c-1,0.6-2.3,0.2-3.1,1.3c-3.4,4.5-8.3,6.4-13.5,8.1c-1.4,0.4-2.6,1.3-3.8,2.1c-3.6,2.3-7.4,4.1-11.9,3.8c-3.1-0.2-6.2,0.8-9.2,1.3
			c-2.6,0.4-5.2,0.7-7.8,0.7c-2.5,0-5-0.1-7.1,1.4c-1.2,0.9-2.5,0.5-3.8,0.6c-1,0-2-0.2-2.4,1.2c-13.7-6.2-24.9-15.4-33.2-28.1
			c3.4-3.1,7.2-3,10.7-0.5c3.5,2.5,7.6,1.5,11.3,2.5c1.2,0.9,2.6,1.3,4.1,1.5c5.6,0.6,6.5-0.2,6.8-5.8c0.1-1.8-0.1-3.6,1.3-5.1
			c0.8-0.3,1.5-0.3,2.3,0.1c0.9,1.1,1,2.4,1.1,3.7c0.7,7.5,2.5,8.5,10.2,5.9c1.6-1.9,1-4.2,1-6.3c0.1-5.8-0.1-11.6,0.1-17.4
			C113.9,153.2,113.3,150.9,116.1,150.3z"/>
		<path fill="#1DADA5" d="M116.1,150.3c-1.6,0.6-0.9,2-0.9,3c-0.1,8.3,0,16.7-0.1,25c0,1,0.6,2.4-1.1,2.9c-1.6-2-1.3-4.4-1.3-6.7
			c0-13.8,0-27.6,0-41.5c0-1.6,0.4-3.2-0.4-5c-6.2,6.8-11,13.8-9.7,23.6c0.5,4.1,0.1,8.3,0.1,12.5c0,1.8,0.1,3.7-1.5,5.1
			c-0.6,0-1.2,0-1.8,0c-1.9-1.4-1.4-3.6-1.5-5.5c-0.1-5.1,0-10.1-0.1-15.3c-1.8,0.4-2.4,2.1-3.8,2.6c-3.8,2.6-7.5,2-12,1
			c-13.9-3-22-13.2-30.8-22.8c-0.5-10,2.1-19.3,5.7-28.4c4-10.1,10-18.9,17.7-26.5c0.5-0.5,1-0.8,1.6-1.2c-0.9,3-1.7,6-3.9,8.4
			c-1.3,1.5-2.8,2.9-4.2,4.2c-1.4,1.3-2.7,2.5-0.5,4.4c1,0.9,0.8,2.1,0,3.1c-1.4,1.9-1.2,4-0.3,5.9c1,2.1,1,4.2,0.8,6.3
			c-0.2,2.6,0.5,4.7,2,6.9c4.2,5.9,9,11.3,14.6,15.8c2.4,2,5.2,3.2,8.6,3.1c4.4-0.2,8.8,0,12.8-2c0.7-5.1,3.8-8.5,8.1-11.1
			c0.6,0.1,1.5-1.5,1.8,0c0.3,1.6,0.1,3.3,0.1,4.9C116.2,132.2,116.2,141.2,116.1,150.3z"/>
		<path fill="#1DADA5" d="M147,163.2c-1.1-0.2-0.6-1.9-1.8-2c-0.9-0.8-1.4-1.9-1.4-3.1c-0.1-12.5-0.8-25.1,0.3-37.6
			c0.9-2.2,2.6-2.1,4.4-1.5c2,1.3,3.1,3.4,4.6,5.2c0.9,1,1.6,2.3,3.2,1.8c1.4-0.5,1.8-1.9,2.1-3.2c0.3-1.3,0.3-2.6,0.3-4
			c0-9.8,0-19.6,0-29.4c0-5.4-0.3-5.7-5.5-5.8c-1.8-0.1-3.7,0.1-5.4-0.6c-3.3-2.6-4.2-6.6-5.9-10.1c-3.2-6.7-8.5-11.5-14.1-16.1
			c-1.9-1.5-4.3-2.6-4.6-5.4c5.6-0.3,11.1,0.1,16.7,0.4c6.9,0.5,13.3,2.1,19.7,4.3c2.8,0.9,5.6,1.9,7.9,3.9c-0.8,0.3-1.8,0.8-1,1.7
			c1.4,1.7,2.2,3.6,3.2,5.5c1.3,2.4,3.1,4.9,3.8,7.3c0.7,2.1-0.4,5-0.4,7.6c-1.5,1.7-3.6,1.4-5.6,1.4c-2.6,0.1-4,1-4,3.8
			c0,8.9,0,17.9,0,26.8c0,1.2,0,2.5,1.9,1.7c1.5-0.7,3-1.3,3.2-3.3c0.9-1.9,1.5-4.2,4.2-4.5c3.4,0.5,4.1,1.3,2.9,3.7
			c-1.2,2.5-1.1,5.1-1.8,7.5c-1.2,3.8-2.1,7.8-4.6,11.1c-2.5,3.2-5.6,6.1-5.3,10.7c0,0.5-0.4,0.9-1,0.9c-0.7,0.1-1.4,0.1-1.7-0.6
			c-0.4-0.8,0.1-2.1-1.3-2.3c-2.7,0.1-3.5-2.2-4.8-3.8c-2.2-2.7-3.8-5.8-6.7-8.8c0,10.4,0,20.2,0,30.1
			C148.5,159,149.1,161.4,147,163.2z"/>
		<path fill="#1DADA5" d="M123.3,51.4c2.6,1.6,4.1,5,7.8,5.2c0.4,0,0.9,0.6,1.1,1c1.9,3.7,4.6,6.6,8,9c0.7,0.5,1,1.2,1.3,2
			c1.8,4.7,4.5,9,6,13.8c1.3,1.3,1.4,3,1.4,4.6c0.1,9.8,0,19.6,0.1,29.3c0,1-0.1,2-0.8,2.8c-1,1-1.9,0.4-2.8,0
			c-3.8-1.1-4.8-4.8-7-7.4c-1.4-1.6-2.3-3.5-4.5-5.5c-0.1,7,0,13.2,0,19.5c0,10.6,0,21.2,0,31.8c0,2.3,0.4,4.7-1.5,6.6
			c-1.5-0.6-0.9-2-0.9-3c-0.1-4.8,0-9.6,0-14.4c-0.3,0-0.6,0-1,0c0,4.3,0.1,8.5-0.1,12.8c0,1.5,0.9,3.3-0.8,4.6
			c-2.2-1.9-1.6-4.6-1.6-7c-0.1-16.6,0-33.1,0-50.2c-3.4,2.3-4.1,7.1-8.5,7.3c-0.1-0.7-0.5-1.1-1.1-1.2c1.4-6,4.5-10.9,10-14
			c1.7-0.8,3.1-1.9,3.1-4c0-0.9,0.2-1.7,0.8-2.2c1.7-1.5,1-2.2-0.7-3.2c-1.8-1-2.7-2.9-3.1-4.8c-0.6-2.9-2.4-5.3-3.4-8.1
			c-0.8-2.4-3.4-3.9-6.1-4.6c-3.7-0.9-7-2.4-9.6-5.5c-2.5-2.9-6-1.6-8.9-1.3c-2.6,0.3-5,1.3-7.6,0c-0.9-0.5-1.8,0.1-2.8,0.4
			c-1.3,0.4-2.9,1.2-3.8-0.8C97.2,57,109.7,52.7,123.3,51.4z"/>
		<path fill="#1DADA5" d="M51.2,129.2c0.9,0,1.8,0,2.2,0.8c2.4,4.7,8.1,6.3,10.2,11.1c5.1,2.7,8.5,8.3,15.2,8.2c2,0,4.1,1.1,5.9,2.2
			c2.3,1.4,4.2,1.5,6.1-0.5c0.8-0.8,1.7-1,2.7-0.7c0.1,1-0.2,2-0.8,2.8c-4.8,6.1-5.9,13-5.3,20.5c0.1,1.6,0.1,3.3-1.4,4.6
			c-3.1,1.4-6,1.7-9.2-0.5c-2.3-1.6-5.3-2.3-7.9-3.4c-0.8,0.5-0.9,1.1-0.4,1.7c0.5,0.7,0.1,1.2-0.4,1.6c-0.8,0.6-1.1-0.1-1.6-0.5
			c-0.5-0.4-1-0.9-1.7-0.8c-6.6-8.9-10.4-19-12.7-29.8C51.1,140.7,50.9,135,51.2,129.2z"/>
		<path fill="#FBFCFD" d="M163.2,181.3l-0.3-0.2l-0.4,0c-1.3-0.8-1-1.8-0.4-2.9c0-11.2,0-22.4,0-33.7c2,0.2,2.5,1.6,3.2,2.6
			c2.2,2.9,4,6.1,6.5,8.8c2.9,3.2,3.7,6.8,3.5,10.9c-0.2,3.8,0.1,7.6,0.1,11.4c-0.2,1.7-0.3,3.2-2.8,3
			C169.5,181,166.4,181.2,163.2,181.3z"/>
		<path fill="#FDFDFD" d="M147,163.2c0-13.2,0-26.4,0-39.9c1.5,0,2.1,1.4,3,2.5c3.4,4.4,6.3,9.3,10.1,13.4c0,11.2,0,22.3,0.1,33.5
			c0,1.8,0.1,3.7,0.2,5.5c0.6,1.1,0.8,2.1-0.4,2.9c-2.5,0-4.9,0-7.4,0c-6.4,0-5.2,0.5-5.4-5.1C147.1,171.8,147.1,167.5,147,163.2z"
			/>
		<path fill="#F9FCFC" d="M166.9,116.1c-1.8,0.9-2.1,3.2-3.9,4c-0.9-0.6-0.7-1.3-0.7-1.9c0-10.9,0-21.9,0-32.8c0-3,0.1-3,2.9-3.1
			c2.6-0.1,5.3-0.1,7.9-0.2c1.7,0.1,2.8,0.8,2.8,2.7c0,5.7,0,11.5,0,17.3c0,2.5-2.4,3.9-3,6c-1.5,1.5-2.7,3.2-3.7,5.1
			C168.6,114.3,168.2,115.5,166.9,116.1z"/>
		<path fill="#1DADA5" d="M160,181.1c0.1-1,0.3-1.9,0.4-2.9c0.6,0,1.2,0,1.8,0c0.1,1,0.3,1.9,0.4,2.9
			C161.7,181.1,160.8,181.1,160,181.1z"/>
		<path fill="#FEFEFE" d="M119.3,114.4c2.7-1.8,3.9-4.8,5.9-7.2c1.2-1.5,2.3-3.1,4.2-4.5c0,20.5,0,41.1,0,61.6
			c-3.9,5.2-8,10.2-11.3,15.8c-1.4-0.4-1-1.5-1-2.5c0-18.9,0.1-37.9-0.1-56.8C116.9,118.1,119,116.7,119.3,114.4z"/>
		<path fill="#FBFCFB" d="M114.3,118.2c-2.9,3.5-5.7,7.1-8.1,11.1c-3.5-0.8-4.8-3.7-4.8-6.5c-0.2-12.8-0.1-25.6-0.1-38.4
			c0-1.4,0.5-2.2,2-2.1c0.2,0,0.3,0,0.5,0c3.3,0.1,7.4-1.3,9.7,0.5c2.4,2,0.7,6.2,0.8,9.5C114.4,100.9,114.3,109.6,114.3,118.2z"/>
		<path fill="#F9FBFC" d="M99.2,121.7c-4.5-6-8.2-11.1-12.1-16c-0.9-1.2-1.1-2.4-1.1-3.7c0-5.6,0.1-11.3-0.1-16.9
			c-0.1-2.3,1-2.8,3-2.7c2.5,0.1,5,0.1,7.5,0c1.7,0,2.8,0.2,2.8,2.4C99.1,96.6,99.2,108.6,99.2,121.7z"/>
		<path fill="#F9FBFA" d="M128.2,99.2c-3.7,4.4-7.2,9-10,14c-0.7-0.2-1.1-0.6-1.1-1.4c0-9.1,0-18.2,0.4-27.5
			C121.1,89.3,126.3,93,128.2,99.2z"/>
		<path fill="#0298D2" d="M115.7,83.8c0.5,1.7,0.8,3.4,0.2,5.5C114.8,87.2,115.4,85.5,115.7,83.8z"/>
		<path fill="#FDFDFD" d="M132.2,164.2c0-20.6,0-41.1,0-61.7c0.2-0.1,0.5-0.3,0.7-0.4c4.1,5.7,8.2,11.4,12.3,17c0,14,0,28,0.1,42
			c0,6.2,0,12.5,0,18.7c-0.3,0.1-0.6,0.2-1,0.3C140.2,174.8,136.2,169.5,132.2,164.2z"/>
		<path fill="#FBFDFB" d="M101.2,169.2c0.1-8.3,0.2-16.6,0.1-25c0-2.8,0.7-5.1,2.4-7.4c3.4-4.5,6.6-9.1,9.8-13.6
			c1,0.7,0.8,1.3,0.8,1.9c0,18,0,36,0,53.9c0,0.7-0.1,1.3-0.2,2c-3.1,0-6.2,0-9.3,0c-3.3,0-3.3-0.1-3.4-3.6
			C101.3,174.8,101.2,172,101.2,169.2z"/>
		<path fill="#F9FBFB" d="M86.2,178.2c0.1-4.1,0.3-8.3,0.1-12.4c-0.2-3.3,0.5-6.1,2.6-8.7c1.8-2.1,2.6-4.9,4.7-6.8
			c2.1-1.6,2.8-4.4,5.8-6.4c0,8.9,0,17.1,0,25.3c-0.1,3.3-0.2,6.6-0.1,9.8c0,1.4-0.5,2.1-2,2.1c-3,0-5.9-0.1-8.9,0
			C86,181.3,86.4,179.6,86.2,178.2z"/>
		<path fill="#FDFDFD" d="M148,119.2c-0.7-1.4-0.8-2.8-0.8-4.3c0.1-10.8,0.1-21.6,0.1-32.5c3.3,0,6.6-0.1,9.9-0.1
			c2.8,0,2.9,0.1,2.9,3.1c0,8.8,0,17.6,0,26.4c0,2.8,0,5.6,0,8.5c0,4.7,0,4.7-4.2,9.1C152.9,126.3,150.4,122.8,148,119.2z"/>
		<path fill="#F4F9F9" d="M144.8,82.8c0,10.7,0,20.4,0,30.8c-3.3-3.1-5.2-6.3-7.2-9.4c-1.4-2-4.3-3.9-3.9-6c0.4-2.3,2.8-4.3,4.3-6.4
			C140.1,89,142.2,86.3,144.8,82.8z"/>
	</g>
</g>
<g id="JvXlQn_1_">
	<g>
		<path fill="#1DADA5" d="M-449.5-46.4c2.1-10.9,8.3-18.5,18.5-22.9c1.2-0.5,2.4-1,3.7-1.1c0.3,0.2,0.4,0.7,0.8,0.7
			c1.9,0.2,3.3,1.3,4.8,2.3c1.3,0.9,2.6,2,3.6,3.2c0.9,1.1,1.8,2.3,2.3,3.6c0.2,0.6,0.7,1,1.3,1.2c0.3,0.1,0.6,0.3,0.7,0.6
			c0.3,2.2,0.1,4.3,0.1,6.5c0,2,0.1,3.9-0.1,5.9c-0.5,0.8-0.3,1.5,0,2.3c0.2,3.5,0.1,7,0.1,10.5c0,0.3-0.1,0.6-0.2,0.9
			c-0.8,0.2-0.6-0.5-0.6-0.8c0-1.4,0-2.8,0-4c0.1,1.6-0.1,3.4,0.1,5.2c0,0.5,0.2,1.2-0.6,1.4c-0.5-0.5-0.4-1.1-0.4-1.7
			c0-3.8,0-7.5,0-11.3c0-1.3-0.3-2.3-1-3.3c-0.8-1-1.5-2-2.3-3.1c-0.2-0.3-0.5-0.6-0.5-1.1c0,6.6,0,13.1,0,19.7
			c0,0.6,0.1,1.3-0.1,1.9c-0.1,0.1-1.2,0.1-1.4,0c-0.2-0.6-0.1-1.3-0.1-1.9c0-6.7,0-13.3,0-20c0.1,0.5-0.2,0.9-0.4,1.2
			c-0.4,0.5-0.7,1.2-1.2,1.6c-1.9,2-2.4,4.2-2.3,6.9c0.2,3.6,0,7.2,0,10.8c0,0.6,0.1,1.2-0.2,1.8c-0.6,0.5-0.6-0.1-0.6-0.4
			c-0.1-0.5,0-1,0-1.5c0,0.7,0,1.4,0,2c0,0.3,0,0.7-0.5,0.8c-0.4-0.5-0.3-1.1-0.3-1.7c0-3.9,0-7.9,0-11.8c0-0.4,0.1-0.8-0.1-1.2
			c-1.3,1.8-2.6,3.6-3.8,5.4c-0.4,1.1-0.1,2.2-0.2,3.3c0,0.5,0,1.2-0.8,1.2c-0.6-0.1-0.5-0.6-0.6-1c0-0.4,0-0.9,0-1.4
			c-0.7,0.6-0.9,1.6-1.8,1.8c-1.8-0.3-3.6-0.8-5.3-1.5c-3.1-1.2-5.4-3.4-7.4-6c-0.8-1-1.5-2-1.9-3.2
			C-448.5-45.4-448.9-46-449.5-46.4z"/>
		<path fill="#1DADA5" d="M-407.2-68.5c3.7,1.6,6.8,3.9,9.5,6.9c3.1,3.4,5.3,7.2,6.6,11.6c0.1,0.3,0.1,0.6,0.2,0.9
			c-0.4,0.6-0.4,1.4-0.5,2.1c-0.5,2.9-1.2,5.8-2.3,8.5c-1.4,3.3-3,6.6-5.3,9.5c-1.2,1.5-2.2,3.1-3.8,4.2c-0.3,0.2-0.4,0.6-0.6,1
			c-0.1,0.2-0.2,0.6-0.6,0.4c-0.5-1.1-0.3-2.3-0.2-3.4c0.3-2.7-0.5-4.9-2.3-7c-0.8-0.9-1.6-1.8-1.8-3c0.9-1.9,2.3-3.6,3-5.6
			c1-2.7,1.9-5.4,1.9-8.3c0-1.1,0.4-2.3,0.2-3.4c-0.1-0.8-0.2-1.7-0.6-2.4c-0.2-0.8-0.1-1.7-0.2-2.5c-0.2-2.9-1.6-5.3-2.9-7.7
			c-0.2-0.4-0.5-0.7-0.6-1.2C-407.7-68.2-407.8-68.6-407.2-68.5z"/>
		<path fill="#1DADA5" d="M-420.4-29.6c0.4-0.4,0-0.9,0.4-1.4c0.5,0.4,0,1,0.5,1.4c0.9,0.5,1.4,1.5,2,2.3c0.7,0.9,1.4,1.8,2,2.8
			c0.1,0.1,0.1,0.5,0.5,0.3c0.2-1.2-0.3-2.6,0.4-3.8c0.9,0.3,0.7,0.9,0.8,1.4c0.1,1-0.3,2,0.3,2.9c1.3,0.5,2.6,0.5,3.9,0
			c0.3-0.4,0.2-0.9,0.2-1.4c0-2.9,0-5.8,0-8.8c0-0.6-0.1-1.2,0.6-1.6c0.7,0.3,0.6,0.9,0.6,1.5c0,2.9,0,5.8,0,8.8
			c0,0.5-0.1,1,0.2,1.4c0.4,0.5,1,0.4,1.5,0.4c0.4,0,0.8,0,1.2,0.2c0.5,0.6,0,1-0.4,1.3c-2.6,2.2-5.4,4-8.5,5.4
			c-4.2,1.9-8.5,3.1-13.1,3.4c-0.5,0-0.9,0.2-1.2,0.6c-6.5-2-11.7-5.7-15.6-11.2c-0.1-0.1-0.1-0.2-0.2-0.3l0,0
			c-0.1,0-0.1-0.1-0.2-0.2c0-0.1-0.1-0.1-0.1-0.2c0-0.1-0.1-0.2-0.2-0.3l0,0c-0.1,0-0.1-0.1-0.2-0.2c0-0.1-0.1-0.1-0.1-0.2
			c-0.1-0.1-0.1-0.2-0.2-0.3c-0.1-0.1-0.3-0.3-0.3-0.5c-0.1-0.1-0.1-0.1-0.2-0.2c0-0.1-0.1-0.2-0.1-0.2c0.8-0.6,1.5-0.3,2.2,0.1
			c2,1,4,2,6.3,2.3c0.6,0.1,1.1,0.5,1.7,0.6c1.2,0,2.4,0.2,3.7-0.1c0.6-1.5-0.2-3.1,0.5-4.6c0.8-0.3,1,0.1,1.1,0.8
			c0.1,0.8,0,1.7,0,2.5c0,0.4-0.1,0.9,0.3,1.2c1.3,0.5,2.5,0.2,3.8,0.2c0.4-0.2,0.9-0.1,1.3-0.2c1.2-1.6,2.4-3.3,3.6-4.9
			C-421.2-29-421-29.5-420.4-29.6z"/>
		<path fill="#1DADA5" d="M-428.6-12.6c0-0.2-0.1-0.4-0.1-0.7c1.1-0.5,2.3-0.3,3.5-0.5c2.1-0.2,4.1-0.8,6.1-1.4
			c3.2-0.9,6.1-2.4,8.8-4.1c1.6-1,3.1-2.2,4.6-3.3c0.2-0.2,0.3-0.4,0.3-0.6c0.4-0.4,1-0.3,1.5-0.2c0.4-0.3,0.1-0.9,0.3-1.3
			c3-2.3,5-5.4,6.9-8.7c0.9-1.6,1.6-3.4,2.5-5c0.5-0.8,0.6-1.8,0.8-2.7c0.6-2.3,1.4-4.6,1.6-7.1c0-0.5,0.2-0.9,0.8-1.1l0,0
			c0,0.1,0.1,0.2,0.1,0.3c0,0.2,0.1,0.4,0.1,0.6c0,0.1,0.1,0.2,0.1,0.3c0,0.2,0.1,0.5,0.1,0.7c0.2,0.2,0,0.5,0.2,0.7
			c0,0.2,0,0.5,0.1,0.7c0.2,0.3,0,0.7,0.2,1c0,0.5,0,0.9,0.1,1.4c0.2,1.3,0.1,2.6,0,4c-0.2,6.1-2.3,11.6-6.1,16.4
			c-6.8,8.5-15.7,12.3-26.6,11.6c-0.3-0.2-0.7,0-1-0.2c-0.3,0-0.6-0.1-0.9-0.1c-0.2-0.1-0.5,0-0.7-0.2c-0.2,0-0.5-0.1-0.7-0.1
			c-0.2-0.1-0.3-0.1-0.5-0.2c-0.2,0-0.3,0-0.5-0.1c-0.2-0.1-0.4-0.1-0.5-0.2c-0.2,0-0.3-0.1-0.5-0.1c-0.1,0-0.2-0.1-0.3-0.1
			C-428.4-12.5-428.5-12.6-428.6-12.6z"/>
		<path fill="#1DADA5" d="M-408.5-23.4c-0.4-0.4-0.2-0.8-0.2-1.3c0-3.2,0-6.3,0-9.5c0-0.4,0.1-0.8-0.2-1.2c-0.4,0.4-0.3,0.9-0.3,1.3
			c0,3.2,0,6.5,0,9.7c0,0.4,0.2,0.9-0.3,1.2c-0.4-0.5-0.3-1.1-0.3-1.7c0-3.7-0.1-7.4,0-11.1c0-1.5-0.3-2.8-1.3-4
			c-0.4-0.5-0.8-1-1.1-1.6c-0.1-0.2-0.2-0.3-0.3-0.5c-0.2-0.3-0.4-0.5-0.5-0.8c-0.1-0.1-0.2-0.2-0.2-0.4c-0.1-0.1-0.2-0.3-0.3-0.5
			c-0.1-0.1-0.2-0.2-0.2-0.3c-0.1-0.2-0.2-0.3-0.3-0.5c-0.7-0.5-0.9-1.1-0.1-1.7c0.2,0,0.3,0.2,0.4,0.3c0.1,0.1,0.1,0.1,0.2,0.2
			c0,0,0.1,0.1,0.1,0.1c0.1,0.1,0.1,0.1,0.2,0.2c0.1,0.1,0.2,0.3,0.3,0.5c0.1,0.1,0.2,0.2,0.2,0.3c0.2,0.2,0.3,0.4,0.4,0.6
			c0.1,0.1,0.1,0.2,0.2,0.3c0.1,0.1,0.2,0.3,0.3,0.5c0.1,0.1,0.2,0.2,0.3,0.3c0.1,0.1,0.3,0.3,0.4,0.4c0.2,0,0.3-0.1,0.4-0.2
			c0.6-0.7,0.8-1.4,0.8-2.3c0-4.2,0-8.4,0-12.5c0-0.4,0-0.7-0.2-1.1c-1.2-0.5-2.7,0.2-3.9-0.5c-0.4,0-0.8-0.1-1.4-0.1
			c-1.3-3-3.3-5.6-6-7.7c-0.8-0.3-1.6-0.7-2.2-1.4c-0.4-0.5-1-0.5-1.6-0.7c-0.7-0.2-1.3-0.4-1.9-0.5c-0.2-0.3-0.2-0.6-0.2-0.9
			c0.1-0.1,0.1-0.1,0.2,0c0.1,0,0.2-0.1,0.3-0.1c0.2,0,0.5-0.1,0.7-0.1c0.1-0.1,0.3-0.1,0.5-0.2c0.3,0,0.6-0.1,0.9-0.1
			c0.2-0.1,0.4-0.1,0.5-0.2c0.5,0,0.9-0.1,1.4-0.1c0.2-0.1,0.5,0,0.8-0.1c0.1,0,0.2,0,0.3,0c0.1,0.1,0.2,0.1,0.2,0
			c5-0.2,9.7,0.6,14.2,2.8c-0.6,0.5,0.1,0.8,0.3,1.2c1.4,2.3,2.5,4.7,3.1,7.3c0.1,0.3,0.1,0.6-0.1,0.9c-0.5,0.5-1.1,0.3-1.7,0.4
			c-0.7,0.1-1.5-0.1-2.4,0.3c-0.1,4.2,0,8.4-0.1,12.7c1-1.4,2-2.9,3.1-4.2c0.7-0.8,1-1.8,1-2.9c0-1.2-0.4-2.5,0.4-3.6
			c0.7,0.4,0.6,1.2,0.6,1.7c0.1,2.4-0.1,4.8-0.6,7.2c-0.4,2.1-0.8,4.2-1.8,6c-0.9,1.6-1.5,3.4-2.9,4.7c0.3,4,0.1,8.1,0.1,12.1
			C-408.1-24.2-408.1-23.7-408.5-23.4z"/>
		<path fill="#1DADA5" d="M-318.1-29.4c-1.5,0-2.9,0-4.3,0c-2.4-4-4.7-8.1-7.2-12.2c-2.5,4.1-4.9,8.2-7.3,12.3
			c-1.1,0.1-2.2,0.1-3.6,0c3.1-5.1,6.1-10.1,9.1-15.2c-2.8-4.7-5.5-9.5-8.4-14.3c1.4,0,2.7,0,4.2,0c2.1,3.5,4.2,7.1,6.4,10.9
			c2.2-3.7,4.3-7.3,6.4-10.9c1.2,0,2.3,0,3.7,0c-2.8,4.7-5.5,9.3-8.3,13.9C-324.3-39.9-321.3-34.7-318.1-29.4z"/>
		<path fill="#1DADA5" d="M-359.9-29.7c0-1.2,0-2.4,0-3.7c1.2,0.4,2.3,0.9,3.5,1.3c2,0.7,4,1,6.1,0.5c1.8-0.4,3.2-1.4,3.7-3.3
			c0.6-2.1,0-3.9-1.5-5.3c-1.4-1.3-3-2.1-4.7-2.9c-1.3-0.7-2.7-1.3-4-2.2c-2.8-1.9-3.9-4.6-3.3-7.9c0.5-3,2.4-4.7,5.2-5.5
			c2.4-0.7,4.8-0.6,7.3-0.4c1.1,0.1,2.1,0.3,3.2,0.5c0,1.2,0,2.3,0,3.5c-1.8-0.7-3.5-1.4-5.3-1.6c-1.2-0.2-2.5-0.2-3.7,0.1
			c-3.4,1-4.4,4.6-1.9,7.2c1.3,1.4,3,2.1,4.6,3c1.8,0.9,3.6,2,5.2,3.2c2.6,1.9,3.4,4.5,3,7.5c-0.4,3-2.1,5-4.8,6.2
			c-2.9,1.2-5.9,1.1-8.8,0.8C-357.5-29.1-358.7-29.3-359.9-29.7z"/>
		<path fill="#1DADA5" d="M-436-23.1c-0.7-0.4-1.4-0.6-2.2-0.8c-1.8-0.2-3.4-1.1-5.1-1.9c-0.9-0.4-1.7-0.8-2.7-0.7
			c-1.7-2.6-2.6-5.5-3.3-8.5c-0.5-2.1-0.7-4.2-0.7-6.4c0.2-0.6-0.1-1.3,0.1-1.9c0-0.6,0.1-1.1,0.1-1.7c0.1-0.2,0-0.5,0.2-0.7
			c0-0.2,0-0.5,0.1-0.7c0.3,0,0.5,0,0.8,0.1c0.2,0.4,0.5,0.8,0.6,1.2c0.7,2.3,2.3,4,3.9,5.6c2.7,2.7,5.9,4.3,9.7,4.9
			c0.4,0,0.6,0.2,0.7,0.5c0.1,0.2,0,0.4-0.1,0.5c-0.1,0.1-0.2,0.3-0.2,0.4c-0.2,0.3-0.4,0.5-0.5,0.8c-0.1,0.2-0.2,0.3-0.3,0.5
			c-0.7,1-1,2.1-0.9,3.3c0.1,1.4,0,2.8,0,4.2C-435.7-24-435.7-23.5-436-23.1z"/>
		<path fill="#0069A5" d="M-390-39.3c0-1.3,0-2.6,0-4C-389.7-42-389.7-40.7-390-39.3z"/>
		<path fill="#018ECE" d="M-449.8-43.3c0,0.6,0.2,1.3-0.1,1.9C-449.9-42-450.1-42.7-449.8-43.3z"/>
		<path fill="#0069A5" d="M-423.6-11.6c0.3,0,0.7-0.1,1,0.2C-423-11.4-423.3-11.3-423.6-11.6z"/>
		<path fill="#0069A5" d="M-390.1-44.7c-0.3-0.3-0.2-0.6-0.2-1C-390-45.4-390-45.1-390.1-44.7z"/>
		<path fill="#018ECE" d="M-421.9-71.3c-0.2,0.2-0.5,0.2-0.8,0.1C-422.5-71.3-422.2-71.3-421.9-71.3z"/>
		<path fill="#0069A5" d="M-425.3-11.8c0.3,0,0.5-0.1,0.7,0.2C-424.8-11.6-425.1-11.6-425.3-11.8z"/>
		<path fill="#018ECE" d="M-449.5-45.7c0,0.3,0.1,0.5-0.2,0.7C-449.7-45.2-449.7-45.5-449.5-45.7z"/>
		<path fill="#0069A5" d="M-390.3-46.4c-0.2-0.2-0.2-0.5-0.2-0.7C-390.3-46.9-390.3-46.7-390.3-46.4z"/>
		<path fill="#0069A5" d="M-426.5-12c0.2,0,0.4,0,0.5,0.2C-426.2-11.9-426.4-11.9-426.5-12z"/>
		<path fill="#0069A5" d="M-427.5-12.3c0.2,0,0.4,0,0.5,0.2C-427.2-12.1-427.3-12.1-427.5-12.3z"/>
		<path fill="#018ECE" d="M-424.1-71c-0.1,0.2-0.3,0.2-0.5,0.2C-424.5-71-424.3-71.1-424.1-71z"/>
		<path fill="#018ECE" d="M-425.5-70.8c-0.1,0.2-0.3,0.2-0.5,0.2C-425.9-70.8-425.7-70.8-425.5-70.8z"/>
		<path fill="#0069A5" d="M-428.2-12.5c0.1,0,0.2,0.1,0.3,0.1C-428.1-12.3-428.2-12.4-428.2-12.5z"/>
		<path fill="#0179B7" d="M-444.5-24.1c0.1,0.1,0.1,0.2,0.2,0.3C-444.4-23.9-444.5-23.9-444.5-24.1z"/>
		<path fill="#0179B7" d="M-444.6-24.3c0.1,0.1,0.1,0.1,0.2,0.2C-444.5-24.2-444.6-24.2-444.6-24.3z"/>
		<path fill="#0179B7" d="M-444.9-24.8c0.1,0.1,0.1,0.2,0.2,0.3C-444.9-24.6-444.9-24.6-444.9-24.8z"/>
		<path fill="#0179B7" d="M-445.1-25c0.1,0.1,0.1,0.1,0.2,0.2C-445-24.9-445.1-24.9-445.1-25z"/>
		<path fill="#0179B7" d="M-445.4-25.5c0.1,0.1,0.1,0.2,0.2,0.3C-445.3-25.3-445.4-25.4-445.4-25.5z"/>
		<path fill="#0179B7" d="M-445.8-26.2c0.1,0.1,0.1,0.1,0.2,0.2C-445.7-26.1-445.8-26.1-445.8-26.2z"/>
		<path fill="#018ECE" d="M-421.4-71.3c-0.1,0.1-0.2,0.1-0.2,0C-421.6-71.3-421.5-71.3-421.4-71.3z"/>
		<path fill="#018ECE" d="M-426.7-70.5c-0.1,0-0.2,0.1-0.3,0.1C-426.9-70.5-426.8-70.5-426.7-70.5z"/>
		<path fill="#0069A5" d="M-390.8-48.8c0-0.1-0.1-0.2-0.1-0.3C-390.8-49-390.8-48.9-390.8-48.8z"/>
		<path fill="#0069A5" d="M-390.6-47.8c0-0.1-0.1-0.2-0.1-0.3C-390.6-48-390.6-47.9-390.6-47.8z"/>
		<path fill="#FEFEFE" d="M-420.4-29.6c-1.5,2.1-2.9,4.2-4.6,6.2c-0.3-0.3-0.4-0.8-0.4-1.2c0.1-1.6-0.4-3.2,0.3-4.8
			c0-5.2,0-10.3,0-15.5c0-0.8,0.2-1.5,0.7-2.1c1.3-1.7,2.5-3.4,3.9-5C-420.4-44.5-420.4-37-420.4-29.6z"/>
		<path fill="#FEFEFE" d="M-415-23.4c-1.5-2.1-3-4.1-4.5-6.2c0-7,0-14.1,0-21.1c0-0.4,0-0.8,0.2-1.3c1.4,1.9,2.7,3.8,4.1,5.7
			c0.3,0.4,0.2,0.9,0.2,1.4c0,4.6,0,9.3,0.1,13.9c0.5,0.6,0.4,1.4,0.3,2.1c-0.3,1.7-0.2,3.5-0.2,5.2
			C-414.8-23.6-414.9-23.5-415-23.4z"/>
		<path fill="#FEFEFE" d="M-426-23.3c-1.1,0.4-2.2,0.1-3.2,0.2c-0.4,0-0.9,0-1.3,0c-0.1-0.1-0.2-0.2-0.2-0.3c0.2-3-0.5-6-0.2-8.9
			c0.2-1.9,0.2-3.9,0.3-5.8c1.5-2.1,3-4.1,4.4-6.2c0.1,0,0.2,0,0.2,0c0,5.2,0,10.5,0,15.7C-425.4-26.9-425.4-25.1-426-23.3z"/>
		<path fill="#FEFEFE" d="M-414-44.4c0.2,0.2,0.3,0.3,0.5,0.5c0,0.1,0.1,0.2,0.2,0.2c0,0.2,0.2,0.4,0.3,0.5c0,0.1,0.1,0.2,0.1,0.2
			c0.1,0.3,0.4,0.5,0.5,0.8c0,0.1,0.1,0.2,0.2,0.2c0.8,1.1,1.5,2.2,2.3,3.3c0.3,0.4,0.4,0.7,0.4,1.2c0,4.6,0,9.1,0,13.7
			c0,0.2-0.1,0.5-0.1,0.7c-1.2,0-2.4,0-3.6,0c-0.3,0-0.7,0.1-1-0.2c0-2.8-0.4-5.5-0.3-8.3c0-0.4,0-0.8,0.3-1.1c0-3.5,0-6.9,0.1-10.4
			C-414-43.6-414-44-414-44.4z"/>
		<path fill="#FEFEFE" d="M-430.6-59.1c1.5,0,2.9,0,4.5,0c0,4.3,0,8.6,0,13c-1,1.4-2,2.8-3.1,4.3c-0.6-0.7-1.1-1.3-1.5-2
			c0.1-3.6-0.4-7.2-0.3-10.9C-430.9-56.1-430.6-57.6-430.6-59.1z"/>
		<path fill="#FEFEFE" d="M-411.1-42.1c-0.1-0.3-0.3-0.5-0.5-0.7c-0.1-0.1-0.1-0.2-0.2-0.2c-0.1-0.2-0.2-0.3-0.3-0.5
			c0-0.1-0.1-0.2-0.2-0.2c-0.1-0.3-0.3-0.5-0.5-0.7c0-0.1-0.1-0.2-0.2-0.2c-0.1-0.2-0.2-0.3-0.3-0.5c0-0.1-0.1-0.2-0.2-0.2l0,0
			c-0.1-0.1-0.1-0.2-0.2-0.3c-0.1-0.2-0.2-0.3-0.3-0.5c0-3.8,0-7.7,0-11.5c0-0.5,0-1,0.1-1.4c1.5,0,2.9,0,4.3,0
			c0.4,0.5,0.2,1,0.2,1.4c0,4.1-0.1,8.1,0,12.2c0,1.5-0.4,2.7-1.5,3.7C-411-41.9-411-42-411.1-42.1z"/>
		<path fill="#FEFEFE" d="M-431.5-49.5c0,1.5,0,2.9,0,4.4c-0.1,0-0.2,0-0.2,0.1c-1.5-2-3.1-4-4.6-6c0-2.6,0-5.2,0-7.9
			c1.6,0,3.1,0,4.8,0c0,0.9,0,1.7,0,2.5c0.2,0.3,0.3,0.6,0.3,1c0,1.7,0,3.3,0,5C-431.2-50.1-431.2-49.8-431.5-49.5z"/>
		<path fill="#FEFEFE" d="M-436-23.1c-0.2-2.5,0-5-0.1-7.5c0.4-0.6,0.8-1.2,1.2-1.8c0.1-0.1,0.1-0.1,0.2-0.2
			c0.2-0.2,0.5-0.4,0.5-0.7c0.1-0.1,0.1-0.1,0.2-0.2c0.1-0.2,0.2-0.3,0.3-0.5c0.7-0.8,1.3-1.7,2-2.5c0.1,0,0.2,0,0.2,0c0,1,0,2,0,3
			c0.6,1.8,0.6,3.7,0,5.5c0,1.6,0,3.2,0,5C-433.1-23.1-434.6-23.1-436-23.1z"/>
		<path fill="#FDFDFE" d="M-415-47.6c-1.4-2-2.8-3.8-4.1-5.7c1.3-1.8,2.7-3.5,4.1-5.5C-415-54.9-415-51.4-415-47.6z"/>
		<path fill="#FDFDFD" d="M-424.9-58.6c1.3,1.8,2.6,3.5,4,5.3c-1.4,1.9-2.7,3.7-4.2,5.8c0-3.9,0-7.5,0-11
			C-425-58.6-424.9-58.6-424.9-58.6z"/>
		<path fill="#1DADA5" d="M-414-32.7c0,3.1,0,6.2,0,9.4c-0.4-0.8-0.1-1.6-0.2-2.4c0-0.7,0-1.3,0-2c-0.6,0-0.5,0.4-0.5,0.6
			c0,0.9,0,1.9,0,2.8c0,0.3,0.1,0.7-0.3,0.9c0-2.6,0.1-5.1,0.1-7.7c0.4-0.5,0.2-1,0.2-1.5c0-1.7,0-3.4,0-5.1c0-0.4-0.2-0.8,0.5-1.2
			c0,1,0,1.9,0,2.8C-414.2-35-414.5-33.8-414-32.7z"/>
		<path fill="#1DADA5" d="M-431.5-49.5c0-2.3,0-4.6,0-7c0.2,0,0.4-0.1,0.5-0.1c0.4-0.8-0.2-1.8,0.4-2.6c0,4,0,8.1-0.1,12.1
			c0,1.1,0,2.2,0,3.2c-0.4-1.2-0.1-2.5-0.2-3.7c0-0.6,0-1.2,0-1.7C-431-49.5-431.3-49.5-431.5-49.5z"/>
		<path fill="#1DADA5" d="M-431.5-28.1c0-1.8,0-3.7,0-5.5c0.2,0,0.4-0.1,0.6-0.1c0.3-1.5-0.2-3,0.3-4.4c0,4.6,0,9.1,0,13.7
			c0,0.5-0.1,1,0.1,1.4c-0.5-0.2-0.3-0.7-0.3-1.1c0-1.2,0-2.5,0-3.6C-431-28.2-431.3-28.1-431.5-28.1z"/>
		<path fill="#1DADA5" d="M-426-23.3c0-1.8,0-3.5,0-5.3c0.4-0.8,0.1-1.6,0.2-2.4c0.1-0.6-0.1-1.2,0.2-1.9c0.6,1.3-0.1,2.6,0.5,3.6
			c0,2,0,4,0.1,6C-425.3-23.2-425.7-23.8-426-23.3z"/>
		<path fill="#FEFEFE" d="M-403.6-56.5c0,1.8,0,3.5,0,5.2c-1.6,2.1-3.1,4.1-4.8,6.3c0-4.8,0-9.4,0-14c1.5-0.2,3,0,4.5-0.1
			C-403.4-58.3-403.8-57.3-403.6-56.5z"/>
		<path fill="#FEFEFE" d="M-408.5-23.4c0-4.1,0-8.2,0-12.2c0-0.4-0.2-0.9,0.2-1.2c1.2,1.7,2.4,3.5,3.7,5.1c0.5,0.7,0.7,1.4,0.7,2.2
			c0,2,0,4.1,0,6.1c-0.4,0.4-1,0.1-1.5,0.2C-406.4-23.3-407.5-22.9-408.5-23.4z"/>
		<path fill="#018ECE" d="M-413-44.7c0.1,0.1,0.1,0.2,0.2,0.2C-412.9-44.6-413-44.6-413-44.7z"/>
		<path fill="#018ECE" d="M-413.5-45.4c0.1,0.1,0.1,0.1,0.2,0.2C-413.4-45.3-413.5-45.3-413.5-45.4z"/>
		<path fill="#018ECE" d="M-413.3-43.7c-0.1-0.1-0.1-0.1-0.2-0.2C-413.4-43.9-413.3-43.8-413.3-43.7z"/>
		<path fill="#018ECE" d="M-412.3-43.7c0.1,0.1,0.1,0.1,0.2,0.2C-412.2-43.6-412.3-43.7-412.3-43.7z"/>
		<path fill="#018ECE" d="M-413.8-45.7c0.1,0,0.2,0.1,0.2,0.3C-413.6-45.5-413.7-45.6-413.8-45.7z"/>
		<path fill="#018ECE" d="M-412.8-43c0-0.1-0.1-0.1-0.1-0.2C-412.9-43.2-412.8-43.1-412.8-43z"/>
		<path fill="#018ECE" d="M-411.8-43c0.1,0,0.2,0.1,0.2,0.2C-411.7-42.9-411.8-43-411.8-43z"/>
		<path fill="#018ECE" d="M-411.1-42.1c0.1,0.1,0.2,0.1,0.2,0.2C-411-41.9-411-42-411.1-42.1z"/>
		<path fill="#018ECE" d="M-412.1-42.1c-0.1-0.1-0.1-0.1-0.2-0.2C-412.2-42.2-412.1-42.1-412.1-42.1z"/>
		<path fill="#1DADA5" d="M-372.6-59.3c-1.4,0-2.6,0-4,0c-3.3,10-6.6,19.9-9.9,29.8c1.2,0.1,2.2,0.3,3.3,0.2c1.1-3.4,2.2-7,3.3-10
			c3.4,0,6.8,0,10.2,0c1.1,3,2.2,7,3.4,10c1.3,0,2.4,0,3.8,0C-366-39.3-369.3-49.3-372.6-59.3z M-379.2-42.3c1.4-4,2.8-8.6,4.2-13
			c0.1,0,0.2-0.1,0.2-0.1c1.4,4.3,2.8,9.1,4.2,13.1C-373.5-42.3-376.2-42.3-379.2-42.3z"/>
		<path fill="#018ECE" d="M-434.7-32.7c-0.1,0.1-0.1,0.1-0.2,0.2C-434.8-32.5-434.8-32.6-434.7-32.7z"/>
		<path fill="#018ECE" d="M-434-33.7c-0.1,0.1-0.1,0.1-0.2,0.2C-434.1-33.5-434.1-33.6-434-33.7z"/>
	</g>
</g>
</svg>
