<?xml version="1.0" encoding="utf-8"?>
<!-- Generator: Adobe Illustrator 18.1.0, SVG Export Plug-In . SVG Version: 6.00 Build 0)  -->
<!DOCTYPE svg PUBLIC "-//W3C//DTD SVG 1.1//EN" "http://www.w3.org/Graphics/SVG/1.1/DTD/svg11.dtd">
<svg version="1.1" id="Layer_1" xmlns="http://www.w3.org/2000/svg" xmlns:xlink="http://www.w3.org/1999/xlink" x="0px" y="0px"
	 viewBox="0 0 131.8 60" enable-background="new 0 0 131.8 60" xml:space="preserve">
<g id="CYdu93_1_">
	<g>
		<path fill="#1DADA5" d="M712.4,202.7c0.9,71.8-59,131-130.6,131.3c-72,0.3-132.1-59-131.9-131.6c0.2-72.3,59.5-131.1,131.5-131
			C654.2,71.4,713.4,131.6,712.4,202.7z"/>
		<path fill="#FDFDFD" d="M581.6,329.5c-70.2,0.1-127.8-56.4-127.2-127.9c0.6-70.5,57.2-126,127.2-125.8
			c70.7,0.2,126.8,57.5,126.5,127.6C707.8,273.5,650.5,329.5,581.6,329.5z"/>
		<path fill="#1DADA5" d="M581.4,110.3c48.7-0.8,92.5,39.1,92.5,92.4c0,51-40.5,92.9-93.5,92.6c-52.6-0.3-91.9-44.2-91.8-92.8
			C488.8,152.1,531.1,109.2,581.4,110.3z"/>
		<path fill="#1DADA5" d="M685.8,193.2c3.9-0.5,7.8-1.1,11.7-1.6c0.9-0.1,1.7,0.2,1.7,1.2c0,1-0.6,1.4-1.5,1.5
			c-4.6,0.5-9.2,1-13.9,1.5c-0.9,0.1-2,1-2.5-0.3c-0.5-1.3-0.5-2.6,0.9-3.5c1.3-0.8,2.5-1.6,3.7-2.5c2.2-1.5,4.3-3,6.7-4.7
			c-2.9-0.9-5.4,0.1-8,0.4c-1.6,0.1-4.4,1.5-4.7-0.8c-0.3-2.6,2.6-1.5,4.2-1.8c3.8-0.6,7.6-0.9,11.4-1.3c0.9-0.1,2.1-0.4,2.5,0.9
			c0.4,1.3-0.2,2.2-1.3,2.9c-3.7,2.5-7.4,5-11.1,7.4C685.7,192.8,685.7,193,685.8,193.2z"/>
		<path fill="#1DADA5" d="M523.4,291.7c-1.7,2.8-3.4,5.6-5.1,8.4c-0.5,0.9-1,1.9-2.2,1.4c-1.4-0.6-0.7-1.6-0.1-2.4
			c2.4-4,4.7-8,7.2-12c0.5-0.8,1-1.8,2.3-1.4c1.2,0.4,1.9,1.3,1.8,2.7c-0.2,2.3-0.1,4.6-0.6,6.9c-0.4,1.9-0.3,3.9,0.3,6.1
			c1.5-2.5,3.1-5,4.6-7.5c0.5-0.8,1-1.7,1.6-2.5c0.3-0.4,0.7-0.8,1.2-0.4c0.6,0.4,1.1,0.8,0.8,1.6c-0.2,0.5-0.4,0.9-0.7,1.3
			c-2.4,4-4.8,7.9-7.2,11.9c-0.5,0.9-1,1.8-2.3,1c-0.9-0.5-1.6-1-1.3-2.3C524.3,300.4,524.2,296.1,523.4,291.7z"/>
		<path fill="#1DADA5" d="M636.5,103.7c-1.6,2.6-3.2,5.3-4.9,7.9c-0.5,0.8-1,1.7-1.6,2.5c-0.2,0.3-1,0.3-1.3,0.1
			c-0.3-0.2-0.6-0.8-0.6-1.2c0-0.4,0.4-0.9,0.6-1.3c2.8-4.5,5.5-9,8.3-13.5c3,0.6,3.4,2.5,2.9,4.7c-0.9,3.4-0.5,6.9-0.9,11
			c2.8-2.3,3.6-5.2,5.3-7.4c0.8-1.1,1.3-3.4,3-2.5c2,1.2-0.2,2.6-0.8,3.7c-2,3.6-4.2,7.1-6.4,10.6c-0.5,0.8-1.1,1.8-2.3,1.3
			c-1-0.4-1.5-1.2-1.5-2.3c0.1-2,0.1-3.9,0.5-5.9c0.4-2.4,0.4-4.9,0.5-7.3C637,103.8,636.8,103.7,636.5,103.7z"/>
		<path fill="#1DADA5" d="M681.2,174.8c-2.5,0.2-4.4-1.4-5.4-4.1c-0.9-2.4-1.4-4.8,0.7-6.9c0.6-0.6,1.2-1.3,2.1-0.8
			c0.7,0.5,0.7,1.4,0.6,2.3c-0.1,0.9-1.2,1.1-1.6,1.8c-1.2,1.9-0.2,4.2,2,4.5c4.4,0.6,8.2-0.9,11.3-3.9c0.9-0.9,1.5-2.3,0.8-3.7
			c-0.6-1.3-1.3-2.8-3.3-1.8c-0.4,0.2-1,0.2-1.4,0.4c-1.8,0.6-3.6,1.1-2.2,3.7c0.3,0.5-0.2,0.9-0.7,1c-0.3,0-0.7-0.1-0.8-0.3
			c-0.3-0.4-0.5-0.8-0.7-1.3c-1.3-3.6-2.7-4.1,2.2-5.5c0.2,0,0.3-0.2,0.5-0.2c4.5-1.6,5.6-1.5,7.1,1.4c2.1,3.9,2.3,6.2-0.7,9.5
			C689,173.6,685.6,174.6,681.2,174.8z"/>
		<path fill="#1DADA5" d="M481.7,215.8c0.9,2.4,1.5,4.4,1.4,6.6c-0.1,4.7-3,6.5-7.2,4.4c-0.9-0.5-1.3-1.1-2.2,0.2
			c-1.3,2.1-4,2.1-6,3.2c-0.6,0.4-1.4,0.3-1.7-0.4c-0.3-0.8-0.4-1.7,0.4-2.2c0.7-0.5,1.5-0.7,2.2-1.1c0.9-0.4,1.8-0.8,2.6-1.4
			c1-0.8,2-1.9,1.3-3.4c-0.7-1.5-1.9-0.7-3-0.5c-1.1,0.2-2.3,0.3-3.4,0.5c-0.8,0.1-1.7,0-1.9-1c-0.2-1.2,0.4-1.8,1.6-2
			c4.2-0.7,8.5-1.4,12.7-2.1C479.4,216.4,480.4,216.1,481.7,215.8z"/>
		<path fill="#1DADA5" d="M691.8,239.5c-4.5-1.2-9.3-2.6-14-3.9c-0.9-0.2-1.5-0.6-1.4-1.6c0.1-1.3,1.1-1.6,2.2-1.4
			c1.3,0.2,2.5,0.7,3.8,1c1.4,0.3,2.4,0.1,2.9-1.7c1.2-3.9,1.3-3.8-2.6-5c-0.6-0.2-1.3-0.3-1.9-0.4c-1.2-0.2-1.8-0.7-1.6-2
			c0.3-1.4,1.4-1.2,2.4-1c4.6,1.2,9.2,2.6,13.8,3.8c1.1,0.3,1.9,0.6,1.6,1.9c-0.3,1.3-1.2,1.3-2.3,1.1c-1-0.3-1.9-0.6-2.8-0.8
			c-3.9-1-3.8-1-4.8,2.9c-0.5,1.8-0.3,2.8,1.7,3.1c1.5,0.3,2.9,0.8,4.3,1.1c1,0.2,1.3,0.8,1.2,1.8
			C694.1,239.8,693,239.7,691.8,239.5z"/>
		<path fill="#1DADA5" d="M599.2,311.9c0,6.3-2.4,8.9-7.4,8.8c-3.4-0.1-5.8-2-6.5-5.7c-0.5-2.5-0.6-5-0.2-7.5
			c0.5-3.4,2.4-5.3,5.9-5.8c2.7-0.4,5.1,0.8,6.6,3.4C598.8,307.4,599.4,309.8,599.2,311.9z"/>
		<path fill="#1DADA5" d="M586.4,84.1c1.5,0.1,3,0.2,4.4,0.3c4.4,0.5,6.6,2.5,7.1,6.9c0.3,2.8-0.4,5.6-1.6,8.1
			c-1,2.1-2.7,3.2-5.1,3.2c-1.3,0-2.6,0-4-0.1c-2.9-0.2-2.8-0.2-2.5-3.3c0.3-3,0.5-5.9,0.6-8.9C585.3,88.3,585.6,86.2,586.4,84.1z"
			/>
		<path fill="#1DADA5" d="M627.4,97.9c0.1,3.5-1.1,6.5-3.2,9.2c-2,2.5-4.6,3.2-7.6,2.1c-2.9-1-4.4-3.2-4.5-6.4
			c-0.1-3.5,1.2-6.5,3.3-9.2c2.3-2.9,4.2-3.4,7.4-2.3C626.4,92.5,627.4,93.9,627.4,97.9z"/>
		<path fill="#1DADA5" d="M475.1,159.7c3.9,1.3,8.2,2.7,12.4,4.1c0.6,0.2,0.9,0.9,0.7,1.7c-0.2,1.1-1,1.3-1.8,1.1
			c-2.7-0.8-5.3-1.7-8-2.6c-1.4-0.5-2.8-1-4.2-1.3c-2-0.4-3.1,0.9-3.7,2.5c-0.6,1.5,0.4,2.6,1.6,3.2c1,0.5,2.1,0.9,3.2,1.3
			c2.6,0.9,5.3,1.9,7.9,2.8c1.2,0.4,2.4,0.6,1.9,2.2c-0.5,1.7-1.9,1.1-2.9,0.8c-3.6-1.2-7.2-2.3-10.7-3.8c-3-1.3-3.7-3.5-2.6-7
			C470.1,161.1,472,159.4,475.1,159.7z"/>
		<path fill="#1DADA5" d="M630.3,310.3c-2.5-4.8-4.9-9.7-7.5-14.5c-0.4-0.8-0.9-1.5,0.1-2.1c1-0.6,1.9-0.4,2.5,0.7
			c0.8,1.4,1.5,2.8,2.7,4.9c1.6-3.6,0.5-7.5,3.4-10.4c0.9,2.4,0.4,4.2,0,5.9c-0.9,4.1-0.9,4.1,2.8,6.1c2.2,1.1,4.3,2.3,6.9,3.7
			c-1.4,1.6-2.6,2-4.3,1.1c-2-1.1-4.1-2.1-6.5-3.3c-0.6,2.2,0.8,3.6,1.6,5C633.4,309.3,632.3,309.9,630.3,310.3z"/>
		<path fill="#1DADA5" d="M699.1,217.3c-0.3,1.4-1.1,1.1-2.2,0.7c-4.4-1.9-8.8-3.7-13.3-5.5c-0.3-0.1-0.6-0.3-0.9-0.4
			c-0.9-0.4-1.8-0.8-1.7-2.1c0.1-1.1,0.6-1.9,1.7-2.2c5.3-1.4,10.5-2.8,15.8-4.1c0.7-0.2,1.3,0.1,1.4,0.9c0.1,0.7,0,1.4-0.6,1.8
			c-0.6,0.3-1.3,0.3-1.9,0.6c-1,0.6-2.7,0.1-3,1.3c-0.4,1.5-0.4,3.3-0.3,4.9c0,1.6,1.7,1.3,2.6,1.8
			C697.7,215.6,699.1,215.6,699.1,217.3z"/>
		<path fill="#1DADA5" d="M679.9,267.7c-0.4,2-1.3,3.2-3.4,2.5c-1.7-0.5-3.5-0.8-5.3-0.3c-0.4,1.6,0.7,2.6,1.1,3.8
			c0.3,0.9,0.7,1.8,0.9,2.8c0.1,0.6-0.1,1.4-0.7,1.7c-0.7,0.3-1.2-0.2-1.4-0.9c-0.6-1.5-1.4-3-1.9-4.6c-0.9-2.8-2.4-4.6-5.7-4.2
			c-1.3,0.2-2.6-0.2-4-0.2c-0.8,0-1.4-0.4-1.3-1.1c0.1-0.5,0.6-1.2,1.1-1.5c2-1,4.2,0.4,6.6-0.4c0.1-1.8-1.3-3.2-1.7-4.8
			c-0.3-1-0.4-2.1,0.8-2.5c1.1-0.4,1.4,0.8,1.5,1.5c1.1,5.5,4.5,7.9,10,7.7C677.6,267.2,678.7,267.5,679.9,267.7z"/>
		<path fill="#1DADA5" d="M482.4,237.6c1.3,0,2.7-0.1,4,0c1.7,0.2,2.4,1.9,1.5,3.3c-0.3,0.6-0.9,1-1.4,1.4
			c-3.7,3.1-7.4,6.2-11.2,9.2c-0.6,0.5-1.3,1.3-2,0.3c-0.5-0.7-0.5-1.6,0.1-2.3c0.3-0.4,0.7-0.7,1.1-1c2.6-2.6,2.5-2.6,1.2-5.8
			c-0.7-1.7-1.6-2.3-3.4-2.1c-0.8,0.1-1.7,0.1-2.5,0c-0.6-0.1-1.4-0.3-1.3-1.2c0.1-0.9,0.8-1,1.4-1
			C474.1,238.2,478.3,237.9,482.4,237.6C482.4,237.7,482.4,237.6,482.4,237.6z"/>
		<path fill="#1DADA5" d="M484.9,143c-0.5-0.6-1.2-1.1-1.6-1.8c-0.6-1-2.7-1.6-1.3-3.1c1.5-1.6,2.2,0.5,2.9,1.2
			c2.6,2.8,5,5.7,7.4,8.6c0.6,0.8,1.4,1.4,2,2.2c1.2,1.6,0.4,3.3-1.5,3.5c-0.8,0.1-1.7,0-2.5-0.2c-4.5-0.9-9-1.9-13.5-2.8
			c-0.8-0.2-1.8-0.2-1.5-1.4c0.2-0.8,0.8-1.5,1.7-1.5c0.2,0,0.4-0.1,0.5,0C482.5,149.9,483.6,146.3,484.9,143z"/>
		<path fill="#1DADA5" d="M496.2,284.8c5.1-2.8,10-5.5,14.9-8.3c1.1-0.6,2-0.9,3,0.2c0.9,0.9,0.6,1.7,0.2,2.7c-2,4.5-4,9.1-6,13.7
			c-0.4,0.9-0.7,2.1-2,1.3c-0.9-0.5-1.4-1.4-0.7-2.5c0.2-0.3,0.3-0.6,0.5-0.9c1.1-1.7,1.3-3.2-0.6-4.7c-1.7-1.3-3-2.6-5.2-0.8
			C499.2,286.3,497.8,287.4,496.2,284.8z"/>
		<path fill="#1DADA5" d="M660.3,287.9c1.6-1.4,2.7-2.6,4-3.7c0.5-0.4,1.1-0.9,1.7-0.3c0.6,0.6,0.3,1.2-0.2,1.7
			c-1.7,2-3.4,4.1-5.5,6.5c-4.9-5-9.1-9.4-13.2-13.6c2.2-2.3,4.1-4.4,6.1-6.4c0.4-0.4,0.9-0.5,1.3-0.3c0.8,0.5,0.5,1.2,0,1.7
			c-1.2,1.1-2.5,2.2-3.6,3.1c0.5,2.6,2.5,3.2,3.4,4.8c0.6-0.4,1-0.6,1.4-0.9c1.3-0.8,2.7-3.6,3.7-2.6c1.7,1.8-1.3,2.7-2.3,3.9
			c-0.9,1.1-0.6,1.7,0.1,2.5C658.2,285.6,659.2,286.7,660.3,287.9z"/>
		<path fill="#1DADA5" d="M467.9,180.6c-1,2-2.1,3.4-1.9,5.4c0.2,2.5,1.9,3.6,4,2.3c0.8-0.5,1.4-1.4,2.1-2.1c0.9-1,1.7-2.1,2.7-3
			c3.1-2.7,6.4-1.7,7.8,2.1c0.9,2.5-0.3,4.5-0.9,6.7c-0.2,0.7-1.1,0.6-1.7,0.3c-0.6-0.2-0.5-0.8-0.3-1.2c0.4-1.1,1-2.1,1.3-3.2
			c0.3-1.1-0.4-1.9-1.2-2.6c-1-0.9-2-0.4-2.7,0.3c-1.4,1.4-2.6,3-4,4.4c-2.2,2.2-4,2.6-6.2,1.5c-3.5-1.7-4.2-8.6-1-11.1
			C466.1,180.3,466.8,180.5,467.9,180.6z"/>
		<path fill="#1DADA5" d="M540.6,108c1.8-1,3.9,0.1,5.7-1.2c2.1-1.5,2.3-3.4,0.1-4.6c-1.3-0.7-2.8-1-4.2-1.3
			c-1.3-0.3-2.6-0.3-3.8-1.1c-2.6-1.7-3-5-0.8-7.2c1.7-1.7,4.1-2.1,6.3-2.7c0.8-0.2,1.2,0.5,1.2,1.2c0,0.5-0.1,1-0.7,1.2
			c-1.3,0.4-2.7-0.1-3.9,0.7c-0.7,0.4-1.4,0.9-1.5,1.9c-0.1,1.1,0.5,2,1.4,2.4c0.7,0.3,1.6,0.3,2.4,0.5c1.5,0.3,3,0.5,4.3,1
			c3.8,1.4,4.7,6,1.7,8.7c-1.8,1.6-3.9,2.3-6.4,2.4C541.4,109.8,540.9,109,540.6,108z"/>
		<path fill="#1DADA5" d="M554.5,318.4c-1.6-0.3-3.5-0.8-5.3-1.7c-0.9-0.5-1.1-1.3-0.8-2.1c0.4-1.2,1.2-0.6,2-0.2
			c0.8,0.5,1.7,1,2.6,1.5c1.6,0.9,3,0.3,3.9-1c0.8-1.2,0.4-2.6-0.6-3.6c-1-1.1-2.1-2.1-3.2-3.2c-2-2.1-2.5-4.4-1.6-6.3
			c0.9-1.9,3.2-2.8,6.1-2.3c0.8,0.1,1.6,0.5,2.3,0.8c0.9,0.3,2.3,0.3,2,1.7c-0.4,1.3-1.5,0.7-2.4,0.3c-0.7-0.3-1.5-0.6-2.3-0.8
			c-1-0.2-2,0-2.6,1c-0.6,1-0.3,1.9,0.5,2.7c1,1.1,2.1,2.1,3.2,3.1c1.6,1.6,2.5,3.5,2.1,5.8C559.8,316.7,557.6,318.4,554.5,318.4z"
			/>
		<path fill="#1DADA5" d="M681,254.8c4.5,0,5.2-0.7,6.3-4.8c0.2-0.6,0.1-1.4,1.1-1.3c0.9,0.1,0.9,0.8,1,1.4c0.2,5.2-3.9,8.6-9.1,7.7
			c-4-0.7-7.2-2.4-9.3-5.9c-1.4-2.5-0.7-4.8,0.7-7c1.2-1.8,2.8-2.9,5-2.5c0.6,0.1,1.4,0.1,1.4,1c0,0.7-0.4,1.3-0.9,1.7
			c-0.9,0.7-2,0.1-2.9,0.5c-2.1,0.7-2.8,2.5-1.4,4.3C675.2,252.9,678.3,254.7,681,254.8z"/>
		<path fill="#1DADA5" d="M609,304.4c-0.1,1.9,0.5,3.8,1.4,5.6c1.8,4,5,5.7,8.6,2.5c0.5-0.4,1.1-1,1.7-0.5c0.8,0.8,0.2,1.6-0.4,2.1
			c-3.6,3.6-9.2,3-12-1.3c-1.9-2.9-2.6-6-2.3-9.5c0.2-2.9,2-4.4,4.5-5.4c2.3-0.9,4.6-0.6,6.5,1c0.6,0.5,1.4,1.3,0.7,2.1
			c-0.6,0.7-1.5,1.3-2.6,0.8c-0.3-0.1-0.6-0.4-0.7-0.7c-0.9-1.4-2.1-2.2-3.8-1.3C608.8,300.9,608.9,302.6,609,304.4z"/>
		<path fill="#1DADA5" d="M670.5,157.3c-1.2-2-2.3-4-3.4-6c-0.5-0.8-1.5-1.9-0.2-2.5c1.2-0.6,1.4,1,2,1.8c0.7,0.9,1.2,2,1.8,3
			c2.1-0.2,3.4-1.5,5.1-2.4c-0.2-1.9-1.5-3.2-2.2-4.9c-0.2-0.5-0.2-1,0.3-1.3c0.5-0.3,1-0.2,1.3,0.3c0.9,1.4,1.7,2.8,2.5,4.3
			c2.3-0.2,3.6-1.9,5.4-2.4c0.1-2.6-2.4-4.1-2.3-6.6c2.2-0.4,2.5,1.5,3.2,2.6c3.3,5.2,3.3,5.3-2.1,8.3c-3.2,1.8-6.4,3.5-9.6,5.3
			C671.6,156.9,671.1,157.1,670.5,157.3z"/>
		<path fill="#1DADA5" d="M578.7,93.2c-1.3,0.8-2.5,0.4-3.6,0.6c-2.7,0.5-2.9,0.8-2.7,3.6c0.2,3,0.2,3,3.7,3.1
			c1.2,0,3.4-0.7,3.5,0.7c0.1,2.3-2.3,1.2-3.5,1.2c-6.5,0.4-6.6,0.4-6.8-6c-0.1-3.2-0.2-6.3-0.4-9.5c-0.1-2,0.6-2.7,2.5-2.6
			c1.8,0,3.6,0.1,5.4-0.5c0.5-0.2,1,0.1,1.2,0.6c0.3,0.8-0.2,1.1-1,1.3c-1,0.1-1.9,0.5-2.9,0.5c-1.8,0-2.1,0.9-2.1,2.5
			c0.1,3.5,0.1,3.7,3.6,3.3C576.8,92,577.9,91.4,578.7,93.2z"/>
		<path fill="#1DADA5" d="M481.2,210.3c-2.8-0.9-0.9-3.8-2.7-4.3c-1.9-0.5-3.9-0.2-5.9-0.2c-2.3,0-4.6,0.1-7,0
			c-1.1,0-2.5,0.4-2.6-1.4c-0.1-1.7,1.2-1.7,2.4-1.7c3.3,0,6.6-0.2,9.9,0c2.4,0.1,4.3,0,4-3.3c0-0.4,0.4-0.9,1-0.8
			c0.6,0.1,0.8,0.6,0.8,1C481.2,203.1,481.2,206.5,481.2,210.3z"/>
		<path fill="#1DADA5" d="M560.9,85.6c0.7,0,1.1,0.2,1.2,0.8c0.1,0.7-0.4,1-0.8,1c-3,0.1-2.8,1.8-2.2,4.1c0.9,3.5,1.5,7.1,2.2,10.7
			c0.2,0.9,0.4,2.1-1,2.4c-1.6,0.3-1.8-0.8-2.1-2c-0.6-3.6-1.5-7.1-2.1-10.7c-0.3-2.3-1-3.4-3.5-2.4c-0.6,0.2-1.4,0.1-1.5-0.7
			c-0.1-0.9,0.6-1,1.2-1.2C555.3,86.9,558.2,86.2,560.9,85.6z"/>
		<path fill="#1DADA5" d="M566.8,303c4.1-1.1,9.5-0.7,12.3,0.6c-0.3,1.1-1.2,0.9-2,0.8c-1.4-0.1-2,0.5-2.2,1.9
			c-0.5,3.8-0.8,7.5-0.9,11.3c0,1.2,0.4,3-1.7,2.8c-2.1-0.2-1.3-2-1.3-3.1c0-2.8,0.1-5.6,0.5-8.4C572.1,304.4,572.2,304.4,566.8,303
			z"/>
		<path fill="#1DADA5" d="M478.2,260.7c4.7-2.9,9.4-5.7,14.1-8.6c1.2-0.7,1.9-0.3,2.5,0.6c0.6,0.9,0,1.5-0.8,2
			c-3.1,1.9-6.2,3.8-9.3,5.8c-3,1.9-3,1.9-1.5,4.9c0.2,0.4,0.5,0.8,0.8,1.3c0.3,0.6,0.8,1.3,0,1.8c-1,0.6-1.4-0.2-1.8-1
			c-0.8-1.4-1.8-2.8-2.6-4.2C479,262.5,478.7,261.7,478.2,260.7z"/>
		<path fill="#1DADA5" d="M524,117.5c1.8-0.4,3.1-1.8,4.6-2.7c0.4-0.2,1.1-0.2,1.3,0.4c0.1,0.4,0.1,1.1-0.2,1.3
			c-2.3,1.6-4.7,3.1-7.3,4.9c-3.2-4.7-6.3-9.4-9.4-14c-0.4-0.7-0.8-1.3,0.3-2c1.1-0.7,1.7-0.5,2.4,0.5c2.1,3.2,4.2,6.3,6.3,9.5
			C522.6,116.2,523,117.1,524,117.5z"/>
		<path fill="#1DADA5" d="M506.3,126c0.1,2.8-1.8,4.7-4.6,4.7c-2.6,0-4.4-1.8-4.5-4.4c0-2.7,1.9-4.7,4.7-4.7
			C504.3,121.5,506.2,123.4,506.3,126z"/>
		<path fill="#1DADA5" d="M660.6,130.8c-2.9,0.1-4.4-1.3-4.6-4c-0.1-2.8,1.7-4.9,4.3-5.1c2.3-0.1,4.8,2.4,4.8,4.8
			C665.1,128.9,663.2,130.7,660.6,130.8z"/>
		<path fill="#1DADA5" d="M490,277.7c-0.3-0.3-0.7-0.5-1.1-0.9c-0.6-0.6-0.3-1.2,0.2-1.6c4.2-3.4,8.5-6.8,12.8-10.2
			c0.7-0.5,1.2-0.1,1.6,0.5c0.4,0.5,0.8,1.2,0.2,1.7c-4.2,3.5-8.4,6.9-12.7,10.3C490.8,277.7,490.4,277.6,490,277.7z"/>
		<path fill="#1DADA5" d="M536.4,112.2c-0.2,0.4-0.4,0.8-0.8,1.1c-0.6,0.5-1.2,0.5-1.8,0c-0.3-0.3-0.6-0.8-0.8-1.2
			c-2.1-4.1-4.2-8.3-6.3-12.4c-0.7-1.3-0.7-2.2,0.7-2.8c1.4-0.6,1.6,0.6,2.1,1.5c2.1,4.1,4.2,8.2,6.3,12.4
			C536,111.2,536.2,111.7,536.4,112.2z"/>
		<path fill="#FBFCFB" d="M581.1,290.7c-47.4,0.4-88-38.6-88-88.1c0-48.4,39.9-88.6,89.3-88c48.9,0.6,87.6,41.4,87,89.3
			C668.8,251.6,628.7,291.5,581.1,290.7z"/>
		<path fill="#E6F2F3" d="M481.2,221.5c0,2.2-1.2,3.3-3.4,3.2c-2-0.1-2.9-1.5-3.3-3.1c-0.4-1.4,1.5-2.2,4.7-2.2
			C480.7,219.4,481.2,220.1,481.2,221.5z"/>
		<path fill="#F6F9F9" d="M588,309.1c0-0.2,0-1.5,0.3-2.8c0.4-1.5,1.4-2.6,3.1-2.7c1.5-0.1,2.5,0.7,3.1,2c1.7,3.4,2,6.9,1.2,10.6
			c-0.4,1.7-1.7,3-3.5,3c-1.6,0-2.5-1.3-3.2-2.7C588,314.6,588.1,312.4,588,309.1z"/>
		<path fill="#F8FBFA" d="M587.8,100.2c0.2-3.6,0.3-7.2,0.5-10.8c0.1-1.1-0.4-2.6,1.2-2.9c1.5-0.3,3-0.1,4,1.3
			c1.9,2.4,1.4,9.6-0.8,11.8C591.7,100.6,591.5,100.7,587.8,100.2z"/>
		<path fill="#F5F9F9" d="M615,103.7c0.1-3.8,1.6-6.7,3.5-9.4c0.8-1.2,2.3-2.1,3.9-1.5c1.8,0.6,2.6,2.3,2.4,4
			c-0.4,3.3-1.4,6.4-3.4,9.1c-1.1,1.4-2.5,2.2-4.3,1.6C615.2,106.7,614.9,105.1,615,103.7z"/>
		<path fill="#E2EDF1" d="M691.6,212.7c-2.5-0.3-4.7-1.2-7.3-2.6c1.7-0.5,3-0.9,4.3-1.2C692.2,208,692.4,208.2,691.6,212.7z"/>
		<path fill="#D8E9EC" d="M485,239.6c-1.5,2.6-3.9,3.4-5.9,5.3c-1.2-1.2-1.7-2.4-1.9-4.2C479.7,240.4,482.2,240,485,239.6z"/>
		<path fill="#D9E9EF" d="M490.6,150.7c-2-0.5-4-0.9-6.2-1.4c-0.2-1.9,1-3,2.2-4.5c1.7,1.8,3.3,3.4,4.9,5.1
			C491.2,150.1,490.9,150.4,490.6,150.7z"/>
		<path fill="#D4E7EB" d="M511,279.4c0.1,2-0.9,3.2-1.5,4.4c-1.2,2.2-2.5,2.3-3.9,0.4c-0.6-0.9-0.4-1.5,0.3-2.1
			C507.3,281.1,508.8,280,511,279.4z"/>
		<path fill="#1DADA5" d="M652.1,165.6c4.2,7.3,6.6,15.3,8,23.4c1.9,11.1,2.1,22.3-1,33.4c-3,10.8-7.6,20.8-14.6,29.7
			c-13.5,17.1-31.2,27.2-52.6,30.2c-9.4,1.3-19.1,1.1-28.6-1.3c-5.2-1.3-10.3-2.8-15.1-5.2c2.8-4.3,7.6-3.7,11.7-4.3
			c3.6-0.6,7.3-0.9,10.9-1c11.6-0.3,21.4-5.6,31.2-10.8c3.9-2.1,7.1-5.4,11.1-7.5c2-1,4.2-0.8,6.3-0.9c1.8-0.1,3.7-0.1,4.8-2
			c1.5-3.2,0.7-6.6,0.7-9.8c0-3.3,1-5.9,3.9-7.5c5-2.9,7.7-7.8,10.1-12.7c5.8-11.6,9.9-23.9,12.5-36.5c0.8-4-0.4-8.2-0.8-12.2
			C650.2,168.5,649.2,166.4,652.1,165.6z"/>
		<path fill="#1DADA5" d="M652.1,165.6c-1.6,1.7-1.2,3.5-0.1,5.3c0.4,0.7,1.5,1.4,1,2.1c-1.8,2.4-1.1,4.4,0.1,6.7
			c0.5,0.9,0.3,2.4-0.2,3.4c-2,4.8-3.1,9.8-3.9,15c-0.5,3.4-2.4,6.7-3.8,9.9c-0.7,1.6-2.1,3.1-2.5,4.7c-1.4,5.3-4.5,9.7-7.1,14.4
			c-1.9,3.4-5.1,4.4-7.5,6.7c-1.3,1.3-2,2.2-1.9,4c0.1,3.2,0,6.3,0,9.5c0,0.8,0.1,1.7-0.8,2.2c-2-1.6-1.9-4-1.6-6
			c1.5-10-3.5-17.1-10.3-24.5c0,8.3,0,16,0,23.7c0,2.4,0.5,5-1.5,7.1c-0.9,0.3-1.8,0.1-2.4-0.7c-0.7-1.2-1-2.5-1-3.8
			c0.1-11.1-0.6-22.2,0.4-33.3c9.3-7.2,12.7-17.6,15.2-28.6c0.4-2-0.9-3.1-1.6-4.5c2.3-6,2.3-12.2,2.2-18.5c0-2.4-0.4-4.6-1.9-6.5
			c-0.2-7.1-3.2-13.3-6.6-19.3c-0.7-1.3-1.6-3.1,1.2-3.4c4.3,2.5,8.6,4.9,12.5,8C639.2,146.6,647.2,154.8,652.1,165.6z"/>
		<path fill="#1DADA5" d="M526.1,144.5c2.6-3.5,6.3-5.8,9.9-8.2c5.2-1,10.5,0,15.8-0.9c3.6-0.7,6.9,0.2,9.6,3
			c1.5,1.6,3.4,2.6,5.6,3.2c5.4,1.4,8.9,4.7,10.8,10c1,2.8,2.1,5.6,4,8c3.2,4,1.6,9-3.6,11.3c-3.4-3.4-5.5-7.8-9.8-11.9
			c0.6,8.9-1.2,17.2,1.1,25.4c0.4,0.8,0.5,1.6,0.4,2.5c-1.1,3.9-1.3,7.8-1.3,11.8c-0.1,17.8,0.3,35.5-0.2,53.3
			c-4.1,2.2-3.5-1.4-3.6-3.2c-0.3-5.6-0.1-11.2-0.1-16.9c0-3.3,0-6.6,0-9.9c0-8.6,0.1-17.3,0-25.9c0-2.3,0.4-4.7-1.2-6.7
			c-1.5-3.7-0.8-7.5-0.9-11.3c-0.1-6.3,0-12.6-0.1-18.9c-0.1-3.4-2.3-3.9-5-4c-2.9,0-4.9,0.7-4.9,4.1c0,11.1-0.1,22.2,0.1,33.3
			c0.1,2.8,1.6,5,3.2,7.1c1.2,2.6-0.9,2.8-2.4,3.2c-8.1,1.9-15.5,1.8-22.3-4.5c-4.6-4.2-8.5-8.8-11.9-13.9
			c-3.8-5.6-2.6-12.4-3.7-18.7C514,156.1,522.7,151.6,526.1,144.5z"/>
		<path fill="#1DADA5" d="M566.1,221.6c0,9,0,18,0.1,26.9c0,1.1-0.2,2.5,0.3,3.4c0.6,1,1.3,0.5,1.5-0.6c-0.8-2.5,1.1-4,2.3-5.7
			c2.7-4,6.1-7.4,8.1-11.8c0.8-4.4,0-8.9,0.5-13.4c0.1-1.1,0.3-2.7,1.6-2.8c1.8-0.1,1.8,1.6,1.9,2.8c0.6,4.4-0.5,8.9,0.7,13.3
			c2.7,5.2,6.7,9.3,10.5,15c0.5-4.2,0.1-7.4,0.3-10.5c0.1-2.1-0.5-4.3,1.4-6c1.6,0.1,2.2,1.4,2.7,2.6c0.9,3.5,0.6,7.2,0.5,10.7
			c-0.2,4,1.3,5.8,5.4,5.5c1.8-0.2,3.6-0.1,5.4,0c0.8,0.1,1.7,0.1,2.5,0.4c0.5,0.2,1,0.5,1.3,1c0.3,1.8-1.3,2-2.4,2.7
			c-1,0.6-2.3,0.2-3.1,1.3c-3.4,4.5-8.3,6.4-13.5,8.1c-1.4,0.4-2.6,1.3-3.8,2.1c-3.6,2.3-7.4,4.1-11.9,3.8c-3.1-0.2-6.2,0.8-9.2,1.3
			c-2.6,0.4-5.2,0.7-7.8,0.7c-2.5,0-5-0.1-7.1,1.4c-1.2,0.9-2.5,0.5-3.8,0.6c-1,0-2-0.2-2.4,1.2c-13.7-6.2-24.9-15.4-33.2-28.1
			c3.4-3.1,7.2-3,10.7-0.5c3.5,2.5,7.6,1.5,11.3,2.5c1.2,0.9,2.6,1.3,4.1,1.5c5.6,0.6,6.5-0.2,6.8-5.8c0.1-1.8-0.1-3.6,1.3-5.1
			c0.8-0.3,1.5-0.3,2.3,0.1c0.9,1.1,1,2.4,1.1,3.7c0.7,7.5,2.5,8.5,10.2,5.9c1.6-1.9,1-4.2,1-6.3c0.1-5.8-0.1-11.6,0.1-17.4
			C563.9,224.6,563.3,222.2,566.1,221.6z"/>
		<path fill="#1DADA5" d="M566.1,221.6c-1.6,0.6-0.9,2-0.9,3c-0.1,8.3,0,16.7-0.1,25c0,1,0.6,2.4-1.1,2.9c-1.6-2-1.3-4.4-1.3-6.7
			c0-13.8,0-27.6,0-41.5c0-1.6,0.4-3.2-0.4-5c-6.2,6.8-11,13.8-9.7,23.6c0.5,4.1,0.1,8.3,0.1,12.5c0,1.8,0.1,3.7-1.5,5.1
			c-0.6,0-1.2,0-1.8,0c-1.9-1.4-1.4-3.6-1.5-5.5c-0.1-5.1,0-10.1-0.1-15.3c-1.8,0.4-2.4,2.1-3.8,2.6c-3.8,2.6-7.5,2-12,1
			c-13.9-3-22-13.2-30.8-22.8c-0.5-10,2.1-19.3,5.7-28.4c4-10.1,10-18.9,17.7-26.5c0.5-0.5,1-0.8,1.6-1.2c-0.9,3-1.7,6-3.9,8.4
			c-1.3,1.5-2.8,2.9-4.2,4.2c-1.4,1.3-2.7,2.5-0.5,4.4c1,0.9,0.8,2.1,0,3.1c-1.4,1.9-1.2,4-0.3,5.9c1,2.1,1,4.2,0.8,6.3
			c-0.2,2.6,0.5,4.7,2,6.9c4.2,5.9,9,11.3,14.6,15.8c2.4,2,5.2,3.2,8.6,3.1c4.4-0.2,8.8,0,12.8-2c0.7-5.1,3.8-8.5,8.1-11.1
			c0.6,0.1,1.5-1.5,1.8,0c0.3,1.6,0.1,3.3,0.1,4.9C566.1,203.5,566.1,212.6,566.1,221.6z"/>
		<path fill="#1DADA5" d="M597,234.6c-1.1-0.2-0.6-1.9-1.8-2c-0.9-0.8-1.4-1.9-1.4-3.1c-0.1-12.5-0.8-25.1,0.3-37.6
			c0.9-2.2,2.6-2.1,4.4-1.5c2,1.3,3.1,3.4,4.6,5.2c0.9,1,1.6,2.3,3.2,1.8c1.4-0.5,1.8-1.9,2.1-3.2c0.3-1.3,0.3-2.6,0.3-4
			c0-9.8,0-19.6,0-29.4c0-5.4-0.3-5.7-5.5-5.8c-1.8-0.1-3.7,0.1-5.4-0.6c-3.3-2.6-4.2-6.6-5.9-10.1c-3.2-6.7-8.5-11.5-14.1-16.1
			c-1.9-1.5-4.3-2.6-4.6-5.4c5.6-0.3,11.1,0.1,16.7,0.4c6.9,0.5,13.3,2.1,19.7,4.3c2.8,0.9,5.6,1.9,7.9,3.9c-0.8,0.3-1.8,0.8-1,1.7
			c1.4,1.7,2.2,3.6,3.2,5.5c1.3,2.4,3.1,4.9,3.8,7.3c0.7,2.1-0.4,5-0.4,7.6c-1.5,1.7-3.6,1.4-5.6,1.4c-2.6,0.1-4,1-4,3.8
			c0,8.9,0,17.9,0,26.8c0,1.2,0,2.5,1.9,1.7c1.5-0.7,3-1.3,3.2-3.3c0.9-1.9,1.5-4.2,4.2-4.5c3.4,0.5,4.1,1.3,2.9,3.7
			c-1.2,2.5-1.1,5.1-1.8,7.5c-1.2,3.8-2.1,7.8-4.6,11.1c-2.5,3.2-5.6,6.1-5.3,10.7c0,0.5-0.4,0.9-1,0.9c-0.7,0.1-1.4,0.1-1.7-0.6
			c-0.4-0.8,0.1-2.1-1.3-2.3c-2.7,0.1-3.5-2.2-4.8-3.8c-2.2-2.7-3.8-5.8-6.7-8.8c0,10.4,0,20.2,0,30.1
			C598.5,230.3,599.1,232.8,597,234.6z"/>
		<path fill="#1DADA5" d="M573.2,122.8c2.6,1.6,4.1,5,7.8,5.2c0.4,0,0.9,0.6,1.1,1c1.9,3.7,4.6,6.6,8,9c0.7,0.5,1,1.2,1.3,2
			c1.8,4.7,4.5,9,6,13.8c1.3,1.3,1.4,3,1.4,4.6c0.1,9.8,0,19.6,0.1,29.3c0,1-0.1,2-0.8,2.8c-1,1-1.9,0.4-2.8,0
			c-3.8-1.1-4.8-4.8-7-7.4c-1.4-1.6-2.3-3.5-4.5-5.5c-0.1,7,0,13.2,0,19.5c0,10.6,0,21.2,0,31.8c0,2.3,0.4,4.7-1.5,6.6
			c-1.5-0.6-0.9-2-0.9-3c-0.1-4.8,0-9.6,0-14.4c-0.3,0-0.6,0-1,0c0,4.3,0.1,8.5-0.1,12.8c0,1.5,0.9,3.3-0.8,4.6
			c-2.2-1.9-1.6-4.6-1.6-7c-0.1-16.6,0-33.1,0-50.2c-3.4,2.3-4.1,7.1-8.5,7.3c-0.1-0.7-0.5-1.1-1.1-1.2c1.4-6,4.5-10.9,10-14
			c1.7-0.8,3.1-1.9,3.1-4c0-0.9,0.2-1.7,0.8-2.2c1.7-1.5,1-2.2-0.7-3.2c-1.8-1-2.7-2.9-3.1-4.8c-0.6-2.9-2.4-5.3-3.4-8.1
			c-0.8-2.4-3.4-3.9-6.1-4.6c-3.7-0.9-7-2.4-9.6-5.5c-2.5-2.9-6-1.6-8.9-1.3c-2.6,0.3-5,1.3-7.6,0c-0.9-0.5-1.8,0.1-2.8,0.4
			c-1.3,0.4-2.9,1.2-3.8-0.8C547.2,128.3,559.7,124.1,573.2,122.8z"/>
		<path fill="#1DADA5" d="M501.2,200.5c0.9,0,1.8,0,2.2,0.8c2.4,4.7,8.1,6.3,10.2,11.1c5.1,2.7,8.5,8.3,15.2,8.2
			c2,0,4.1,1.1,5.9,2.2c2.3,1.4,4.2,1.5,6.1-0.5c0.8-0.8,1.7-1,2.7-0.7c0.1,1-0.2,2-0.8,2.8c-4.8,6.1-5.9,13-5.3,20.5
			c0.1,1.6,0.1,3.3-1.4,4.6c-3.1,1.4-6,1.7-9.2-0.5c-2.3-1.6-5.3-2.3-7.9-3.4c-0.8,0.5-0.9,1.1-0.4,1.7c0.5,0.7,0.1,1.2-0.4,1.6
			c-0.8,0.6-1.1-0.1-1.6-0.5c-0.5-0.4-1-0.9-1.7-0.8c-6.6-8.9-10.4-19-12.7-29.8C501,212.1,500.9,206.3,501.2,200.5z"/>
		<path fill="#FBFCFD" d="M613.2,252.6l-0.3-0.2l-0.4,0c-1.3-0.8-1-1.8-0.4-2.9c0-11.2,0-22.4,0-33.7c2,0.2,2.5,1.6,3.2,2.6
			c2.2,2.9,4,6.1,6.5,8.8c2.9,3.2,3.7,6.8,3.5,10.9c-0.2,3.8,0.1,7.6,0.1,11.4c-0.2,1.7-0.3,3.2-2.8,3
			C619.5,252.3,616.3,252.6,613.2,252.6z"/>
		<path fill="#FDFDFD" d="M597,234.6c0-13.2,0-26.4,0-39.9c1.5,0,2.1,1.4,3,2.5c3.4,4.4,6.3,9.3,10.1,13.4c0,11.2,0,22.3,0.1,33.5
			c0,1.8,0.1,3.7,0.2,5.5c0.6,1.1,0.8,2.1-0.4,2.9c-2.5,0-4.9,0-7.4,0c-6.4,0-5.2,0.5-5.4-5.1C597.1,243.1,597,238.8,597,234.6z"/>
		<path fill="#F9FCFC" d="M616.9,187.5c-1.8,0.9-2.1,3.2-3.9,4c-0.9-0.6-0.7-1.3-0.7-1.9c0-10.9,0-21.9,0-32.8c0-3,0.1-3,2.9-3.1
			c2.6-0.1,5.3-0.1,7.9-0.2c1.7,0.1,2.8,0.8,2.8,2.7c0,5.7,0,11.5,0,17.3c0,2.5-2.4,3.9-3,6c-1.5,1.5-2.7,3.2-3.7,5.1
			C618.6,185.6,618.1,186.9,616.9,187.5z"/>
		<path fill="#1DADA5" d="M609.9,252.5c0.1-1,0.3-1.9,0.4-2.9c0.6,0,1.2,0,1.8,0c0.1,1,0.3,1.9,0.4,2.9
			C611.6,252.4,610.8,252.4,609.9,252.5z"/>
		<path fill="#FEFEFE" d="M569.2,185.7c2.7-1.8,3.9-4.8,5.9-7.2c1.2-1.5,2.3-3.1,4.2-4.5c0,20.5,0,41.1,0,61.6
			c-3.9,5.2-8,10.2-11.3,15.8c-1.4-0.4-1-1.5-1-2.5c0-18.9,0.1-37.9-0.1-56.8C566.9,189.4,568.9,188,569.2,185.7z"/>
		<path fill="#FBFCFB" d="M564.3,189.6c-2.9,3.5-5.7,7.1-8.1,11.1c-3.5-0.8-4.8-3.7-4.8-6.5c-0.2-12.8-0.1-25.6-0.1-38.4
			c0-1.4,0.5-2.2,2-2.1c0.2,0,0.3,0,0.5,0c3.3,0.1,7.4-1.3,9.7,0.5c2.4,2,0.7,6.2,0.8,9.5C564.3,172.3,564.3,180.9,564.3,189.6z"/>
		<path fill="#F9FBFC" d="M549.1,193c-4.5-6-8.2-11.1-12.1-16c-0.9-1.2-1.1-2.4-1.1-3.7c0-5.6,0.1-11.3-0.1-16.9
			c-0.1-2.3,1-2.8,3-2.7c2.5,0.1,5,0.1,7.5,0c1.7,0,2.8,0.2,2.8,2.4C549.1,167.9,549.1,179.9,549.1,193z"/>
		<path fill="#F9FBFA" d="M578.1,170.5c-3.7,4.4-7.2,9-10,14c-0.7-0.2-1.1-0.6-1.1-1.4c0-9.1,0-18.2,0.4-27.5
			C571,160.6,576.3,164.3,578.1,170.5z"/>
		<path fill="#0298D2" d="M565.6,155.1c0.5,1.7,0.8,3.4,0.2,5.5C564.7,158.5,565.4,156.8,565.6,155.1z"/>
		<path fill="#FDFDFD" d="M582.1,235.6c0-20.6,0-41.1,0-61.7c0.2-0.1,0.5-0.3,0.7-0.4c4.1,5.7,8.2,11.4,12.3,17c0,14,0,28,0.1,42
			c0,6.2,0,12.5,0,18.7c-0.3,0.1-0.6,0.2-1,0.3C590.2,246.2,586.1,240.9,582.1,235.6z"/>
		<path fill="#FBFDFB" d="M551.1,240.5c0.1-8.3,0.2-16.6,0.1-25c0-2.8,0.7-5.1,2.4-7.4c3.4-4.5,6.6-9.1,9.8-13.6
			c1,0.7,0.8,1.3,0.8,1.9c0,18,0,36,0,53.9c0,0.7-0.1,1.3-0.2,2c-3.1,0-6.2,0-9.3,0c-3.3,0-3.3-0.1-3.4-3.6
			C551.2,246.1,551.2,243.3,551.1,240.5z"/>
		<path fill="#F9FBFB" d="M536.1,249.6c0.1-4.1,0.3-8.3,0.1-12.4c-0.2-3.3,0.5-6.1,2.6-8.7c1.8-2.1,2.6-4.9,4.7-6.8
			c2.1-1.6,2.8-4.4,5.8-6.4c0,8.9,0,17.1,0,25.3c-0.1,3.3-0.2,6.6-0.1,9.8c0,1.4-0.5,2.1-2,2.1c-3,0-5.9-0.1-8.9,0
			C536,252.6,536.4,250.9,536.1,249.6z"/>
		<path fill="#FDFDFD" d="M597.9,190.6c-0.7-1.4-0.8-2.8-0.8-4.3c0.1-10.8,0.1-21.6,0.1-32.5c3.3,0,6.6-0.1,9.9-0.1
			c2.8,0,2.9,0.1,2.9,3.1c0,8.8,0,17.6,0,26.4c0,2.8,0,5.6,0,8.5c0,4.7,0,4.7-4.2,9.1C602.8,197.7,600.3,194.2,597.9,190.6z"/>
		<path fill="#F4F9F9" d="M594.8,154.2c0,10.7,0,20.4,0,30.8c-3.3-3.1-5.2-6.3-7.2-9.4c-1.4-2-4.3-3.9-3.9-6
			c0.4-2.3,2.8-4.3,4.3-6.4C590,160.4,592.1,157.7,594.8,154.2z"/>
	</g>
</g>
<g id="JvXlQn_1_">
	<g>
		<path fill="#1DADA5" d="M0.5,25C2.6,14,8.8,6.4,19,2.1c1.2-0.5,2.4-1,3.7-1.1c0.3,0.2,0.4,0.7,0.8,0.7C25.4,1.9,26.8,3,28.3,4
			c1.3,0.9,2.6,2,3.6,3.2c0.9,1.1,1.8,2.3,2.3,3.6c0.2,0.6,0.7,1,1.3,1.2c0.3,0.1,0.6,0.3,0.7,0.6c0.3,2.2,0.1,4.3,0.1,6.5
			c0,2,0.1,3.9-0.1,5.9c-0.5,0.8-0.3,1.5,0,2.3c0.2,3.5,0.1,7,0.1,10.5c0,0.3-0.1,0.6-0.2,0.9c-0.8,0.2-0.6-0.5-0.6-0.8
			c0-1.4,0-2.8,0-4c0.1,1.6-0.1,3.4,0.1,5.2c0,0.5,0.2,1.2-0.6,1.4c-0.5-0.5-0.4-1.1-0.4-1.7c0-3.8,0-7.5,0-11.3
			c0-1.3-0.3-2.3-1-3.3c-0.8-1-1.5-2-2.3-3.1c-0.2-0.3-0.5-0.6-0.5-1.1c0,6.6,0,13.1,0,19.7c0,0.6,0.1,1.3-0.1,1.9
			c-0.1,0.1-1.2,0.1-1.4,0c-0.2-0.6-0.1-1.3-0.1-1.9c0-6.7,0-13.3,0-20c0.1,0.5-0.2,0.9-0.4,1.2c-0.4,0.5-0.7,1.2-1.2,1.6
			c-1.9,2-2.4,4.2-2.3,6.9c0.2,3.6,0,7.2,0,10.8c0,0.6,0.1,1.2-0.2,1.8c-0.6,0.5-0.6-0.1-0.6-0.4c-0.1-0.5,0-1,0-1.5
			c0,0.7,0,1.4,0,2c0,0.3,0,0.7-0.5,0.8c-0.4-0.5-0.3-1.1-0.3-1.7c0-3.9,0-7.9,0-11.8c0-0.4,0.1-0.8-0.1-1.2
			c-1.3,1.8-2.6,3.6-3.8,5.4c-0.4,1.1-0.1,2.2-0.2,3.3c0,0.5,0,1.2-0.8,1.2c-0.6-0.1-0.5-0.6-0.6-1c0-0.4,0-0.9,0-1.4
			c-0.7,0.6-0.9,1.6-1.8,1.8c-1.8-0.3-3.6-0.8-5.3-1.5c-3.1-1.2-5.4-3.4-7.4-6c-0.8-1-1.5-2-1.9-3.2C1.5,25.9,1.1,25.4,0.5,25z"/>
		<path fill="#1DADA5" d="M42.7,2.8c3.7,1.6,6.8,3.9,9.5,6.9c3.1,3.4,5.3,7.2,6.6,11.6c0.1,0.3,0.1,0.6,0.2,0.9
			c-0.4,0.6-0.4,1.4-0.5,2.1c-0.5,2.9-1.2,5.8-2.3,8.5c-1.4,3.3-3,6.6-5.3,9.5c-1.2,1.5-2.2,3.1-3.8,4.2c-0.3,0.2-0.4,0.6-0.6,1
			c-0.1,0.2-0.2,0.6-0.6,0.4c-0.5-1.1-0.3-2.3-0.2-3.4c0.3-2.7-0.5-4.9-2.3-7c-0.8-0.9-1.6-1.8-1.8-3c0.9-1.9,2.3-3.6,3-5.6
			c1-2.7,1.9-5.4,1.9-8.3c0-1.1,0.4-2.3,0.2-3.4c-0.1-0.8-0.2-1.7-0.6-2.4c-0.2-0.8-0.1-1.7-0.2-2.5C45.6,9.5,44.3,7,43,4.6
			c-0.2-0.4-0.5-0.7-0.6-1.2C42.3,3.2,42.1,2.8,42.7,2.8z"/>
		<path fill="#1DADA5" d="M29.5,41.8c0.4-0.4,0-0.9,0.4-1.4c0.5,0.4,0,1,0.5,1.4c0.9,0.5,1.4,1.5,2,2.3c0.7,0.9,1.4,1.8,2,2.8
			c0.1,0.1,0.1,0.5,0.5,0.3c0.2-1.2-0.3-2.6,0.4-3.8c0.9,0.3,0.7,0.9,0.8,1.4c0.1,1-0.3,2,0.3,2.9c1.3,0.5,2.6,0.5,3.9,0
			c0.3-0.4,0.2-0.9,0.2-1.4c0-2.9,0-5.8,0-8.8c0-0.6-0.1-1.2,0.6-1.6c0.7,0.3,0.6,0.9,0.6,1.5c0,2.9,0,5.8,0,8.8
			c0,0.5-0.1,1,0.2,1.4c0.4,0.5,1,0.4,1.5,0.4c0.4,0,0.8,0,1.2,0.2c0.5,0.6,0,1-0.4,1.3c-2.6,2.2-5.4,4-8.5,5.4
			c-4.2,1.9-8.5,3.1-13.1,3.4c-0.5,0-0.9,0.2-1.2,0.6c-6.5-2-11.7-5.7-15.6-11.2c-0.1-0.1-0.1-0.2-0.2-0.3l0,0
			c-0.1,0-0.1-0.1-0.2-0.2c0-0.1-0.1-0.1-0.1-0.2c0-0.1-0.1-0.2-0.2-0.3l0,0c-0.1,0-0.1-0.1-0.2-0.2c0-0.1-0.1-0.1-0.1-0.2
			c-0.1-0.1-0.1-0.2-0.2-0.3c-0.1-0.1-0.3-0.3-0.3-0.5c-0.1-0.1-0.1-0.1-0.2-0.2C4.1,45,4,45,4,44.9c0.8-0.6,1.5-0.3,2.2,0.1
			c2,1,4,2,6.3,2.3c0.6,0.1,1.1,0.5,1.7,0.6c1.2,0,2.4,0.2,3.7-0.1c0.6-1.5-0.2-3.1,0.5-4.6c0.8-0.3,1,0.1,1.1,0.8
			c0.1,0.8,0,1.7,0,2.5c0,0.4-0.1,0.9,0.3,1.2c1.3,0.5,2.5,0.2,3.8,0.2c0.4-0.2,0.9-0.1,1.3-0.2c1.2-1.6,2.4-3.3,3.6-4.9
			C28.8,42.4,29,41.9,29.5,41.8z"/>
		<path fill="#1DADA5" d="M21.3,58.8c0-0.2-0.1-0.4-0.1-0.7c1.1-0.5,2.3-0.3,3.5-0.5c2.1-0.2,4.1-0.8,6.1-1.4
			c3.2-0.9,6.1-2.4,8.8-4.1c1.6-1,3.1-2.2,4.6-3.3c0.2-0.2,0.3-0.4,0.3-0.6c0.4-0.4,1-0.3,1.5-0.2c0.4-0.3,0.1-0.9,0.3-1.3
			c3-2.3,5-5.4,6.9-8.7c0.9-1.6,1.6-3.4,2.5-5c0.5-0.8,0.6-1.8,0.8-2.7c0.6-2.3,1.4-4.6,1.6-7.1c0-0.5,0.2-0.9,0.8-1.1l0,0
			c0,0.1,0.1,0.2,0.1,0.3c0,0.2,0.1,0.4,0.1,0.6c0,0.1,0.1,0.2,0.1,0.3c0,0.2,0.1,0.5,0.1,0.7c0.2,0.2,0,0.5,0.2,0.7
			c0,0.2,0,0.5,0.1,0.7c0.2,0.3,0,0.7,0.2,1c0,0.5,0,0.9,0.1,1.4c0.2,1.3,0.1,2.6,0,4c-0.2,6.1-2.3,11.6-6.1,16.4
			c-6.8,8.5-15.7,12.3-26.6,11.6c-0.3-0.2-0.7,0-1-0.2c-0.3,0-0.6-0.1-0.9-0.1c-0.2-0.1-0.5,0-0.7-0.2c-0.2,0-0.5-0.1-0.7-0.1
			c-0.2-0.1-0.3-0.1-0.5-0.2c-0.2,0-0.3,0-0.5-0.1c-0.2-0.1-0.4-0.1-0.5-0.2C22.3,59,22.2,59,22,59c-0.1,0-0.2-0.1-0.3-0.1
			C21.6,58.8,21.4,58.8,21.3,58.8z"/>
		<path fill="#1DADA5" d="M41.4,48c-0.4-0.4-0.2-0.8-0.2-1.3c0-3.2,0-6.3,0-9.5c0-0.4,0.1-0.8-0.2-1.2c-0.4,0.4-0.3,0.9-0.3,1.3
			c0,3.2,0,6.5,0,9.7c0,0.4,0.2,0.9-0.3,1.2c-0.4-0.5-0.3-1.1-0.3-1.7c0-3.7-0.1-7.4,0-11.1c0-1.5-0.3-2.8-1.3-4
			c-0.4-0.5-0.8-1-1.1-1.6c-0.1-0.2-0.2-0.3-0.3-0.5c-0.2-0.3-0.4-0.5-0.5-0.8c-0.1-0.1-0.2-0.2-0.2-0.4c-0.1-0.1-0.2-0.3-0.3-0.5
			c-0.1-0.1-0.2-0.2-0.2-0.3c-0.1-0.2-0.2-0.3-0.3-0.5c-0.7-0.5-0.9-1.1-0.1-1.7c0.2,0,0.3,0.2,0.4,0.3c0.1,0.1,0.1,0.1,0.2,0.2
			c0,0,0.1,0.1,0.1,0.1c0.1,0.1,0.1,0.1,0.2,0.2c0.1,0.1,0.2,0.3,0.3,0.5c0.1,0.1,0.2,0.2,0.2,0.3c0.2,0.2,0.3,0.4,0.4,0.6
			c0.1,0.1,0.1,0.2,0.2,0.3c0.1,0.1,0.2,0.3,0.3,0.5c0.1,0.1,0.2,0.2,0.3,0.3c0.1,0.1,0.3,0.3,0.4,0.4c0.2,0,0.3-0.1,0.4-0.2
			c0.6-0.7,0.8-1.4,0.8-2.3c0-4.2,0-8.4,0-12.5c0-0.4,0-0.7-0.2-1.1c-1.2-0.5-2.7,0.2-3.9-0.5c-0.4,0-0.8-0.1-1.4-0.1
			c-1.3-3-3.3-5.6-6-7.7c-0.8-0.3-1.6-0.7-2.2-1.4c-0.4-0.5-1-0.5-1.6-0.7c-0.7-0.2-1.3-0.4-1.9-0.5c-0.2-0.3-0.2-0.6-0.2-0.9
			c0.1-0.1,0.1-0.1,0.2,0c0.1,0,0.2-0.1,0.3-0.1c0.2,0,0.5-0.1,0.7-0.1c0.1-0.1,0.3-0.1,0.5-0.2c0.3,0,0.6-0.1,0.9-0.1
			c0.2-0.1,0.4-0.1,0.5-0.2c0.5,0,0.9-0.1,1.4-0.1c0.2-0.1,0.5,0,0.8-0.1c0.1,0,0.2,0,0.3,0c0.1,0.1,0.2,0.1,0.2,0
			c5-0.2,9.7,0.6,14.2,2.8C42.2,3.4,42.8,3.7,43,4c1.4,2.3,2.5,4.7,3.1,7.3c0.1,0.3,0.1,0.6-0.1,0.9c-0.5,0.5-1.1,0.3-1.7,0.4
			c-0.7,0.1-1.5-0.1-2.4,0.3c-0.1,4.2,0,8.4-0.1,12.7c1-1.4,2-2.9,3.1-4.2c0.7-0.8,1-1.8,1-2.9c0-1.2-0.4-2.5,0.4-3.6
			c0.7,0.4,0.6,1.2,0.6,1.7c0.1,2.4-0.1,4.8-0.6,7.2c-0.4,2.1-0.8,4.2-1.8,6c-0.9,1.6-1.5,3.4-2.9,4.7c0.3,4,0.1,8.1,0.1,12.1
			C41.8,47.1,41.8,47.6,41.4,48z"/>
		<path fill="#1DADA5" d="M131.8,42c-1.5,0-2.9,0-4.3,0c-2.4-4-4.7-8.1-7.2-12.2c-2.5,4.1-4.9,8.2-7.3,12.3c-1.1,0.1-2.2,0.1-3.6,0
			c3.1-5.1,6.1-10.1,9.1-15.2c-2.8-4.7-5.5-9.5-8.4-14.3c1.4,0,2.7,0,4.2,0c2.1,3.5,4.2,7.1,6.4,10.9c2.2-3.7,4.3-7.3,6.4-10.9
			c1.2,0,2.3,0,3.7,0c-2.8,4.7-5.5,9.3-8.3,13.9C125.6,31.4,128.7,36.7,131.8,42z"/>
		<path fill="#1DADA5" d="M90,41.6c0-1.2,0-2.4,0-3.7c1.2,0.4,2.3,0.9,3.5,1.3c2,0.7,4,1,6.1,0.5c1.8-0.4,3.2-1.4,3.7-3.3
			c0.6-2.1,0-3.9-1.5-5.3c-1.4-1.3-3-2.1-4.7-2.9c-1.3-0.7-2.7-1.3-4-2.2c-2.8-1.9-3.9-4.6-3.3-7.9c0.5-3,2.4-4.7,5.2-5.5
			c2.4-0.7,4.8-0.6,7.3-0.4c1.1,0.1,2.1,0.3,3.2,0.5c0,1.2,0,2.3,0,3.5c-1.8-0.7-3.5-1.4-5.3-1.6c-1.2-0.2-2.5-0.2-3.7,0.1
			c-3.4,1-4.4,4.6-1.9,7.2c1.3,1.4,3,2.1,4.6,3c1.8,0.9,3.6,2,5.2,3.2c2.6,1.9,3.4,4.5,3,7.5c-0.4,3-2.1,5-4.8,6.2
			c-2.9,1.2-5.9,1.1-8.8,0.8C92.5,42.2,91.2,42.1,90,41.6z"/>
		<path fill="#1DADA5" d="M13.9,48.2c-0.7-0.4-1.4-0.6-2.2-0.8c-1.8-0.2-3.4-1.1-5.1-1.9C5.8,45.1,5,44.8,4,44.9
			c-1.7-2.6-2.6-5.5-3.3-8.5C0.2,34.3,0,32.1,0,30c0.2-0.6-0.1-1.3,0.1-1.9c0-0.6,0.1-1.1,0.1-1.7c0.1-0.2,0-0.5,0.2-0.7
			c0-0.2,0-0.5,0.1-0.7C0.7,25,1,25,1.3,25c0.2,0.4,0.5,0.8,0.6,1.2c0.7,2.3,2.3,4,3.9,5.6c2.7,2.7,5.9,4.3,9.7,4.9
			c0.4,0,0.6,0.2,0.7,0.5c0.1,0.2,0,0.4-0.1,0.5c-0.1,0.1-0.2,0.3-0.2,0.4c-0.2,0.3-0.4,0.5-0.5,0.8c-0.1,0.2-0.2,0.3-0.3,0.5
			c-0.7,1-1,2.1-0.9,3.3c0.1,1.4,0,2.8,0,4.2C14.2,47.3,14.3,47.8,13.9,48.2z"/>
		<path fill="#0069A5" d="M60,32c0-1.3,0-2.6,0-4C60.2,29.4,60.2,30.7,60,32z"/>
		<path fill="#018ECE" d="M0.2,28c0,0.6,0.2,1.3-0.1,1.9C0.1,29.3-0.1,28.7,0.2,28z"/>
		<path fill="#0069A5" d="M26.3,59.8c0.3,0,0.7-0.1,1,0.2C26.9,60,26.6,60,26.3,59.8z"/>
		<path fill="#0069A5" d="M59.9,26.6c-0.3-0.3-0.2-0.6-0.2-1C59.9,25.9,59.9,26.3,59.9,26.6z"/>
		<path fill="#018ECE" d="M28,0.1c-0.2,0.2-0.5,0.2-0.8,0.1C27.5,0,27.7,0.1,28,0.1z"/>
		<path fill="#0069A5" d="M24.6,59.5c0.3,0,0.5-0.1,0.7,0.2C25.1,59.7,24.8,59.7,24.6,59.5z"/>
		<path fill="#018ECE" d="M0.4,25.7c0,0.3,0.1,0.5-0.2,0.7C0.2,26.1,0.2,25.9,0.4,25.7z"/>
		<path fill="#0069A5" d="M59.6,24.9c-0.2-0.2-0.2-0.5-0.2-0.7C59.7,24.4,59.7,24.7,59.6,24.9z"/>
		<path fill="#0069A5" d="M23.4,59.3c0.2,0,0.4,0,0.5,0.2C23.7,59.5,23.6,59.4,23.4,59.3z"/>
		<path fill="#0069A5" d="M22.5,59.1c0.2,0,0.4,0,0.5,0.2C22.8,59.3,22.6,59.2,22.5,59.1z"/>
		<path fill="#018ECE" d="M25.9,0.3c-0.1,0.2-0.3,0.2-0.5,0.2C25.5,0.3,25.6,0.3,25.9,0.3z"/>
		<path fill="#018ECE" d="M24.4,0.5c-0.1,0.2-0.3,0.2-0.5,0.2C24,0.5,24.2,0.5,24.4,0.5z"/>
		<path fill="#0069A5" d="M21.7,58.8c0.1,0,0.2,0.1,0.3,0.1C21.9,59,21.8,59,21.7,58.8z"/>
		<path fill="#0179B7" d="M5.5,47.3c0.1,0.1,0.1,0.2,0.2,0.3C5.6,47.5,5.5,47.4,5.5,47.3z"/>
		<path fill="#0179B7" d="M5.3,47c0.1,0.1,0.1,0.1,0.2,0.2C5.4,47.2,5.4,47.1,5.3,47z"/>
		<path fill="#0179B7" d="M5,46.5c0.1,0.1,0.1,0.2,0.2,0.3C5.1,46.8,5,46.7,5,46.5z"/>
		<path fill="#0179B7" d="M4.8,46.3c0.1,0.1,0.1,0.1,0.2,0.2C4.9,46.5,4.9,46.4,4.8,46.3z"/>
		<path fill="#0179B7" d="M4.5,45.8c0.1,0.1,0.1,0.2,0.2,0.3C4.6,46.1,4.5,46,4.5,45.8z"/>
		<path fill="#0179B7" d="M4.1,45.1c0.1,0.1,0.1,0.1,0.2,0.2C4.2,45.3,4.2,45.2,4.1,45.1z"/>
		<path fill="#018ECE" d="M28.5,0c-0.1,0.1-0.2,0.1-0.2,0C28.3,0,28.4,0,28.5,0z"/>
		<path fill="#018ECE" d="M23.2,0.8c-0.1,0-0.2,0.1-0.3,0.1C23,0.9,23.1,0.8,23.2,0.8z"/>
		<path fill="#0069A5" d="M59.1,22.5c0-0.1-0.1-0.2-0.1-0.3C59.2,22.3,59.2,22.4,59.1,22.5z"/>
		<path fill="#0069A5" d="M59.4,23.5c0-0.1-0.1-0.2-0.1-0.3C59.3,23.3,59.3,23.4,59.4,23.5z"/>
		<path fill="#FEFEFE" d="M29.5,41.8c-1.5,2.1-2.9,4.2-4.6,6.2c-0.3-0.3-0.4-0.8-0.4-1.2c0.1-1.6-0.4-3.2,0.3-4.8
			c0-5.2,0-10.3,0-15.5c0-0.8,0.2-1.5,0.7-2.1c1.3-1.7,2.5-3.4,3.9-5C29.5,26.9,29.5,34.3,29.5,41.8z"/>
		<path fill="#FEFEFE" d="M34.9,48c-1.5-2.1-3-4.1-4.5-6.2c0-7,0-14.1,0-21.1c0-0.4,0-0.8,0.2-1.3c1.4,1.9,2.7,3.8,4.1,5.7
			c0.3,0.4,0.2,0.9,0.2,1.4c0,4.6,0,9.3,0.1,13.9c0.5,0.6,0.4,1.4,0.3,2.1c-0.3,1.7-0.2,3.5-0.2,5.2C35.1,47.7,35.1,47.9,34.9,48z"
			/>
		<path fill="#FEFEFE" d="M24,48c-1.1,0.4-2.2,0.1-3.2,0.2c-0.4,0-0.9,0-1.3,0c-0.1-0.1-0.2-0.2-0.2-0.3c0.2-3-0.5-6-0.2-8.9
			c0.2-1.9,0.2-3.9,0.3-5.8c1.5-2.1,3-4.1,4.4-6.2c0.1,0,0.2,0,0.2,0c0,5.2,0,10.5,0,15.7C24.5,44.5,24.5,46.2,24,48z"/>
		<path fill="#FEFEFE" d="M36,26.9c0.2,0.2,0.3,0.3,0.5,0.5c0,0.1,0.1,0.2,0.2,0.2c0,0.2,0.2,0.4,0.3,0.5c0,0.1,0.1,0.2,0.1,0.2
			c0.1,0.3,0.4,0.5,0.5,0.8c0,0.1,0.1,0.2,0.2,0.2c0.8,1.1,1.5,2.2,2.3,3.3c0.3,0.4,0.4,0.7,0.4,1.2c0,4.6,0,9.1,0,13.7
			c0,0.2-0.1,0.5-0.1,0.7c-1.2,0-2.4,0-3.6,0c-0.3,0-0.7,0.1-1-0.2c0-2.8-0.4-5.5-0.3-8.3c0-0.4,0-0.8,0.3-1.1c0-3.5,0-6.9,0.1-10.4
			C35.9,27.8,36,27.3,36,26.9z"/>
		<path fill="#FEFEFE" d="M19.4,12.2c1.5,0,2.9,0,4.5,0c0,4.3,0,8.6,0,13c-1,1.4-2,2.8-3.1,4.3c-0.6-0.7-1.1-1.3-1.5-2
			c0.1-3.6-0.4-7.2-0.3-10.9C19,15.2,19.3,13.7,19.4,12.2z"/>
		<path fill="#FEFEFE" d="M38.8,29.3c-0.1-0.3-0.3-0.5-0.5-0.7c-0.1-0.1-0.1-0.2-0.2-0.2c-0.1-0.2-0.2-0.3-0.3-0.5
			c0-0.1-0.1-0.2-0.2-0.2c-0.1-0.3-0.3-0.5-0.5-0.7c0-0.1-0.1-0.2-0.2-0.2c-0.1-0.2-0.2-0.3-0.3-0.5c0-0.1-0.1-0.2-0.2-0.2l0,0
			c-0.1-0.1-0.1-0.2-0.2-0.3c-0.1-0.2-0.2-0.3-0.3-0.5c0-3.8,0-7.7,0-11.5c0-0.5,0-1,0.1-1.4c1.5,0,2.9,0,4.3,0
			c0.4,0.5,0.2,1,0.2,1.4c0,4.1-0.1,8.1,0,12.2c0,1.5-0.4,2.7-1.5,3.7C39,29.4,38.9,29.4,38.8,29.3z"/>
		<path fill="#FEFEFE" d="M18.5,21.8c0,1.5,0,2.9,0,4.4c-0.1,0-0.2,0-0.2,0.1c-1.5-2-3.1-4-4.6-6c0-2.6,0-5.2,0-7.9
			c1.6,0,3.1,0,4.8,0c0,0.9,0,1.7,0,2.5c0.2,0.3,0.3,0.6,0.3,1c0,1.7,0,3.3,0,5C18.8,21.2,18.7,21.6,18.5,21.8z"/>
		<path fill="#FEFEFE" d="M13.9,48.2c-0.2-2.5,0-5-0.1-7.5c0.4-0.6,0.8-1.2,1.2-1.8c0.1-0.1,0.1-0.1,0.2-0.2
			c0.2-0.2,0.5-0.4,0.5-0.7c0.1-0.1,0.1-0.1,0.2-0.2c0.1-0.2,0.2-0.3,0.3-0.5c0.7-0.8,1.3-1.7,2-2.5c0.1,0,0.2,0,0.2,0c0,1,0,2,0,3
			c0.6,1.8,0.6,3.7,0,5.5c0,1.6,0,3.2,0,5C16.8,48.2,15.4,48.2,13.9,48.2z"/>
		<path fill="#FDFDFE" d="M34.9,23.8c-1.4-2-2.8-3.8-4.1-5.7c1.3-1.8,2.7-3.5,4.1-5.5C34.9,16.4,34.9,20,34.9,23.8z"/>
		<path fill="#FDFDFD" d="M25.1,12.7c1.3,1.8,2.6,3.5,4,5.3c-1.4,1.9-2.7,3.7-4.2,5.8c0-3.9,0-7.5,0-11C24.9,12.8,25,12.8,25.1,12.7
			z"/>
		<path fill="#1DADA5" d="M35.9,38.6c0,3.1,0,6.2,0,9.4c-0.4-0.8-0.1-1.6-0.2-2.4c0-0.7,0-1.3,0-2c-0.6,0-0.5,0.4-0.5,0.6
			c0,0.9,0,1.9,0,2.8c0,0.3,0.1,0.7-0.3,0.9c0-2.6,0.1-5.1,0.1-7.7c0.4-0.5,0.2-1,0.2-1.5c0-1.7,0-3.4,0-5.1c0-0.4-0.2-0.8,0.5-1.2
			c0,1,0,1.9,0,2.8C35.8,36.4,35.5,37.5,35.9,38.6z"/>
		<path fill="#1DADA5" d="M18.5,21.8c0-2.3,0-4.6,0-7c0.2,0,0.4-0.1,0.5-0.1c0.4-0.8-0.2-1.8,0.4-2.6c0,4,0,8.1-0.1,12.1
			c0,1.1,0,2.2,0,3.2c-0.4-1.2-0.1-2.5-0.2-3.7c0-0.6,0-1.2,0-1.7C18.9,21.8,18.7,21.9,18.5,21.8z"/>
		<path fill="#1DADA5" d="M18.5,43.2c0-1.8,0-3.7,0-5.5c0.2,0,0.4-0.1,0.6-0.1c0.3-1.5-0.2-3,0.3-4.4c0,4.6,0,9.1,0,13.7
			c0,0.5-0.1,1,0.1,1.4c-0.5-0.2-0.3-0.7-0.3-1.1c0-1.2,0-2.5,0-3.6C18.9,43.2,18.7,43.2,18.5,43.2z"/>
		<path fill="#1DADA5" d="M24,48c0-1.8,0-3.5,0-5.3c0.4-0.8,0.1-1.6,0.2-2.4c0.1-0.6-0.1-1.2,0.2-1.9c0.6,1.3-0.1,2.6,0.5,3.6
			c0,2,0,4,0.1,6C24.6,48.2,24.3,47.6,24,48z"/>
		<path fill="#FEFEFE" d="M46.3,14.9c0,1.8,0,3.5,0,5.2c-1.6,2.1-3.1,4.1-4.8,6.3c0-4.8,0-9.4,0-14c1.5-0.2,3,0,4.5-0.1
			C46.6,13.1,46.1,14,46.3,14.9z"/>
		<path fill="#FEFEFE" d="M41.4,48c0-4.1,0-8.2,0-12.2c0-0.4-0.2-0.9,0.2-1.2c1.2,1.7,2.4,3.5,3.7,5.1c0.5,0.7,0.7,1.4,0.7,2.2
			c0,2,0,4.1,0,6.1c-0.4,0.4-1,0.1-1.5,0.2C43.5,48,42.4,48.4,41.4,48z"/>
		<path fill="#018ECE" d="M36.9,26.6c0.1,0.1,0.1,0.2,0.2,0.2C37,26.8,37,26.7,36.9,26.6z"/>
		<path fill="#018ECE" d="M36.4,26c0.1,0.1,0.1,0.1,0.2,0.2C36.5,26.1,36.5,26,36.4,26z"/>
		<path fill="#018ECE" d="M36.7,27.6c-0.1-0.1-0.1-0.1-0.2-0.2C36.5,27.4,36.6,27.5,36.7,27.6z"/>
		<path fill="#018ECE" d="M37.6,27.6c0.1,0.1,0.1,0.1,0.2,0.2C37.7,27.7,37.7,27.7,37.6,27.6z"/>
		<path fill="#018ECE" d="M36.2,25.7c0.1,0,0.2,0.1,0.2,0.3C36.3,25.8,36.3,25.7,36.2,25.7z"/>
		<path fill="#018ECE" d="M37.1,28.3c0-0.1-0.1-0.1-0.1-0.2C37,28.2,37.1,28.2,37.1,28.3z"/>
		<path fill="#018ECE" d="M38.1,28.3c0.1,0,0.2,0.1,0.2,0.2C38.2,28.5,38.2,28.4,38.1,28.3z"/>
		<path fill="#018ECE" d="M38.8,29.3c0.1,0.1,0.2,0.1,0.2,0.2C39,29.4,38.9,29.4,38.8,29.3z"/>
		<path fill="#018ECE" d="M37.9,29.3c-0.1-0.1-0.1-0.1-0.2-0.2C37.7,29.1,37.8,29.2,37.9,29.3z"/>
		<path fill="#1DADA5" d="M77.3,12c-1.4,0-2.6,0-4,0c-3.3,10-6.6,19.9-9.9,29.8c1.2,0.1,2.2,0.3,3.3,0.2c1.1-3.4,2.2-7,3.3-10
			c3.4,0,6.8,0,10.2,0c1.1,3,2.2,7,3.4,10c1.3,0,2.4,0,3.8,0C84,32,80.7,22,77.3,12z M70.8,29c1.4-4,2.8-8.6,4.2-13
			c0.1,0,0.2-0.1,0.2-0.1C76.6,20.3,78,25,79.4,29C76.5,29,73.7,29,70.8,29z"/>
		<path fill="#018ECE" d="M15.2,38.6c-0.1,0.1-0.1,0.1-0.2,0.2C15.1,38.8,15.2,38.7,15.2,38.6z"/>
		<path fill="#018ECE" d="M15.9,37.7c-0.1,0.1-0.1,0.1-0.2,0.2C15.8,37.8,15.9,37.8,15.9,37.7z"/>
	</g>
</g>
</svg>
