<?xml version="1.0" encoding="utf-8"?>
<!-- Generator: Adobe Illustrator 18.0.0, SVG Export Plug-In . SVG Version: 6.00 Build 0)  -->
<!DOCTYPE svg PUBLIC "-//W3C//DTD SVG 1.1//EN" "http://www.w3.org/Graphics/SVG/1.1/DTD/svg11.dtd">
<svg version="1.1" id="Layer_1" xmlns="http://www.w3.org/2000/svg" xmlns:xlink="http://www.w3.org/1999/xlink" x="0px" y="0px"
	 viewBox="283.4 51 522.7 559.9" enable-background="new 283.4 51 522.7 559.9" xml:space="preserve">
<path id="network-6-icon" fill="#0D8D8F" d="M503.3,148.4c-13.8-6.7-26-12-37.6-16.8C484.1,83,510.6,51,544.7,51
	c33.3,0,59.3,30.3,77.4,76.8c-11.7,4.9-23.8,10.4-37.3,17.2c-14.1-36.5-29.9-53-40.2-53C534.2,92,517.7,109.5,503.3,148.4z
	 M544.7,570c-10.2,0-26.1-16.5-40.2-53.1c-13.8,6.8-25.7,12.3-37.3,17.2c18.2,46.4,44.1,76.8,77.4,76.8c34.1,0,60.6-32,78.9-80.6
	c-11.5-4.6-23.6-10.1-37.6-16.8C571.7,552.5,555.2,570,544.7,570z M432.8,518.4c-45.6,16.4-113.5,32.5-140.5-7.4
	c-13.4-19.7-18.3-57.6,33.7-126.2c13.8-18.2,29.8-36.1,46-52.4c36.3-36.2,77.3-71.2,130.7-107.4c-25.7-13.9-53.8-27.2-81.1-37.2
	c-28-10.1-52.7-15.7-71.6-15.7c-12,0-21,2.5-24,6.7c-3.1,4.5-3.3,18.3,10.5,43c1.6-0.1,3.3-0.3,5.1-0.3c24.9,0,45.1,20.2,45.1,45.1
	s-20.2,45.1-45.1,45.1c-24.9,0-45.1-20.2-45.1-45.1c0-8.1,2.2-15.6,5.9-22.1c-26.4-45.8-20.9-73.2-10-89.1
	c7.6-11.1,24-24.3,57.6-24.3c59.7,0,140.1,38.8,192,68.7c52.6-31.8,135.8-73.8,197.2-73.8c33.7,0,50,13.5,57.8,25
	c13.4,19.7,18.3,57.6-33.7,126.2C690,373.8,544.4,478.1,432.8,518.4z M730.7,252.5c35.8-47.1,36.9-71.8,32.5-78.4
	c-3-4.4-11.6-7-23.8-7c-46.4,0-117.1,34-157.6,57.1c30,19.5,58,40,83.6,61.1c-9.7,9.7-19.8,19.1-30.2,28.3
	c-28.4-22.9-60-45.5-92.6-65.6c-37.6,24.2-75.4,52.6-109.4,82.9c25.5,22.1,56,45.5,88.4,67.1c-12.4,7.8-25,15.2-39.2,22.8l0,0
	c-0.1-0.1-0.3-0.1-0.3-0.3c-27.2-19-54-39.7-78.8-61.5c-66.9,67.2-85.8,115.8-76.9,128.9c3,4.4,11.6,7,23.8,7
	c55.9,0,144.4-47.1,196.8-80.9C611.4,372.7,684.7,313.1,730.7,252.5z M787.1,417.9c3.3-6.3,5.2-13.5,5.2-21
	c0-24.9-20.2-45.1-45.1-45.1c-24.9,0-45.1,20.2-45.1,45.1s20.2,45.1,45.1,45.1c2,0,4.1-0.1,6.1-0.4c13.1,23.9,13,37.3,9.8,41.7
	c-2.9,4.2-11.9,6.7-24,6.7c-38.1,0-91.1-22-125.1-38.7c-11.5,7.9-25.5,17.5-39.3,26.1c45.8,24.2,113.1,53.5,164.6,53.5
	c33.6,0,49.9-13.2,57.6-24.3C807.9,490.8,813.4,463.5,787.1,417.9z"/>
</svg>
