<?xml version="1.0" encoding="utf-8"?>
<!-- Generator: Adobe Illustrator 18.1.1, SVG Export Plug-In . SVG Version: 6.00 Build 0)  -->
<!DOCTYPE svg PUBLIC "-//W3C//DTD SVG 1.1//EN" "http://www.w3.org/Graphics/SVG/1.1/DTD/svg11.dtd">
<svg version="1.1" id="Layer_1" xmlns="http://www.w3.org/2000/svg" xmlns:xlink="http://www.w3.org/1999/xlink" x="0px" y="0px"
	 viewBox="313.8 50 51.3 56" enable-background="new 313.8 50 51.3 56" xml:space="preserve">
<rect x="313.8" y="50" fill="#A11D29" width="51.3" height="9.1"/>
<rect x="313.8" y="101.6" fill="#A11D29" width="51.3" height="4.4"/>
<g>
	<rect x="317" y="62.1" fill="#A11D29" width="5.7" height="5.7"/>
	<rect x="317" y="71.9" fill="#A11D29" width="5.7" height="5.7"/>
	<rect x="317" y="81.8" fill="#A11D29" width="5.7" height="5.7"/>
	<rect x="316.9" y="91.9" fill="#A11D29" width="5.7" height="5.7"/>
</g>
<g>
	<rect x="326.9" y="62.1" fill="#A11D29" width="5.7" height="5.7"/>
	<rect x="326.9" y="71.9" fill="#A11D29" width="5.7" height="5.7"/>
	<rect x="326.9" y="81.8" fill="#A11D29" width="5.7" height="5.7"/>
	<rect x="326.8" y="91.9" fill="#A11D29" width="5.7" height="5.7"/>
</g>
<g>
	<rect x="337" y="62.1" fill="#A11D29" width="5.7" height="5.7"/>
	<rect x="337" y="71.9" fill="#A11D29" width="5.7" height="5.7"/>
	<rect x="337" y="81.8" fill="#A11D29" width="5.7" height="5.7"/>
	<rect x="336.9" y="91.9" fill="#A11D29" width="5.7" height="5.7"/>
</g>
<g>
	<rect x="346.6" y="62.1" fill="#A11D29" width="5.7" height="5.7"/>
	<rect x="346.6" y="71.9" fill="#A11D29" width="5.7" height="5.7"/>
	<rect x="346.6" y="81.8" fill="#A11D29" width="5.7" height="5.7"/>
	<rect x="346.5" y="91.9" fill="#A11D29" width="5.7" height="5.7"/>
</g>
<g>
	<rect x="356.5" y="62.1" fill="#A11D29" width="5.7" height="5.7"/>
	<rect x="356.5" y="71.9" fill="#A11D29" width="5.7" height="5.7"/>
	<rect x="356.5" y="81.8" fill="#A11D29" width="5.7" height="5.7"/>
	<rect x="356.5" y="91.9" fill="#A11D29" width="5.7" height="5.7"/>
</g>
<rect x="325.7" y="53.2" fill="#FFFFFF" width="26.3" height="2.7"/>
</svg>
