<?xml version="1.0" encoding="utf-8"?>
<!-- Generator: Adobe Illustrator 18.0.0, SVG Export Plug-In . SVG Version: 6.00 Build 0)  -->
<!DOCTYPE svg PUBLIC "-//W3C//DTD SVG 1.1//EN" "http://www.w3.org/Graphics/SVG/1.1/DTD/svg11.dtd">
<svg version="1.1" id="Layer_1" xmlns="http://www.w3.org/2000/svg" xmlns:xlink="http://www.w3.org/1999/xlink" x="0px" y="0px"
	 viewBox="250 50 560 560" enable-background="new 250 50 560 560" xml:space="preserve">
<path id="email-10-icon" fill="#0D8D8F" d="M530,104.4c60.2,0,116.9,23.5,159.6,66.1c42.7,42.5,66.1,99.4,66.1,159.6
	s-23.5,116.9-66.1,159.6c-42.7,42.5-99.4,66.1-159.6,66.1s-116.9-23.5-159.6-66.1c-42.5-42.7-66.1-99.4-66.1-159.6
	s23.5-116.9,66.1-159.6S469.8,104.4,530,104.4 M530,50c-154.7,0-280,125.3-280,280s125.3,280,280,280s280-125.3,280-280
	S684.7,50,530,50L530,50z M472.1,319.7l-83.6-64.2v147.7L472.1,319.7z M673.4,225.6H389.6l141.8,108.9L673.4,225.6z M571.2,334.6
	l-39.8,30.4l-39.8-30.6L388.9,437.1h284.8L571.2,334.6z M590.5,319.7l83.6,83.6V255.7L590.5,319.7z"/>
</svg>
