<?xml version="1.0" encoding="utf-8"?>
<!-- Generator: Adobe Illustrator 18.1.0, SVG Export Plug-In . SVG Version: 6.00 Build 0)  -->
<!DOCTYPE svg PUBLIC "-//W3C//DTD SVG 1.1//EN" "http://www.w3.org/Graphics/SVG/1.1/DTD/svg11.dtd">
<svg version="1.1" id="Layer_1" xmlns="http://www.w3.org/2000/svg" xmlns:xlink="http://www.w3.org/1999/xlink" x="0px" y="0px"
	 viewBox="0 0 402 402" enable-background="new 0 0 402 402" xml:space="preserve">
<circle fill="#1DADA5" cx="201" cy="201" r="201"/>
<g id="CYdu93_1_">
	<g>
		<path fill="#1DADA5" d="M161.9-1257.3c0,4.1-3.4,7.5-7.5,7.6c-4.2,0-7.6-3.4-7.6-7.6c0-4.2,3.4-7.6,7.6-7.5
			C158.5-1264.9,161.9-1261.4,161.9-1257.3z"/>
		<path fill="#FDFDFD" d="M154.3-1250c-4,0-7.4-3.2-7.3-7.4c0-4.1,3.3-7.3,7.3-7.2c4.1,0,7.3,3.3,7.3,7.3
			C161.6-1253.2,158.3-1250,154.3-1250z"/>
		<path fill="#1DADA5" d="M154.3-1262.6c2.8,0,5.3,2.3,5.3,5.3c0,2.9-2.3,5.3-5.4,5.3c-3,0-5.3-2.5-5.3-5.3
			C149-1260.2,151.4-1262.7,154.3-1262.6z"/>
		<path fill="#1DADA5" d="M160.3-1257.9c0.2,0,0.5-0.1,0.7-0.1c0.1,0,0.1,0,0.1,0.1c0,0.1,0,0.1-0.1,0.1c-0.3,0-0.5,0.1-0.8,0.1
			c-0.1,0-0.1,0.1-0.1,0c0-0.1,0-0.2,0.1-0.2c0.1,0,0.1-0.1,0.2-0.1c0.1-0.1,0.3-0.2,0.4-0.3c-0.2-0.1-0.3,0-0.5,0
			c-0.1,0-0.3,0.1-0.3,0c0-0.2,0.2-0.1,0.2-0.1c0.2,0,0.4-0.1,0.7-0.1c0.1,0,0.1,0,0.1,0.1c0,0.1,0,0.1-0.1,0.2
			C160.7-1258.2,160.5-1258,160.3-1257.9C160.3-1257.9,160.3-1257.9,160.3-1257.9z"/>
		<path fill="#1DADA5" d="M151-1252.2c-0.1,0.2-0.2,0.3-0.3,0.5c0,0.1-0.1,0.1-0.1,0.1c-0.1,0,0-0.1,0-0.1c0.1-0.2,0.3-0.5,0.4-0.7
			c0,0,0.1-0.1,0.1-0.1c0.1,0,0.1,0.1,0.1,0.2c0,0.1,0,0.3,0,0.4c0,0.1,0,0.2,0,0.4c0.1-0.1,0.2-0.3,0.3-0.4c0,0,0.1-0.1,0.1-0.1
			c0,0,0,0,0.1,0c0,0,0.1,0,0,0.1c0,0,0,0.1,0,0.1c-0.1,0.2-0.3,0.5-0.4,0.7c0,0.1-0.1,0.1-0.1,0.1c-0.1,0-0.1-0.1-0.1-0.1
			C151-1251.7,151-1251.9,151-1252.2z"/>
		<path fill="#1DADA5" d="M157.5-1263c-0.1,0.2-0.2,0.3-0.3,0.5c0,0-0.1,0.1-0.1,0.1c0,0-0.1,0-0.1,0c0,0,0,0,0-0.1c0,0,0-0.1,0-0.1
			c0.2-0.3,0.3-0.5,0.5-0.8c0.2,0,0.2,0.1,0.2,0.3c-0.1,0.2,0,0.4-0.1,0.6c0.2-0.1,0.2-0.3,0.3-0.4c0-0.1,0.1-0.2,0.2-0.1
			c0.1,0.1,0,0.1,0,0.2c-0.1,0.2-0.2,0.4-0.4,0.6c0,0-0.1,0.1-0.1,0.1c-0.1,0-0.1-0.1-0.1-0.1c0-0.1,0-0.2,0-0.3
			C157.5-1262.7,157.5-1262.9,157.5-1263C157.5-1263,157.5-1263,157.5-1263z"/>
		<path fill="#1DADA5" d="M160.1-1258.9c-0.1,0-0.3-0.1-0.3-0.2c-0.1-0.1-0.1-0.3,0-0.4c0,0,0.1-0.1,0.1,0c0,0,0,0.1,0,0.1
			c0,0.1-0.1,0.1-0.1,0.1c-0.1,0.1,0,0.2,0.1,0.3c0.3,0,0.5-0.1,0.7-0.2c0.1-0.1,0.1-0.1,0-0.2c0-0.1-0.1-0.2-0.2-0.1
			c0,0-0.1,0-0.1,0c-0.1,0-0.2,0.1-0.1,0.2c0,0,0,0.1,0,0.1c0,0,0,0,0,0c0,0,0,0,0-0.1c-0.1-0.2-0.2-0.2,0.1-0.3c0,0,0,0,0,0
			c0.3-0.1,0.3-0.1,0.4,0.1c0.1,0.2,0.1,0.4,0,0.5C160.5-1259,160.3-1258.9,160.1-1258.9z"/>
		<path fill="#1DADA5" d="M148.6-1256.6c0.1,0.1,0.1,0.3,0.1,0.4c0,0.3-0.2,0.4-0.4,0.3c-0.1,0-0.1-0.1-0.1,0
			c-0.1,0.1-0.2,0.1-0.3,0.2c0,0-0.1,0-0.1,0c0,0,0-0.1,0-0.1c0,0,0.1,0,0.1-0.1c0.1,0,0.1,0,0.1-0.1c0.1,0,0.1-0.1,0.1-0.2
			c0-0.1-0.1,0-0.2,0c-0.1,0-0.1,0-0.2,0c0,0-0.1,0-0.1-0.1c0-0.1,0-0.1,0.1-0.1c0.2,0,0.5-0.1,0.7-0.1
			C148.4-1256.5,148.5-1256.5,148.6-1256.6z"/>
		<path fill="#1DADA5" d="M160.7-1255.2c-0.3-0.1-0.5-0.1-0.8-0.2c-0.1,0-0.1,0-0.1-0.1c0-0.1,0.1-0.1,0.1-0.1c0.1,0,0.1,0,0.2,0.1
			c0.1,0,0.1,0,0.2-0.1c0.1-0.2,0.1-0.2-0.2-0.3c0,0-0.1,0-0.1,0c-0.1,0-0.1,0-0.1-0.1c0-0.1,0.1-0.1,0.1-0.1
			c0.3,0.1,0.5,0.1,0.8,0.2c0.1,0,0.1,0,0.1,0.1c0,0.1-0.1,0.1-0.1,0.1c-0.1,0-0.1,0-0.2,0c-0.2-0.1-0.2-0.1-0.3,0.2
			c0,0.1,0,0.2,0.1,0.2c0.1,0,0.2,0,0.2,0.1c0.1,0,0.1,0,0.1,0.1C160.8-1255.2,160.8-1255.2,160.7-1255.2z"/>
		<path fill="#1DADA5" d="M155.3-1251c0,0.4-0.1,0.5-0.4,0.5c-0.2,0-0.3-0.1-0.4-0.3c0-0.1,0-0.3,0-0.4c0-0.2,0.1-0.3,0.3-0.3
			c0.2,0,0.3,0,0.4,0.2C155.3-1251.3,155.4-1251.1,155.3-1251z"/>
		<path fill="#1DADA5" d="M154.6-1264.1c0.1,0,0.2,0,0.3,0c0.3,0,0.4,0.1,0.4,0.4c0,0.2,0,0.3-0.1,0.5c-0.1,0.1-0.2,0.2-0.3,0.2
			c-0.1,0-0.2,0-0.2,0c-0.2,0-0.2,0-0.1-0.2c0-0.2,0-0.3,0-0.5C154.5-1263.9,154.6-1264,154.6-1264.1z"/>
		<path fill="#1DADA5" d="M157-1263.3c0,0.2-0.1,0.4-0.2,0.5c-0.1,0.1-0.3,0.2-0.4,0.1c-0.2-0.1-0.3-0.2-0.3-0.4
			c0-0.2,0.1-0.4,0.2-0.5c0.1-0.2,0.2-0.2,0.4-0.1C156.9-1263.7,157-1263.6,157-1263.3z"/>
		<path fill="#1DADA5" d="M148.2-1259.8c0.2,0.1,0.5,0.2,0.7,0.2c0,0,0.1,0.1,0,0.1c0,0.1-0.1,0.1-0.1,0.1c-0.2,0-0.3-0.1-0.5-0.1
			c-0.1,0-0.2-0.1-0.2-0.1c-0.1,0-0.2,0.1-0.2,0.1c0,0.1,0,0.1,0.1,0.2c0.1,0,0.1,0.1,0.2,0.1c0.2,0.1,0.3,0.1,0.5,0.2
			c0.1,0,0.1,0,0.1,0.1c0,0.1-0.1,0.1-0.2,0c-0.2-0.1-0.4-0.1-0.6-0.2c-0.2-0.1-0.2-0.2-0.1-0.4
			C147.9-1259.7,148-1259.8,148.2-1259.8z"/>
		<path fill="#1DADA5" d="M157.1-1251.1c-0.1-0.3-0.3-0.6-0.4-0.8c0,0,0-0.1,0-0.1c0.1,0,0.1,0,0.1,0c0,0.1,0.1,0.2,0.2,0.3
			c0.1-0.2,0-0.4,0.2-0.6c0.1,0.1,0,0.2,0,0.3c-0.1,0.2-0.1,0.2,0.2,0.3c0.1,0.1,0.3,0.1,0.4,0.2c-0.1,0.1-0.1,0.1-0.2,0.1
			c-0.1-0.1-0.2-0.1-0.4-0.2c0,0.1,0,0.2,0.1,0.3C157.3-1251.2,157.3-1251.1,157.1-1251.1z"/>
		<path fill="#1DADA5" d="M161.1-1256.5c0,0.1-0.1,0.1-0.1,0c-0.3-0.1-0.5-0.2-0.8-0.3c0,0,0,0-0.1,0c-0.1,0-0.1,0-0.1-0.1
			c0-0.1,0-0.1,0.1-0.1c0.3-0.1,0.6-0.2,0.9-0.2c0,0,0.1,0,0.1,0.1c0,0,0,0.1,0,0.1c0,0-0.1,0-0.1,0c-0.1,0-0.2,0-0.2,0.1
			c0,0.1,0,0.2,0,0.3c0,0.1,0.1,0.1,0.2,0.1C161-1256.6,161.1-1256.6,161.1-1256.5z"/>
		<path fill="#1DADA5" d="M160-1253.6c0,0.1-0.1,0.2-0.2,0.1c-0.1,0-0.2,0-0.3,0c0,0.1,0,0.1,0.1,0.2c0,0.1,0,0.1,0.1,0.2
			c0,0,0,0.1,0,0.1c0,0-0.1,0-0.1-0.1c0-0.1-0.1-0.2-0.1-0.3c-0.1-0.2-0.1-0.3-0.3-0.2c-0.1,0-0.2,0-0.2,0c0,0-0.1,0-0.1-0.1
			c0,0,0-0.1,0.1-0.1c0.1-0.1,0.2,0,0.4,0c0-0.1-0.1-0.2-0.1-0.3c0-0.1,0-0.1,0-0.1c0.1,0,0.1,0,0.1,0.1c0.1,0.3,0.3,0.5,0.6,0.4
			C159.9-1253.6,159.9-1253.6,160-1253.6z"/>
		<path fill="#1DADA5" d="M148.6-1255.3c0.1,0,0.2,0,0.2,0c0.1,0,0.1,0.1,0.1,0.2c0,0-0.1,0.1-0.1,0.1c-0.2,0.2-0.4,0.4-0.6,0.5
			c0,0-0.1,0.1-0.1,0c0,0,0-0.1,0-0.1c0,0,0,0,0.1-0.1c0.1-0.2,0.1-0.1,0.1-0.3c0-0.1-0.1-0.1-0.2-0.1c0,0-0.1,0-0.1,0
			c0,0-0.1,0-0.1-0.1c0-0.1,0-0.1,0.1-0.1C148.1-1255.3,148.4-1255.3,148.6-1255.3C148.6-1255.3,148.6-1255.3,148.6-1255.3z"/>
		<path fill="#1DADA5" d="M148.8-1260.7c0,0-0.1-0.1-0.1-0.1c0-0.1-0.2-0.1-0.1-0.2c0.1-0.1,0.1,0,0.2,0.1c0.1,0.2,0.3,0.3,0.4,0.5
			c0,0,0.1,0.1,0.1,0.1c0.1,0.1,0,0.2-0.1,0.2c0,0-0.1,0-0.1,0c-0.3-0.1-0.5-0.1-0.8-0.2c0,0-0.1,0-0.1-0.1c0,0,0-0.1,0.1-0.1
			c0,0,0,0,0,0C148.6-1260.3,148.7-1260.6,148.8-1260.7z"/>
		<path fill="#1DADA5" d="M149.4-1252.6c0.3-0.2,0.6-0.3,0.9-0.5c0.1,0,0.1,0,0.2,0c0,0.1,0,0.1,0,0.2c-0.1,0.3-0.2,0.5-0.3,0.8
			c0,0.1,0,0.1-0.1,0.1c-0.1,0-0.1-0.1,0-0.1c0,0,0,0,0-0.1c0.1-0.1,0.1-0.2,0-0.3c-0.1-0.1-0.2-0.1-0.3,0
			C149.6-1252.5,149.5-1252.4,149.4-1252.6z"/>
		<path fill="#1DADA5" d="M158.9-1252.4c0.1-0.1,0.2-0.1,0.2-0.2c0,0,0.1-0.1,0.1,0c0,0,0,0.1,0,0.1c-0.1,0.1-0.2,0.2-0.3,0.4
			c-0.3-0.3-0.5-0.5-0.8-0.8c0.1-0.1,0.2-0.3,0.4-0.4c0,0,0.1,0,0.1,0c0,0,0,0.1,0,0.1c-0.1,0.1-0.1,0.1-0.2,0.2
			c0,0.1,0.1,0.2,0.2,0.3c0,0,0.1,0,0.1,0c0.1,0,0.2-0.2,0.2-0.1c0.1,0.1-0.1,0.2-0.1,0.2c-0.1,0.1,0,0.1,0,0.1
			C158.7-1252.5,158.8-1252.5,158.9-1252.4z"/>
		<path fill="#1DADA5" d="M147.8-1258.6c-0.1,0.1-0.1,0.2-0.1,0.3c0,0.1,0.1,0.2,0.2,0.1c0,0,0.1-0.1,0.1-0.1
			c0.1-0.1,0.1-0.1,0.2-0.2c0.2-0.2,0.4-0.1,0.4,0.1c0.1,0.1,0,0.3-0.1,0.4c0,0-0.1,0-0.1,0c0,0,0,0,0-0.1c0-0.1,0.1-0.1,0.1-0.2
			c0-0.1,0-0.1-0.1-0.1c-0.1-0.1-0.1,0-0.2,0c-0.1,0.1-0.1,0.2-0.2,0.3c-0.1,0.1-0.2,0.2-0.4,0.1c-0.2-0.1-0.2-0.5-0.1-0.6
			C147.7-1258.6,147.7-1258.6,147.8-1258.6z"/>
		<path fill="#1DADA5" d="M152-1262.8c0.1-0.1,0.2,0,0.3-0.1c0.1-0.1,0.1-0.2,0-0.3c-0.1,0-0.2-0.1-0.2-0.1c-0.1,0-0.2,0-0.2-0.1
			c-0.2-0.1-0.2-0.3,0-0.4c0.1-0.1,0.2-0.1,0.4-0.2c0,0,0.1,0,0.1,0.1c0,0,0,0.1,0,0.1c-0.1,0-0.2,0-0.2,0c0,0-0.1,0.1-0.1,0.1
			c0,0.1,0,0.1,0.1,0.1c0,0,0.1,0,0.1,0c0.1,0,0.2,0,0.2,0.1c0.2,0.1,0.3,0.3,0.1,0.5c-0.1,0.1-0.2,0.1-0.4,0.1
			C152-1262.7,152-1262.7,152-1262.8z"/>
		<path fill="#1DADA5" d="M152.8-1250.6c-0.1,0-0.2,0-0.3-0.1c-0.1,0-0.1-0.1,0-0.1c0-0.1,0.1,0,0.1,0c0,0,0.1,0.1,0.1,0.1
			c0.1,0.1,0.2,0,0.2-0.1c0-0.1,0-0.1,0-0.2c-0.1-0.1-0.1-0.1-0.2-0.2c-0.1-0.1-0.1-0.3-0.1-0.4c0.1-0.1,0.2-0.2,0.3-0.1
			c0,0,0.1,0,0.1,0c0.1,0,0.1,0,0.1,0.1c0,0.1-0.1,0-0.1,0c0,0-0.1,0-0.1,0c-0.1,0-0.1,0-0.1,0.1c0,0.1,0,0.1,0,0.2
			c0.1,0.1,0.1,0.1,0.2,0.2c0.1,0.1,0.1,0.2,0.1,0.3C153.1-1250.7,152.9-1250.6,152.8-1250.6z"/>
		<path fill="#1DADA5" d="M160.1-1254.3c0.3,0,0.3,0,0.4-0.3c0,0,0-0.1,0.1-0.1c0.1,0,0.1,0,0.1,0.1c0,0.3-0.2,0.5-0.5,0.4
			c-0.2,0-0.4-0.1-0.5-0.3c-0.1-0.1,0-0.3,0-0.4c0.1-0.1,0.2-0.2,0.3-0.1c0,0,0.1,0,0.1,0.1c0,0,0,0.1-0.1,0.1c0,0-0.1,0-0.2,0
			c-0.1,0-0.2,0.1-0.1,0.2C159.7-1254.4,159.9-1254.3,160.1-1254.3z"/>
		<path fill="#1DADA5" d="M155.9-1251.4c0,0.1,0,0.2,0.1,0.3c0.1,0.2,0.3,0.3,0.5,0.1c0,0,0.1-0.1,0.1,0c0,0,0,0.1,0,0.1
			c-0.2,0.2-0.5,0.2-0.7-0.1c-0.1-0.2-0.1-0.3-0.1-0.5c0-0.2,0.1-0.3,0.3-0.3c0.1-0.1,0.3,0,0.4,0.1c0,0,0.1,0.1,0,0.1
			c0,0-0.1,0.1-0.1,0c0,0,0,0,0,0c-0.1-0.1-0.1-0.1-0.2-0.1C155.9-1251.7,155.9-1251.6,155.9-1251.4z"/>
		<path fill="#1DADA5" d="M159.5-1259.9c-0.1-0.1-0.1-0.2-0.2-0.3c0,0-0.1-0.1,0-0.1c0.1,0,0.1,0.1,0.1,0.1c0,0.1,0.1,0.1,0.1,0.2
			c0.1,0,0.2-0.1,0.3-0.1c0-0.1-0.1-0.2-0.1-0.3c0,0,0-0.1,0-0.1c0,0,0.1,0,0.1,0c0,0.1,0.1,0.2,0.1,0.2c0.1,0,0.2-0.1,0.3-0.1
			c0-0.2-0.1-0.2-0.1-0.4c0.1,0,0.1,0.1,0.2,0.1c0.2,0.3,0.2,0.3-0.1,0.5C159.9-1260.2,159.7-1260.1,159.5-1259.9
			C159.5-1259.9,159.5-1259.9,159.5-1259.9z"/>
		<path fill="#1DADA5" d="M154.2-1263.6c-0.1,0-0.1,0-0.2,0c-0.2,0-0.2,0-0.2,0.2c0,0.2,0,0.2,0.2,0.2c0.1,0,0.2,0,0.2,0
			c0,0.1-0.1,0.1-0.2,0.1c-0.4,0-0.4,0-0.4-0.3c0-0.2,0-0.4,0-0.5c0-0.1,0-0.2,0.1-0.2c0.1,0,0.2,0,0.3,0c0,0,0.1,0,0.1,0
			c0,0,0,0.1-0.1,0.1c-0.1,0-0.1,0-0.2,0c-0.1,0-0.1,0.1-0.1,0.1c0,0.2,0,0.2,0.2,0.2C154.1-1263.7,154.1-1263.7,154.2-1263.6z"/>
		<path fill="#1DADA5" d="M148.5-1256.9c-0.2-0.1-0.1-0.2-0.2-0.2c-0.1,0-0.2,0-0.3,0c-0.1,0-0.3,0-0.4,0c-0.1,0-0.1,0-0.2-0.1
			c0-0.1,0.1-0.1,0.1-0.1c0.2,0,0.4,0,0.6,0c0.1,0,0.2,0,0.2-0.2c0,0,0,0,0.1,0c0,0,0,0,0,0.1
			C148.5-1257.3,148.5-1257.1,148.5-1256.9z"/>
		<path fill="#1DADA5" d="M153.1-1264C153.2-1264,153.2-1264,153.1-1264c0.1,0.1,0,0.1,0,0.1c-0.2,0-0.2,0.1-0.1,0.2
			c0.1,0.2,0.1,0.4,0.1,0.6c0,0.1,0,0.1-0.1,0.1c-0.1,0-0.1,0-0.1-0.1c0-0.2-0.1-0.4-0.1-0.6c0-0.1-0.1-0.2-0.2-0.1c0,0-0.1,0-0.1,0
			c0,0,0-0.1,0.1-0.1C152.8-1264,153-1264,153.1-1264z"/>
		<path fill="#1DADA5" d="M153.5-1251.5c0.2-0.1,0.5,0,0.7,0c0,0.1-0.1,0.1-0.1,0c-0.1,0-0.1,0-0.1,0.1c0,0.2,0,0.4-0.1,0.7
			c0,0.1,0,0.2-0.1,0.2c-0.1,0-0.1-0.1-0.1-0.2c0-0.2,0-0.3,0-0.5C153.8-1251.4,153.8-1251.4,153.5-1251.5z"/>
		<path fill="#1DADA5" d="M148.4-1254c0.3-0.2,0.5-0.3,0.8-0.5c0.1,0,0.1,0,0.1,0c0,0.1,0,0.1,0,0.1c-0.2,0.1-0.4,0.2-0.5,0.3
			c-0.2,0.1-0.2,0.1-0.1,0.3c0,0,0,0,0,0.1c0,0,0,0.1,0,0.1c-0.1,0-0.1,0-0.1-0.1c0-0.1-0.1-0.2-0.2-0.2
			C148.4-1253.9,148.4-1253.9,148.4-1254z"/>
		<path fill="#1DADA5" d="M151-1262.2c0.1,0,0.2-0.1,0.3-0.2c0,0,0.1,0,0.1,0c0,0,0,0.1,0,0.1c-0.1,0.1-0.3,0.2-0.4,0.3
			c-0.2-0.3-0.4-0.5-0.5-0.8c0,0,0-0.1,0-0.1c0.1,0,0.1,0,0.1,0c0.1,0.2,0.2,0.4,0.4,0.5C150.9-1262.3,151-1262.2,151-1262.2z"/>
		<path fill="#1DADA5" d="M150-1261.7c0,0.2-0.1,0.3-0.3,0.3c-0.1,0-0.3-0.1-0.3-0.3c0-0.2,0.1-0.3,0.3-0.3
			C149.9-1262,150-1261.9,150-1261.7z"/>
		<path fill="#1DADA5" d="M158.9-1261.4c-0.2,0-0.3-0.1-0.3-0.2c0-0.2,0.1-0.3,0.2-0.3c0.1,0,0.3,0.1,0.3,0.3
			C159.1-1261.6,159-1261.5,158.9-1261.4z"/>
		<path fill="#1DADA5" d="M149.1-1253C149-1253,149-1253,149.1-1253c-0.1-0.1-0.1-0.1,0-0.1c0.2-0.2,0.5-0.4,0.7-0.6
			c0,0,0.1,0,0.1,0c0,0,0,0.1,0,0.1C149.6-1253.4,149.4-1253.2,149.1-1253C149.1-1253,149.1-1253,149.1-1253z"/>
		<path fill="#1DADA5" d="M151.7-1262.5C151.7-1262.5,151.7-1262.5,151.7-1262.5c-0.1,0.1-0.1,0.1-0.1,0.1c0,0,0,0,0-0.1
			c-0.1-0.2-0.2-0.5-0.4-0.7c0-0.1,0-0.1,0-0.2c0.1,0,0.1,0,0.1,0.1C151.5-1263.1,151.6-1262.8,151.7-1262.5
			C151.7-1262.6,151.7-1262.5,151.7-1262.5z"/>
		<path fill="#FBFCFB" d="M154.3-1252.2c-2.7,0-5.1-2.2-5.1-5.1c0-2.8,2.3-5.1,5.1-5.1c2.8,0,5,2.4,5,5.1
			C159.4-1254.5,157-1252.2,154.3-1252.2z"/>
		<path fill="#E6F2F3" d="M148.5-1256.2c0,0.1-0.1,0.2-0.2,0.2c-0.1,0-0.2-0.1-0.2-0.2c0-0.1,0.1-0.1,0.3-0.1
			C148.5-1256.3,148.5-1256.3,148.5-1256.2z"/>
		<path fill="#F6F9F9" d="M154.7-1251.2c0,0,0-0.1,0-0.2c0-0.1,0.1-0.2,0.2-0.2c0.1,0,0.1,0,0.2,0.1c0.1,0.2,0.1,0.4,0.1,0.6
			c0,0.1-0.1,0.2-0.2,0.2c-0.1,0-0.1-0.1-0.2-0.2C154.7-1250.9,154.7-1251,154.7-1251.2z"/>
		<path fill="#F8FBFA" d="M154.7-1263.2c0-0.2,0-0.4,0-0.6c0-0.1,0-0.1,0.1-0.2c0.1,0,0.2,0,0.2,0.1c0.1,0.1,0.1,0.6,0,0.7
			C154.9-1263.2,154.9-1263.2,154.7-1263.2z"/>
		<path fill="#F5F9F9" d="M156.3-1263c0-0.2,0.1-0.4,0.2-0.5c0-0.1,0.1-0.1,0.2-0.1c0.1,0,0.1,0.1,0.1,0.2c0,0.2-0.1,0.4-0.2,0.5
			c-0.1,0.1-0.1,0.1-0.2,0.1C156.3-1262.8,156.3-1262.9,156.3-1263z"/>
		<path fill="#E2EDF1" d="M160.7-1256.7c-0.1,0-0.3-0.1-0.4-0.1c0.1,0,0.2-0.1,0.2-0.1C160.7-1257,160.7-1257,160.7-1256.7z"/>
		<path fill="#D8E9EC" d="M148.8-1255.2c-0.1,0.1-0.2,0.2-0.3,0.3c-0.1-0.1-0.1-0.1-0.1-0.2C148.5-1255.1,148.6-1255.2,148.8-1255.2
			z"/>
		<path fill="#D9E9EF" d="M149.1-1260.3c-0.1,0-0.2-0.1-0.4-0.1c0-0.1,0.1-0.2,0.1-0.3C149-1260.5,149.1-1260.4,149.1-1260.3
			C149.1-1260.3,149.1-1260.3,149.1-1260.3z"/>
		<path fill="#D4E7EB" d="M150.3-1252.9c0,0.1-0.1,0.2-0.1,0.3c-0.1,0.1-0.1,0.1-0.2,0c0,0,0-0.1,0-0.1
			C150.1-1252.8,150.1-1252.9,150.3-1252.9z"/>
		<path fill="#1DADA5" d="M158.4-1259.4c0.2,0.4,0.4,0.9,0.5,1.3c0.1,0.6,0.1,1.3-0.1,1.9c-0.2,0.6-0.4,1.2-0.8,1.7
			c-0.8,1-1.8,1.6-3,1.7c-0.5,0.1-1.1,0.1-1.6-0.1c-0.3-0.1-0.6-0.2-0.9-0.3c0.2-0.2,0.4-0.2,0.7-0.2c0.2,0,0.4-0.1,0.6-0.1
			c0.7,0,1.2-0.3,1.8-0.6c0.2-0.1,0.4-0.3,0.6-0.4c0.1-0.1,0.2,0,0.4,0c0.1,0,0.2,0,0.3-0.1c0.1-0.2,0-0.4,0-0.6
			c0-0.2,0.1-0.3,0.2-0.4c0.3-0.2,0.4-0.4,0.6-0.7c0.3-0.7,0.6-1.4,0.7-2.1c0-0.2,0-0.5,0-0.7
			C158.3-1259.3,158.2-1259.4,158.4-1259.4z"/>
		<path fill="#1DADA5" d="M158.4-1259.4c-0.1,0.1-0.1,0.2,0,0.3c0,0,0.1,0.1,0.1,0.1c-0.1,0.1-0.1,0.3,0,0.4c0,0.1,0,0.1,0,0.2
			c-0.1,0.3-0.2,0.6-0.2,0.9c0,0.2-0.1,0.4-0.2,0.6c0,0.1-0.1,0.2-0.1,0.3c-0.1,0.3-0.3,0.6-0.4,0.8c-0.1,0.2-0.3,0.3-0.4,0.4
			c-0.1,0.1-0.1,0.1-0.1,0.2c0,0.2,0,0.4,0,0.5c0,0,0,0.1,0,0.1c-0.1-0.1-0.1-0.2-0.1-0.3c0.1-0.6-0.2-1-0.6-1.4c0,0.5,0,0.9,0,1.4
			c0,0.1,0,0.3-0.1,0.4c-0.1,0-0.1,0-0.1,0c0-0.1-0.1-0.1-0.1-0.2c0-0.6,0-1.3,0-1.9c0.5-0.4,0.7-1,0.9-1.6c0-0.1-0.1-0.2-0.1-0.3
			c0.1-0.3,0.1-0.7,0.1-1.1c0-0.1,0-0.3-0.1-0.4c0-0.4-0.2-0.8-0.4-1.1c0-0.1-0.1-0.2,0.1-0.2c0.2,0.1,0.5,0.3,0.7,0.5
			C157.7-1260.5,158.1-1260.1,158.4-1259.4z"/>
		<path fill="#1DADA5" d="M151.1-1260.7c0.2-0.2,0.4-0.3,0.6-0.5c0.3-0.1,0.6,0,0.9-0.1c0.2,0,0.4,0,0.6,0.2
			c0.1,0.1,0.2,0.2,0.3,0.2c0.3,0.1,0.5,0.3,0.6,0.6c0.1,0.2,0.1,0.3,0.2,0.5c0.2,0.2,0.1,0.5-0.2,0.6c-0.2-0.2-0.3-0.5-0.6-0.7
			c0,0.5-0.1,1,0.1,1.5c0,0,0,0.1,0,0.1c-0.1,0.2-0.1,0.5-0.1,0.7c0,1,0,2,0,3.1c-0.2,0.1-0.2-0.1-0.2-0.2c0-0.3,0-0.6,0-1
			c0-0.2,0-0.4,0-0.6c0-0.5,0-1,0-1.5c0-0.1,0-0.3-0.1-0.4c-0.1-0.2,0-0.4-0.1-0.7c0-0.4,0-0.7,0-1.1c0-0.2-0.1-0.2-0.3-0.2
			c-0.2,0-0.3,0-0.3,0.2c0,0.6,0,1.3,0,1.9c0,0.2,0.1,0.3,0.2,0.4c0.1,0.1-0.1,0.2-0.1,0.2c-0.5,0.1-0.9,0.1-1.3-0.3
			c-0.3-0.2-0.5-0.5-0.7-0.8c-0.2-0.3-0.1-0.7-0.2-1.1C150.4-1260,150.9-1260.2,151.1-1260.7z"/>
		<path fill="#1DADA5" d="M153.4-1256.2c0,0.5,0,1,0,1.6c0,0.1,0,0.1,0,0.2c0,0.1,0.1,0,0.1,0c0-0.1,0.1-0.2,0.1-0.3
			c0.2-0.2,0.4-0.4,0.5-0.7c0-0.3,0-0.5,0-0.8c0-0.1,0-0.2,0.1-0.2c0.1,0,0.1,0.1,0.1,0.2c0,0.3,0,0.5,0,0.8
			c0.2,0.3,0.4,0.5,0.6,0.9c0-0.2,0-0.4,0-0.6c0-0.1,0-0.3,0.1-0.3c0.1,0,0.1,0.1,0.2,0.1c0.1,0.2,0,0.4,0,0.6
			c0,0.2,0.1,0.3,0.3,0.3c0.1,0,0.2,0,0.3,0c0,0,0.1,0,0.1,0c0,0,0.1,0,0.1,0.1c0,0.1-0.1,0.1-0.1,0.2c-0.1,0-0.1,0-0.2,0.1
			c-0.2,0.3-0.5,0.4-0.8,0.5c-0.1,0-0.1,0.1-0.2,0.1c-0.2,0.1-0.4,0.2-0.7,0.2c-0.2,0-0.4,0-0.5,0.1c-0.1,0-0.3,0-0.4,0
			c-0.1,0-0.3,0-0.4,0.1c-0.1,0.1-0.1,0-0.2,0c-0.1,0-0.1,0-0.1,0.1c-0.8-0.4-1.4-0.9-1.9-1.6c0.2-0.2,0.4-0.2,0.6,0
			c0.2,0.1,0.4,0.1,0.7,0.1c0.1,0.1,0.1,0.1,0.2,0.1c0.3,0,0.4,0,0.4-0.3c0-0.1,0-0.2,0.1-0.3c0,0,0.1,0,0.1,0
			c0.1,0.1,0.1,0.1,0.1,0.2c0,0.4,0.1,0.5,0.6,0.3c0.1-0.1,0.1-0.2,0.1-0.4c0-0.3,0-0.7,0-1C153.3-1256,153.3-1256.2,153.4-1256.2z"
			/>
		<path fill="#1DADA5" d="M153.4-1256.2c-0.1,0-0.1,0.1-0.1,0.2c0,0.5,0,1,0,1.4c0,0.1,0,0.1-0.1,0.2c-0.1-0.1-0.1-0.3-0.1-0.4
			c0-0.8,0-1.6,0-2.4c0-0.1,0-0.2,0-0.3c-0.4,0.4-0.6,0.8-0.6,1.4c0,0.2,0,0.5,0,0.7c0,0.1,0,0.2-0.1,0.3c0,0-0.1,0-0.1,0
			c-0.1-0.1-0.1-0.2-0.1-0.3c0-0.3,0-0.6,0-0.9c-0.1,0-0.1,0.1-0.2,0.1c-0.2,0.2-0.4,0.1-0.7,0.1c-0.8-0.2-1.3-0.8-1.8-1.3
			c0-0.6,0.1-1.1,0.3-1.6c0.2-0.6,0.6-1.1,1-1.5c0,0,0.1,0,0.1-0.1c-0.1,0.2-0.1,0.3-0.2,0.5c-0.1,0.1-0.2,0.2-0.2,0.2
			c-0.1,0.1-0.2,0.1,0,0.3c0.1,0.1,0,0.1,0,0.2c-0.1,0.1-0.1,0.2,0,0.3c0.1,0.1,0.1,0.2,0,0.4c0,0.1,0,0.3,0.1,0.4
			c0.2,0.3,0.5,0.7,0.8,0.9c0.1,0.1,0.3,0.2,0.5,0.2c0.3,0,0.5,0,0.7-0.1c0-0.3,0.2-0.5,0.5-0.6c0,0,0.1-0.1,0.1,0
			c0,0.1,0,0.2,0,0.3C153.4-1257.3,153.4-1256.7,153.4-1256.2z"/>
		<path fill="#1DADA5" d="M155.2-1255.5c-0.1,0,0-0.1-0.1-0.1c-0.1,0-0.1-0.1-0.1-0.2c0-0.7,0-1.4,0-2.2c0.1-0.1,0.1-0.1,0.3-0.1
			c0.1,0.1,0.2,0.2,0.3,0.3c0,0.1,0.1,0.1,0.2,0.1c0.1,0,0.1-0.1,0.1-0.2c0-0.1,0-0.2,0-0.2c0-0.6,0-1.1,0-1.7c0-0.3,0-0.3-0.3-0.3
			c-0.1,0-0.2,0-0.3,0c-0.2-0.1-0.2-0.4-0.3-0.6c-0.2-0.4-0.5-0.7-0.8-0.9c-0.1-0.1-0.2-0.1-0.3-0.3c0.3,0,0.6,0,1,0
			c0.4,0,0.8,0.1,1.1,0.2c0.2,0.1,0.3,0.1,0.5,0.2c0,0-0.1,0-0.1,0.1c0.1,0.1,0.1,0.2,0.2,0.3c0.1,0.1,0.2,0.3,0.2,0.4
			c0,0.1,0,0.3,0,0.4c-0.1,0.1-0.2,0.1-0.3,0.1c-0.1,0-0.2,0.1-0.2,0.2c0,0.5,0,1,0,1.5c0,0.1,0,0.1,0.1,0.1c0.1,0,0.2-0.1,0.2-0.2
			c0.1-0.1,0.1-0.2,0.2-0.3c0.2,0,0.2,0.1,0.2,0.2c-0.1,0.1-0.1,0.3-0.1,0.4c-0.1,0.2-0.1,0.5-0.3,0.6c-0.1,0.2-0.3,0.4-0.3,0.6
			c0,0,0,0-0.1,0.1c0,0-0.1,0-0.1,0c0,0,0-0.1-0.1-0.1c-0.2,0-0.2-0.1-0.3-0.2c-0.1-0.2-0.2-0.3-0.4-0.5c0,0.6,0,1.2,0,1.7
			C155.3-1255.7,155.3-1255.6,155.2-1255.5z"/>
		<path fill="#1DADA5" d="M153.8-1261.9c0.2,0.1,0.2,0.3,0.4,0.3c0,0,0,0,0.1,0.1c0.1,0.2,0.3,0.4,0.5,0.5c0,0,0.1,0.1,0.1,0.1
			c0.1,0.3,0.3,0.5,0.3,0.8c0.1,0.1,0.1,0.2,0.1,0.3c0,0.6,0,1.1,0,1.7c0,0.1,0,0.1,0,0.2c-0.1,0.1-0.1,0-0.2,0
			c-0.2-0.1-0.3-0.3-0.4-0.4c-0.1-0.1-0.1-0.2-0.3-0.3c0,0.4,0,0.8,0,1.1c0,0.6,0,1.2,0,1.8c0,0.1,0,0.3-0.1,0.4
			c-0.1,0-0.1-0.1-0.1-0.2c0-0.3,0-0.6,0-0.8c0,0,0,0-0.1,0c0,0.2,0,0.5,0,0.7c0,0.1,0.1,0.2,0,0.3c-0.1-0.1-0.1-0.3-0.1-0.4
			c0-1,0-1.9,0-2.9c-0.2,0.1-0.2,0.4-0.5,0.4c0,0,0-0.1-0.1-0.1c0.1-0.3,0.3-0.6,0.6-0.8c0.1,0,0.2-0.1,0.2-0.2c0-0.1,0-0.1,0-0.1
			c0.1-0.1,0.1-0.1,0-0.2c-0.1-0.1-0.2-0.2-0.2-0.3c0-0.2-0.1-0.3-0.2-0.5c0-0.1-0.2-0.2-0.4-0.3c-0.2-0.1-0.4-0.1-0.6-0.3
			c-0.1-0.2-0.3-0.1-0.5-0.1c-0.2,0-0.3,0.1-0.4,0c-0.1,0-0.1,0-0.2,0c-0.1,0-0.2,0.1-0.2,0C152.3-1261.6,153.1-1261.8,153.8-1261.9
			z"/>
		<path fill="#1DADA5" d="M149.7-1257.4c0,0,0.1,0,0.1,0c0.1,0.3,0.5,0.4,0.6,0.6c0.3,0.2,0.5,0.5,0.9,0.5c0.1,0,0.2,0.1,0.3,0.1
			c0.1,0.1,0.2,0.1,0.3,0c0,0,0.1-0.1,0.2,0c0,0.1,0,0.1,0,0.2c-0.3,0.3-0.3,0.8-0.3,1.2c0,0.1,0,0.2-0.1,0.3
			c-0.2,0.1-0.3,0.1-0.5,0c-0.1-0.1-0.3-0.1-0.5-0.2c0,0-0.1,0.1,0,0.1c0,0,0,0.1,0,0.1c0,0-0.1,0-0.1,0c0,0-0.1-0.1-0.1,0
			c-0.4-0.5-0.6-1.1-0.7-1.7C149.7-1256.8,149.7-1257.1,149.7-1257.4z"/>
		<path fill="#FBFCFD" d="M156.1-1254.4L156.1-1254.4L156.1-1254.4c-0.1-0.1-0.1-0.1-0.1-0.2c0-0.6,0-1.3,0-1.9
			c0.1,0,0.1,0.1,0.2,0.2c0.1,0.2,0.2,0.4,0.4,0.5c0.2,0.2,0.2,0.4,0.2,0.6c0,0.2,0,0.4,0,0.7c0,0.1,0,0.2-0.2,0.2
			C156.5-1254.4,156.3-1254.4,156.1-1254.4z"/>
		<path fill="#FDFDFD" d="M155.2-1255.5c0-0.8,0-1.5,0-2.3c0.1,0,0.1,0.1,0.2,0.1c0.2,0.3,0.4,0.5,0.6,0.8c0,0.6,0,1.3,0,1.9
			c0,0.1,0,0.2,0,0.3c0,0.1,0,0.1,0,0.2c-0.1,0-0.3,0-0.4,0c-0.4,0-0.3,0-0.3-0.3C155.2-1255,155.2-1255.2,155.2-1255.5z"/>
		<path fill="#F9FCFC" d="M156.4-1258.2c-0.1,0.1-0.1,0.2-0.2,0.2c-0.1,0,0-0.1,0-0.1c0-0.6,0-1.3,0-1.9c0-0.2,0-0.2,0.2-0.2
			c0.2,0,0.3,0,0.5,0c0.1,0,0.2,0,0.2,0.2c0,0.3,0,0.7,0,1c0,0.1-0.1,0.2-0.2,0.3c-0.1,0.1-0.2,0.2-0.2,0.3
			C156.5-1258.3,156.4-1258.2,156.4-1258.2z"/>
		<path fill="#1DADA5" d="M156-1254.4c0-0.1,0-0.1,0-0.2c0,0,0.1,0,0.1,0c0,0.1,0,0.1,0,0.2C156.1-1254.4,156-1254.4,156-1254.4z"/>
		<path fill="#FEFEFE" d="M153.6-1258.3c0.2-0.1,0.2-0.3,0.3-0.4c0.1-0.1,0.1-0.2,0.2-0.3c0,1.2,0,2.4,0,3.5
			c-0.2,0.3-0.5,0.6-0.7,0.9c-0.1,0-0.1-0.1-0.1-0.1c0-1.1,0-2.2,0-3.3C153.5-1258.1,153.6-1258.2,153.6-1258.3z"/>
		<path fill="#FBFCFB" d="M153.3-1258.1c-0.2,0.2-0.3,0.4-0.5,0.6c-0.2,0-0.3-0.2-0.3-0.4c0-0.7,0-1.5,0-2.2c0-0.1,0-0.1,0.1-0.1
			c0,0,0,0,0,0c0.2,0,0.4-0.1,0.6,0c0.1,0.1,0,0.4,0,0.5C153.3-1259.1,153.3-1258.6,153.3-1258.1z"/>
		<path fill="#F9FBFC" d="M152.5-1257.9c-0.3-0.3-0.5-0.6-0.7-0.9c-0.1-0.1-0.1-0.1-0.1-0.2c0-0.3,0-0.7,0-1c0-0.1,0.1-0.2,0.2-0.2
			c0.1,0,0.3,0,0.4,0c0.1,0,0.2,0,0.2,0.1C152.5-1259.3,152.5-1258.6,152.5-1257.9z"/>
		<path fill="#F9FBFA" d="M154.1-1259.2c-0.2,0.3-0.4,0.5-0.6,0.8c0,0-0.1,0-0.1-0.1c0-0.5,0-1.1,0-1.6
			C153.7-1259.7,154-1259.5,154.1-1259.2z"/>
		<path fill="#0298D2" d="M153.4-1260c0,0.1,0,0.2,0,0.3C153.4-1259.8,153.4-1259.9,153.4-1260z"/>
		<path fill="#FDFDFD" d="M154.4-1255.4c0-1.2,0-2.4,0-3.6c0,0,0,0,0,0c0.2,0.3,0.5,0.7,0.7,1c0,0.8,0,1.6,0,2.4c0,0.4,0,0.7,0,1.1
			c0,0,0,0-0.1,0C154.8-1254.8,154.6-1255.1,154.4-1255.4z"/>
		<path fill="#FBFDFB" d="M152.6-1255.1c0-0.5,0-1,0-1.4c0-0.2,0-0.3,0.1-0.4c0.2-0.3,0.4-0.5,0.6-0.8c0.1,0,0,0.1,0,0.1
			c0,1,0,2.1,0,3.1c0,0,0,0.1,0,0.1c-0.2,0-0.4,0-0.5,0c-0.2,0-0.2,0-0.2-0.2C152.6-1254.8,152.6-1255,152.6-1255.1z"/>
		<path fill="#F9FBFB" d="M151.7-1254.6c0-0.2,0-0.5,0-0.7c0-0.2,0-0.4,0.2-0.5c0.1-0.1,0.2-0.3,0.3-0.4c0.1-0.1,0.2-0.3,0.3-0.4
			c0,0.5,0,1,0,1.5c0,0.2,0,0.4,0,0.6c0,0.1,0,0.1-0.1,0.1c-0.2,0-0.3,0-0.5,0C151.7-1254.4,151.7-1254.5,151.7-1254.6z"/>
		<path fill="#FDFDFD" d="M155.3-1258c0-0.1,0-0.2,0-0.2c0-0.6,0-1.2,0-1.9c0.2,0,0.4,0,0.6,0c0.2,0,0.2,0,0.2,0.2c0,0.5,0,1,0,1.5
			c0,0.2,0,0.3,0,0.5c0,0.3,0,0.3-0.2,0.5C155.6-1257.6,155.4-1257.8,155.3-1258z"/>
		<path fill="#F4F9F9" d="M155.1-1260.1c0,0.6,0,1.2,0,1.8c-0.2-0.2-0.3-0.4-0.4-0.5c-0.1-0.1-0.2-0.2-0.2-0.3
			c0-0.1,0.2-0.2,0.2-0.4C154.8-1259.7,154.9-1259.9,155.1-1260.1z"/>
	</g>
</g>
<g id="JvXlQn_1_">
	<g>
		<path fill="#1DADA5" d="M120.9-1267.5c0.1-0.6,0.5-1.1,1.1-1.3c0.1,0,0.1-0.1,0.2-0.1c0,0,0,0,0,0c0.1,0,0.2,0.1,0.3,0.1
			c0.1,0.1,0.1,0.1,0.2,0.2c0.1,0.1,0.1,0.1,0.1,0.2c0,0,0,0.1,0.1,0.1c0,0,0,0,0,0c0,0.1,0,0.2,0,0.4c0,0.1,0,0.2,0,0.3
			c0,0,0,0.1,0,0.1c0,0.2,0,0.4,0,0.6c0,0,0,0,0,0.1c0,0,0,0,0,0c0-0.1,0-0.2,0-0.2c0,0.1,0,0.2,0,0.3c0,0,0,0.1,0,0.1
			c0,0,0-0.1,0-0.1c0-0.2,0-0.4,0-0.6c0-0.1,0-0.1-0.1-0.2c0-0.1-0.1-0.1-0.1-0.2c0,0,0,0,0-0.1c0,0.4,0,0.8,0,1.1c0,0,0,0.1,0,0.1
			c0,0-0.1,0-0.1,0c0,0,0-0.1,0-0.1c0-0.4,0-0.8,0-1.2c0,0,0,0.1,0,0.1c0,0,0,0.1-0.1,0.1c-0.1,0.1-0.1,0.2-0.1,0.4
			c0,0.2,0,0.4,0,0.6c0,0,0,0.1,0,0.1c0,0,0,0,0,0c0,0,0-0.1,0-0.1c0,0,0,0.1,0,0.1c0,0,0,0,0,0c0,0,0-0.1,0-0.1c0-0.2,0-0.5,0-0.7
			c0,0,0,0,0-0.1c-0.1,0.1-0.2,0.2-0.2,0.3c0,0.1,0,0.1,0,0.2c0,0,0,0.1,0,0.1c0,0,0,0,0-0.1c0,0,0-0.1,0-0.1c0,0-0.1,0.1-0.1,0.1
			c-0.1,0-0.2,0-0.3-0.1c-0.2-0.1-0.3-0.2-0.4-0.3C121-1267.3,121-1267.4,120.9-1267.5C120.9-1267.5,120.9-1267.5,120.9-1267.5z"/>
		<path fill="#1DADA5" d="M123.3-1268.8c0.2,0.1,0.4,0.2,0.5,0.4c0.2,0.2,0.3,0.4,0.4,0.7c0,0,0,0,0,0.1c0,0,0,0.1,0,0.1
			c0,0.2-0.1,0.3-0.1,0.5c-0.1,0.2-0.2,0.4-0.3,0.5c-0.1,0.1-0.1,0.2-0.2,0.2c0,0,0,0,0,0.1c0,0,0,0,0,0c0-0.1,0-0.1,0-0.2
			c0-0.2,0-0.3-0.1-0.4c0,0-0.1-0.1-0.1-0.2c0-0.1,0.1-0.2,0.2-0.3c0.1-0.2,0.1-0.3,0.1-0.5c0-0.1,0-0.1,0-0.2c0,0,0-0.1,0-0.1
			c0,0,0-0.1,0-0.1c0-0.2-0.1-0.3-0.2-0.4C123.3-1268.7,123.3-1268.8,123.3-1268.8C123.3-1268.8,123.3-1268.8,123.3-1268.8z"/>
		<path fill="#1DADA5" d="M122.5-1266.6C122.6-1266.6,122.5-1266.6,122.5-1266.6C122.6-1266.6,122.6-1266.6,122.5-1266.6
			c0.1,0,0.1,0.1,0.2,0.1c0,0.1,0.1,0.1,0.1,0.2c0,0,0,0,0,0c0-0.1,0-0.1,0-0.2c0.1,0,0,0.1,0,0.1c0,0.1,0,0.1,0,0.2
			c0.1,0,0.1,0,0.2,0c0,0,0-0.1,0-0.1c0-0.2,0-0.3,0-0.5c0,0,0-0.1,0-0.1c0,0,0,0.1,0,0.1c0,0.2,0,0.3,0,0.5c0,0,0,0.1,0,0.1
			c0,0,0.1,0,0.1,0c0,0,0,0,0.1,0c0,0,0,0.1,0,0.1c-0.1,0.1-0.3,0.2-0.5,0.3c-0.2,0.1-0.5,0.2-0.8,0.2c0,0-0.1,0-0.1,0
			c-0.4-0.1-0.7-0.3-0.9-0.6c0,0,0,0,0,0l0,0c0,0,0,0,0,0c0,0,0,0,0,0c0,0,0,0,0,0l0,0c0,0,0,0,0,0c0,0,0,0,0,0c0,0,0,0,0,0
			c0,0,0,0,0,0c0,0,0,0,0,0c0,0,0,0,0,0c0,0,0.1,0,0.1,0c0.1,0.1,0.2,0.1,0.4,0.1c0,0,0.1,0,0.1,0c0.1,0,0.1,0,0.2,0
			c0-0.1,0-0.2,0-0.3c0,0,0.1,0,0.1,0c0,0,0,0.1,0,0.1c0,0,0,0.1,0,0.1c0.1,0,0.1,0,0.2,0c0,0,0.1,0,0.1,0
			C122.3-1266.3,122.4-1266.4,122.5-1266.6C122.5-1266.5,122.5-1266.6,122.5-1266.6z"/>
		<path fill="#1DADA5" d="M122.1-1265.6C122.1-1265.6,122.1-1265.6,122.1-1265.6c0.1-0.1,0.1-0.1,0.2-0.1c0.1,0,0.2,0,0.4-0.1
			c0.2,0,0.3-0.1,0.5-0.2c0.1-0.1,0.2-0.1,0.3-0.2c0,0,0,0,0,0c0,0,0.1,0,0.1,0c0,0,0,0,0-0.1c0.2-0.1,0.3-0.3,0.4-0.5
			c0.1-0.1,0.1-0.2,0.1-0.3c0,0,0-0.1,0-0.2c0-0.1,0.1-0.3,0.1-0.4c0,0,0-0.1,0-0.1l0,0c0,0,0,0,0,0c0,0,0,0,0,0c0,0,0,0,0,0
			c0,0,0,0,0,0c0,0,0,0,0,0c0,0,0,0,0,0c0,0,0,0,0,0.1c0,0,0,0.1,0,0.1c0,0.1,0,0.2,0,0.2c0,0.4-0.1,0.7-0.4,0.9
			c-0.4,0.5-0.9,0.7-1.5,0.7c0,0,0,0-0.1,0c0,0,0,0-0.1,0c0,0,0,0,0,0c0,0,0,0,0,0c0,0,0,0,0,0
			C122.2-1265.6,122.2-1265.6,122.1-1265.6C122.1-1265.6,122.1-1265.6,122.1-1265.6C122.1-1265.6,122.1-1265.6,122.1-1265.6
			C122.1-1265.6,122.1-1265.6,122.1-1265.6C122.1-1265.6,122.1-1265.6,122.1-1265.6z"/>
		<path fill="#1DADA5" d="M123.2-1266.2C123.2-1266.2,123.2-1266.3,123.2-1266.2c0-0.3,0-0.4,0-0.6c0,0,0,0,0-0.1c0,0,0,0.1,0,0.1
			C123.2-1266.6,123.2-1266.5,123.2-1266.2C123.2-1266.2,123.2-1266.2,123.2-1266.2C123.1-1266.2,123.1-1266.3,123.2-1266.2
			c-0.1-0.3-0.1-0.5-0.1-0.7c0-0.1,0-0.2-0.1-0.2c0,0,0-0.1-0.1-0.1c0,0,0,0,0,0c0,0,0,0,0,0c0,0,0,0,0,0c0,0,0,0,0,0c0,0,0,0,0,0
			c0,0,0,0,0,0c0,0-0.1-0.1,0-0.1c0,0,0,0,0,0c0,0,0,0,0,0c0,0,0,0,0,0c0,0,0,0,0,0c0,0,0,0,0,0c0,0,0,0,0,0c0,0,0,0,0,0
			c0,0,0,0,0,0c0,0,0,0,0,0c0,0,0,0,0,0c0,0,0,0,0,0c0,0,0,0,0,0c0,0,0-0.1,0-0.1c0-0.2,0-0.5,0-0.7c0,0,0,0,0-0.1
			c-0.1,0-0.2,0-0.2,0c0,0,0,0-0.1,0c-0.1-0.2-0.2-0.3-0.3-0.4c0,0-0.1,0-0.1-0.1c0,0-0.1,0-0.1,0c0,0-0.1,0-0.1,0c0,0,0,0,0-0.1
			c0,0,0,0,0,0c0,0,0,0,0,0c0,0,0,0,0,0c0,0,0,0,0,0c0,0,0,0,0.1,0c0,0,0,0,0,0c0,0,0.1,0,0.1,0c0,0,0,0,0,0c0,0,0,0,0,0
			c0,0,0,0,0,0c0.3,0,0.6,0,0.8,0.2c0,0,0,0,0,0.1c0.1,0.1,0.1,0.3,0.2,0.4c0,0,0,0,0,0.1c0,0-0.1,0-0.1,0c0,0-0.1,0-0.1,0
			c0,0.2,0,0.5,0,0.7c0.1-0.1,0.1-0.2,0.2-0.2c0,0,0.1-0.1,0.1-0.2c0-0.1,0-0.1,0-0.2c0,0,0,0.1,0,0.1c0,0.1,0,0.3,0,0.4
			c0,0.1,0,0.2-0.1,0.3c-0.1,0.1-0.1,0.2-0.2,0.3C123.3-1266.8,123.2-1266.5,123.2-1266.2C123.2-1266.3,123.2-1266.2,123.2-1266.2z"
			/>
		<path fill="#1DADA5" d="M128.4-1266.6c-0.1,0-0.2,0-0.2,0c-0.1-0.2-0.3-0.5-0.4-0.7c-0.1,0.2-0.3,0.5-0.4,0.7c-0.1,0-0.1,0-0.2,0
			c0.2-0.3,0.4-0.6,0.5-0.9c-0.2-0.3-0.3-0.5-0.5-0.8c0.1,0,0.2,0,0.2,0c0.1,0.2,0.2,0.4,0.4,0.6c0.1-0.2,0.2-0.4,0.4-0.6
			c0.1,0,0.1,0,0.2,0c-0.2,0.3-0.3,0.5-0.5,0.8C128.1-1267.2,128.2-1266.9,128.4-1266.6z"/>
		<path fill="#1DADA5" d="M126-1266.6c0-0.1,0-0.1,0-0.2c0.1,0,0.1,0.1,0.2,0.1c0.1,0,0.2,0.1,0.4,0c0.1,0,0.2-0.1,0.2-0.2
			c0-0.1,0-0.2-0.1-0.3c-0.1-0.1-0.2-0.1-0.3-0.2c-0.1,0-0.2-0.1-0.2-0.1c-0.2-0.1-0.2-0.3-0.2-0.5c0-0.2,0.1-0.3,0.3-0.3
			c0.1,0,0.3,0,0.4,0c0.1,0,0.1,0,0.2,0c0,0.1,0,0.1,0,0.2c-0.1,0-0.2-0.1-0.3-0.1c-0.1,0-0.1,0-0.2,0c-0.2,0.1-0.3,0.3-0.1,0.4
			c0.1,0.1,0.2,0.1,0.3,0.2c0.1,0.1,0.2,0.1,0.3,0.2c0.2,0.1,0.2,0.3,0.2,0.4c0,0.2-0.1,0.3-0.3,0.4c-0.2,0.1-0.3,0.1-0.5,0
			C126.2-1266.5,126.1-1266.6,126-1266.6z"/>
		<path fill="#1DADA5" d="M121.6-1266.2c0,0-0.1,0-0.1,0c-0.1,0-0.2-0.1-0.3-0.1c-0.1,0-0.1,0-0.2,0c-0.1-0.1-0.2-0.3-0.2-0.5
			c0-0.1,0-0.2,0-0.4c0,0,0-0.1,0-0.1c0,0,0-0.1,0-0.1c0,0,0,0,0,0c0,0,0,0,0,0c0,0,0,0,0,0c0,0,0,0,0,0.1c0,0.1,0.1,0.2,0.2,0.3
			c0.2,0.2,0.3,0.3,0.6,0.3c0,0,0,0,0,0c0,0,0,0,0,0c0,0,0,0,0,0c0,0,0,0,0,0c0,0,0,0,0,0c0,0.1-0.1,0.1-0.1,0.2
			C121.7-1266.4,121.7-1266.4,121.6-1266.2C121.6-1266.3,121.7-1266.2,121.6-1266.2z"/>
		<path fill="#0069A5" d="M124.3-1267.1c0-0.1,0-0.2,0-0.2C124.3-1267.3,124.3-1267.2,124.3-1267.1z"/>
		<path fill="#018ECE" d="M120.8-1267.4c0,0,0,0.1,0,0.1C120.8-1267.3,120.8-1267.3,120.8-1267.4z"/>
		<path fill="#0069A5" d="M122.3-1265.5C122.4-1265.5,122.4-1265.5,122.3-1265.5C122.4-1265.5,122.4-1265.5,122.3-1265.5z"/>
		<path fill="#0069A5" d="M124.3-1267.4C124.3-1267.5,124.3-1267.5,124.3-1267.4C124.3-1267.5,124.3-1267.5,124.3-1267.4z"/>
		<path fill="#018ECE" d="M122.4-1269C122.4-1269,122.4-1269,122.4-1269C122.4-1269,122.4-1269,122.4-1269z"/>
		<path fill="#0069A5" d="M122.3-1265.6C122.3-1265.6,122.3-1265.6,122.3-1265.6C122.3-1265.5,122.3-1265.5,122.3-1265.6z"/>
		<path fill="#018ECE" d="M120.9-1267.5C120.9-1267.5,120.9-1267.5,120.9-1267.5C120.8-1267.5,120.8-1267.5,120.9-1267.5z"/>
		<path fill="#0069A5" d="M124.3-1267.5C124.3-1267.6,124.3-1267.6,124.3-1267.5C124.3-1267.6,124.3-1267.6,124.3-1267.5z"/>
		<path fill="#0069A5" d="M122.2-1265.6C122.2-1265.6,122.2-1265.6,122.2-1265.6C122.2-1265.6,122.2-1265.6,122.2-1265.6z"/>
		<path fill="#0069A5" d="M122.1-1265.6C122.1-1265.6,122.1-1265.6,122.1-1265.6C122.1-1265.6,122.1-1265.6,122.1-1265.6z"/>
		<path fill="#018ECE" d="M122.3-1269C122.3-1269,122.3-1269,122.3-1269C122.3-1269,122.3-1269,122.3-1269z"/>
		<path fill="#018ECE" d="M122.2-1268.9C122.2-1268.9,122.2-1268.9,122.2-1268.9C122.2-1268.9,122.2-1269,122.2-1268.9z"/>
		<path fill="#0069A5" d="M122.1-1265.6C122.1-1265.6,122.1-1265.6,122.1-1265.6C122.1-1265.6,122.1-1265.6,122.1-1265.6z"/>
		<path fill="#0179B7" d="M121.1-1266.3C121.2-1266.3,121.2-1266.2,121.1-1266.3C121.2-1266.2,121.1-1266.2,121.1-1266.3z"/>
		<path fill="#0179B7" d="M121.1-1266.3C121.1-1266.3,121.1-1266.3,121.1-1266.3C121.1-1266.3,121.1-1266.3,121.1-1266.3z"/>
		<path fill="#0179B7" d="M121.1-1266.3C121.1-1266.3,121.1-1266.3,121.1-1266.3C121.1-1266.3,121.1-1266.3,121.1-1266.3z"/>
		<path fill="#0179B7" d="M121.1-1266.3C121.1-1266.3,121.1-1266.3,121.1-1266.3C121.1-1266.3,121.1-1266.3,121.1-1266.3z"/>
		<path fill="#0179B7" d="M121.1-1266.3C121.1-1266.3,121.1-1266.3,121.1-1266.3C121.1-1266.3,121.1-1266.3,121.1-1266.3z"/>
		<path fill="#0179B7" d="M121.1-1266.4C121.1-1266.4,121.1-1266.4,121.1-1266.4C121.1-1266.4,121.1-1266.4,121.1-1266.4z"/>
		<path fill="#018ECE" d="M122.5-1269C122.5-1269,122.5-1269,122.5-1269C122.5-1269,122.5-1269,122.5-1269z"/>
		<path fill="#018ECE" d="M122.2-1268.9C122.2-1268.9,122.2-1268.9,122.2-1268.9C122.2-1268.9,122.2-1268.9,122.2-1268.9z"/>
		<path fill="#0069A5" d="M124.2-1267.7C124.2-1267.7,124.2-1267.7,124.2-1267.7C124.2-1267.7,124.2-1267.7,124.2-1267.7z"/>
		<path fill="#0069A5" d="M124.3-1267.6C124.2-1267.6,124.2-1267.6,124.3-1267.6C124.2-1267.6,124.2-1267.6,124.3-1267.6z"/>
		<path fill="#FEFEFE" d="M122.5-1266.6c-0.1,0.1-0.2,0.2-0.3,0.4c0,0,0,0,0-0.1c0-0.1,0-0.2,0-0.3c0-0.3,0-0.6,0-0.9
			c0,0,0-0.1,0-0.1c0.1-0.1,0.1-0.2,0.2-0.3C122.5-1267.4,122.5-1267,122.5-1266.6z"/>
		<path fill="#FEFEFE" d="M122.8-1266.2c-0.1-0.1-0.2-0.2-0.3-0.4c0-0.4,0-0.8,0-1.2c0,0,0,0,0-0.1c0.1,0.1,0.2,0.2,0.2,0.3
			c0,0,0,0.1,0,0.1c0,0.3,0,0.5,0,0.8c0,0,0,0.1,0,0.1C122.8-1266.4,122.9-1266.3,122.8-1266.2
			C122.9-1266.2,122.9-1266.2,122.8-1266.2z"/>
		<path fill="#FEFEFE" d="M122.2-1266.2c-0.1,0-0.1,0-0.2,0c0,0,0,0-0.1,0c0,0,0,0,0,0c0-0.2,0-0.3,0-0.5c0-0.1,0-0.2,0-0.3
			c0.1-0.1,0.2-0.2,0.3-0.4c0,0,0,0,0,0c0,0.3,0,0.6,0,0.9C122.2-1266.4,122.2-1266.3,122.2-1266.2z"/>
		<path fill="#FEFEFE" d="M122.9-1267.4C122.9-1267.4,122.9-1267.4,122.9-1267.4C122.9-1267.4,122.9-1267.4,122.9-1267.4
			C122.9-1267.4,123-1267.4,122.9-1267.4C123-1267.4,123-1267.4,122.9-1267.4c0.1,0.1,0.1,0.1,0.1,0.1c0,0,0,0,0,0
			c0,0.1,0.1,0.1,0.1,0.2c0,0,0,0,0,0.1c0,0.3,0,0.5,0,0.8c0,0,0,0,0,0c-0.1,0-0.1,0-0.2,0c0,0,0,0-0.1,0c0-0.2,0-0.3,0-0.5
			c0,0,0,0,0-0.1C122.9-1267,122.9-1267.2,122.9-1267.4C122.9-1267.4,122.9-1267.4,122.9-1267.4z"/>
		<path fill="#FEFEFE" d="M121.9-1268.3c0.1,0,0.2,0,0.3,0c0,0.3,0,0.5,0,0.8c-0.1,0.1-0.1,0.2-0.2,0.2c0,0-0.1-0.1-0.1-0.1
			c0-0.2,0-0.4,0-0.6C121.9-1268.1,121.9-1268.2,121.9-1268.3z"/>
		<path fill="#FEFEFE" d="M123.1-1267.3C123.1-1267.3,123-1267.3,123.1-1267.3C123-1267.3,123-1267.3,123.1-1267.3
			C123-1267.4,123-1267.4,123.1-1267.3C123-1267.4,123-1267.4,123.1-1267.3c-0.1-0.1-0.1-0.1-0.1-0.1c0,0,0,0,0,0c0,0,0,0,0,0
			c0,0,0,0,0,0l0,0c0,0,0,0,0,0c0,0,0,0,0,0c0-0.2,0-0.4,0-0.7c0,0,0-0.1,0-0.1c0.1,0,0.2,0,0.2,0c0,0,0,0.1,0,0.1
			c0,0.2,0,0.5,0,0.7C123.2-1267.4,123.1-1267.3,123.1-1267.3C123.1-1267.3,123.1-1267.3,123.1-1267.3z"/>
		<path fill="#FEFEFE" d="M121.9-1267.7c0,0.1,0,0.2,0,0.3c0,0,0,0,0,0c-0.1-0.1-0.2-0.2-0.3-0.3c0-0.2,0-0.3,0-0.5
			c0.1,0,0.2,0,0.3,0c0,0,0,0.1,0,0.1c0,0,0,0,0,0.1C121.9-1268,121.9-1267.9,121.9-1267.7C121.9-1267.8,121.9-1267.7,121.9-1267.7z
			"/>
		<path fill="#FEFEFE" d="M121.6-1266.2c0-0.1,0-0.3,0-0.4c0,0,0-0.1,0.1-0.1c0,0,0,0,0,0c0,0,0,0,0,0c0,0,0,0,0,0c0,0,0,0,0,0
			c0,0,0.1-0.1,0.1-0.1c0,0,0,0,0,0c0,0.1,0,0.1,0,0.2c0,0.1,0,0.2,0,0.3c0,0.1,0,0.2,0,0.3C121.8-1266.2,121.7-1266.2,121.6-1266.2
			z"/>
		<path fill="#FDFDFE" d="M122.8-1267.6c-0.1-0.1-0.2-0.2-0.2-0.3c0.1-0.1,0.2-0.2,0.2-0.3C122.8-1268,122.8-1267.8,122.8-1267.6z"
			/>
		<path fill="#FDFDFD" d="M122.3-1268.2c0.1,0.1,0.2,0.2,0.2,0.3c-0.1,0.1-0.2,0.2-0.2,0.3C122.3-1267.8,122.3-1268,122.3-1268.2
			C122.3-1268.2,122.3-1268.2,122.3-1268.2z"/>
		<path fill="#1DADA5" d="M122.9-1266.8c0,0.2,0,0.4,0,0.5c0,0,0-0.1,0-0.1c0,0,0-0.1,0-0.1c0,0,0,0,0,0c0,0.1,0,0.1,0,0.2
			c0,0,0,0,0,0.1C122.8-1266.4,122.8-1266.5,122.9-1266.8C122.9-1266.7,122.9-1266.7,122.9-1266.8c0-0.1,0-0.2,0-0.3c0,0,0,0,0-0.1
			c0,0.1,0,0.1,0,0.2C122.9-1266.9,122.9-1266.8,122.9-1266.8z"/>
		<path fill="#1DADA5" d="M121.9-1267.7c0-0.1,0-0.3,0-0.4c0,0,0,0,0,0c0,0,0-0.1,0-0.1c0,0.2,0,0.5,0,0.7c0,0.1,0,0.1,0,0.2
			c0-0.1,0-0.1,0-0.2C121.9-1267.6,121.9-1267.7,121.9-1267.7C121.9-1267.7,121.9-1267.7,121.9-1267.7z"/>
		<path fill="#1DADA5" d="M121.9-1266.5c0-0.1,0-0.2,0-0.3c0,0,0,0,0,0c0-0.1,0-0.2,0-0.3c0,0.3,0,0.5,0,0.8c0,0,0,0.1,0,0.1
			c0,0,0,0,0-0.1C121.9-1266.3,121.9-1266.4,121.9-1266.5C121.9-1266.5,121.9-1266.5,121.9-1266.5z"/>
		<path fill="#1DADA5" d="M122.2-1266.2c0-0.1,0-0.2,0-0.3c0,0,0-0.1,0-0.1c0,0,0-0.1,0-0.1c0,0.1,0,0.1,0,0.2
			C122.3-1266.4,122.3-1266.3,122.2-1266.2C122.2-1266.2,122.2-1266.2,122.2-1266.2z"/>
		<path fill="#FEFEFE" d="M123.5-1268.1c0,0.1,0,0.2,0,0.3c-0.1,0.1-0.2,0.2-0.3,0.4c0-0.3,0-0.5,0-0.8c0.1,0,0.2,0,0.3,0
			C123.5-1268.2,123.5-1268.2,123.5-1268.1z"/>
		<path fill="#FEFEFE" d="M123.2-1266.2c0-0.2,0-0.5,0-0.7c0,0,0-0.1,0-0.1c0.1,0.1,0.1,0.2,0.2,0.3c0,0,0,0.1,0,0.1
			c0,0.1,0,0.2,0,0.4c0,0-0.1,0-0.1,0C123.3-1266.2,123.3-1266.2,123.2-1266.2z"/>
		<path fill="#018ECE" d="M123-1267.4C123-1267.4,123-1267.4,123-1267.4C123-1267.4,123-1267.4,123-1267.4z"/>
		<path fill="#018ECE" d="M122.9-1267.5C122.9-1267.5,122.9-1267.5,122.9-1267.5C122.9-1267.5,122.9-1267.5,122.9-1267.5z"/>
		<path fill="#018ECE" d="M122.9-1267.4C122.9-1267.4,122.9-1267.4,122.9-1267.4C122.9-1267.4,122.9-1267.4,122.9-1267.4z"/>
		<path fill="#018ECE" d="M123-1267.4C123-1267.4,123-1267.4,123-1267.4C123-1267.4,123-1267.4,123-1267.4z"/>
		<path fill="#018ECE" d="M122.9-1267.5C122.9-1267.5,122.9-1267.5,122.9-1267.5C122.9-1267.5,122.9-1267.5,122.9-1267.5z"/>
		<path fill="#018ECE" d="M123-1267.4C123-1267.4,123-1267.4,123-1267.4C123-1267.4,123-1267.4,123-1267.4z"/>
		<path fill="#018ECE" d="M123-1267.4C123-1267.3,123-1267.3,123-1267.4C123-1267.3,123-1267.3,123-1267.4z"/>
		<path fill="#018ECE" d="M123.1-1267.3C123.1-1267.3,123.1-1267.3,123.1-1267.3C123.1-1267.3,123.1-1267.3,123.1-1267.3z"/>
		<path fill="#018ECE" d="M123-1267.3C123-1267.3,123-1267.3,123-1267.3C123-1267.3,123-1267.3,123-1267.3z"/>
		<path fill="#1DADA5" d="M125.3-1268.4c-0.1,0-0.2,0-0.2,0c-0.2,0.7-0.4,1.2-0.6,1.8c0.1,0,0.1,0,0.2,0c0.1-0.2,0.1-0.3,0.2-0.6
			c0.2,0,0.4,0,0.6,0c0.1,0.2,0.1,0.5,0.2,0.7c0.1,0,0.1,0,0.2,0C125.7-1267.2,125.5-1267.7,125.3-1268.4z M124.9-1267.4
			c0.1,0,0.2-0.4,0.2-0.7c0,0,0,0,0,0c0.1,0.3,0.2,0.7,0.2,0.7C125.2-1267.4,125.1-1267.4,124.9-1267.4z"/>
		<path fill="#018ECE" d="M121.7-1266.8C121.7-1266.8,121.7-1266.7,121.7-1266.8C121.7-1266.7,121.7-1266.8,121.7-1266.8z"/>
		<path fill="#018ECE" d="M121.7-1266.8C121.7-1266.8,121.7-1266.8,121.7-1266.8C121.7-1266.8,121.7-1266.8,121.7-1266.8z"/>
	</g>
</g>
<g id="XFOvHq.tif">
	<g>
		<circle fill="#1DADA5" cx="152.2" cy="-1224.2" r="5.4"/>
		<path fill="#1DADA5" d="M152.2-1220.2C152.2-1220.3,152.2-1220.3,152.2-1220.2c0.5,0,0.9,0,1.4-0.1c0.4,0,0.7,0,1.1-0.1
			c0.5-0.1,0.6-0.1,0.7-0.7c0.1-0.6,0.1-1.3,0.1-1.9c0-0.3-0.1-0.6-0.1-0.9c0-0.3-0.2-0.5-0.5-0.5c-0.3,0-0.5-0.1-0.8-0.1
			c-1.2-0.1-2.4-0.1-3.6,0c-0.3,0-0.5,0.1-0.8,0.1c-0.3,0-0.5,0.2-0.5,0.5c0,0.2-0.1,0.4-0.1,0.7c-0.1,0.8-0.1,1.6,0.1,2.3
			c0.1,0.3,0.2,0.5,0.6,0.6c0.1,0,0.1,0,0.2,0C150.6-1220.4,151.4-1220.3,152.2-1220.2z M150.9-1225.5c0-0.1,0-0.2,0-0.3
			c-0.1-0.7,0.1-1.3,0.3-1.9c0.1-0.2,0.2-0.5,0.2-0.7c-0.2,0-0.3,0-0.5,0c-0.1,0.4-0.2,0.7-0.3,1.1c0,0,0,0,0,0
			c-0.1-0.4-0.2-0.7-0.3-1.1c-0.2,0-0.3,0-0.5,0c0.2,0.5,0.3,1,0.5,1.4c0.1,0.2,0.1,0.4,0.1,0.7c0,0.3,0,0.5,0,0.8
			C150.6-1225.5,150.7-1225.5,150.9-1225.5z M151.5-1226.6C151.5-1226.6,151.5-1226.6,151.5-1226.6c0,0.2,0,0.4,0,0.6
			c0,0.3,0.2,0.5,0.5,0.5c0.4,0.1,0.8-0.1,0.8-0.6c0-0.3,0-0.7,0-1c0-0.5-0.4-0.7-0.8-0.6c-0.3,0.1-0.5,0.2-0.5,0.5
			C151.5-1227,151.5-1226.8,151.5-1226.6z M154.3-1227.6c-0.1,0-0.3,0-0.4,0c0,0.1,0,0.2,0,0.3c0,0.4,0,0.8,0,1.2
			c0,0.2-0.1,0.3-0.4,0.3c0-0.6,0-1.2,0-1.7c-0.2,0-0.3,0-0.4,0c0,0.6,0,1.2,0,1.8c0,0,0,0.1,0,0.1c0,0.2,0.1,0.2,0.3,0.2
			c0.2,0,0.3-0.1,0.4-0.2c0,0,0,0,0.1,0c0,0.1,0,0.1,0,0.2c0.1,0,0.3,0,0.4,0C154.3-1226.2,154.3-1226.9,154.3-1227.6z"/>
		<path fill="#FEFDFD" d="M152.2-1220.2c-0.8-0.1-1.6-0.1-2.3-0.2c-0.1,0-0.1,0-0.2,0c-0.3,0-0.5-0.3-0.6-0.6
			c-0.2-0.8-0.2-1.5-0.1-2.3c0-0.2,0.1-0.4,0.1-0.7c0.1-0.3,0.2-0.5,0.5-0.5c0.3,0,0.5-0.1,0.8-0.1c1.2-0.1,2.4-0.1,3.6,0
			c0.3,0,0.5,0.1,0.8,0.1c0.3,0,0.5,0.2,0.5,0.5c0,0.3,0.1,0.6,0.1,0.9c0,0.7,0,1.3-0.1,1.9c-0.1,0.6-0.2,0.6-0.7,0.7
			c-0.3,0.1-0.7,0.1-1.1,0.1C153.1-1220.3,152.7-1220.3,152.2-1220.2C152.2-1220.2,152.2-1220.3,152.2-1220.2z M152.5-1223.8
			c0,0.9,0,1.7,0,2.6c0.2,0,0.3,0,0.5-0.1c0,0,0.1,0.1,0.2,0.1c0.2,0,0.4-0.1,0.4-0.3c0,0,0-0.1,0-0.1c0-0.3,0-0.7,0-1
			c0-0.5-0.2-0.6-0.6-0.4c0,0,0,0-0.1,0c0-0.2,0-0.5,0-0.7C152.7-1223.8,152.6-1223.8,152.5-1223.8z M154.9-1222.1
			c0-0.2,0-0.4,0-0.6c0-0.3-0.2-0.5-0.5-0.5c-0.3,0-0.6,0.1-0.6,0.4c0,0.4,0,0.8,0,1.2c0,0.2,0.2,0.3,0.4,0.4
			c0.4,0.1,0.7-0.2,0.7-0.7c-0.1,0-0.2,0-0.4,0c0,0.1,0,0.1,0,0.2c0,0.1,0,0.2-0.2,0.2c-0.1,0-0.1-0.1-0.2-0.2c0-0.1,0-0.3,0-0.4
			C154.4-1222.1,154.6-1222.1,154.9-1222.1z M150.5-1221.2c0-0.8,0-1.5,0-2.2c0.2,0,0.3,0,0.4,0c0-0.1,0-0.2,0-0.3
			c-0.4,0-0.9,0-1.3,0c0,0.1,0,0.2,0,0.4c0.1,0,0.3,0,0.4,0c0,0.3,0,0.5,0,0.8c0,0.2,0,0.5,0,0.7c0,0.2,0,0.5,0,0.7
			C150.2-1221.2,150.3-1221.2,150.5-1221.2z M151.8-1221.3c0,0.1,0,0.1,0.1,0.1c0.1,0,0.2,0,0.3,0c0-0.7,0-1.3,0-1.9
			c-0.1,0-0.2,0-0.4,0c0,0.1,0,0.2,0,0.3c0,0.3,0,0.7,0,1c0,0.2,0,0.2-0.3,0.3c-0.1-0.5,0-1.1,0-1.6c-0.1,0-0.2,0-0.4,0
			c0,0.4,0,0.7,0,1.1c0,0.2,0,0.4,0,0.6c0,0.2,0.2,0.3,0.4,0.3C151.5-1221.2,151.6-1221.3,151.8-1221.3z"/>
		<path fill="#FEFDFD" d="M150.9-1225.5c-0.2,0-0.3,0-0.5,0c0-0.3,0-0.5,0-0.8c0-0.2,0-0.5-0.1-0.7c-0.2-0.5-0.3-0.9-0.5-1.4
			c0.2,0,0.3,0,0.5,0c0.1,0.4,0.2,0.8,0.3,1.1c0,0,0,0,0,0c0.1-0.4,0.2-0.7,0.3-1.1c0.2,0,0.3,0,0.5,0c-0.1,0.3-0.1,0.5-0.2,0.7
			c-0.2,0.6-0.4,1.2-0.3,1.9C150.9-1225.7,150.9-1225.6,150.9-1225.5z"/>
		<path fill="#FEFDFD" d="M151.5-1226.6c0-0.2,0-0.4,0-0.5c0-0.3,0.2-0.5,0.5-0.5c0.4-0.1,0.8,0.1,0.8,0.6c0,0.3,0,0.7,0,1
			c0,0.5-0.3,0.7-0.8,0.6c-0.3-0.1-0.4-0.3-0.5-0.5C151.5-1226.2,151.5-1226.4,151.5-1226.6C151.5-1226.6,151.5-1226.6,151.5-1226.6
			z M152.3-1226.6c0-0.2,0-0.4,0-0.5c0-0.1-0.1-0.2-0.2-0.2c-0.1,0-0.2,0.1-0.2,0.2c0,0.4,0,0.7,0,1.1c0,0.2,0.1,0.2,0.2,0.2
			c0.1,0,0.2-0.1,0.2-0.2C152.3-1226.2,152.3-1226.4,152.3-1226.6z"/>
		<path fill="#FEFDFD" d="M154.3-1227.6c0,0.7,0,1.4,0,2.1c-0.1,0-0.3,0-0.4,0c0-0.1,0-0.1,0-0.2c0,0-0.1,0-0.1,0
			c-0.1,0.1-0.2,0.2-0.4,0.2c-0.2,0-0.3-0.1-0.3-0.2c0,0,0-0.1,0-0.1c0-0.6,0-1.2,0-1.8c0.1,0,0.3,0,0.4,0c0,0.6,0,1.2,0,1.7
			c0.3,0,0.4,0,0.4-0.3c0-0.4,0-0.8,0-1.2c0-0.1,0-0.2,0-0.3C154-1227.6,154.2-1227.6,154.3-1227.6z"/>
		<path fill="#1DADA5" d="M152.5-1223.8c0.1,0,0.2,0,0.4,0c0,0.3,0,0.5,0,0.7c0,0,0.1,0,0.1,0c0.4-0.2,0.6,0,0.6,0.4
			c0,0.3,0,0.7,0,1c0,0,0,0.1,0,0.1c0,0.2-0.2,0.3-0.4,0.3c-0.1,0-0.1-0.1-0.2-0.1c-0.2,0-0.3,0-0.5,0.1
			C152.5-1222.1,152.5-1222.9,152.5-1223.8z M153.2-1222.1C153.2-1222.1,153.2-1222.1,153.2-1222.1c0-0.2,0-0.4,0-0.5
			c0-0.1-0.1-0.2-0.2-0.2c-0.1,0-0.1,0.1-0.1,0.1c0,0.4,0,0.7,0,1.1c0,0.1,0.1,0.2,0.2,0.2c0.1,0,0.2-0.1,0.2-0.2
			C153.2-1221.8,153.2-1222,153.2-1222.1z"/>
		<path fill="#1DADA5" d="M154.9-1222.1c-0.3,0-0.5,0-0.7,0c0,0.2,0,0.3,0,0.4c0,0.1,0,0.2,0.2,0.2c0.1,0,0.2-0.1,0.2-0.2
			c0,0,0-0.1,0-0.2c0.1,0,0.2,0,0.4,0c0.1,0.5-0.2,0.8-0.7,0.7c-0.2-0.1-0.4-0.2-0.4-0.4c0-0.4,0-0.8,0-1.2c0-0.3,0.3-0.5,0.6-0.4
			c0.3,0,0.5,0.2,0.5,0.5C154.9-1222.5,154.9-1222.3,154.9-1222.1z M154.5-1222.4c0-0.1,0-0.2,0-0.3c0-0.1-0.1-0.2-0.2-0.2
			c-0.1,0-0.1,0.1-0.2,0.1c0,0.1,0,0.2,0,0.3C154.3-1222.4,154.4-1222.4,154.5-1222.4z"/>
		<path fill="#1DADA5" d="M150.5-1221.2c-0.2,0-0.3,0-0.4,0c0-0.2,0-0.5,0-0.7c0-0.2,0-0.5,0-0.7c0-0.2,0-0.5,0-0.8
			c-0.2,0-0.3,0-0.4,0c0-0.1,0-0.2,0-0.4c0.4,0,0.8,0,1.3,0c0,0.1,0,0.2,0,0.3c-0.1,0-0.3,0-0.4,0
			C150.5-1222.7,150.5-1221.9,150.5-1221.2z"/>
		<path fill="#1DADA5" d="M151.8-1221.3c-0.1,0.1-0.2,0.1-0.3,0.2c-0.2,0.1-0.4,0-0.4-0.3c0-0.2,0-0.4,0-0.6c0-0.4,0-0.7,0-1.1
			c0.1,0,0.2,0,0.4,0c0,0.5,0,1.1,0,1.6c0.3,0,0.3-0.1,0.3-0.3c0-0.3,0-0.7,0-1c0-0.1,0-0.2,0-0.3c0.1,0,0.3,0,0.4,0
			c0,0.6,0,1.3,0,1.9c-0.1,0-0.2,0-0.3,0C151.8-1221.2,151.8-1221.3,151.8-1221.3z"/>
		<path fill="#1DADA5" d="M152.3-1226.6c0,0.2,0,0.4,0,0.5c0,0.1-0.1,0.2-0.2,0.2c-0.1,0-0.2,0-0.2-0.2c0-0.4,0-0.7,0-1.1
			c0-0.2,0.1-0.2,0.2-0.2c0.1,0,0.2,0.1,0.2,0.2C152.3-1226.9,152.3-1226.8,152.3-1226.6z"/>
		<path fill="#FEFDFD" d="M153.2-1222.1c0,0.2,0,0.3,0,0.5c0,0.1,0,0.2-0.2,0.2c-0.1,0-0.2-0.1-0.2-0.2c0-0.4,0-0.7,0-1.1
			c0-0.1,0-0.1,0.1-0.1c0.1,0,0.2,0.1,0.2,0.2C153.2-1222.5,153.2-1222.3,153.2-1222.1C153.2-1222.1,153.2-1222.1,153.2-1222.1z"/>
		<path fill="#FEFDFD" d="M154.5-1222.4c-0.1,0-0.2,0-0.3,0c0-0.1,0-0.2,0-0.3c0-0.1,0.1-0.1,0.2-0.1c0.1,0,0.2,0.1,0.2,0.2
			C154.5-1222.6,154.5-1222.5,154.5-1222.4z"/>
	</g>
</g>
<g id="qo8JK3.tif">
</g>
<g>
	<circle fill="#1DADA5" cx="-34" cy="-413" r="129"/>
	<g id="mT5kdH.tif">
		
			<image overflow="visible" width="172" height="140" id="Layer_0" xlink:href="BBBE2B5AC81E7039.png"  transform="matrix(1 0 0 1 -115.9799 -475.9799)">
		</image>
	</g>
</g>
<g id="_x36_e4Hzv_1_">
	<g>
		<path fill="#FFFFFF" d="M138.3,310.3c0-49.3,0-98.2,0-147.3c-16.3,0-32.3,0-48.5,0c0,49.2,0,98.2,0,147.3
			C106,310.3,122,310.3,138.3,310.3z"/>
		<path fill="#FFFFFF" d="M315.5,310.5c-16.1,0-32.3,0-49,0c0-2,0-3.8,0-5.6c0-24.7,0.1-49.3-0.1-74c0-5.3-0.7-10.7-2-15.7
			c-4.6-16.8-24.8-23.1-38.4-12c-7.7,6.3-11.5,14.4-11.4,24.4c0.1,25.7,0,51.3,0,77c0,1.8,0,3.6,0,5.6c-16.3,0-32.3,0-48.6,0
			c0-49,0-98,0-147.2c16.1,0,32,0,48.3,0c0,6.6,0,13,0,20.5c1.4-1.5,2.2-2.2,2.8-3c14.1-19.1,33.6-24.3,55.8-19.7
			c21.4,4.5,34.1,18.7,39.7,39.5c1,3.7,2,7.4,3,11.2c0,1,0,2,0,3c0,1.3,0,2.7,0,4C315.5,249.2,315.5,279.8,315.5,310.5z"/>
		<path fill="#FFFFFF" d="M86.5,111.5c3.3-8.7,8.4-15.7,17.8-18.3c11.2-3.1,21.9-2.3,30.4,6.5c7.6,7.8,8.8,17.4,5,27.3
			c-3.9,10.2-12.5,14.8-23,15.5c-15.9,1-23-4-30.3-19.9C86.5,118.8,86.5,115.2,86.5,111.5z"/>
		<path fill="#FFFFFF" d="M315.5,218.5c0-1.3,0-2.7,0-4C315.5,215.8,315.5,217.2,315.5,218.5z"/>
		<path fill="#FFFFFF" d="M138.3,310.3c-16.4,0-32.3,0-48.5,0c0-49.1,0-98.1,0-147.3c16.2,0,32.3,0,48.5,0
			C138.3,212.1,138.3,261,138.3,310.3z"/>
	</g>
</g>
</svg>
