<?xml version="1.0" encoding="utf-8"?>
<!-- Generator: Adobe Illustrator 18.0.0, SVG Export Plug-In . SVG Version: 6.00 Build 0)  -->
<!DOCTYPE svg PUBLIC "-//W3C//DTD SVG 1.1//EN" "http://www.w3.org/Graphics/SVG/1.1/DTD/svg11.dtd">
<svg version="1.1" id="Layer_1" xmlns="http://www.w3.org/2000/svg" xmlns:xlink="http://www.w3.org/1999/xlink" x="0px" y="0px"
	 viewBox="250 50 560 560" enable-background="new 250 50 560 560" xml:space="preserve">
<path id="coin-2-icon" fill="#0D8D8F" d="M530,104.4c124.6,0,225.6,100.9,225.6,225.6c0,124.6-100.9,225.6-225.6,225.6
	c-124.6,0-225.6-100.9-225.6-225.6C304.4,205.4,405.2,104.4,530,104.4 M530,50c-154.7,0-280,125.3-280,280s125.3,280,280,280
	s280-125.3,280-280S684.7,50,530,50L530,50z M554.6,454.6v31h-44.3v-27.7c-21.3-1.8-49.5-9.5-70.1-20.9l14.7-51.1
	c23.5,9.1,57.6,20.7,83,15.1c22.2-4.9,27.7-24.7,1.6-35.9c-22-9.9-97.7-20.3-97.7-83.6c0-26.2,19.7-62.3,68.5-73V177h44.3v28.8
	c19,1.4,38.5,4.8,60.8,11.8c-2.2,9.8-12,52.2-12,52.2c-15.5-5.3-40.8-14.4-65-13c-30,1.6-32.1,23.7-12,33.7
	c41.5,18.8,101.5,34.7,101.5,90.7C628.1,424.5,594.4,449.1,554.6,454.6z"/>
</svg>
