<?xml version="1.0" encoding="utf-8"?>
<!-- Generator: Adobe Illustrator 18.1.0, SVG Export Plug-In . SVG Version: 6.00 Build 0)  -->
<!DOCTYPE svg PUBLIC "-//W3C//DTD SVG 1.1//EN" "http://www.w3.org/Graphics/SVG/1.1/DTD/svg11.dtd">
<svg version="1.1" id="Layer_1" xmlns="http://www.w3.org/2000/svg" xmlns:xlink="http://www.w3.org/1999/xlink" x="0px" y="0px"
	 viewBox="0 0 791 173" enable-background="new 0 0 791 173" xml:space="preserve">
<g>
	<path fill="#1DADA5" d="M97.2,78.2c0-15.4,0.1-29.6-0.1-43.7c-0.1-3.7,1-4.9,4.8-4.8c9.5,0.3,19,0.2,28.5,0c3.1-0.1,4,1,4,4
		c-0.1,32.2-0.1,64.3,0,96.5c0,2.7-0.6,3.8-3.6,3.8c-9.5-0.2-19-0.2-28.5,0c-2.8,0.1-4.2-1.5-5.9-3.1C82.5,117.1,68.8,103.3,55,89.5
		c-1.2-1.2-2.4-2.2-3.6-3.4c-1.7,1.3-1,2.9-1,4.3c-0.1,13-0.1,26,0,39c0,3.3-0.6,4.7-4.3,4.6c-9.5-0.2-19-0.2-28.5,0
		c-3.1,0.1-4.4-0.6-4.4-4.1c0.1-32,0.1-64,0-96c0-3.3,1-4.3,4.3-4.2c9,0.2,18,0.2,27,0c2.9-0.1,5,0.8,7,2.9
		C65.2,46.5,79,60.2,92.8,74C93.9,75.2,95.1,76.3,97.2,78.2z"/>
	<path fill="#1DADA5" d="M324.7,133.9c-16,0-29.1-0.2-42.3,0.1c-3.9,0.1-4.8-1.2-4.7-4.8c0.3-7.2,0.4-14.3,0-21.5
		c-0.2-4.2,1.4-4.8,5.1-4.8c21.8,0.1,43.6,0.1,65.5,0.1c2.4,0,4.8,0.7,4.9-3.5c0-4.2-2.4-3.5-4.9-3.5c-14.7,0-29.3,0-44,0
		c-1.5,0-3,0-4.5,0c-18-0.5-25.4-7.8-25.9-25.7c-0.2-6-0.1-12,0.1-18c0.6-13.7,8.3-21.9,22-22.1c20.8-0.4,41.6-0.2,62.5-0.3
		c5.7,0,11.3,0.2,17,0c2.9-0.1,3.7,1,3.6,3.8c-0.2,7.3-0.2,14.7,0,22c0.1,3.5-1,4.5-4.5,4.4c-21.7-0.2-43.3-0.1-65,0
		c-1.9,0-4.5-1-4.6,2.7c-0.1,3.2,0.8,4.3,4.1,4.3c16-0.2,32-0.1,48-0.1c22.4,0,29.6,7.2,29.8,29.6c0,6,0.2,12-0.7,17.9
		c-1.7,11.1-7.6,17.2-18.9,18.7C352.2,135,337,133.3,324.7,133.9z"/>
	<path fill="#1DADA5" d="M768,5.1c5.9-1.6,10.5,0,13.3,4.6c2.7,4.5,2,8.9-2.1,13.4c-0.9,0.5-1.3,0-1.7-0.7c-0.2-0.8,0.1-1.6,0.4-2.4
		c2.7-8.3,0.7-11.4-8.1-12.9C768.9,6.7,767.9,6.5,768,5.1z"/>
	<path fill="#1DADA5" d="M765.8,24.1c-6-4.9-6.6-10.1-1.9-16.1c0.9-0.4,1.3,0.2,1.6,0.9c-0.5,4.2-2.3,8.5,1.1,12.4
		c0.4,0.6,0.7,1.3,0.7,2C767.1,24.1,766.7,24.6,765.8,24.1z"/>
	<path fill="#1DADA5" d="M765.8,24.1c0.4-0.3,0.8-0.7,1.2-1c3.1-1.1,6.6,0.5,9.6-1.4c0.5-0.1,0.9,0,1.4,0.2c0.4,0.4,0.8,0.8,1.3,1.2
		C774.9,25.8,770.6,27.7,765.8,24.1z"/>
	<path fill="#1DADA5" d="M765.1,9.1c-0.4-0.4-0.7-0.8-1.1-1.2c0.9-1.6,2.4-2.3,4.1-2.8c0.7,0.3,1.5,0.6,2.2,1
		C769.4,8.6,767.4,9.1,765.1,9.1z"/>
	<path fill="#1DADA5" d="M751.8,114.2c3.4-21.7,3.5-43.5,0-65.2c-1.6-10.2-7.5-16.6-18.2-18.5c-11.9-2.1-23.9-1.5-35.9-1.5
		c-11.5,0-23-0.5-34.4,0.9c-13.3,1.6-20.1,7.7-22.3,20.9c-0.8,5.1-1.4,10.2-1.6,15.4c-0.7,16.6-1.3,33.3,2.4,49.7
		c2,9,7.5,14.6,16.7,16.5c4.9,1,9.8,1.6,14.9,1.7c12.3,0,24.7,0.2,37,0c3.5,0,4.6,0.9,4.5,4.5c-0.2,8.7,0,17.3-0.1,26
		c0,2.3,0.3,3.7,3.2,3.7c9.7-0.1,19.3-0.1,29,0c2.5,0,3-1.1,3-3.3c-0.1-9.5-0.1-19,0-28.5c0-2.6-0.7-3.6-3.4-3.4
		c-3.8,0.2-7.5,0-11.3,0C745.1,130.3,750.4,123.6,751.8,114.2z M714.9,81.7c0,5-0.1,10,0,15c0.1,2.4-0.8,3.2-3.2,3.2
		c-10-0.1-20-0.1-30,0c-2.5,0-3.1-1.1-3.1-3.3c0.1-9.8,0.1-19.7,0-29.5c0-2.6,0.9-3.5,3.5-3.5c9.8,0.1,19.7,0.1,29.5,0
		c2.8,0,3.4,1.2,3.3,3.6C714.8,72.1,714.9,76.9,714.9,81.7z"/>
	<path fill="#1DADA5" d="M510.7,59.2c-1.6-20.8-8-27.5-26.4-29.1c-2.5-0.2-5-0.3-7.5-0.3c-25.2-0.1-50.3,0-75.5-0.2
		c-3.6,0-4.4,1.2-4.4,4.6c0.2,15.8,0.1,31.7,0.1,47.5c0,0,0,0-0.1,0c0,16,0,32,0,48c0,2.6,0,4.3,3.6,4.3c28.3-0.5,56.6,0.9,84.9-0.9
		c15.6-1,22.5-7.6,24.5-22.9C512.2,93.2,512,76.2,510.7,59.2z M469,100c-10-0.1-20-0.1-29.9,0c-2.4,0-3.1-0.8-3.1-3.1
		c0.1-10,0.1-20,0-29.9c0-2.3,0.7-3.2,3.1-3.2c10,0.1,20,0.1,29.9,0c2.4,0,3.2,0.9,3.1,3.2c-0.1,5,0,10,0,15c0,5-0.1,10,0,15
		C472.2,99.2,471.4,100.1,469,100z"/>
	<path fill="#1DADA5" d="M642.8,131.4c-15.3-32.9-30.6-65.7-45.8-98.6c-1.2-2.7-2.9-3.1-5.5-3.1c-10.7,0.1-21.3,0.2-32-0.1
		c-3.4-0.1-4.9,1.2-6.3,4.1c-10.7,23.3-21.6,46.5-32.4,69.7c-4.6,9.9-9.2,19.8-14.1,30.4c11.5,0,22-0.5,32.4,0.2
		c6.5,0.4,10.4-1.4,12-7.8c0.9-3.6,3.2-4.7,7-4.6c11.5,0.3,23,0.2,34.5,0c3.4-0.1,5.8,0.6,6.7,4.2c1.7,6.8,6,8.5,12.8,8.1
		c10.3-0.6,20.8-0.2,31.5-0.2C643.2,132.6,643.1,132,642.8,131.4z M583.4,91.9c-5.5-0.1-11-0.1-16.5,0c-2.8,0.1-2.6-1.1-1.7-3
		c3.3-7.1,6.6-14.1,10.2-22c3.6,7.8,6.7,14.8,9.9,21.7C586.4,90.8,586.2,91.9,583.4,91.9z"/>
	<path fill="#1DADA5" d="M273.9,131.8c-15.4-33-30.8-66.1-46.1-99.2c-1.1-2.4-2.7-2.9-5.1-2.9c-10.7,0.1-21.3,0.2-32,0
		c-3.6-0.1-5.2,1.2-6.7,4.3c-14.7,31.9-29.5,63.7-44.3,95.6c-0.6,1.3-1.7,2.5-1.1,4.3c12.3,0,24.6,0,37,0c2.1,0,3.4-0.6,4.2-2.6
		c0.7-1.9,1.8-3.6,2.5-5.5c1-3.1,2.9-4.2,6.3-4.1c10,0.3,20,0.6,30-0.1c7.3-0.5,12.1,1.2,13.9,8.8c0.5,1.9,1.4,3.5,4.1,3.5
		c12.5-0.1,25-0.1,37.8-0.1C274.1,132.7,274.1,132.2,273.9,131.8z M214.5,91.9c-6.3-0.1-12.6,0-18.8,0c-0.5-1.6,0.3-2.6,0.7-3.6
		c3.2-6.9,6.4-13.8,9.9-21.3c3.6,7.8,6.8,14.9,10.1,22C217.5,91.1,216.9,91.9,214.5,91.9z"/>
	<path fill="#1DADA5" d="M765.1,9.1c1.7-1,3.4-2,5.2-3c9.9,0.8,13.1,7.5,7.7,15.8c-0.3,0-0.6,0.1-0.9,0.2c-0.7-0.1-1.3-0.5-1.7-1.1
		c-1.1-2-2.5-3.9-1-6.3c1-1.4,1.5-2.7-0.3-3.8c-1.8-0.7-3.6-1-5.3,0.3c-0.8,2.2-0.2,4.5-0.5,6.7c-0.2,1.6,0.5,3.7-2.1,4.1
		C761.9,18,762.5,13.6,765.1,9.1z"/>
	<path fill="#1DADA5" d="M775.8,20.9c0.4,0.4,0.8,0.7,1.2,1.1c-3,3.4-6.5,2.1-10,1c-0.3-0.4-0.6-0.8-0.8-1.2
		c1.7-2.4,0.5-5.2,0.8-7.8c0.3-1.7-0.7-3.7,1-5.2c2.1,2.6,1.1,5.6,0.9,8.5c1.1-2.2,2.5-2.8,4.3-0.7
		C774.3,18.1,774.7,19.7,775.8,20.9z"/>
	<path fill="#1DADA5" d="M775.8,20.9c-0.6-0.3-1.2-0.5-1.7-0.9c-1.2-1.2-1.2-4.1-3.4-3.6c-2.1,0.4,0,3.5-2.7,5.3c0-4.6,0-8.6,0-12.7
		c2.4,0.2,5-0.8,7.2,0.9c-0.2,0.7-0.5,1.2-1.1,1.6c-1.9,0.7-1.7,1.4,0,2.1c0.6,0.4,0.9,0.9,1.1,1.6
		C772.8,17.3,776.6,18.9,775.8,20.9z"/>
	<path fill="#1DADA5" d="M775.3,15.1c-0.4-0.3-0.8-0.7-1.3-1c-0.2-1.1-0.2-2.2,0-3.2c0.4-0.3,0.8-0.7,1.3-1
		C777.6,11.6,777.5,13.4,775.3,15.1z"/>
	<path fill="#1DADA5" d="M774,10.9c1,1.1,1.1,2.2,0,3.2c-1.5-0.3-4.2,1.2-4-1.9C770.2,9.8,772.6,11.2,774,10.9z"/>
</g>
</svg>
