<?xml version="1.0" encoding="utf-8"?>
<!-- Generator: Adobe Illustrator 18.0.0, SVG Export Plug-In . SVG Version: 6.00 Build 0)  -->
<!DOCTYPE svg PUBLIC "-//W3C//DTD SVG 1.1//EN" "http://www.w3.org/Graphics/SVG/1.1/DTD/svg11.dtd">
<svg version="1.1" id="Layer_1" xmlns="http://www.w3.org/2000/svg" xmlns:xlink="http://www.w3.org/1999/xlink" x="0px" y="0px"
	 viewBox="64.7 51 382.6 410" enable-background="new 64.7 51 382.6 410" xml:space="preserve">
<path id="network-6-icon" fill="#FFFFFF" d="M225.7,122.3c-10.1-4.9-19-8.8-27.5-12.3C211.6,74.4,231,51,256,51
	c24.4,0,43.4,22.2,56.7,56.2c-8.6,3.6-17.4,7.6-27.3,12.6C275.1,93.1,263.5,81,256,81C248.3,81,236.2,93.8,225.7,122.3z M256,431
	c-7.5,0-19.1-12.1-29.4-38.9c-10.1,5-18.8,9-27.3,12.6c13.3,34,32.3,56.2,56.7,56.2c25,0,44.4-23.4,57.8-59
	c-8.4-3.4-17.3-7.4-27.5-12.3C275.8,418.2,263.7,431,256,431z M174.1,393.2c-33.4,12-83.1,23.8-102.9-5.4
	c-9.8-14.4-13.4-42.2,24.7-92.4c10.1-13.3,21.8-26.4,33.7-38.4c26.6-26.5,56.6-52.1,95.7-78.6c-18.8-10.2-39.4-19.9-59.4-27.2
	c-20.5-7.4-38.6-11.5-52.4-11.5c-8.8,0-15.4,1.8-17.6,4.9c-2.3,3.3-2.4,13.4,7.7,31.5c1.2-0.1,2.4-0.2,3.7-0.2c18.2,0,33,14.8,33,33
	c0,18.2-14.8,33-33,33s-33-14.8-33-33c0-5.9,1.6-11.4,4.3-16.2c-19.3-33.5-15.3-53.6-7.3-65.2c5.6-8.1,17.6-17.8,42.2-17.8
	c43.7,0,102.6,28.4,140.6,50.3c38.5-23.3,99.4-54,144.4-54c24.7,0,36.6,9.9,42.3,18.3c9.8,14.4,13.4,42.2-24.7,92.4
	C362.4,287.3,255.8,363.7,174.1,393.2z M392.2,198.5c26.2-34.5,27-52.6,23.8-57.4c-2.2-3.2-8.5-5.1-17.4-5.1
	c-34,0-85.7,24.9-115.4,41.8c22,14.3,42.5,29.3,61.2,44.7c-7.1,7.1-14.5,14-22.1,20.7c-20.8-16.8-43.9-33.3-67.8-48
	c-27.5,17.7-55.2,38.5-80.1,60.7c18.7,16.2,41,33.3,64.7,49.1c-9.1,5.7-18.3,11.1-28.7,16.7c0,0,0,0,0,0c-0.1-0.1-0.2-0.1-0.2-0.2
	c-19.9-13.9-39.5-29.1-57.7-45c-49,49.2-62.8,84.8-56.3,94.4c2.2,3.2,8.5,5.1,17.4,5.1c40.9,0,105.7-34.5,144.1-59.2
	C304.8,286.5,358.5,242.9,392.2,198.5z M433.5,319.6c2.4-4.6,3.8-9.9,3.8-15.4c0-18.2-14.8-33-33-33s-33,14.8-33,33
	c0,18.2,14.8,33,33,33c1.5,0,3-0.1,4.5-0.3c9.6,17.5,9.5,27.3,7.2,30.5c-2.1,3.1-8.7,4.9-17.6,4.9c-27.9,0-66.7-16.1-91.6-28.3
	c-8.4,5.8-18.7,12.8-28.8,19.1c33.5,17.7,82.8,39.2,120.5,39.2c24.6,0,36.5-9.7,42.2-17.8C448.7,373,452.7,353,433.5,319.6z"/>
</svg>
