<?xml version="1.0" encoding="utf-8"?>
<!-- Generator: Adobe Illustrator 18.0.0, SVG Export Plug-In . SVG Version: 6.00 Build 0)  -->
<!DOCTYPE svg PUBLIC "-//W3C//DTD SVG 1.1//EN" "http://www.w3.org/Graphics/SVG/1.1/DTD/svg11.dtd">
<svg version="1.1" id="Layer_1" xmlns="http://www.w3.org/2000/svg" xmlns:xlink="http://www.w3.org/1999/xlink" x="0px" y="0px"
	 viewBox="50 60.7 412 390.5" enable-background="new 50 60.7 412 390.5" xml:space="preserve">
<path id="newspaper-12-icon" fill="#A11D29" d="M374.1,305.6c-32.2,1.7-67.4,11.5-93.3,20.2v15.6c24.2-9.3,62.6-19.3,93.3-20.9
	V305.6z M374.1,333.3c-32.2,1.7-67.4,11.5-93.3,20.2v15.6c24.2-9.3,62.6-19.3,93.3-20.9V333.3z M374.1,361.6
	c-32.2,1.7-67.4,11.5-93.3,20.2v15.6c24.2-9.3,62.6-19.3,93.3-20.9V361.6z M230.8,381.9c-25.9-8.8-61.1-18.6-93.3-20.2v15
	c30.7,1.6,69.1,11.6,93.3,20.9V381.9z M230.8,353.6c-25.9-8.8-61.1-18.6-93.3-20.2v15c30.7,1.6,69.1,11.6,93.3,20.9V353.6z
	 M230.8,325.8c-25.9-8.8-61.1-18.6-93.3-20.2v15c30.7,1.6,69.1,11.6,93.3,20.9V325.8z M230.8,297.5c-25.9-8.8-61.1-18.6-93.3-20.2
	v15c30.7,1.6,69.1,11.6,93.3,20.9V297.5z M230.8,269.7c-25.9-8.8-61.1-18.6-93.3-20.2v15c30.7,1.6,69.1,11.6,93.3,20.9V269.7z
	 M329.6,289.2l-6.1-24l6.5-1.6l3.2,16.9l3.4-18.5l6.4-1.6l3.1,16.6l3.1-18.1l6.2-1.6l-6.4,27.1l-6.5,1.6l-3.1-16.1l-3.4,17.7
	L329.6,289.2z M322.1,285.9l-10.1,2.5l0-5.3l9-2.3l0-5.2l-9,2.3l0-4.6l9.6-2.4v-5.2l-15.6,3.9v25.5l16.2-4L322.1,285.9z
	 M364.2,275.7c-1.9,0.5-4.2,0.5-6,0l-0.3-0.1l-1.2,5.5l0.2,0.1c1.3,0.4,4.1,0.5,7.1-0.2c7.5-1.9,10.2-6.9,10.1-10.6
	c0-3.6-2.1-5.5-6.6-6.1c-3.3-0.4-4.4-0.8-4.4-2.2c0-1.3,1.3-2.4,3.3-2.9c1.8-0.4,3.4-0.5,5-0.1l0.3,0.1l1.4-5.5l-0.2-0.1
	c-1.9-0.4-4-0.3-6.4,0.3c-5.7,1.4-9.5,5.5-9.5,10.2c0,3.4,2.3,5.4,6.9,5.9c2.9,0.3,3.9,0.9,3.9,2.3
	C367.8,273.9,366.5,275.2,364.2,275.7z M286.4,282.5l9,15.2l6.2-1.6v-25.5l-5.6,1.4v15.6l-8.3-13.6l-6.8,1.7v25.5l5.6-1.4
	L286.4,282.5L286.4,282.5z M255.8,60.7c-40.9,0-74.1,33.2-74.1,74.1c0,40.9,33.2,74.1,74.1,74.1c40.9,0,74.1-33.2,74.1-74.1
	C329.9,93.9,296.7,60.7,255.8,60.7z M433.9,256.9v85.8c14.4-9.7,28.1-21.1,28.1-44.6C462,277.5,447.6,262.8,433.9,256.9z M50,296.7
	c0,23.6,13.7,34.9,28.1,44.6v-85.8C64.4,261.4,50,276.1,50,296.7z M255.8,234.5c-40.9-22.3-103.9-33.9-160.4-36.7v217.2
	c57.3,2.8,109.5,12.8,160.4,36.2c50.9-23.4,103-33.4,160.4-36.2V197.9C359.7,200.6,296.7,212.2,255.8,234.5z M248.7,421.4
	c-37.3-14.4-82.6-24.3-129.9-28.2V223.3c41.4,5,96.5,15,129.9,35V421.4z M392.8,393.2c-47.3,3.9-92.7,13.8-129.9,28.2V258.3
	c33.5-20,88.6-30,129.9-35V393.2z"/>
</svg>
