<?xml version="1.0" encoding="utf-8"?>

<!-- The icon can be used freely in both personal and commercial projects with no attribution required, but always appreciated. 
You may NOT sub-license, resell, rent, redistribute or otherwise transfer the icon without express written permission from iconmonstr.com -->

<!DOCTYPE svg PUBLIC "-//W3C//DTD SVG 1.1//EN" "http://www.w3.org/Graphics/SVG/1.1/DTD/svg11.dtd">
<svg version="1.1" xmlns="http://www.w3.org/2000/svg" xmlns:xlink="http://www.w3.org/1999/xlink" x="0px" y="0px"
	 width="512px" height="512px" viewBox="0 0 512 512" enable-background="new 0 0 512 512" xml:space="preserve">
<path id="newspaper-8-icon" d="M381.334,209.11H130.666v20h250.668V209.11z M197.5,246.528h-66.834v20H197.5V246.528z
	 M197.5,284.528h-66.834v20H197.5V284.528z M381.334,246.528H314.5v20h66.834V246.528z M381.334,284.528H314.5v20h66.834V284.528z
	 M294.666,246.528h-78.332v58h78.332V246.528z M259.939,188.942l-10.475-44.133h11.48l5.467,30.58l6.123-30.58h11.189l5.42,30.014
	l5.658-30.014h10.975l-11.393,44.133h-11.357l-5.42-29.191l-6.184,29.191H259.939z M246.756,179.944h-17.727v-9.24H244.9v-8.936
	h-15.871v-7.959h16.83v-9h-27.621v44.133h28.518V179.944z M320.814,180.583c-3.412,0-7.369-0.984-10.586-2.633l-0.562-0.287
	l-2.229,9.049l0.336,0.186c2.342,1.293,7.24,2.686,12.465,2.686c13.217,0,17.906-7.475,17.906-13.875
	c0-6.188-3.662-10.424-11.521-13.33c-5.76-2.186-7.676-3.303-7.676-5.613c0-2.223,2.266-3.658,5.771-3.658
	c3.088,0,6.051,0.672,8.807,1.998l0.539,0.26l2.449-8.861l-0.391-0.178c-3.273-1.473-7.047-2.219-11.213-2.219
	c-10.061,0-16.818,5.422-16.818,13.49c0,5.951,4.096,10.395,12.17,13.207c5.158,1.846,6.9,3.262,6.9,5.607
	C327.162,179.063,324.848,180.583,320.814,180.583z M184.037,158.765l15.717,30.178h11.033V144.81h-9.959v27.053l-14.566-27.053
	h-12.184v44.133h9.959V158.765z M50,63.237v318.525h412V63.237H50z M419.891,339.654H92.109l-0.001-234.308l327.782-0.002V339.654z
	 M314.393,406.655l42.107,42.107h-201l42.107-42.107H314.393z"/>
</svg>
