<?xml version="1.0" encoding="utf-8"?>
<!-- Generator: Adobe Illustrator 18.0.0, SVG Export Plug-In . SVG Version: 6.00 Build 0)  -->
<!DOCTYPE svg PUBLIC "-//W3C//DTD SVG 1.1//EN" "http://www.w3.org/Graphics/SVG/1.1/DTD/svg11.dtd">
<svg version="1.1" id="Layer_1" xmlns="http://www.w3.org/2000/svg" xmlns:xlink="http://www.w3.org/1999/xlink" x="0px" y="0px"
	 viewBox="50 63.2 412 385.5" enable-background="new 50 63.2 412 385.5" xml:space="preserve">
<path id="newspaper-8-icon" fill="#0D8D8F" d="M381.3,209.1H130.7v20h250.7L381.3,209.1L381.3,209.1z M197.5,246.5h-66.8v20h66.8
	V246.5z M197.5,284.5h-66.8v20h66.8V284.5z M381.3,246.5h-66.8v20h66.8L381.3,246.5L381.3,246.5z M381.3,284.5h-66.8v20h66.8
	L381.3,284.5L381.3,284.5z M294.7,246.5h-78.3v58h78.3V246.5z M259.9,188.9l-10.5-44.1h11.5l5.5,30.6l6.1-30.6h11.2l5.4,30l5.7-30
	h11l-11.4,44.1H283l-5.4-29.2l-6.2,29.2L259.9,188.9L259.9,188.9z M246.8,179.9H229v-9.2h15.9v-8.9H229v-8h16.8v-9h-27.6v44.1h28.5
	V179.9z M320.8,180.6c-3.4,0-7.4-1-10.6-2.6l-0.6-0.3l-2.2,9l0.3,0.2c2.3,1.3,7.2,2.7,12.5,2.7c13.2,0,17.9-7.5,17.9-13.9
	c0-6.2-3.7-10.4-11.5-13.3c-5.8-2.2-7.7-3.3-7.7-5.6c0-2.2,2.3-3.7,5.8-3.7c3.1,0,6.1,0.7,8.8,2l0.5,0.3l2.4-8.9l-0.4-0.2
	c-3.3-1.5-7-2.2-11.2-2.2c-10.1,0-16.8,5.4-16.8,13.5c0,6,4.1,10.4,12.2,13.2c5.2,1.8,6.9,3.3,6.9,5.6
	C327.2,179.1,324.8,180.6,320.8,180.6z M184,158.8l15.7,30.2h11v-44.1h-10v27.1l-14.6-27.1h-12.2v44.1h10V158.8z M50,63.2v318.5h412
	V63.2H50z M419.9,339.7H92.1l0-234.3l327.8,0L419.9,339.7L419.9,339.7z M314.4,406.7l42.1,42.1h-201l42.1-42.1H314.4z"/>
</svg>
