<?xml version="1.0" encoding="utf-8"?>

<!-- The icon can be used freely in both personal and commercial projects with no attribution required, but always appreciated. 
You may NOT sub-license, resell, rent, redistribute or otherwise transfer the icon without express written permission from iconmonstr.com -->

<!DOCTYPE svg PUBLIC "-//W3C//DTD SVG 1.1//EN" "http://www.w3.org/Graphics/SVG/1.1/DTD/svg11.dtd">
<svg version="1.1" xmlns="http://www.w3.org/2000/svg" xmlns:xlink="http://www.w3.org/1999/xlink" x="0px" y="0px"
	 width="512px" height="512px" viewBox="0 0 512 512" enable-background="new 0 0 512 512" xml:space="preserve">
<path id="newspaper-12-icon" d="M374.094,305.568c-32.204,1.688-67.408,11.477-93.312,20.24v15.637
	c24.188-9.293,62.65-19.292,93.312-20.902V305.568z M374.094,333.335c-32.204,1.689-67.408,11.477-93.312,20.241v15.637
	c24.188-9.293,62.65-19.292,93.312-20.902V333.335z M374.094,361.621c-32.204,1.689-67.408,11.477-93.312,20.241v15.636
	c24.188-9.292,62.65-19.291,93.312-20.901V361.621z M230.828,381.862c-25.905-8.765-61.109-18.552-93.312-20.241v14.976
	c30.662,1.61,69.124,11.609,93.312,20.901V381.862z M230.828,353.576c-25.905-8.765-61.109-18.552-93.312-20.241v14.976
	c30.662,1.61,69.124,11.609,93.312,20.902V353.576z M230.828,325.809c-25.905-8.764-61.109-18.552-93.312-20.24v14.975
	c30.662,1.61,69.124,11.609,93.312,20.902V325.809z M230.828,297.489c-25.905-8.765-61.109-18.552-93.312-20.241v14.976
	c30.662,1.61,69.124,11.609,93.312,20.902V297.489z M230.828,269.722c-25.905-8.764-61.109-18.552-93.312-20.24v14.975
	c30.662,1.61,69.124,11.609,93.312,20.902V269.722z M329.591,289.19l-6.052-24.01l6.522-1.63l3.175,16.894l3.412-18.538l6.359-1.587
	l3.147,16.572l3.146-18.146l6.236-1.555l-6.374,27.11l-6.454,1.612l-3.147-16.096l-3.445,17.743L329.591,289.19z M322.078,285.861
	l-10.071,2.516l-0.021-5.338l9.017-2.254l-0.021-5.162l-9.016,2.254l-0.019-4.6l9.562-2.385v-5.2l-15.614,3.915v25.499l16.201-4.047
	L322.078,285.861z M364.165,275.724c-1.942,0.484-4.191,0.48-6.024-0.018l-0.321-0.087l-1.244,5.545l0.19,0.06
	c1.333,0.416,4.123,0.523,7.09-0.217c7.511-1.875,10.159-6.858,10.144-10.557c-0.014-3.575-2.104-5.505-6.579-6.066
	c-3.274-0.445-4.367-0.82-4.372-2.154c-0.003-1.285,1.277-2.436,3.271-2.935c1.756-0.435,3.438-0.469,5.006-0.093l0.31,0.073
	l1.371-5.466l-0.221-0.05c-1.864-0.384-4.008-0.28-6.377,0.312c-5.719,1.427-9.545,5.518-9.526,10.181
	c0.012,3.437,2.349,5.423,6.947,5.899c2.933,0.338,3.924,0.908,3.93,2.265C367.766,273.946,366.457,275.151,364.165,275.724z
	 M286.396,282.523l8.996,15.205l6.172-1.564v-25.498l-5.598,1.412v15.627l-8.339-13.561l-6.823,1.728v25.498l5.592-1.412V282.523z
	 M255.805,60.735c-40.917,0-74.09,33.171-74.09,74.09c0,40.92,33.173,74.091,74.09,74.091c40.919,0,74.091-33.171,74.091-74.091
	C329.896,93.906,296.724,60.735,255.805,60.735z M433.909,256.922V342.7c14.38-9.698,28.091-21.068,28.091-44.645
	C462,277.489,447.62,262.774,433.909,256.922z M50,296.717c0,23.576,13.711,34.946,28.091,44.645v-85.777
	C64.38,261.436,50,276.15,50,296.717z M255.805,234.534c-40.937-22.344-103.926-33.887-160.376-36.664v217.227
	c57.327,2.75,109.523,12.762,160.376,36.168c50.853-23.406,103.05-33.418,160.375-36.168V197.87
	C359.73,200.647,296.741,212.19,255.805,234.534z M248.733,421.379c-37.289-14.387-82.605-24.321-129.949-28.181V223.285
	c41.352,4.966,96.474,14.987,129.949,35.015V421.379z M392.824,393.198c-47.343,3.859-92.66,13.794-129.949,28.181V258.3
	c33.478-20.027,88.599-30.049,129.949-35.015V393.198z"/>
</svg>
