<?xml version="1.0" encoding="utf-8"?>
<!-- Generator: Adobe Illustrator 18.0.0, SVG Export Plug-In . SVG Version: 6.00 Build 0)  -->
<!DOCTYPE svg PUBLIC "-//W3C//DTD SVG 1.1//EN" "http://www.w3.org/Graphics/SVG/1.1/DTD/svg11.dtd">
<svg version="1.1" id="Layer_1" xmlns="http://www.w3.org/2000/svg" xmlns:xlink="http://www.w3.org/1999/xlink" x="0px" y="0px"
	 viewBox="50 50.5 412 411" enable-background="new 50 50.5 412 411" xml:space="preserve">
<path id="video-5-icon" fill="#0D8D8F" d="M243.4,166.8l215.7-42.8l-0.1-0.7l-14.4-72.8l-363.4,72C63.1,126.1,50,142,50,160.4
	c0,16.3,0,242.4,0,242.4c0,32.4,26.3,58.7,58.7,58.7h294.7c32.4,0,58.7-26.3,58.7-58.7V167.6v-0.7H243.4z M422,402.8
	c0,10.3-8.4,18.7-18.7,18.7H108.7c-10.3,0-18.7-8.4-18.7-18.7V261.8h332V402.8z M339.5,186.8l-34.9,34.9h-52.4l34.9-34.9H339.5z
	 M395.2,80.7l41.1,27.5L385,118.4l-41.2-27.6L395.2,80.7z M294,100.7l41.2,27.6l-51.4,10.2l-41.2-27.6L294,100.7z M192.6,120.8
	l41.3,27.6l-51.4,10.2L141.2,131L192.6,120.8z M183.8,186.8h52.4l-34.9,34.9h-52.4L183.8,186.8z M355.4,221.8l34.9-34.9h52.4
	l-34.9,34.9H355.4z M232.9,393.3V284.6l88.7,54.4L232.9,393.3z"/>
</svg>
