<?xml version="1.0" encoding="utf-8"?>
<!-- Generator: Adobe Illustrator 18.1.0, SVG Export Plug-In . SVG Version: 6.00 Build 0)  -->
<!DOCTYPE svg PUBLIC "-//W3C//DTD SVG 1.1//EN" "http://www.w3.org/Graphics/SVG/1.1/DTD/svg11.dtd">
<svg version="1.1" id="Layer_1" xmlns="http://www.w3.org/2000/svg" xmlns:xlink="http://www.w3.org/1999/xlink" x="0px" y="0px"
	 viewBox="-0.1 14.1 95.6 27.8" enable-background="new -0.1 14.1 95.6 27.8" xml:space="preserve">
<g id="Layer_1_1_">
	<g>
		<g display="none">
			<path display="inline" fill="#FFFFFF" d="M38.9,35.5l-4.2-6.5c-0.1-0.1-0.1-0.2-0.2-0.3c-0.1-0.2-0.2-0.3-0.2-0.5v7.2h-1v-8.3
				h1.3l4.1,6.3c0.1,0.1,0.1,0.2,0.1,0.2l0.2,0.5v-7h1v8.4C40.2,35.5,38.9,35.5,38.9,35.5z"/>
			<path display="inline" fill="#FFFFFF" d="M46.3,35.6c-2.4,0-4.2-1.8-4.2-4.3c0-2.5,1.8-4.3,4.2-4.3s4.2,1.8,4.2,4.3
				C50.5,33.8,48.8,35.6,46.3,35.6z M46.3,27.9c-1.7,0-3.1,1.6-3.1,3.4c0,1.9,1.4,3.4,3.1,3.4c1.7,0,3.1-1.6,3.1-3.4
				C49.4,29.4,48,27.9,46.3,27.9z"/>
			<path display="inline" fill="#FFFFFF" d="M55.1,35.7h-0.6l-3.3-8.5h1.1l2.4,6.5c0.1,0.1,0.1,0.3,0.1,0.4c0-0.2,0-0.3,0.1-0.4
				l2.4-6.5h1L55.1,35.7z"/>
			<path display="inline" fill="#FFFFFF" d="M63.2,35.6c-2.4,0-4.2-1.8-4.2-4.3c0-2.5,1.8-4.3,4.2-4.3s4.2,1.8,4.2,4.3
				S65.6,35.6,63.2,35.6z M63.2,27.9c-1.7,0-3.1,1.6-3.1,3.4c0,1.9,1.4,3.4,3.1,3.4s3.1-1.6,3.1-3.4C66.2,29.4,64.8,27.9,63.2,27.9z
				"/>
			<path display="inline" fill="#FFFFFF" d="M75.1,35.3c-0.6,0.2-1.4,0.3-2.1,0.3c-2.5,0-4.5-1.9-4.5-4.3s1.9-4.3,4.4-4.3
				c0.6,0,1.3,0.1,1.7,0.2c0.4,0.1,0.6,0.2,1,0.5l-0.4,0.9c-0.2-0.1-0.4-0.2-0.5-0.2C74.4,28.1,73.7,28,73,28c-1.2,0-1.9,0.3-2.6,1
				c-0.5,0.6-0.8,1.4-0.8,2.2c0,2,1.6,3.5,3.6,3.5c0.4,0,0.7-0.1,1.4-0.2v-2.8h1v3.4C75.5,35.2,75.3,35.3,75.1,35.3z"/>
			<path display="inline" fill="#FFFFFF" d="M78.3,35.4v-8.3H83V28h-3.6v2.8h3v0.9h-3v3h3.8v0.9h-4.8V35.4z"/>
			<path display="inline" fill="#FFFFFF" d="M90.7,35.5l-4.2-6.5c-0.1-0.1-0.1-0.2-0.2-0.3c-0.1-0.2-0.2-0.3-0.2-0.5v7.2h-1v-8.3
				h1.3l4.1,6.3c0.1,0.1,0.1,0.2,0.1,0.2l0.2,0.5v-7h1v8.4C92,35.5,90.7,35.5,90.7,35.5z"/>
		</g>
		<g>
			<g>
				<polygon fill="#0D8D8F" stroke="#FFFFFF" stroke-width="0.25" stroke-miterlimit="10" points="19.4,31.1 22.2,26.2 28,26.2 
					30.8,31.1 28,36.1 22.3,36.1 				"/>
				<path fill="#FFFFFF" stroke="#FFFFFF" stroke-width="0.25" stroke-miterlimit="10" d="M27.9,26.3l2.8,4.8l-2.7,4.8h-5.5
					l-2.8-4.8l2.7-4.8H27.9 M28.1,26h-0.2L22.3,26h-0.2L22,26.2L19.3,31l-0.1,0.2l0.1,0.2l2.8,4.8l0.1,0.2h0.2H28h0.2l0.1-0.2
					l2.7-4.8l0.1-0.2L31,30.9l-2.8-4.8L28.1,26L28.1,26z"/>
			</g>
			<g>
				<polygon fill="#0D8D8F" stroke="#FFFFFF" stroke-width="0.25" stroke-miterlimit="10" points="12.8,30.1 10,25.2 12.9,20.3 
					18.6,20.3 21.4,25.3 18.5,30.3 				"/>
				<path fill="#FFFFFF" stroke="#FFFFFF" stroke-width="0.25" stroke-miterlimit="10" d="M12.9,20.4l5.5,0.1l2.7,4.8L18.4,30
					L12.9,30l-2.7-4.8L12.9,20.4 M12.8,20.1l-0.1,0.2L9.9,25l-0.1,0.2l0.1,0.2l2.7,4.8l0.1,0.2h0.2l5.5,0.1h0.2l0.1-0.2l2.8-4.8
					l0.1-0.2l-0.1-0.2l-2.7-4.8l-0.1-0.2h-0.2h-5.5L12.8,20.1L12.8,20.1z"/>
			</g>
			<g>
				<polygon fill="#0D8D8F" stroke="#FFFFFF" stroke-width="0.25" stroke-miterlimit="10" points="12.8,41.6 9.9,36.7 12.8,31.8 
					18.5,31.8 21.4,36.7 18.5,41.6 				"/>
				<path fill="#FFFFFF" stroke="#FFFFFF" stroke-width="0.25" stroke-miterlimit="10" d="M12.9,31.9h5.5l2.7,4.8l-2.8,4.8h-5.5
					l-2.7-4.8L12.9,31.9 M12.7,31.5l-0.1,0.2l-2.8,4.8l-0.1,0.2l0.1,0.2l2.7,4.8l0.1,0.2h0.2h5.5h0.2l0.1-0.2l2.8-4.8l0.1-0.2
					l-0.1-0.2l-2.8-4.8l-0.1-0.2h-0.2h-5.5L12.7,31.5L12.7,31.5z"/>
			</g>
			<g>
				<polygon fill="#0D8D8F" stroke="#FFFFFF" stroke-width="0.25" stroke-miterlimit="10" points="3.2,35.9 0.3,31 3.2,26 8.9,26 
					11.7,31 8.9,35.9 				"/>
				<path fill="#FFFFFF" stroke="#FFFFFF" stroke-width="0.25" stroke-miterlimit="10" d="M3.3,26.2h5.5l2.7,4.8l-2.8,4.8H3.2
					L0.5,31L3.3,26.2 M3.1,25.8L3,26l-2.8,4.8l-0.1,0.2l0.1,0.2l2.7,4.8L3,36.1h0.2h5.5H9l0.1-0.2l2.8-4.8L12,31l-0.1-0.2L9.1,26
					L9,25.9H8.8H3.3L3.1,25.8L3.1,25.8z"/>
			</g>
			<g>
				<polygon fill="#A11D29" stroke="#FFFFFF" stroke-width="0.25" stroke-miterlimit="10" points="3.3,24.3 0.5,19.3 3.4,14.4 
					9.1,14.4 11.9,19.4 9,24.3 				"/>
				<path fill="#FFFFFF" stroke="#FFFFFF" stroke-width="0.25" stroke-miterlimit="10" d="M3.4,14.5L9,14.6l2.7,4.8l-2.8,4.8
					l-5.5-0.1l-2.7-4.8L3.4,14.5 M3.3,14.2l-0.1,0.2l-2.8,4.8l-0.1,0.2l0.1,0.2l2.7,4.8l0.1,0.2h0.2L9,24.5h0.2l0.1-0.2l2.8-4.8
					l0.1-0.2l-0.1-0.2l-2.8-4.8l-0.1-0.2H9l-5.5-0.1H3.3L3.3,14.2z"/>
			</g>
		</g>
	</g>
	<g>
		<path fill="#5B5A60" d="M39.5,35.2l-4.5-6.9C35,28.2,35,28.1,34.9,28c-0.1-0.2-0.2-0.3-0.3-0.5v7.6h-1.1v-8.8H35l4.3,6.7
			c0.1,0.1,0.1,0.2,0.1,0.2l0.2,0.5v-7.5h1.1v8.9H39.5z"/>
		<path fill="#5B5A60" d="M47.3,35.3c-2.5,0-4.5-1.9-4.5-4.6s1.9-4.6,4.5-4.6c2.5,0,4.4,1.9,4.4,4.6S49.9,35.3,47.3,35.3z
			 M47.3,27.1c-1.8,0-3.2,1.6-3.2,3.6c0,2,1.4,3.6,3.2,3.6c1.8,0,3.2-1.6,3.2-3.6S49.1,27.1,47.3,27.1z"/>
		<path fill="#5B5A60" d="M56.6,35.3h-0.7l-3.5-9.1h1.2l2.6,6.9c0.1,0.1,0.1,0.3,0.1,0.4c0-0.2,0.1-0.3,0.1-0.4l2.5-6.9H60
			L56.6,35.3z"/>
		<path fill="#5B5A60" d="M65.1,35.3c-2.5,0-4.5-1.9-4.5-4.6s1.9-4.6,4.5-4.6c2.6,0,4.4,1.9,4.4,4.6C69.6,33.4,67.7,35.3,65.1,35.3z
			 M65.1,27.1c-1.8,0-3.2,1.6-3.2,3.6c0,2,1.4,3.6,3.2,3.6c1.8,0,3.2-1.6,3.2-3.6S66.9,27.1,65.1,27.1z"/>
		<path fill="#5B5A60" d="M77.8,35c-0.6,0.2-1.5,0.3-2.2,0.3c-2.6,0-4.7-2-4.7-4.6s2-4.6,4.7-4.6c0.6,0,1.3,0.1,1.8,0.2
			c0.4,0.1,0.6,0.2,1.1,0.5L78,27.7c-0.2-0.1-0.4-0.2-0.5-0.3c-0.5-0.2-1.2-0.4-1.9-0.4c-1.2,0-2,0.3-2.7,1.1
			c-0.6,0.6-0.9,1.5-0.9,2.3c0,2.1,1.6,3.7,3.8,3.7c0.5,0,0.7-0.1,1.4-0.2v-3h1.1v3.6C78.2,34.9,78,34.9,77.8,35z"/>
		<path fill="#5B5A60" d="M81.1,35.1v-8.8h5v0.9h-3.8v3h3.2v0.9h-3.2v3.1h4v0.9L81.1,35.1L81.1,35.1z"/>
		<path fill="#5B5A60" d="M94.3,35.2l-4.5-6.9c-0.1-0.1-0.1-0.2-0.2-0.3c-0.1-0.2-0.2-0.3-0.3-0.5v7.6h-1.1v-8.8h1.4l4.3,6.7
			c0.1,0.1,0.1,0.2,0.1,0.2l0.2,0.5v-7.5h1.1v8.9H94.3z"/>
	</g>
</g>
<g id="Layer_2">
</g>
<g id="Layer_3">
</g>
</svg>
