<?xml version="1.0" encoding="utf-8"?>
<!-- Generator: Adobe Illustrator 18.0.0, SVG Export Plug-In . SVG Version: 6.00 Build 0)  -->
<!DOCTYPE svg PUBLIC "-//W3C//DTD SVG 1.1//EN" "http://www.w3.org/Graphics/SVG/1.1/DTD/svg11.dtd">
<svg version="1.1" xmlns="http://www.w3.org/2000/svg" xmlns:xlink="http://www.w3.org/1999/xlink" x="0px" y="0px"
	 viewBox="0 0 185.4 53.5" enable-background="new 0 0 185.4 53.5" xml:space="preserve">
<g id="Layer_1">
	<g>
		<g display="none">
			<path display="inline" fill="#FFFFFF" d="M75.2,41.3l-8.1-12.5c-0.1-0.1-0.2-0.3-0.3-0.6c-0.2-0.4-0.3-0.6-0.4-1v13.9h-2V25.1H67
				l8,12.2c0.1,0.1,0.2,0.3,0.2,0.4l0.4,1V25.1h2v16.2H75.2z"/>
			<path display="inline" fill="#FFFFFF" d="M89.5,41.5c-4.7,0-8.1-3.5-8.1-8.4c0-4.8,3.4-8.3,8.1-8.3s8.1,3.5,8.1,8.3
				C97.5,37.9,94.2,41.5,89.5,41.5z M89.5,26.5c-3.2,0-5.9,3-5.9,6.6c0,3.6,2.7,6.6,5.9,6.6c3.2,0,5.9-3,5.9-6.6
				C95.4,29.5,92.7,26.5,89.5,26.5z"/>
			<path display="inline" fill="#FFFFFF" d="M106.4,41.6h-1.2l-6.3-16.5h2.1l4.7,12.5c0.1,0.2,0.1,0.5,0.2,0.8c0-0.3,0-0.5,0.1-0.8
				l4.6-12.5h2L106.4,41.6z"/>
			<path display="inline" fill="#FFFFFF" d="M122,41.5c-4.7,0-8.1-3.5-8.1-8.4c0-4.8,3.4-8.3,8.1-8.3s8.1,3.5,8.1,8.3
				C130.1,37.9,126.7,41.5,122,41.5z M122,26.5c-3.2,0-5.9,3-5.9,6.6c0,3.6,2.7,6.6,5.9,6.6c3.2,0,5.9-3,5.9-6.6
				C127.9,29.5,125.2,26.5,122,26.5z"/>
			<path display="inline" fill="#FFFFFF" d="M145.1,40.9c-1.1,0.3-2.7,0.5-4,0.5c-4.8,0-8.6-3.6-8.6-8.4c0-4.8,3.6-8.3,8.5-8.3
				c1.1,0,2.5,0.1,3.3,0.4c0.7,0.2,1.1,0.4,1.9,0.9l-0.8,1.7c-0.4-0.2-0.7-0.3-0.9-0.4c-0.9-0.4-2.2-0.6-3.5-0.6c-2.3,0-3.7,0.6-5,2
				c-1,1.2-1.6,2.7-1.6,4.3c0,3.9,3,6.7,7,6.7c0.8,0,1.4-0.1,2.7-0.3V34h2v6.6C145.8,40.7,145.4,40.8,145.1,40.9z"/>
			<path display="inline" fill="#FFFFFF" d="M151.2,41.1V25.1h9v1.7h-7v5.4h5.8v1.7h-5.8v5.7h7.3v1.7H151.2z"/>
			<path display="inline" fill="#FFFFFF" d="M175.2,41.3l-8.1-12.5c-0.1-0.1-0.2-0.3-0.3-0.6c-0.2-0.4-0.3-0.6-0.4-1v13.9h-2V25.1
				h2.6l8,12.2c0.1,0.1,0.2,0.3,0.2,0.4l0.4,1V25.1h2v16.2H175.2z"/>
		</g>
		<g>
			<g>
				<polygon fill="#0D8D8F" stroke="#FFFFFF" stroke-width="0.25" stroke-miterlimit="10" points="37.5,32.8 42.9,23.2 54,23.2 
					59.5,32.7 54.1,42.3 43,42.3 				"/>
				<path fill="#FFFFFF" stroke="#FFFFFF" stroke-width="0.25" stroke-miterlimit="10" d="M53.8,23.5l5.4,9.2L53.9,42L43.2,42
					l-5.4-9.2l5.3-9.3L53.8,23.5 M54.2,22.8h-0.4l-10.7,0.1h-0.4l-0.2,0.3l-5.2,9.3l-0.2,0.3l0.2,0.3l5.4,9.2l0.2,0.3h0.4L54,42.6
					h0.4l0.2-0.3l5.2-9.3l0.2-0.3l-0.2-0.3l-5.4-9.2L54.2,22.8L54.2,22.8z"/>
			</g>
			<g>
				<polygon fill="#0D8D8F" stroke="#FFFFFF" stroke-width="0.25" stroke-miterlimit="10" points="24.7,30.9 19.3,21.3 24.9,11.8 
					35.9,11.9 41.4,21.5 35.8,31.1 				"/>
				<path fill="#FFFFFF" stroke="#FFFFFF" stroke-width="0.25" stroke-miterlimit="10" d="M25,12.1l10.7,0.1l5.3,9.3l-5.4,9.2
					l-10.7-0.1l-5.3-9.3L25,12.1 M24.7,11.5l-0.2,0.3L19.1,21l-0.2,0.3l0.2,0.3l5.3,9.3l0.2,0.3h0.4l10.7,0.1H36l0.2-0.3l5.4-9.2
					l0.2-0.3l-0.2-0.3l-5.3-9.3l-0.2-0.3h-0.4L25,11.6L24.7,11.5L24.7,11.5z"/>
			</g>
			<g>
				<polygon fill="#0D8D8F" stroke="#FFFFFF" stroke-width="0.25" stroke-miterlimit="10" points="24.7,53.1 19.2,43.5 24.8,34 
					35.8,34 41.3,43.6 35.8,53.1 				"/>
				<path fill="#FFFFFF" stroke="#FFFFFF" stroke-width="0.25" stroke-miterlimit="10" d="M25,34.3h10.7l5.3,9.3l-5.4,9.2H24.9
					l-5.3-9.3L25,34.3 M24.6,33.6L24.4,34L19,43.2l-0.2,0.3l0.2,0.3l5.3,9.3l0.2,0.3h0.4h10.7H36l0.2-0.3l5.4-9.2l0.2-0.3l-0.2-0.3
					L36.2,34L36,33.7h-0.4H24.9L24.6,33.6L24.6,33.6z"/>
			</g>
			<g>
				<polygon fill="#0D8D8F" stroke="#FFFFFF" stroke-width="0.25" stroke-miterlimit="10" points="6.1,42 0.5,32.5 6.1,22.9 
					17.2,22.9 22.6,32.5 17.1,42 				"/>
				<path fill="#FFFFFF" stroke="#FFFFFF" stroke-width="0.25" stroke-miterlimit="10" d="M6.3,23.2H17l5.3,9.3l-5.4,9.2H6.2
					l-5.3-9.2L6.3,23.2 M5.9,22.5l-0.2,0.3l-5.4,9.3l-0.2,0.3l0.2,0.3L5.6,42l0.2,0.3h0.4h10.7h0.4l0.2-0.3l5.4-9.2l0.2-0.3
					l-0.2-0.3l-5.3-9.3l-0.2-0.3H17H6.3L5.9,22.5L5.9,22.5z"/>
			</g>
			<g>
				<polygon fill="#A11D29" stroke="#FFFFFF" stroke-width="0.25" stroke-miterlimit="10" points="6.3,19.6 0.9,10 6.5,0.4 
					17.5,0.5 23,10.1 17.4,19.6 				"/>
				<path fill="#FFFFFF" stroke="#FFFFFF" stroke-width="0.25" stroke-miterlimit="10" d="M6.6,0.7l10.7,0.1l5.3,9.3l-5.4,9.2
					L6.5,19.2L1.2,10L6.6,0.7 M6.3,0.1L6.1,0.4L0.7,9.7L0.5,10l0.2,0.3L6,19.6l0.2,0.3h0.4l10.7,0.1h0.4l0.2-0.3l5.4-9.2l0.2-0.3
					l-0.2-0.3l-5.4-9.3l-0.2-0.3h-0.4L6.6,0.1H6.3L6.3,0.1z"/>
			</g>
		</g>
	</g>
	<g>
		<path fill="#FFFFFF" d="M76.3,40.6l-8.6-13.3c-0.1-0.1-0.2-0.3-0.3-0.6c-0.2-0.4-0.4-0.6-0.5-1v14.7h-2.1v-17h2.8l8.4,13
			c0.1,0.1,0.2,0.3,0.2,0.4l0.4,1V23.4h2.1v17.2H76.3z"/>
		<path fill="#FFFFFF" d="M91.4,40.8c-4.9,0-8.6-3.7-8.6-8.8c0-5.1,3.6-8.8,8.6-8.8c4.9,0,8.5,3.7,8.5,8.8
			C99.9,37.1,96.3,40.8,91.4,40.8z M91.4,25c-3.4,0-6.2,3.1-6.2,7c0,3.8,2.8,7,6.2,7c3.4,0,6.2-3.1,6.2-7C97.6,28.1,94.8,25,91.4,25
			z"/>
		<path fill="#FFFFFF" d="M109.3,40.9H108l-6.7-17.5h2.3l5,13.3c0.1,0.2,0.2,0.5,0.2,0.8c0-0.3,0.1-0.5,0.2-0.8l4.8-13.3h2.1
			L109.3,40.9z"/>
		<path fill="#FFFFFF" d="M125.8,40.8c-4.9,0-8.6-3.7-8.6-8.8c0-5.1,3.6-8.8,8.6-8.8s8.5,3.7,8.5,8.8
			C134.4,37.1,130.8,40.8,125.8,40.8z M125.8,25c-3.4,0-6.2,3.1-6.2,7c0,3.8,2.8,7,6.2,7c3.4,0,6.2-3.1,6.2-7
			C132,28.1,129.2,25,125.8,25z"/>
		<path fill="#FFFFFF" d="M150.3,40.2c-1.2,0.4-2.9,0.6-4.3,0.6c-5.1,0-9.1-3.8-9.1-8.9c0-5.1,3.8-8.8,9-8.8c1.2,0,2.6,0.2,3.5,0.4
			c0.7,0.2,1.1,0.4,2.1,0.9l-0.8,1.8c-0.4-0.2-0.7-0.4-0.9-0.5c-1-0.4-2.3-0.7-3.7-0.7c-2.4,0-3.9,0.6-5.3,2.2
			c-1.1,1.2-1.7,2.9-1.7,4.5c0,4.1,3.1,7.1,7.4,7.1c0.9,0,1.4-0.1,2.8-0.4v-5.7h2.1v7C151,40,150.6,40.1,150.3,40.2z"/>
		<path fill="#FFFFFF" d="M156.7,40.5v-17h9.6v1.8h-7.4v5.7h6.2v1.8h-6.2v6h7.7v1.8H156.7z"/>
		<path fill="#FFFFFF" d="M182.1,40.6l-8.6-13.3c-0.1-0.1-0.2-0.3-0.3-0.6c-0.2-0.4-0.4-0.6-0.5-1v14.7h-2.1v-17h2.8l8.4,13
			c0.1,0.1,0.2,0.3,0.2,0.4l0.4,1V23.4h2.1v17.2H182.1z"/>
	</g>
</g>
<g id="Layer_2">
</g>
<g id="Layer_3">
</g>
</svg>
