<?xml version="1.0" encoding="utf-8"?>
<!-- Generator: Adobe Illustrator 18.0.0, SVG Export Plug-In . SVG Version: 6.00 Build 0)  -->
<!DOCTYPE svg PUBLIC "-//W3C//DTD SVG 1.1//EN" "http://www.w3.org/Graphics/SVG/1.1/DTD/svg11.dtd">
<svg version="1.1" id="Layer_1" xmlns="http://www.w3.org/2000/svg" xmlns:xlink="http://www.w3.org/1999/xlink" x="0px" y="0px"
	 viewBox="249.4 50.5 561.3 560" enable-background="new 249.4 50.5 561.3 560" xml:space="preserve">
<path id="share-2-icon" fill="#0D8D8F" d="M494.8,128.2c0,42.9-34.7,77.7-77.7,77.7s-77.7-34.7-77.7-77.7s34.7-77.7,77.7-77.7
	S494.8,85.2,494.8,128.2z M417.2,455.2c-42.9,0-77.7,34.7-77.7,77.7c0,42.9,34.7,77.7,77.7,77.7s77.7-34.7,77.7-77.7
	C494.8,489.9,460.1,455.2,417.2,455.2z M535.6,132c62,6,115.8,40.5,148,90.3c23.3-10.6,49.1-13.4,73.3-8.3
	C713.5,124.8,622,63,516.4,63c-0.1,0-0.3,0-0.4,0C529.2,82.8,536.4,106.6,535.6,132z M348.4,436.4c-41-64.6-41.1-147.2-0.4-212
	c-19.6-14.2-34.7-34.2-42.8-57.5c-74.5,96.2-74.4,230.4,0.1,326.6C313.5,470.3,328.6,450.4,348.4,436.4z M683.7,437.9
	c-32.2,49.7-86,84.3-148.1,90.3c1,25.1-5.9,48.9-18.9,69.1c105.6-0.1,197-61.7,240.4-151C732.7,451.1,707,448.5,683.7,437.9z
	 M733,252.3c-42.9,0-77.7,34.7-77.7,77.7s34.7,77.7,77.7,77.7c42.9,0,77.7-34.7,77.7-77.7C810.7,287.2,775.9,252.3,733,252.3z"/>
</svg>
