<?xml version="1.0" encoding="utf-8"?>
<!-- Generator: Adobe Illustrator 18.0.0, SVG Export Plug-In . SVG Version: 6.00 Build 0)  -->
<!DOCTYPE svg PUBLIC "-//W3C//DTD SVG 1.1//EN" "http://www.w3.org/Graphics/SVG/1.1/DTD/svg11.dtd">
<svg version="1.1" id="Layer_1" xmlns="http://www.w3.org/2000/svg" xmlns:xlink="http://www.w3.org/1999/xlink" x="0px" y="0px"
	 viewBox="291.5 50 513.4 560" enable-background="new 291.5 50 513.4 560" xml:space="preserve">
<path id="flip-chart-3" fill="#0D8D8F" d="M524.8,516.6h46.6V610h-46.6V516.6L524.8,516.6z M591.5,516.6l79.8,93.4h61.3l-79.7-93.4
	H591.5L591.5,516.6z M363.4,610h61.3l79.8-93.4h-61.4L363.4,610z M540.7,259.9l34.9,34.9l79.1-78.8l19.4,19.3l14-68.5l-70,12.8
	l20,20L575.7,262L540.7,227L455,311.5l16.4,16.6L540.7,259.9z M688.1,353.4H431.5V166.6h-23.4v210h280V353.4z M804.8,120h-23.4v350
	H314.8V120h-23.2V50h513.4L804.8,120L804.8,120z M734.8,120H361.5v303.4h373.4L734.8,120L734.8,120z"/>
</svg>
