<?xml version="1.0" encoding="utf-8"?>
<!-- Generator: Adobe Illustrator 18.0.0, SVG Export Plug-In . SVG Version: 6.00 Build 0)  -->
<!DOCTYPE svg PUBLIC "-//W3C//DTD SVG 1.1//EN" "http://www.w3.org/Graphics/SVG/1.1/DTD/svg11.dtd">
<svg version="1.1" id="Layer_1" xmlns="http://www.w3.org/2000/svg" xmlns:xlink="http://www.w3.org/1999/xlink" x="0px" y="0px"
	 viewBox="68.2 50 377.7 412" enable-background="new 68.2 50 377.7 412" xml:space="preserve">
<path id="flip-chart-3" fill="#FFFFFF" d="M239.8,393.3h34.3V462h-34.3L239.8,393.3L239.8,393.3z M288.9,393.3l58.7,68.7h45.1
	l-58.6-68.7L288.9,393.3L288.9,393.3z M121.1,462h45.1l58.7-68.7h-45.2L121.1,462z M251.5,204.4l25.7,25.7l58.2-58l14.3,14.2
	l10.3-50.4l-51.5,9.4l14.7,14.7l-45.9,46l-25.8-25.8l-63,62.2l12.1,12.2L251.5,204.4z M360,273.2H171.2V135.8H154v154.5h206V273.2z
	 M445.8,101.5h-17.2V359H85.3V101.5H68.2V50h377.7L445.8,101.5L445.8,101.5z M394.3,101.5H119.7v223.2h274.7L394.3,101.5
	L394.3,101.5z"/>
</svg>
