<?xml version="1.0" encoding="utf-8"?>
<!-- Generator: Adobe Illustrator 18.0.0, SVG Export Plug-In . SVG Version: 6.00 Build 0)  -->
<!DOCTYPE svg PUBLIC "-//W3C//DTD SVG 1.1//EN" "http://www.w3.org/Graphics/SVG/1.1/DTD/svg11.dtd">
<svg version="1.1" id="Layer_1" xmlns="http://www.w3.org/2000/svg" xmlns:xlink="http://www.w3.org/1999/xlink" x="0px" y="0px"
	 viewBox="331.9 49.1 464.7 560" enable-background="new 331.9 49.1 464.7 560" xml:space="preserve">
<path id="time-10-icon" fill="#0D8D8F" d="M691.1,142.7l28.4-41.3l44.5,30.7l-28.3,41.1C722,161.6,706.9,151.4,691.1,142.7z
	 M523.3,49.1v64.6c13.4-2,27.1-3.1,41-3.1c13.7,0,27.1,1.1,40.2,3V49.1H523.3z M796.7,376.7c0,128.3-104.1,232.4-232.4,232.4
	S331.9,505,331.9,376.7S436,144.4,564.3,144.4C692.6,144.4,796.7,248.4,796.7,376.7z M735.8,376.7c0-94.7-76.7-171.5-171.5-171.5
	S392.8,282,392.8,376.7s76.7,171.5,171.5,171.5S735.8,471.5,735.8,376.7z M609.4,388.9c0,23.5-19.1,42.6-42.6,42.6
	s-42.6-19.1-42.6-42.6c0-15.3,8.1-28.7,20.2-36.3l15.6-117.2c0.3-2.6,2.6-4.6,5.1-4.7c2.7,0,5,1.9,5.4,4.5l18,116.9
	C601,359.7,609.4,373.4,609.4,388.9z M579.2,525.2h-27.1V490h27.1V525.2z M714.5,362.8v27.1h-35.2v-27.1H714.5z M416.8,362.8v27.1
	H452v-27.1H416.8z M680.5,472l-19.1,19.1l-23.3-23.3l19.1-19.1L680.5,472z M470,261.4l-19.1,19.1l23.3,23.3l19.1-19.1L470,261.4z
	 M661.3,261.4l19.1,19.1l-23.3,23.3l-19.1-19.1L661.3,261.4z M450.8,472l19.1,19.1l23.3-23.3L474,448.7L450.8,472z"/>
</svg>
