<?xml version="1.0" encoding="utf-8"?>
<!-- Generator: Adobe Illustrator 18.0.0, SVG Export Plug-In . SVG Version: 6.00 Build 0)  -->
<!DOCTYPE svg PUBLIC "-//W3C//DTD SVG 1.1//EN" "http://www.w3.org/Graphics/SVG/1.1/DTD/svg11.dtd">
<svg version="1.1" id="Layer_1" xmlns="http://www.w3.org/2000/svg" xmlns:xlink="http://www.w3.org/1999/xlink" x="0px" y="0px"
	 viewBox="84.3 49.1 343.4 413.8" enable-background="new 84.3 49.1 343.4 413.8" xml:space="preserve">
<path id="time-10-icon" fill="#FFFFFF" d="M349.7,118.3l21-30.5l32.9,22.7l-20.9,30.4C372.5,132.2,361.4,124.7,349.7,118.3z
	 M225.7,49.1v47.7c9.9-1.5,20-2.3,30.3-2.3c10.1,0,20,0.8,29.7,2.2V49.1H225.7z M427.7,291.2c0,94.8-76.9,171.7-171.7,171.7
	c-94.8,0-171.7-76.9-171.7-171.7c0-94.8,76.9-171.7,171.7-171.7C350.8,119.5,427.7,196.4,427.7,291.2z M382.7,291.2
	c0-70-56.7-126.7-126.7-126.7c-70,0-126.7,56.7-126.7,126.7c0,70,56.7,126.7,126.7,126.7C326,417.9,382.7,361.2,382.7,291.2z
	 M289.3,300.2c0,17.4-14.1,31.5-31.5,31.5c-17.4,0-31.5-14.1-31.5-31.5c0-11.3,6-21.2,14.9-26.8l11.5-86.6c0.2-1.9,1.9-3.4,3.8-3.5
	c2,0,3.7,1.4,4,3.3l13.3,86.4C283.1,278.6,289.3,288.7,289.3,300.2z M267,400.9h-20v-26h20V400.9z M367,280.9v20h-26v-20H367z
	 M147,280.9v20h26v-20H147z M341.9,361.6l-14.1,14.1l-17.2-17.2l14.1-14.1L341.9,361.6z M186.3,206l-14.1,14.1l17.2,17.2l14.1-14.1
	L186.3,206z M327.7,206l14.1,14.1l-17.2,17.2l-14.1-14.1L327.7,206z M172.1,361.6l14.1,14.1l17.2-17.2l-14.1-14.1L172.1,361.6z"/>
</svg>
