<?xml version="1.0" encoding="utf-8"?>
<!-- Generator: Adobe Illustrator 18.1.0, SVG Export Plug-In . SVG Version: 6.00 Build 0)  -->
<!DOCTYPE svg PUBLIC "-//W3C//DTD SVG 1.1//EN" "http://www.w3.org/Graphics/SVG/1.1/DTD/svg11.dtd">
<svg version="1.1" id="Layer_1" xmlns="http://www.w3.org/2000/svg" xmlns:xlink="http://www.w3.org/1999/xlink" x="0px" y="0px"
	 viewBox="0 0 258 258" enable-background="new 0 0 258 258" xml:space="preserve">
<g id="CYdu93_1_">
	<g>
		<path fill="#1DADA5" d="M324.8-715.3c0,4.1-3.4,7.5-7.5,7.6c-4.2,0-7.6-3.4-7.6-7.6c0-4.2,3.4-7.6,7.6-7.5
			C321.5-722.9,324.9-719.4,324.8-715.3z"/>
		<path fill="#FDFDFD" d="M317.3-708c-4,0-7.4-3.2-7.3-7.4c0-4.1,3.3-7.3,7.3-7.2c4.1,0,7.3,3.3,7.3,7.3
			C324.6-711.2,321.3-708,317.3-708z"/>
		<path fill="#1DADA5" d="M317.3-720.6c2.8,0,5.3,2.3,5.3,5.3c0,2.9-2.3,5.3-5.4,5.3c-3,0-5.3-2.5-5.3-5.3
			C312-718.2,314.4-720.7,317.3-720.6z"/>
		<path fill="#1DADA5" d="M323.3-715.9c0.2,0,0.5-0.1,0.7-0.1c0.1,0,0.1,0,0.1,0.1c0,0.1,0,0.1-0.1,0.1c-0.3,0-0.5,0.1-0.8,0.1
			c-0.1,0-0.1,0.1-0.1,0c0-0.1,0-0.2,0.1-0.2c0.1,0,0.1-0.1,0.2-0.1c0.1-0.1,0.3-0.2,0.4-0.3c-0.2-0.1-0.3,0-0.5,0
			c-0.1,0-0.3,0.1-0.3,0c0-0.2,0.2-0.1,0.2-0.1c0.2,0,0.4-0.1,0.7-0.1c0.1,0,0.1,0,0.1,0.1c0,0.1,0,0.1-0.1,0.2
			C323.7-716.2,323.5-716,323.3-715.9C323.3-715.9,323.3-715.9,323.3-715.9z"/>
		<path fill="#1DADA5" d="M314-710.2c-0.1,0.2-0.2,0.3-0.3,0.5c0,0.1-0.1,0.1-0.1,0.1c-0.1,0,0-0.1,0-0.1c0.1-0.2,0.3-0.5,0.4-0.7
			c0,0,0.1-0.1,0.1-0.1c0.1,0,0.1,0.1,0.1,0.2c0,0.1,0,0.3,0,0.4c0,0.1,0,0.2,0,0.4c0.1-0.1,0.2-0.3,0.3-0.4c0,0,0.1-0.1,0.1-0.1
			c0,0,0,0,0.1,0c0,0,0.1,0,0,0.1c0,0,0,0.1,0,0.1c-0.1,0.2-0.3,0.5-0.4,0.7c0,0.1-0.1,0.1-0.1,0.1c-0.1,0-0.1-0.1-0.1-0.1
			C314-709.7,314-709.9,314-710.2z"/>
		<path fill="#1DADA5" d="M320.5-721c-0.1,0.2-0.2,0.3-0.3,0.5c0,0-0.1,0.1-0.1,0.1c0,0-0.1,0-0.1,0c0,0,0,0,0-0.1c0,0,0-0.1,0-0.1
			c0.2-0.3,0.3-0.5,0.5-0.8c0.2,0,0.2,0.1,0.2,0.3c-0.1,0.2,0,0.4-0.1,0.6c0.2-0.1,0.2-0.3,0.3-0.4c0-0.1,0.1-0.2,0.2-0.1
			c0.1,0.1,0,0.1,0,0.2c-0.1,0.2-0.2,0.4-0.4,0.6c0,0-0.1,0.1-0.1,0.1c-0.1,0-0.1-0.1-0.1-0.1c0-0.1,0-0.2,0-0.3
			C320.5-720.7,320.5-720.9,320.5-721C320.5-721,320.5-721,320.5-721z"/>
		<path fill="#1DADA5" d="M323-716.9c-0.1,0-0.3-0.1-0.3-0.2c-0.1-0.1-0.1-0.3,0-0.4c0,0,0.1-0.1,0.1,0c0,0,0,0.1,0,0.1
			c0,0.1-0.1,0.1-0.1,0.1c-0.1,0.1,0,0.2,0.1,0.3c0.3,0,0.5-0.1,0.7-0.2c0.1,0,0.1-0.1,0-0.2c0-0.1-0.1-0.2-0.2-0.1c0,0-0.1,0-0.1,0
			c-0.1,0-0.2,0.1-0.1,0.2c0,0,0,0.1,0,0.1c0,0,0,0,0,0c0,0,0,0,0-0.1c-0.1-0.2-0.2-0.2,0.1-0.3c0,0,0,0,0,0
			c0.3-0.1,0.3-0.1,0.4,0.1c0.1,0.2,0.1,0.4,0,0.5C323.5-717,323.3-716.9,323-716.9z"/>
		<path fill="#1DADA5" d="M311.6-714.6c0.1,0.1,0.1,0.3,0.1,0.4c0,0.3-0.2,0.4-0.4,0.3c-0.1,0-0.1-0.1-0.1,0
			c-0.1,0.1-0.2,0.1-0.3,0.2c0,0-0.1,0-0.1,0c0,0,0-0.1,0-0.1c0,0,0.1,0,0.1-0.1c0.1,0,0.1,0,0.1-0.1c0.1,0,0.1-0.1,0.1-0.2
			c0-0.1-0.1,0-0.2,0c-0.1,0-0.1,0-0.2,0c0,0-0.1,0-0.1-0.1c0-0.1,0-0.1,0.1-0.1c0.2,0,0.5-0.1,0.7-0.1
			C311.4-714.5,311.5-714.6,311.6-714.6z"/>
		<path fill="#1DADA5" d="M323.7-713.2c-0.3-0.1-0.5-0.1-0.8-0.2c-0.1,0-0.1,0-0.1-0.1c0-0.1,0.1-0.1,0.1-0.1c0.1,0,0.1,0,0.2,0.1
			c0.1,0,0.1,0,0.2-0.1c0.1-0.2,0.1-0.2-0.2-0.3c0,0-0.1,0-0.1,0c-0.1,0-0.1,0-0.1-0.1c0-0.1,0.1-0.1,0.1-0.1
			c0.3,0.1,0.5,0.1,0.8,0.2c0.1,0,0.1,0,0.1,0.1c0,0.1-0.1,0.1-0.1,0.1c-0.1,0-0.1,0-0.2,0c-0.2-0.1-0.2-0.1-0.3,0.2
			c0,0.1,0,0.2,0.1,0.2c0.1,0,0.2,0,0.2,0.1c0.1,0,0.1,0,0.1,0.1C323.8-713.2,323.7-713.2,323.7-713.2z"/>
		<path fill="#1DADA5" d="M318.3-709c0,0.4-0.1,0.5-0.4,0.5c-0.2,0-0.3-0.1-0.4-0.3c0-0.1,0-0.3,0-0.4c0-0.2,0.1-0.3,0.3-0.3
			c0.2,0,0.3,0,0.4,0.2C318.3-709.3,318.3-709.2,318.3-709z"/>
		<path fill="#1DADA5" d="M317.6-722.2c0.1,0,0.2,0,0.3,0c0.3,0,0.4,0.1,0.4,0.4c0,0.2,0,0.3-0.1,0.5c-0.1,0.1-0.2,0.2-0.3,0.2
			c-0.1,0-0.2,0-0.2,0c-0.2,0-0.2,0-0.1-0.2c0-0.2,0-0.3,0-0.5C317.5-721.9,317.5-722,317.6-722.2z"/>
		<path fill="#1DADA5" d="M320-721.4c0,0.2-0.1,0.4-0.2,0.5c-0.1,0.1-0.3,0.2-0.4,0.1c-0.2-0.1-0.3-0.2-0.3-0.4
			c0-0.2,0.1-0.4,0.2-0.5c0.1-0.2,0.2-0.2,0.4-0.1C319.9-721.7,320-721.6,320-721.4z"/>
		<path fill="#1DADA5" d="M311.2-717.8c0.2,0.1,0.5,0.2,0.7,0.2c0,0,0.1,0.1,0,0.1c0,0.1-0.1,0.1-0.1,0.1c-0.2,0-0.3-0.1-0.5-0.1
			c-0.1,0-0.2-0.1-0.2-0.1c-0.1,0-0.2,0.1-0.2,0.1c0,0.1,0,0.1,0.1,0.2c0.1,0,0.1,0.1,0.2,0.1c0.2,0.1,0.3,0.1,0.5,0.2
			c0.1,0,0.1,0,0.1,0.1c0,0.1-0.1,0.1-0.2,0c-0.2-0.1-0.4-0.1-0.6-0.2c-0.2-0.1-0.2-0.2-0.1-0.4C310.9-717.7,311-717.8,311.2-717.8z
			"/>
		<path fill="#1DADA5" d="M320.1-709.1c-0.1-0.3-0.3-0.6-0.4-0.8c0,0,0-0.1,0-0.1c0.1,0,0.1,0,0.1,0c0,0.1,0.1,0.2,0.2,0.3
			c0.1-0.2,0-0.4,0.2-0.6c0.1,0.1,0,0.2,0,0.3c-0.1,0.2-0.1,0.2,0.2,0.3c0.1,0.1,0.2,0.1,0.4,0.2c-0.1,0.1-0.1,0.1-0.2,0.1
			c-0.1-0.1-0.2-0.1-0.4-0.2c0,0.1,0,0.2,0.1,0.3C320.3-709.2,320.2-709.2,320.1-709.1z"/>
		<path fill="#1DADA5" d="M324.1-714.5c0,0.1-0.1,0.1-0.1,0c-0.3-0.1-0.5-0.2-0.8-0.3c0,0,0,0-0.1,0c-0.1,0-0.1,0-0.1-0.1
			c0-0.1,0-0.1,0.1-0.1c0.3-0.1,0.6-0.2,0.9-0.2c0,0,0.1,0,0.1,0.1c0,0,0,0.1,0,0.1c0,0-0.1,0-0.1,0c-0.1,0-0.2,0-0.2,0.1
			c0,0.1,0,0.2,0,0.3c0,0.1,0.1,0.1,0.2,0.1C324-714.6,324.1-714.6,324.1-714.5z"/>
		<path fill="#1DADA5" d="M323-711.6c0,0.1-0.1,0.2-0.2,0.1c-0.1,0-0.2,0-0.3,0c0,0.1,0,0.1,0.1,0.2c0,0.1,0,0.1,0.1,0.2
			c0,0,0,0.1,0,0.1c0,0-0.1,0-0.1-0.1c0-0.1-0.1-0.2-0.1-0.3c-0.1-0.2-0.1-0.3-0.3-0.2c-0.1,0-0.2,0-0.2,0c0,0-0.1,0-0.1-0.1
			c0,0,0-0.1,0.1-0.1c0.1-0.1,0.2,0,0.4,0c0-0.1-0.1-0.2-0.1-0.3c0-0.1,0-0.1,0-0.1c0.1,0,0.1,0,0.1,0.1c0.1,0.3,0.3,0.5,0.6,0.4
			C322.8-711.6,322.9-711.6,323-711.6z"/>
		<path fill="#1DADA5" d="M311.6-713.3c0.1,0,0.2,0,0.2,0c0.1,0,0.1,0.1,0.1,0.2c0,0-0.1,0.1-0.1,0.1c-0.2,0.2-0.4,0.4-0.6,0.5
			c0,0-0.1,0.1-0.1,0c0,0,0-0.1,0-0.1c0,0,0,0,0.1-0.1c0.1-0.2,0.1-0.1,0.1-0.3c0-0.1-0.1-0.1-0.2-0.1c0,0-0.1,0-0.1,0
			c0,0-0.1,0-0.1-0.1c0-0.1,0-0.1,0.1-0.1C311.1-713.3,311.4-713.3,311.6-713.3C311.6-713.3,311.6-713.3,311.6-713.3z"/>
		<path fill="#1DADA5" d="M311.7-718.8c0,0-0.1-0.1-0.1-0.1c0-0.1-0.2-0.1-0.1-0.2c0.1-0.1,0.1,0,0.2,0.1c0.1,0.2,0.3,0.3,0.4,0.5
			c0,0,0.1,0.1,0.1,0.1c0.1,0.1,0,0.2-0.1,0.2c0,0-0.1,0-0.1,0c-0.3-0.1-0.5-0.1-0.8-0.2c0,0-0.1,0-0.1-0.1c0,0,0-0.1,0.1-0.1
			c0,0,0,0,0,0C311.6-718.4,311.7-718.6,311.7-718.8z"/>
		<path fill="#1DADA5" d="M312.4-710.6c0.3-0.2,0.6-0.3,0.9-0.5c0.1,0,0.1,0,0.2,0c0,0.1,0,0.1,0,0.2c-0.1,0.3-0.2,0.5-0.3,0.8
			c0,0.1,0,0.1-0.1,0.1c-0.1,0-0.1-0.1,0-0.1c0,0,0,0,0-0.1c0.1-0.1,0.1-0.2,0-0.3c-0.1-0.1-0.2-0.1-0.3,0
			C312.6-710.5,312.5-710.4,312.4-710.6z"/>
		<path fill="#1DADA5" d="M321.8-710.4c0.1-0.1,0.2-0.1,0.2-0.2c0,0,0.1-0.1,0.1,0c0,0,0,0.1,0,0.1c-0.1,0.1-0.2,0.2-0.3,0.4
			c-0.3-0.3-0.5-0.5-0.8-0.8c0.1-0.1,0.2-0.3,0.4-0.4c0,0,0.1,0,0.1,0c0,0,0,0.1,0,0.1c-0.1,0.1-0.1,0.1-0.2,0.2
			c0,0.1,0.1,0.2,0.2,0.3c0,0,0.1,0,0.1,0c0.1,0,0.2-0.2,0.2-0.1c0.1,0.1-0.1,0.2-0.1,0.2c-0.1,0.1,0,0.1,0,0.1
			C321.7-710.5,321.8-710.5,321.8-710.4z"/>
		<path fill="#1DADA5" d="M310.8-716.6c-0.1,0.1-0.1,0.2-0.1,0.3c0,0.1,0.1,0.2,0.2,0.1c0,0,0.1-0.1,0.1-0.1
			c0.1-0.1,0.1-0.1,0.2-0.2c0.2-0.2,0.4-0.1,0.4,0.1c0.1,0.1,0,0.3-0.1,0.4c0,0-0.1,0-0.1,0c0,0,0,0,0-0.1c0-0.1,0.1-0.1,0.1-0.2
			c0-0.1,0-0.1-0.1-0.1c-0.1-0.1-0.1,0-0.2,0c-0.1,0.1-0.1,0.2-0.2,0.3c-0.1,0.1-0.2,0.2-0.4,0.1c-0.2-0.1-0.2-0.5-0.1-0.6
			C310.7-716.6,310.7-716.6,310.8-716.6z"/>
		<path fill="#1DADA5" d="M315-720.8c0.1-0.1,0.2,0,0.3-0.1c0.1-0.1,0.1-0.2,0-0.3c-0.1,0-0.2-0.1-0.2-0.1c-0.1,0-0.2,0-0.2-0.1
			c-0.2-0.1-0.2-0.3,0-0.4c0.1-0.1,0.2-0.1,0.4-0.2c0,0,0.1,0,0.1,0.1c0,0,0,0.1,0,0.1c-0.1,0-0.2,0-0.2,0c0,0-0.1,0.1-0.1,0.1
			c0,0.1,0,0.1,0.1,0.1c0,0,0.1,0,0.1,0c0.1,0,0.2,0,0.2,0.1c0.2,0.1,0.3,0.3,0.1,0.5c-0.1,0.1-0.2,0.1-0.4,0.1
			C315-720.7,315-720.7,315-720.8z"/>
		<path fill="#1DADA5" d="M315.8-708.7c-0.1,0-0.2,0-0.3-0.1c-0.1,0-0.1-0.1,0-0.1c0-0.1,0.1,0,0.1,0c0,0,0.1,0.1,0.1,0.1
			c0.1,0.1,0.2,0,0.2-0.1c0-0.1,0-0.1,0-0.2c-0.1-0.1-0.1-0.1-0.2-0.2c-0.1-0.1-0.1-0.3-0.1-0.4c0.1-0.1,0.2-0.2,0.3-0.1
			c0,0,0.1,0,0.1,0c0.1,0,0.1,0,0.1,0.1c0,0.1-0.1,0-0.1,0c0,0-0.1,0-0.1,0c-0.1,0-0.1,0-0.1,0.1c0,0.1,0,0.1,0,0.2
			c0.1,0.1,0.1,0.1,0.2,0.2c0.1,0.1,0.1,0.2,0.1,0.3C316.1-708.8,315.9-708.7,315.8-708.7z"/>
		<path fill="#1DADA5" d="M323-712.3c0.3,0,0.3,0,0.4-0.3c0,0,0-0.1,0.1-0.1c0.1,0,0.1,0,0.1,0.1c0,0.3-0.2,0.5-0.5,0.4
			c-0.2,0-0.4-0.1-0.5-0.3c-0.1-0.1,0-0.3,0-0.4c0.1-0.1,0.2-0.2,0.3-0.1c0,0,0.1,0,0.1,0.1c0,0,0,0.1-0.1,0.1c0,0-0.1,0-0.2,0
			c-0.1,0-0.2,0.1-0.1,0.2C322.7-712.4,322.9-712.3,323-712.3z"/>
		<path fill="#1DADA5" d="M318.9-709.5c0,0.1,0,0.2,0.1,0.3c0.1,0.2,0.3,0.3,0.5,0.1c0,0,0.1-0.1,0.1,0c0,0,0,0.1,0,0.1
			c-0.2,0.2-0.5,0.2-0.7-0.1c-0.1-0.2-0.1-0.3-0.1-0.5c0-0.2,0.1-0.3,0.3-0.3c0.1-0.1,0.3,0,0.4,0.1c0,0,0.1,0.1,0,0.1
			c0,0-0.1,0.1-0.1,0c0,0,0,0,0,0c-0.1-0.1-0.1-0.1-0.2-0.1C318.9-709.7,318.9-709.6,318.9-709.5z"/>
		<path fill="#1DADA5" d="M322.4-717.9c-0.1-0.1-0.1-0.2-0.2-0.3c0,0-0.1-0.1,0-0.1c0.1,0,0.1,0.1,0.1,0.1c0,0.1,0.1,0.1,0.1,0.2
			c0.1,0,0.2-0.1,0.3-0.1c0-0.1-0.1-0.2-0.1-0.3c0,0,0-0.1,0-0.1c0,0,0.1,0,0.1,0c0,0.1,0.1,0.2,0.1,0.2c0.1,0,0.2-0.1,0.3-0.1
			c0-0.2-0.1-0.2-0.1-0.4c0.1,0,0.1,0.1,0.2,0.1c0.2,0.3,0.2,0.3-0.1,0.5C322.9-718.2,322.7-718.1,322.4-717.9
			C322.5-718,322.5-718,322.4-717.9z"/>
		<path fill="#1DADA5" d="M317.1-721.6c-0.1,0-0.1,0-0.2,0c-0.2,0-0.2,0-0.2,0.2c0,0.2,0,0.2,0.2,0.2c0.1,0,0.2,0,0.2,0
			c0,0.1-0.1,0.1-0.2,0.1c-0.4,0-0.4,0-0.4-0.3c0-0.2,0-0.4,0-0.5c0-0.1,0-0.2,0.1-0.2c0.1,0,0.2,0,0.3,0c0,0,0.1,0,0.1,0
			c0,0,0,0.1-0.1,0.1c-0.1,0-0.1,0-0.2,0c-0.1,0-0.1,0.1-0.1,0.1c0,0.2,0,0.2,0.2,0.2C317-721.7,317.1-721.7,317.1-721.6z"/>
		<path fill="#1DADA5" d="M311.5-714.9c-0.2-0.1-0.1-0.2-0.2-0.2c-0.1,0-0.2,0-0.3,0c-0.1,0-0.3,0-0.4,0c-0.1,0-0.1,0-0.2-0.1
			c0-0.1,0.1-0.1,0.1-0.1c0.2,0,0.4,0,0.6,0c0.1,0,0.2,0,0.2-0.2c0,0,0,0,0.1,0c0,0,0,0,0,0.1C311.5-715.3,311.5-715.1,311.5-714.9z
			"/>
		<path fill="#1DADA5" d="M316.1-722.1C316.2-722.1,316.2-722.1,316.1-722.1c0.1,0.1,0,0.1,0,0.1c-0.2,0-0.2,0.1-0.1,0.2
			c0.1,0.2,0.1,0.4,0.1,0.6c0,0.1,0,0.1-0.1,0.1c-0.1,0-0.1,0-0.1-0.1c0-0.2-0.1-0.4-0.1-0.6c0-0.1-0.1-0.2-0.2-0.1c0,0-0.1,0-0.1,0
			c0,0,0-0.1,0.1-0.1C315.8-722,316-722,316.1-722.1z"/>
		<path fill="#1DADA5" d="M316.5-709.5c0.2-0.1,0.5,0,0.7,0c0,0.1-0.1,0.1-0.1,0c-0.1,0-0.1,0-0.1,0.1c0,0.2,0,0.4-0.1,0.7
			c0,0.1,0,0.2-0.1,0.2c-0.1,0-0.1-0.1-0.1-0.2c0-0.2,0-0.3,0-0.5C316.8-709.5,316.8-709.5,316.5-709.5z"/>
		<path fill="#1DADA5" d="M311.4-712c0.3-0.2,0.5-0.3,0.8-0.5c0.1,0,0.1,0,0.1,0c0,0.1,0,0.1,0,0.1c-0.2,0.1-0.4,0.2-0.5,0.3
			c-0.2,0.1-0.2,0.1-0.1,0.3c0,0,0,0,0,0.1c0,0,0,0.1,0,0.1c-0.1,0-0.1,0-0.1-0.1c0-0.1-0.1-0.2-0.2-0.2
			C311.4-711.9,311.4-711.9,311.4-712z"/>
		<path fill="#1DADA5" d="M314-720.2c0.1,0,0.2-0.1,0.3-0.2c0,0,0.1,0,0.1,0c0,0,0,0.1,0,0.1c-0.1,0.1-0.3,0.2-0.4,0.3
			c-0.2-0.3-0.4-0.5-0.5-0.8c0,0,0-0.1,0-0.1c0.1,0,0.1,0,0.1,0c0.1,0.2,0.2,0.4,0.4,0.5C313.9-720.3,313.9-720.3,314-720.2z"/>
		<path fill="#1DADA5" d="M313-719.7c0,0.2-0.1,0.3-0.3,0.3c-0.1,0-0.3-0.1-0.3-0.3c0-0.2,0.1-0.3,0.3-0.3
			C312.9-720,313-719.9,313-719.7z"/>
		<path fill="#1DADA5" d="M321.9-719.5c-0.2,0-0.3-0.1-0.3-0.2c0-0.2,0.1-0.3,0.2-0.3c0.1,0,0.3,0.1,0.3,0.3
			C322.1-719.6,322-719.5,321.9-719.5z"/>
		<path fill="#1DADA5" d="M312-711C312-711,312-711,312-711c-0.1-0.1-0.1-0.1,0-0.1c0.2-0.2,0.5-0.4,0.7-0.6c0,0,0.1,0,0.1,0
			c0,0,0,0.1,0,0.1C312.6-711.4,312.3-711.2,312-711C312.1-711,312.1-711,312-711z"/>
		<path fill="#1DADA5" d="M314.7-720.5C314.7-720.5,314.7-720.5,314.7-720.5c-0.1,0.1-0.1,0.1-0.1,0.1c0,0,0,0,0-0.1
			c-0.1-0.2-0.2-0.5-0.4-0.7c0-0.1,0-0.1,0-0.2c0.1,0,0.1,0,0.1,0.1C314.4-721.1,314.6-720.9,314.7-720.5
			C314.7-720.6,314.7-720.6,314.7-720.5z"/>
		<path fill="#FBFCFB" d="M317.3-710.3c-2.7,0-5.1-2.2-5.1-5.1c0-2.8,2.3-5.1,5.1-5.1c2.8,0,5,2.4,5,5.1
			C322.3-712.5,320-710.2,317.3-710.3z"/>
		<path fill="#E6F2F3" d="M311.5-714.2c0,0.1-0.1,0.2-0.2,0.2c-0.1,0-0.2-0.1-0.2-0.2c0-0.1,0.1-0.1,0.3-0.1
			C311.5-714.4,311.5-714.3,311.5-714.2z"/>
		<path fill="#F6F9F9" d="M317.7-709.2c0,0,0-0.1,0-0.2c0-0.1,0.1-0.2,0.2-0.2c0.1,0,0.1,0,0.2,0.1c0.1,0.2,0.1,0.4,0.1,0.6
			c0,0.1-0.1,0.2-0.2,0.2c-0.1,0-0.1-0.1-0.2-0.2C317.7-708.9,317.7-709,317.7-709.2z"/>
		<path fill="#F8FBFA" d="M317.7-721.2c0-0.2,0-0.4,0-0.6c0-0.1,0-0.1,0.1-0.2c0.1,0,0.2,0,0.2,0.1c0.1,0.1,0.1,0.6,0,0.7
			C317.9-721.2,317.9-721.2,317.7-721.2z"/>
		<path fill="#F5F9F9" d="M319.2-721c0-0.2,0.1-0.4,0.2-0.5c0-0.1,0.1-0.1,0.2-0.1c0.1,0,0.1,0.1,0.1,0.2c0,0.2-0.1,0.4-0.2,0.5
			c-0.1,0.1-0.1,0.1-0.2,0.1C319.2-720.9,319.2-720.9,319.2-721z"/>
		<path fill="#E2EDF1" d="M323.6-714.8c-0.1,0-0.3-0.1-0.4-0.1c0.1,0,0.2-0.1,0.2-0.1C323.7-715,323.7-715,323.6-714.8z"/>
		<path fill="#D8E9EC" d="M311.7-713.2c-0.1,0.1-0.2,0.2-0.3,0.3c-0.1-0.1-0.1-0.1-0.1-0.2C311.4-713.2,311.6-713.2,311.7-713.2z"/>
		<path fill="#D9E9EF" d="M312.1-718.3c-0.1,0-0.2-0.1-0.4-0.1c0-0.1,0.1-0.2,0.1-0.3C311.9-718.6,312-718.5,312.1-718.3
			C312.1-718.4,312.1-718.3,312.1-718.3z"/>
		<path fill="#D4E7EB" d="M313.2-710.9c0,0.1-0.1,0.2-0.1,0.3c-0.1,0.1-0.1,0.1-0.2,0c0,0,0-0.1,0-0.1
			C313-710.8,313.1-710.9,313.2-710.9z"/>
		<path fill="#1DADA5" d="M321.4-717.5c0.2,0.4,0.4,0.9,0.5,1.3c0.1,0.6,0.1,1.3-0.1,1.9c-0.2,0.6-0.4,1.2-0.8,1.7
			c-0.8,1-1.8,1.6-3,1.7c-0.5,0.1-1.1,0.1-1.6-0.1c-0.3-0.1-0.6-0.2-0.9-0.3c0.2-0.2,0.4-0.2,0.7-0.2c0.2,0,0.4-0.1,0.6-0.1
			c0.7,0,1.2-0.3,1.8-0.6c0.2-0.1,0.4-0.3,0.6-0.4c0.1-0.1,0.2,0,0.4,0c0.1,0,0.2,0,0.3-0.1c0.1-0.2,0-0.4,0-0.6
			c0-0.2,0.1-0.3,0.2-0.4c0.3-0.2,0.4-0.4,0.6-0.7c0.3-0.7,0.6-1.4,0.7-2.1c0-0.2,0-0.5,0-0.7C321.3-717.3,321.2-717.4,321.4-717.5z
			"/>
		<path fill="#1DADA5" d="M321.4-717.5c-0.1,0.1-0.1,0.2,0,0.3c0,0,0.1,0.1,0.1,0.1c-0.1,0.1-0.1,0.3,0,0.4c0,0.1,0,0.1,0,0.2
			c-0.1,0.3-0.2,0.6-0.2,0.9c0,0.2-0.1,0.4-0.2,0.6c0,0.1-0.1,0.2-0.1,0.3c-0.1,0.3-0.3,0.6-0.4,0.8c-0.1,0.2-0.3,0.3-0.4,0.4
			c-0.1,0.1-0.1,0.1-0.1,0.2c0,0.2,0,0.4,0,0.5c0,0,0,0.1,0,0.1c-0.1-0.1-0.1-0.2-0.1-0.3c0.1-0.6-0.2-1-0.6-1.4c0,0.5,0,0.9,0,1.4
			c0,0.1,0,0.3-0.1,0.4c-0.1,0-0.1,0-0.1,0c0-0.1-0.1-0.1-0.1-0.2c0-0.6,0-1.3,0-1.9c0.5-0.4,0.7-1,0.9-1.6c0-0.1-0.1-0.2-0.1-0.3
			c0.1-0.3,0.1-0.7,0.1-1.1c0-0.1,0-0.3-0.1-0.4c0-0.4-0.2-0.8-0.4-1.1c0-0.1-0.1-0.2,0.1-0.2c0.2,0.1,0.5,0.3,0.7,0.5
			C320.6-718.6,321.1-718.1,321.4-717.5z"/>
		<path fill="#1DADA5" d="M314.1-718.7c0.2-0.2,0.4-0.3,0.6-0.5c0.3-0.1,0.6,0,0.9-0.1c0.2,0,0.4,0,0.6,0.2c0.1,0.1,0.2,0.2,0.3,0.2
			c0.3,0.1,0.5,0.3,0.6,0.6c0.1,0.2,0.1,0.3,0.2,0.5c0.2,0.2,0.1,0.5-0.2,0.6c-0.2-0.2-0.3-0.5-0.6-0.7c0,0.5-0.1,1,0.1,1.5
			c0,0,0,0.1,0,0.1c-0.1,0.2-0.1,0.5-0.1,0.7c0,1,0,2,0,3.1c-0.2,0.1-0.2-0.1-0.2-0.2c0-0.3,0-0.6,0-1c0-0.2,0-0.4,0-0.6
			c0-0.5,0-1,0-1.5c0-0.1,0-0.3-0.1-0.4c-0.1-0.2,0-0.4-0.1-0.7c0-0.4,0-0.7,0-1.1c0-0.2-0.1-0.2-0.3-0.2c-0.2,0-0.3,0-0.3,0.2
			c0,0.6,0,1.3,0,1.9c0,0.2,0.1,0.3,0.2,0.4c0.1,0.1-0.1,0.2-0.1,0.2c-0.5,0.1-0.9,0.1-1.3-0.3c-0.3-0.2-0.5-0.5-0.7-0.8
			c-0.2-0.3-0.1-0.7-0.2-1.1C313.4-718,313.9-718.3,314.1-718.7z"/>
		<path fill="#1DADA5" d="M316.4-714.2c0,0.5,0,1,0,1.6c0,0.1,0,0.1,0,0.2c0,0.1,0.1,0,0.1,0c0-0.1,0.1-0.2,0.1-0.3
			c0.2-0.2,0.4-0.4,0.5-0.7c0-0.3,0-0.5,0-0.8c0-0.1,0-0.2,0.1-0.2c0.1,0,0.1,0.1,0.1,0.2c0,0.3,0,0.5,0,0.8
			c0.2,0.3,0.4,0.5,0.6,0.9c0-0.2,0-0.4,0-0.6c0-0.1,0-0.3,0.1-0.3c0.1,0,0.1,0.1,0.2,0.1c0.1,0.2,0,0.4,0,0.6
			c0,0.2,0.1,0.3,0.3,0.3c0.1,0,0.2,0,0.3,0c0,0,0.1,0,0.1,0c0,0,0.1,0,0.1,0.1c0,0.1-0.1,0.1-0.1,0.2c-0.1,0-0.1,0-0.2,0.1
			c-0.2,0.3-0.5,0.4-0.8,0.5c-0.1,0-0.1,0.1-0.2,0.1c-0.2,0.1-0.4,0.2-0.7,0.2c-0.2,0-0.4,0-0.5,0.1c-0.1,0-0.3,0-0.4,0
			c-0.1,0-0.3,0-0.4,0.1c-0.1,0.1-0.1,0-0.2,0c-0.1,0-0.1,0-0.1,0.1c-0.8-0.4-1.4-0.9-1.9-1.6c0.2-0.2,0.4-0.2,0.6,0
			c0.2,0.1,0.4,0.1,0.7,0.1c0.1,0.1,0.1,0.1,0.2,0.1c0.3,0,0.4,0,0.4-0.3c0-0.1,0-0.2,0.1-0.3c0,0,0.1,0,0.1,0
			c0.1,0.1,0.1,0.1,0.1,0.2c0,0.4,0.1,0.5,0.6,0.3c0.1-0.1,0.1-0.2,0.1-0.4c0-0.3,0-0.7,0-1C316.3-714.1,316.3-714.2,316.4-714.2z"
			/>
		<path fill="#1DADA5" d="M316.4-714.2c-0.1,0-0.1,0.1-0.1,0.2c0,0.5,0,1,0,1.4c0,0.1,0,0.1-0.1,0.2c-0.1-0.1-0.1-0.3-0.1-0.4
			c0-0.8,0-1.6,0-2.4c0-0.1,0-0.2,0-0.3c-0.4,0.4-0.6,0.8-0.6,1.4c0,0.2,0,0.5,0,0.7c0,0.1,0,0.2-0.1,0.3c0,0-0.1,0-0.1,0
			c-0.1-0.1-0.1-0.2-0.1-0.3c0-0.3,0-0.6,0-0.9c-0.1,0-0.1,0.1-0.2,0.1c-0.2,0.2-0.4,0.1-0.7,0.1c-0.8-0.2-1.3-0.8-1.8-1.3
			c0-0.6,0.1-1.1,0.3-1.6c0.2-0.6,0.6-1.1,1-1.5c0,0,0.1,0,0.1-0.1c-0.1,0.2-0.1,0.3-0.2,0.5c-0.1,0.1-0.2,0.2-0.2,0.2
			c-0.1,0.1-0.2,0.1,0,0.3c0.1,0.1,0,0.1,0,0.2c-0.1,0.1-0.1,0.2,0,0.3c0.1,0.1,0.1,0.2,0,0.4c0,0.1,0,0.3,0.1,0.4
			c0.2,0.3,0.5,0.7,0.8,0.9c0.1,0.1,0.3,0.2,0.5,0.2c0.3,0,0.5,0,0.7-0.1c0-0.3,0.2-0.5,0.5-0.6c0,0,0.1-0.1,0.1,0
			c0,0.1,0,0.2,0,0.3C316.4-715.3,316.4-714.8,316.4-714.2z"/>
		<path fill="#1DADA5" d="M318.2-713.5c-0.1,0,0-0.1-0.1-0.1c-0.1,0-0.1-0.1-0.1-0.2c0-0.7,0-1.4,0-2.2c0.1-0.1,0.1-0.1,0.3-0.1
			c0.1,0.1,0.2,0.2,0.3,0.3c0,0.1,0.1,0.1,0.2,0.1c0.1,0,0.1-0.1,0.1-0.2c0-0.1,0-0.2,0-0.2c0-0.6,0-1.1,0-1.7c0-0.3,0-0.3-0.3-0.3
			c-0.1,0-0.2,0-0.3,0c-0.2-0.1-0.2-0.4-0.3-0.6c-0.2-0.4-0.5-0.7-0.8-0.9c-0.1-0.1-0.2-0.1-0.3-0.3c0.3,0,0.6,0,1,0
			c0.4,0,0.8,0.1,1.1,0.2c0.2,0.1,0.3,0.1,0.5,0.2c0,0-0.1,0-0.1,0.1c0.1,0.1,0.1,0.2,0.2,0.3c0.1,0.1,0.2,0.3,0.2,0.4
			c0,0.1,0,0.3,0,0.4c-0.1,0.1-0.2,0.1-0.3,0.1c-0.1,0-0.2,0.1-0.2,0.2c0,0.5,0,1,0,1.5c0,0.1,0,0.1,0.1,0.1c0.1,0,0.2-0.1,0.2-0.2
			c0.1-0.1,0.1-0.2,0.2-0.3c0.2,0,0.2,0.1,0.2,0.2c-0.1,0.1-0.1,0.3-0.1,0.4c-0.1,0.2-0.1,0.5-0.3,0.6c-0.1,0.2-0.3,0.4-0.3,0.6
			c0,0,0,0-0.1,0.1c0,0-0.1,0-0.1,0c0,0,0-0.1-0.1-0.1c-0.2,0-0.2-0.1-0.3-0.2c-0.1-0.2-0.2-0.3-0.4-0.5c0,0.6,0,1.2,0,1.7
			C318.3-713.7,318.3-713.6,318.2-713.5z"/>
		<path fill="#1DADA5" d="M316.8-719.9c0.2,0.1,0.2,0.3,0.4,0.3c0,0,0,0,0.1,0.1c0.1,0.2,0.3,0.4,0.5,0.5c0,0,0.1,0.1,0.1,0.1
			c0.1,0.3,0.3,0.5,0.3,0.8c0.1,0.1,0.1,0.2,0.1,0.3c0,0.6,0,1.1,0,1.7c0,0.1,0,0.1,0,0.2c-0.1,0.1-0.1,0-0.2,0
			c-0.2-0.1-0.3-0.3-0.4-0.4c-0.1-0.1-0.1-0.2-0.3-0.3c0,0.4,0,0.8,0,1.1c0,0.6,0,1.2,0,1.8c0,0.1,0,0.3-0.1,0.4
			c-0.1,0-0.1-0.1-0.1-0.2c0-0.3,0-0.6,0-0.8c0,0,0,0-0.1,0c0,0.2,0,0.5,0,0.7c0,0.1,0.1,0.2,0,0.3c-0.1-0.1-0.1-0.3-0.1-0.4
			c0-1,0-1.9,0-2.9c-0.2,0.1-0.2,0.4-0.5,0.4c0,0,0-0.1-0.1-0.1c0.1-0.3,0.3-0.6,0.6-0.8c0.1,0,0.2-0.1,0.2-0.2c0-0.1,0-0.1,0-0.1
			c0.1-0.1,0.1-0.1,0-0.2c-0.1-0.1-0.2-0.2-0.2-0.3c0-0.2-0.1-0.3-0.2-0.5c0-0.1-0.2-0.2-0.4-0.3c-0.2-0.1-0.4-0.1-0.6-0.3
			c-0.1-0.2-0.3-0.1-0.5-0.1c-0.2,0-0.3,0.1-0.4,0c-0.1,0-0.1,0-0.2,0c-0.1,0-0.2,0.1-0.2,0C315.3-719.6,316-719.9,316.8-719.9z"/>
		<path fill="#1DADA5" d="M312.7-715.4c0,0,0.1,0,0.1,0c0.1,0.3,0.5,0.4,0.6,0.6c0.3,0.2,0.5,0.5,0.9,0.5c0.1,0,0.2,0.1,0.3,0.1
			c0.1,0.1,0.2,0.1,0.3,0c0,0,0.1-0.1,0.2,0c0,0.1,0,0.1,0,0.2c-0.3,0.3-0.3,0.8-0.3,1.2c0,0.1,0,0.2-0.1,0.3
			c-0.2,0.1-0.3,0.1-0.5,0c-0.1-0.1-0.3-0.1-0.5-0.2c0,0-0.1,0.1,0,0.1c0,0,0,0.1,0,0.1c0,0-0.1,0-0.1,0c0,0-0.1-0.1-0.1,0
			c-0.4-0.5-0.6-1.1-0.7-1.7C312.7-714.8,312.7-715.1,312.7-715.4z"/>
		<path fill="#FBFCFD" d="M319.1-712.5L319.1-712.5L319.1-712.5c-0.1-0.1-0.1-0.1-0.1-0.2c0-0.6,0-1.3,0-1.9c0.1,0,0.1,0.1,0.2,0.2
			c0.1,0.2,0.2,0.4,0.4,0.5c0.2,0.2,0.2,0.4,0.2,0.6c0,0.2,0,0.4,0,0.7c0,0.1,0,0.2-0.2,0.2C319.5-712.5,319.3-712.5,319.1-712.5z"
			/>
		<path fill="#FDFDFD" d="M318.2-713.5c0-0.8,0-1.5,0-2.3c0.1,0,0.1,0.1,0.2,0.1c0.2,0.3,0.4,0.5,0.6,0.8c0,0.6,0,1.3,0,1.9
			c0,0.1,0,0.2,0,0.3c0,0.1,0,0.1,0,0.2c-0.1,0-0.3,0-0.4,0c-0.4,0-0.3,0-0.3-0.3C318.2-713,318.2-713.2,318.2-713.5z"/>
		<path fill="#F9FCFC" d="M319.3-716.2c-0.1,0.1-0.1,0.2-0.2,0.2c-0.1,0,0-0.1,0-0.1c0-0.6,0-1.3,0-1.9c0-0.2,0-0.2,0.2-0.2
			c0.2,0,0.3,0,0.5,0c0.1,0,0.2,0,0.2,0.2c0,0.3,0,0.7,0,1c0,0.1-0.1,0.2-0.2,0.3c-0.1,0.1-0.2,0.2-0.2,0.3
			C319.4-716.3,319.4-716.2,319.3-716.2z"/>
		<path fill="#1DADA5" d="M318.9-712.5c0-0.1,0-0.1,0-0.2c0,0,0.1,0,0.1,0c0,0.1,0,0.1,0,0.2C319-712.5,319-712.5,318.9-712.5z"/>
		<path fill="#FEFEFE" d="M316.6-716.3c0.2-0.1,0.2-0.3,0.3-0.4c0.1-0.1,0.1-0.2,0.2-0.3c0,1.2,0,2.4,0,3.5
			c-0.2,0.3-0.5,0.6-0.7,0.9c-0.1,0-0.1-0.1-0.1-0.1c0-1.1,0-2.2,0-3.3C316.5-716.1,316.6-716.2,316.6-716.3z"/>
		<path fill="#FBFCFB" d="M316.3-716.1c-0.2,0.2-0.3,0.4-0.5,0.6c-0.2,0-0.3-0.2-0.3-0.4c0-0.7,0-1.5,0-2.2c0-0.1,0-0.1,0.1-0.1
			c0,0,0,0,0,0c0.2,0,0.4-0.1,0.6,0c0.1,0.1,0,0.4,0,0.5C316.3-717.1,316.3-716.6,316.3-716.1z"/>
		<path fill="#F9FBFC" d="M315.4-715.9c-0.3-0.3-0.5-0.6-0.7-0.9c-0.1-0.1-0.1-0.1-0.1-0.2c0-0.3,0-0.7,0-1c0-0.1,0.1-0.2,0.2-0.2
			c0.1,0,0.3,0,0.4,0c0.1,0,0.2,0,0.2,0.1C315.4-717.3,315.4-716.6,315.4-715.9z"/>
		<path fill="#F9FBFA" d="M317.1-717.2c-0.2,0.3-0.4,0.5-0.6,0.8c0,0-0.1,0-0.1-0.1c0-0.5,0-1.1,0-1.6
			C316.7-717.7,317-717.5,317.1-717.2z"/>
		<path fill="#0298D2" d="M316.4-718.1c0,0.1,0,0.2,0,0.3C316.3-717.9,316.4-718,316.4-718.1z"/>
		<path fill="#FDFDFD" d="M317.3-713.4c0-1.2,0-2.4,0-3.6c0,0,0,0,0,0c0.2,0.3,0.5,0.7,0.7,1c0,0.8,0,1.6,0,2.4c0,0.4,0,0.7,0,1.1
			c0,0,0,0-0.1,0C317.8-712.8,317.6-713.1,317.3-713.4z"/>
		<path fill="#FBFDFB" d="M315.6-713.1c0-0.5,0-1,0-1.4c0-0.2,0-0.3,0.1-0.4c0.2-0.3,0.4-0.5,0.6-0.8c0.1,0,0,0.1,0,0.1
			c0,1,0,2.1,0,3.1c0,0,0,0.1,0,0.1c-0.2,0-0.4,0-0.5,0c-0.2,0-0.2,0-0.2-0.2C315.6-712.8,315.6-713,315.6-713.1z"/>
		<path fill="#F9FBFB" d="M314.7-712.6c0-0.2,0-0.5,0-0.7c0-0.2,0-0.4,0.2-0.5c0.1-0.1,0.2-0.3,0.3-0.4c0.1-0.1,0.2-0.3,0.3-0.4
			c0,0.5,0,1,0,1.5c0,0.2,0,0.4,0,0.6c0,0.1,0,0.1-0.1,0.1c-0.2,0-0.3,0-0.5,0C314.7-712.4,314.7-712.5,314.7-712.6z"/>
		<path fill="#FDFDFD" d="M318.3-716c0-0.1,0-0.2,0-0.2c0-0.6,0-1.2,0-1.9c0.2,0,0.4,0,0.6,0c0.2,0,0.2,0,0.2,0.2c0,0.5,0,1,0,1.5
			c0,0.2,0,0.3,0,0.5c0,0.3,0,0.3-0.2,0.5C318.5-715.6,318.4-715.8,318.3-716z"/>
		<path fill="#F4F9F9" d="M318.1-718.1c0,0.6,0,1.2,0,1.8c-0.2-0.2-0.3-0.4-0.4-0.5c-0.1-0.1-0.2-0.2-0.2-0.3c0-0.1,0.2-0.2,0.2-0.4
			C317.8-717.8,317.9-717.9,318.1-718.1z"/>
	</g>
</g>
<g id="JvXlQn_1_">
	<g>
		<path fill="#1DADA5" d="M283.8-725.6c0.1-0.6,0.5-1.1,1.1-1.3c0.1,0,0.1-0.1,0.2-0.1c0,0,0,0,0,0c0.1,0,0.2,0.1,0.3,0.1
			c0.1,0.1,0.1,0.1,0.2,0.2c0.1,0.1,0.1,0.1,0.1,0.2c0,0,0,0.1,0.1,0.1c0,0,0,0,0,0c0,0.1,0,0.2,0,0.4c0,0.1,0,0.2,0,0.3
			c0,0,0,0.1,0,0.1c0,0.2,0,0.4,0,0.6c0,0,0,0,0,0.1c0,0,0,0,0,0c0-0.1,0-0.2,0-0.2c0,0.1,0,0.2,0,0.3c0,0,0,0.1,0,0.1
			c0,0,0-0.1,0-0.1c0-0.2,0-0.4,0-0.6c0-0.1,0-0.1-0.1-0.2c0-0.1-0.1-0.1-0.1-0.2c0,0,0,0,0-0.1c0,0.4,0,0.8,0,1.1c0,0,0,0.1,0,0.1
			c0,0-0.1,0-0.1,0c0,0,0-0.1,0-0.1c0-0.4,0-0.8,0-1.2c0,0,0,0.1,0,0.1c0,0,0,0.1-0.1,0.1c-0.1,0.1-0.1,0.2-0.1,0.4
			c0,0.2,0,0.4,0,0.6c0,0,0,0.1,0,0.1c0,0,0,0,0,0c0,0,0-0.1,0-0.1c0,0,0,0.1,0,0.1c0,0,0,0,0,0c0,0,0-0.1,0-0.1c0-0.2,0-0.5,0-0.7
			c0,0,0,0,0-0.1c-0.1,0.1-0.2,0.2-0.2,0.3c0,0.1,0,0.1,0,0.2c0,0,0,0.1,0,0.1c0,0,0,0,0-0.1c0,0,0-0.1,0-0.1c0,0-0.1,0.1-0.1,0.1
			c-0.1,0-0.2,0-0.3-0.1c-0.2-0.1-0.3-0.2-0.4-0.3C284-725.3,283.9-725.4,283.8-725.6C283.9-725.5,283.9-725.5,283.8-725.6z"/>
		<path fill="#1DADA5" d="M286.3-726.8c0.2,0.1,0.4,0.2,0.5,0.4c0.2,0.2,0.3,0.4,0.4,0.7c0,0,0,0,0,0.1c0,0,0,0.1,0,0.1
			c0,0.2-0.1,0.3-0.1,0.5c-0.1,0.2-0.2,0.4-0.3,0.5c-0.1,0.1-0.1,0.2-0.2,0.2c0,0,0,0,0,0.1c0,0,0,0,0,0c0-0.1,0-0.1,0-0.2
			c0-0.2,0-0.3-0.1-0.4c0,0-0.1-0.1-0.1-0.2c0-0.1,0.1-0.2,0.2-0.3c0.1-0.2,0.1-0.3,0.1-0.5c0-0.1,0-0.1,0-0.2c0,0,0-0.1,0-0.1
			c0,0,0-0.1,0-0.1c0-0.2-0.1-0.3-0.2-0.4C286.3-726.8,286.3-726.8,286.3-726.8C286.2-726.8,286.2-726.8,286.3-726.8z"/>
		<path fill="#1DADA5" d="M285.5-724.6C285.5-724.6,285.5-724.6,285.5-724.6C285.6-724.7,285.5-724.6,285.5-724.6
			c0.1,0,0.1,0.1,0.2,0.1c0,0.1,0.1,0.1,0.1,0.2c0,0,0,0,0,0c0-0.1,0-0.1,0-0.2c0.1,0,0,0.1,0,0.1c0,0.1,0,0.1,0,0.2
			c0.1,0,0.1,0,0.2,0c0,0,0-0.1,0-0.1c0-0.2,0-0.3,0-0.5c0,0,0-0.1,0-0.1c0,0,0,0.1,0,0.1c0,0.2,0,0.3,0,0.5c0,0,0,0.1,0,0.1
			c0,0,0.1,0,0.1,0c0,0,0,0,0.1,0c0,0,0,0.1,0,0.1c-0.1,0.1-0.3,0.2-0.5,0.3c-0.2,0.1-0.5,0.2-0.8,0.2c0,0-0.1,0-0.1,0
			c-0.4-0.1-0.7-0.3-0.9-0.6c0,0,0,0,0,0l0,0c0,0,0,0,0,0c0,0,0,0,0,0c0,0,0,0,0,0l0,0c0,0,0,0,0,0c0,0,0,0,0,0c0,0,0,0,0,0
			c0,0,0,0,0,0c0,0,0,0,0,0c0,0,0,0,0,0c0,0,0.1,0,0.1,0c0.1,0.1,0.2,0.1,0.4,0.1c0,0,0.1,0,0.1,0c0.1,0,0.1,0,0.2,0
			c0-0.1,0-0.2,0-0.3c0,0,0.1,0,0.1,0c0,0,0,0.1,0,0.1c0,0,0,0.1,0,0.1c0.1,0,0.1,0,0.2,0c0,0,0.1,0,0.1,0
			C285.3-724.4,285.4-724.4,285.5-724.6C285.5-724.6,285.5-724.6,285.5-724.6z"/>
		<path fill="#1DADA5" d="M285-723.6C285-723.6,285-723.6,285-723.6c0.1-0.1,0.1-0.1,0.2-0.1c0.1,0,0.2,0,0.4-0.1
			c0.2,0,0.3-0.1,0.5-0.2c0.1-0.1,0.2-0.1,0.3-0.2c0,0,0,0,0,0c0,0,0.1,0,0.1,0c0,0,0,0,0-0.1c0.2-0.1,0.3-0.3,0.4-0.5
			c0.1-0.1,0.1-0.2,0.1-0.3c0,0,0-0.1,0-0.2c0-0.1,0.1-0.3,0.1-0.4c0,0,0-0.1,0-0.1l0,0c0,0,0,0,0,0c0,0,0,0,0,0c0,0,0,0,0,0
			c0,0,0,0,0,0c0,0,0,0,0,0c0,0,0,0,0,0c0,0,0,0,0,0.1c0,0,0,0.1,0,0.1c0,0.1,0,0.2,0,0.2c0,0.4-0.1,0.7-0.4,0.9
			c-0.4,0.5-0.9,0.7-1.5,0.7c0,0,0,0-0.1,0c0,0,0,0-0.1,0c0,0,0,0,0,0c0,0,0,0,0,0c0,0,0,0,0,0C285.2-723.6,285.1-723.6,285-723.6
			C285.1-723.6,285.1-723.6,285-723.6C285.1-723.6,285.1-723.6,285-723.6C285.1-723.6,285.1-723.6,285-723.6
			C285.1-723.6,285-723.6,285-723.6z"/>
		<path fill="#1DADA5" d="M286.2-724.2C286.2-724.3,286.2-724.3,286.2-724.2c0-0.3,0-0.4,0-0.6c0,0,0,0,0-0.1c0,0,0,0.1,0,0.1
			C286.2-724.7,286.2-724.5,286.2-724.2C286.2-724.3,286.2-724.2,286.2-724.2C286.1-724.3,286.1-724.3,286.2-724.2
			c-0.1-0.3-0.1-0.5-0.1-0.7c0-0.1,0-0.2-0.1-0.2c0,0,0-0.1-0.1-0.1c0,0,0,0,0,0c0,0,0,0,0,0c0,0,0,0,0,0c0,0,0,0,0,0c0,0,0,0,0,0
			c0,0,0,0,0,0c0,0-0.1-0.1,0-0.1c0,0,0,0,0,0c0,0,0,0,0,0c0,0,0,0,0,0c0,0,0,0,0,0c0,0,0,0,0,0c0,0,0,0,0,0c0,0,0,0,0,0
			c0,0,0,0,0,0c0,0,0,0,0,0c0,0,0,0,0,0c0,0,0,0,0,0c0,0,0,0,0,0c0,0,0-0.1,0-0.1c0-0.2,0-0.5,0-0.7c0,0,0,0,0-0.1
			c-0.1,0-0.2,0-0.2,0c0,0,0,0-0.1,0c-0.1-0.2-0.2-0.3-0.3-0.4c0,0-0.1,0-0.1-0.1c0,0-0.1,0-0.1,0c0,0-0.1,0-0.1,0c0,0,0,0,0-0.1
			c0,0,0,0,0,0c0,0,0,0,0,0c0,0,0,0,0,0c0,0,0,0,0,0c0,0,0,0,0.1,0c0,0,0,0,0,0c0,0,0.1,0,0.1,0c0,0,0,0,0,0c0,0,0,0,0,0
			c0,0,0,0,0,0c0.3,0,0.6,0,0.8,0.2c0,0,0,0,0,0.1c0.1,0.1,0.1,0.3,0.2,0.4c0,0,0,0,0,0.1c0,0-0.1,0-0.1,0c0,0-0.1,0-0.1,0
			c0,0.2,0,0.5,0,0.7c0.1-0.1,0.1-0.2,0.2-0.2c0,0,0.1-0.1,0.1-0.2c0-0.1,0-0.1,0-0.2c0,0,0,0.1,0,0.1c0,0.1,0,0.3,0,0.4
			c0,0.1,0,0.2-0.1,0.3c-0.1,0.1-0.1,0.2-0.2,0.3C286.2-724.8,286.2-724.5,286.2-724.2C286.2-724.3,286.2-724.3,286.2-724.2z"/>
		<path fill="#1DADA5" d="M291.4-724.6c-0.1,0-0.2,0-0.2,0c-0.1-0.2-0.3-0.5-0.4-0.7c-0.1,0.2-0.3,0.5-0.4,0.7c-0.1,0-0.1,0-0.2,0
			c0.2-0.3,0.4-0.6,0.5-0.9c-0.2-0.3-0.3-0.5-0.5-0.8c0.1,0,0.2,0,0.2,0c0.1,0.2,0.2,0.4,0.4,0.6c0.1-0.2,0.2-0.4,0.4-0.6
			c0.1,0,0.1,0,0.2,0c-0.2,0.3-0.3,0.5-0.5,0.8C291-725.2,291.2-724.9,291.4-724.6z"/>
		<path fill="#1DADA5" d="M289-724.6c0-0.1,0-0.1,0-0.2c0.1,0,0.1,0.1,0.2,0.1c0.1,0,0.2,0.1,0.4,0c0.1,0,0.2-0.1,0.2-0.2
			c0-0.1,0-0.2-0.1-0.3c-0.1-0.1-0.2-0.1-0.3-0.2c-0.1,0-0.2-0.1-0.2-0.1c-0.2-0.1-0.2-0.3-0.2-0.5c0-0.2,0.1-0.3,0.3-0.3
			c0.1,0,0.3,0,0.4,0c0.1,0,0.1,0,0.2,0c0,0.1,0,0.1,0,0.2c-0.1,0-0.2-0.1-0.3-0.1c-0.1,0-0.1,0-0.2,0c-0.2,0.1-0.3,0.3-0.1,0.4
			c0.1,0.1,0.2,0.1,0.3,0.2c0.1,0.1,0.2,0.1,0.3,0.2c0.2,0.1,0.2,0.3,0.2,0.4c0,0.2-0.1,0.3-0.3,0.4c-0.2,0.1-0.3,0.1-0.5,0
			C289.1-724.6,289.1-724.6,289-724.6z"/>
		<path fill="#1DADA5" d="M284.6-724.2c0,0-0.1,0-0.1,0c-0.1,0-0.2-0.1-0.3-0.1c-0.1,0-0.1,0-0.2,0c-0.1-0.1-0.2-0.3-0.2-0.5
			c0-0.1,0-0.2,0-0.4c0,0,0-0.1,0-0.1c0,0,0-0.1,0-0.1c0,0,0,0,0,0c0,0,0,0,0,0c0,0,0,0,0,0c0,0,0,0,0,0.1c0,0.1,0.1,0.2,0.2,0.3
			c0.2,0.2,0.3,0.3,0.6,0.3c0,0,0,0,0,0c0,0,0,0,0,0c0,0,0,0,0,0c0,0,0,0,0,0c0,0,0,0,0,0c0,0.1-0.1,0.1-0.1,0.2
			C284.6-724.5,284.6-724.4,284.6-724.2C284.6-724.3,284.6-724.2,284.6-724.2z"/>
		<path fill="#0069A5" d="M287.3-725.2c0-0.1,0-0.2,0-0.2C287.3-725.3,287.3-725.2,287.3-725.2z"/>
		<path fill="#018ECE" d="M283.8-725.4c0,0,0,0.1,0,0.1C283.8-725.3,283.8-725.3,283.8-725.4z"/>
		<path fill="#0069A5" d="M285.3-723.6C285.3-723.6,285.4-723.6,285.3-723.6C285.4-723.5,285.3-723.5,285.3-723.6z"/>
		<path fill="#0069A5" d="M287.3-725.5C287.2-725.5,287.3-725.5,287.3-725.5C287.3-725.5,287.3-725.5,287.3-725.5z"/>
		<path fill="#018ECE" d="M285.4-727C285.4-727,285.4-727,285.4-727C285.4-727,285.4-727,285.4-727z"/>
		<path fill="#0069A5" d="M285.2-723.6C285.2-723.6,285.3-723.6,285.2-723.6C285.3-723.6,285.2-723.6,285.2-723.6z"/>
		<path fill="#018ECE" d="M283.8-725.5C283.8-725.5,283.8-725.5,283.8-725.5C283.8-725.5,283.8-725.5,283.8-725.5z"/>
		<path fill="#0069A5" d="M287.2-725.6C287.2-725.6,287.2-725.6,287.2-725.6C287.2-725.6,287.2-725.6,287.2-725.6z"/>
		<path fill="#0069A5" d="M285.2-723.6C285.2-723.6,285.2-723.6,285.2-723.6C285.2-723.6,285.2-723.6,285.2-723.6z"/>
		<path fill="#0069A5" d="M285.1-723.6C285.1-723.6,285.1-723.6,285.1-723.6C285.1-723.6,285.1-723.6,285.1-723.6z"/>
		<path fill="#018ECE" d="M285.3-727C285.3-727,285.3-727,285.3-727C285.3-727,285.3-727,285.3-727z"/>
		<path fill="#018ECE" d="M285.2-727C285.2-727,285.2-727,285.2-727C285.2-727,285.2-727,285.2-727z"/>
		<path fill="#0069A5" d="M285.1-723.6C285.1-723.6,285.1-723.6,285.1-723.6C285.1-723.6,285.1-723.6,285.1-723.6z"/>
		<path fill="#0179B7" d="M284.1-724.3C284.1-724.3,284.1-724.3,284.1-724.3C284.1-724.3,284.1-724.3,284.1-724.3z"/>
		<path fill="#0179B7" d="M284.1-724.3C284.1-724.3,284.1-724.3,284.1-724.3C284.1-724.3,284.1-724.3,284.1-724.3z"/>
		<path fill="#0179B7" d="M284.1-724.3C284.1-724.3,284.1-724.3,284.1-724.3C284.1-724.3,284.1-724.3,284.1-724.3z"/>
		<path fill="#0179B7" d="M284.1-724.3C284.1-724.3,284.1-724.3,284.1-724.3C284.1-724.3,284.1-724.3,284.1-724.3z"/>
		<path fill="#0179B7" d="M284.1-724.4C284.1-724.4,284.1-724.3,284.1-724.4C284.1-724.3,284.1-724.4,284.1-724.4z"/>
		<path fill="#0179B7" d="M284-724.4C284.1-724.4,284.1-724.4,284-724.4C284.1-724.4,284.1-724.4,284-724.4z"/>
		<path fill="#018ECE" d="M285.5-727C285.4-727,285.4-727,285.5-727C285.4-727,285.4-727,285.5-727z"/>
		<path fill="#018ECE" d="M285.1-727C285.1-727,285.1-726.9,285.1-727C285.1-726.9,285.1-727,285.1-727z"/>
		<path fill="#0069A5" d="M287.2-725.7C287.2-725.7,287.2-725.7,287.2-725.7C287.2-725.7,287.2-725.7,287.2-725.7z"/>
		<path fill="#0069A5" d="M287.2-725.6C287.2-725.7,287.2-725.7,287.2-725.6C287.2-725.7,287.2-725.7,287.2-725.6z"/>
		<path fill="#FEFEFE" d="M285.5-724.6c-0.1,0.1-0.2,0.2-0.3,0.4c0,0,0,0,0-0.1c0-0.1,0-0.2,0-0.3c0-0.3,0-0.6,0-0.9
			c0,0,0-0.1,0-0.1c0.1-0.1,0.1-0.2,0.2-0.3C285.5-725.5,285.5-725,285.5-724.6z"/>
		<path fill="#FEFEFE" d="M285.8-724.2c-0.1-0.1-0.2-0.2-0.3-0.4c0-0.4,0-0.8,0-1.2c0,0,0,0,0-0.1c0.1,0.1,0.2,0.2,0.2,0.3
			c0,0,0,0.1,0,0.1c0,0.3,0,0.5,0,0.8c0,0,0,0.1,0,0.1C285.8-724.5,285.8-724.4,285.8-724.2C285.8-724.3,285.8-724.2,285.8-724.2z"
			/>
		<path fill="#FEFEFE" d="M285.2-724.2c-0.1,0-0.1,0-0.2,0c0,0,0,0-0.1,0c0,0,0,0,0,0c0-0.2,0-0.3,0-0.5c0-0.1,0-0.2,0-0.3
			c0.1-0.1,0.2-0.2,0.3-0.4c0,0,0,0,0,0c0,0.3,0,0.6,0,0.9C285.2-724.4,285.2-724.3,285.2-724.2z"/>
		<path fill="#FEFEFE" d="M285.9-725.5C285.9-725.4,285.9-725.4,285.9-725.5C285.9-725.4,285.9-725.4,285.9-725.5
			C285.9-725.4,285.9-725.4,285.9-725.5C285.9-725.4,285.9-725.4,285.9-725.5c0.1,0.1,0.1,0.1,0.1,0.1c0,0,0,0,0,0
			c0,0.1,0.1,0.1,0.1,0.2c0,0,0,0,0,0.1c0,0.3,0,0.5,0,0.8c0,0,0,0,0,0c-0.1,0-0.1,0-0.2,0c0,0,0,0-0.1,0c0-0.2,0-0.3,0-0.5
			c0,0,0,0,0-0.1C285.9-725,285.9-725.2,285.9-725.5C285.9-725.4,285.9-725.4,285.9-725.5z"/>
		<path fill="#FEFEFE" d="M284.9-726.3c0.1,0,0.2,0,0.3,0c0,0.3,0,0.5,0,0.8c-0.1,0.1-0.1,0.2-0.2,0.2c0,0-0.1-0.1-0.1-0.1
			c0-0.2,0-0.4,0-0.6C284.9-726.1,284.9-726.2,284.9-726.3z"/>
		<path fill="#FEFEFE" d="M286-725.3C286-725.3,286-725.3,286-725.3C286-725.4,286-725.4,286-725.3C286-725.4,286-725.4,286-725.3
			C286-725.4,286-725.4,286-725.3c-0.1-0.1-0.1-0.1-0.1-0.1c0,0,0,0,0,0c0,0,0,0,0,0c0,0,0,0,0,0l0,0c0,0,0,0,0,0c0,0,0,0,0,0
			c0-0.2,0-0.4,0-0.7c0,0,0-0.1,0-0.1c0.1,0,0.2,0,0.2,0c0,0,0,0.1,0,0.1c0,0.2,0,0.5,0,0.7C286.2-725.4,286.1-725.4,286-725.3
			C286.1-725.3,286.1-725.3,286-725.3z"/>
		<path fill="#FEFEFE" d="M284.9-725.7c0,0.1,0,0.2,0,0.3c0,0,0,0,0,0c-0.1-0.1-0.2-0.2-0.3-0.3c0-0.2,0-0.3,0-0.5
			c0.1,0,0.2,0,0.3,0c0,0,0,0.1,0,0.1c0,0,0,0,0,0.1C284.9-726,284.9-725.9,284.9-725.7C284.9-725.8,284.9-725.8,284.9-725.7z"/>
		<path fill="#FEFEFE" d="M284.6-724.2c0-0.1,0-0.3,0-0.4c0,0,0-0.1,0.1-0.1c0,0,0,0,0,0c0,0,0,0,0,0c0,0,0,0,0,0c0,0,0,0,0,0
			c0,0,0.1-0.1,0.1-0.1c0,0,0,0,0,0c0,0.1,0,0.1,0,0.2c0,0.1,0,0.2,0,0.3c0,0.1,0,0.2,0,0.3C284.8-724.2,284.7-724.2,284.6-724.2z"
			/>
		<path fill="#FDFDFE" d="M285.8-725.6c-0.1-0.1-0.2-0.2-0.2-0.3c0.1-0.1,0.2-0.2,0.2-0.3C285.8-726.1,285.8-725.9,285.8-725.6z"/>
		<path fill="#FDFDFD" d="M285.3-726.3c0.1,0.1,0.2,0.2,0.2,0.3c-0.1,0.1-0.2,0.2-0.2,0.3C285.2-725.9,285.2-726.1,285.3-726.3
			C285.2-726.3,285.3-726.3,285.3-726.3z"/>
		<path fill="#1DADA5" d="M285.9-724.8c0,0.2,0,0.4,0,0.5c0,0,0-0.1,0-0.1c0,0,0-0.1,0-0.1c0,0,0,0,0,0c0,0.1,0,0.1,0,0.2
			c0,0,0,0,0,0.1C285.8-724.4,285.8-724.5,285.9-724.8C285.8-724.7,285.8-724.7,285.9-724.8c0-0.1,0-0.2,0-0.3c0,0,0,0,0-0.1
			c0,0.1,0,0.1,0,0.2C285.9-724.9,285.9-724.8,285.9-724.8z"/>
		<path fill="#1DADA5" d="M284.9-725.7c0-0.1,0-0.3,0-0.4c0,0,0,0,0,0c0,0,0-0.1,0-0.1c0,0.2,0,0.5,0,0.7c0,0.1,0,0.1,0,0.2
			c0-0.1,0-0.1,0-0.2C284.9-725.7,284.9-725.7,284.9-725.7C284.9-725.7,284.9-725.7,284.9-725.7z"/>
		<path fill="#1DADA5" d="M284.9-724.5c0-0.1,0-0.2,0-0.3c0,0,0,0,0,0c0-0.1,0-0.2,0-0.3c0,0.3,0,0.5,0,0.8c0,0,0,0.1,0,0.1
			c0,0,0,0,0-0.1C284.9-724.4,284.9-724.4,284.9-724.5C284.9-724.5,284.9-724.5,284.9-724.5z"/>
		<path fill="#1DADA5" d="M285.2-724.2c0-0.1,0-0.2,0-0.3c0,0,0-0.1,0-0.1c0,0,0-0.1,0-0.1c0,0.1,0,0.1,0,0.2
			C285.2-724.5,285.2-724.4,285.2-724.2C285.2-724.2,285.2-724.3,285.2-724.2z"/>
		<path fill="#FEFEFE" d="M286.5-726.1c0,0.1,0,0.2,0,0.3c-0.1,0.1-0.2,0.2-0.3,0.4c0-0.3,0-0.5,0-0.8c0.1,0,0.2,0,0.3,0
			C286.5-726.2,286.5-726.2,286.5-726.1z"/>
		<path fill="#FEFEFE" d="M286.2-724.2c0-0.2,0-0.5,0-0.7c0,0,0-0.1,0-0.1c0.1,0.1,0.1,0.2,0.2,0.3c0,0,0,0.1,0,0.1
			c0,0.1,0,0.2,0,0.4c0,0-0.1,0-0.1,0C286.3-724.2,286.3-724.2,286.2-724.2z"/>
		<path fill="#018ECE" d="M285.9-725.5C285.9-725.5,285.9-725.5,285.9-725.5C285.9-725.5,285.9-725.5,285.9-725.5z"/>
		<path fill="#018ECE" d="M285.9-725.5C285.9-725.5,285.9-725.5,285.9-725.5C285.9-725.5,285.9-725.5,285.9-725.5z"/>
		<path fill="#018ECE" d="M285.9-725.4C285.9-725.4,285.9-725.4,285.9-725.4C285.9-725.4,285.9-725.4,285.9-725.4z"/>
		<path fill="#018ECE" d="M286-725.4C286-725.4,286-725.4,286-725.4C286-725.4,286-725.4,286-725.4z"/>
		<path fill="#018ECE" d="M285.9-725.5C285.9-725.5,285.9-725.5,285.9-725.5C285.9-725.5,285.9-725.5,285.9-725.5z"/>
		<path fill="#018ECE" d="M286-725.4C285.9-725.4,285.9-725.4,286-725.4C285.9-725.4,285.9-725.4,286-725.4z"/>
		<path fill="#018ECE" d="M286-725.4C286-725.4,286-725.4,286-725.4C286-725.4,286-725.4,286-725.4z"/>
		<path fill="#018ECE" d="M286-725.3C286.1-725.3,286.1-725.3,286-725.3C286.1-725.3,286.1-725.3,286-725.3z"/>
		<path fill="#018ECE" d="M286-725.3C286-725.3,286-725.3,286-725.3C286-725.3,286-725.3,286-725.3z"/>
		<path fill="#1DADA5" d="M288.3-726.4c-0.1,0-0.2,0-0.2,0c-0.2,0.7-0.4,1.2-0.6,1.8c0.1,0,0.1,0,0.2,0c0.1-0.2,0.1-0.3,0.2-0.6
			c0.2,0,0.4,0,0.6,0c0.1,0.2,0.1,0.5,0.2,0.7c0.1,0,0.1,0,0.2,0C288.6-725.2,288.5-725.7,288.3-726.4z M287.9-725.4
			c0.1,0,0.2-0.4,0.2-0.7c0,0,0,0,0,0c0.1,0.3,0.2,0.7,0.2,0.7C288.2-725.4,288.1-725.4,287.9-725.4z"/>
		<path fill="#018ECE" d="M284.7-724.8C284.7-724.8,284.7-724.8,284.7-724.8C284.7-724.8,284.7-724.8,284.7-724.8z"/>
		<path fill="#018ECE" d="M284.7-724.8C284.7-724.8,284.7-724.8,284.7-724.8C284.7-724.8,284.7-724.8,284.7-724.8z"/>
	</g>
</g>
<g id="XFOvHq.tif">
	<g>
		<circle fill="#1DADA5" cx="315.2" cy="-682.3" r="5.4"/>
		<path fill="#1DADA5" d="M315.2-678.3C315.2-678.3,315.2-678.3,315.2-678.3c0.5,0,0.9,0,1.4-0.1c0.4,0,0.7,0,1.1-0.1
			c0.5-0.1,0.6-0.1,0.7-0.7c0.1-0.6,0.1-1.3,0.1-1.9c0-0.3-0.1-0.6-0.1-0.9c0-0.3-0.2-0.5-0.5-0.5c-0.3,0-0.5-0.1-0.8-0.1
			c-1.2-0.1-2.4-0.1-3.6,0c-0.3,0-0.5,0.1-0.8,0.1c-0.3,0-0.5,0.2-0.5,0.5c0,0.2-0.1,0.4-0.1,0.7c-0.1,0.8-0.1,1.6,0.1,2.3
			c0.1,0.3,0.2,0.5,0.6,0.6c0.1,0,0.1,0,0.2,0C313.6-678.4,314.4-678.3,315.2-678.3z M313.9-683.5c0-0.1,0-0.2,0-0.3
			c-0.1-0.7,0.1-1.3,0.3-1.9c0.1-0.2,0.2-0.5,0.2-0.7c-0.2,0-0.3,0-0.5,0c-0.1,0.4-0.2,0.7-0.3,1.1c0,0,0,0,0,0
			c-0.1-0.4-0.2-0.7-0.3-1.1c-0.2,0-0.3,0-0.5,0c0.2,0.5,0.3,1,0.5,1.4c0.1,0.2,0.1,0.4,0.1,0.7c0,0.3,0,0.5,0,0.8
			C313.5-683.5,313.7-683.5,313.9-683.5z M314.5-684.6C314.5-684.6,314.5-684.6,314.5-684.6c0,0.2,0,0.4,0,0.6
			c0,0.3,0.2,0.5,0.5,0.5c0.4,0.1,0.8-0.1,0.8-0.6c0-0.3,0-0.7,0-1c0-0.5-0.4-0.7-0.8-0.6c-0.3,0.1-0.5,0.2-0.5,0.5
			C314.5-685,314.5-684.8,314.5-684.6z M317.3-685.7c-0.1,0-0.3,0-0.4,0c0,0.1,0,0.2,0,0.3c0,0.4,0,0.8,0,1.2c0,0.2-0.1,0.3-0.4,0.3
			c0-0.6,0-1.2,0-1.7c-0.2,0-0.3,0-0.4,0c0,0.6,0,1.2,0,1.8c0,0,0,0.1,0,0.1c0,0.2,0.1,0.2,0.3,0.2c0.2,0,0.3-0.1,0.4-0.2
			c0,0,0,0,0.1,0c0,0.1,0,0.1,0,0.2c0.1,0,0.3,0,0.4,0C317.3-684.2,317.3-684.9,317.3-685.7z"/>
		<path fill="#FEFDFD" d="M315.2-678.3c-0.8-0.1-1.6-0.1-2.3-0.2c-0.1,0-0.1,0-0.2,0c-0.3,0-0.5-0.3-0.6-0.6
			c-0.2-0.8-0.2-1.5-0.1-2.3c0-0.2,0.1-0.4,0.1-0.7c0.1-0.3,0.2-0.5,0.5-0.5c0.3,0,0.5-0.1,0.8-0.1c1.2-0.1,2.4-0.1,3.6,0
			c0.3,0,0.5,0.1,0.8,0.1c0.3,0,0.5,0.2,0.5,0.5c0,0.3,0.1,0.6,0.1,0.9c0,0.7,0,1.3-0.1,1.9c-0.1,0.6-0.2,0.6-0.7,0.7
			c-0.3,0.1-0.7,0.1-1.1,0.1C316.1-678.3,315.7-678.3,315.2-678.3C315.2-678.3,315.2-678.3,315.2-678.3z M315.5-681.8
			c0,0.9,0,1.7,0,2.6c0.2,0,0.3,0,0.5-0.1c0,0,0.1,0.1,0.2,0.1c0.2,0,0.4-0.1,0.4-0.3c0,0,0-0.1,0-0.1c0-0.3,0-0.7,0-1
			c0-0.5-0.2-0.6-0.6-0.4c0,0,0,0-0.1,0c0-0.2,0-0.5,0-0.7C315.7-681.8,315.6-681.8,315.5-681.8z M317.9-680.1c0-0.2,0-0.4,0-0.6
			c0-0.3-0.2-0.5-0.5-0.5c-0.3,0-0.6,0.1-0.6,0.4c0,0.4,0,0.8,0,1.2c0,0.2,0.2,0.3,0.4,0.4c0.4,0.1,0.7-0.2,0.7-0.7
			c-0.1,0-0.2,0-0.4,0c0,0.1,0,0.1,0,0.2c0,0.1,0,0.2-0.2,0.2c-0.1,0-0.1-0.1-0.2-0.2c0-0.1,0-0.3,0-0.4
			C317.4-680.1,317.6-680.1,317.9-680.1z M313.4-679.2c0-0.8,0-1.5,0-2.2c0.2,0,0.3,0,0.4,0c0-0.1,0-0.2,0-0.3c-0.4,0-0.9,0-1.3,0
			c0,0.1,0,0.2,0,0.4c0.1,0,0.3,0,0.4,0c0,0.3,0,0.5,0,0.8c0,0.2,0,0.5,0,0.7c0,0.2,0,0.5,0,0.7
			C313.2-679.2,313.3-679.2,313.4-679.2z M314.7-679.4c0,0.1,0,0.1,0.1,0.1c0.1,0,0.2,0,0.3,0c0-0.7,0-1.3,0-1.9c-0.1,0-0.2,0-0.4,0
			c0,0.1,0,0.2,0,0.3c0,0.3,0,0.7,0,1c0,0.2,0,0.2-0.3,0.3c-0.1-0.5,0-1.1,0-1.6c-0.1,0-0.2,0-0.4,0c0,0.4,0,0.7,0,1.1
			c0,0.2,0,0.4,0,0.6c0,0.2,0.2,0.3,0.4,0.3C314.5-679.2,314.6-679.3,314.7-679.4z"/>
		<path fill="#FEFDFD" d="M313.9-683.5c-0.2,0-0.3,0-0.5,0c0-0.3,0-0.5,0-0.8c0-0.2,0-0.5-0.1-0.7c-0.2-0.5-0.3-0.9-0.5-1.4
			c0.2,0,0.3,0,0.5,0c0.1,0.4,0.2,0.8,0.3,1.1c0,0,0,0,0,0c0.1-0.4,0.2-0.7,0.3-1.1c0.2,0,0.3,0,0.5,0c-0.1,0.3-0.1,0.5-0.2,0.7
			c-0.2,0.6-0.4,1.2-0.3,1.9C313.9-683.7,313.9-683.6,313.9-683.5z"/>
		<path fill="#FEFDFD" d="M314.5-684.6c0-0.2,0-0.4,0-0.5c0-0.3,0.2-0.5,0.5-0.5c0.4-0.1,0.8,0.1,0.8,0.6c0,0.3,0,0.7,0,1
			c0,0.5-0.3,0.7-0.8,0.6c-0.3-0.1-0.4-0.3-0.5-0.5C314.5-684.2,314.5-684.4,314.5-684.6C314.5-684.6,314.5-684.6,314.5-684.6z
			 M315.3-684.6c0-0.2,0-0.4,0-0.5c0-0.1-0.1-0.2-0.2-0.2c-0.1,0-0.2,0.1-0.2,0.2c0,0.4,0,0.7,0,1.1c0,0.2,0.1,0.2,0.2,0.2
			c0.1,0,0.2-0.1,0.2-0.2C315.3-684.2,315.3-684.4,315.3-684.6z"/>
		<path fill="#FEFDFD" d="M317.3-685.7c0,0.7,0,1.4,0,2.1c-0.1,0-0.3,0-0.4,0c0-0.1,0-0.1,0-0.2c0,0-0.1,0-0.1,0
			c-0.1,0.1-0.2,0.2-0.4,0.2c-0.2,0-0.3-0.1-0.3-0.2c0,0,0-0.1,0-0.1c0-0.6,0-1.2,0-1.8c0.1,0,0.3,0,0.4,0c0,0.6,0,1.2,0,1.7
			c0.3,0,0.4,0,0.4-0.3c0-0.4,0-0.8,0-1.2c0-0.1,0-0.2,0-0.3C317-685.7,317.1-685.7,317.3-685.7z"/>
		<path fill="#1DADA5" d="M315.5-681.8c0.1,0,0.2,0,0.4,0c0,0.3,0,0.5,0,0.7c0,0,0.1,0,0.1,0c0.4-0.2,0.6,0,0.6,0.4c0,0.3,0,0.7,0,1
			c0,0,0,0.1,0,0.1c0,0.2-0.2,0.3-0.4,0.3c-0.1,0-0.1-0.1-0.2-0.1c-0.2,0-0.3,0-0.5,0.1C315.5-680.1,315.5-680.9,315.5-681.8z
			 M316.1-680.2C316.1-680.2,316.1-680.2,316.1-680.2c0-0.2,0-0.4,0-0.5c0-0.1-0.1-0.2-0.2-0.2c-0.1,0-0.1,0.1-0.1,0.1
			c0,0.4,0,0.7,0,1.1c0,0.1,0.1,0.2,0.2,0.2c0.1,0,0.2-0.1,0.2-0.2C316.1-679.8,316.1-680,316.1-680.2z"/>
		<path fill="#1DADA5" d="M317.9-680.1c-0.3,0-0.5,0-0.7,0c0,0.2,0,0.3,0,0.4c0,0.1,0,0.2,0.2,0.2c0.1,0,0.2-0.1,0.2-0.2
			c0,0,0-0.1,0-0.2c0.1,0,0.2,0,0.4,0c0.1,0.5-0.2,0.8-0.7,0.7c-0.2-0.1-0.4-0.2-0.4-0.4c0-0.4,0-0.8,0-1.2c0-0.3,0.3-0.5,0.6-0.4
			c0.3,0,0.5,0.2,0.5,0.5C317.9-680.5,317.9-680.3,317.9-680.1z M317.5-680.4c0-0.1,0-0.2,0-0.3c0-0.1-0.1-0.2-0.2-0.2
			c-0.1,0-0.1,0.1-0.2,0.1c0,0.1,0,0.2,0,0.3C317.2-680.5,317.3-680.4,317.5-680.4z"/>
		<path fill="#1DADA5" d="M313.4-679.2c-0.2,0-0.3,0-0.4,0c0-0.2,0-0.5,0-0.7c0-0.2,0-0.5,0-0.7c0-0.2,0-0.5,0-0.8
			c-0.2,0-0.3,0-0.4,0c0-0.1,0-0.2,0-0.4c0.4,0,0.8,0,1.3,0c0,0.1,0,0.2,0,0.3c-0.1,0-0.3,0-0.4,0
			C313.4-680.7,313.4-680,313.4-679.2z"/>
		<path fill="#1DADA5" d="M314.7-679.4c-0.1,0.1-0.2,0.1-0.3,0.2c-0.2,0.1-0.4,0-0.4-0.3c0-0.2,0-0.4,0-0.6c0-0.4,0-0.7,0-1.1
			c0.1,0,0.2,0,0.4,0c0,0.5,0,1.1,0,1.6c0.3,0,0.3-0.1,0.3-0.3c0-0.3,0-0.7,0-1c0-0.1,0-0.2,0-0.3c0.1,0,0.3,0,0.4,0
			c0,0.6,0,1.3,0,1.9c-0.1,0-0.2,0-0.3,0C314.8-679.3,314.8-679.3,314.7-679.4z"/>
		<path fill="#1DADA5" d="M315.3-684.6c0,0.2,0,0.4,0,0.5c0,0.1-0.1,0.2-0.2,0.2c-0.1,0-0.2,0-0.2-0.2c0-0.4,0-0.7,0-1.1
			c0-0.2,0.1-0.2,0.2-0.2c0.1,0,0.2,0.1,0.2,0.2C315.3-685,315.3-684.8,315.3-684.6z"/>
		<path fill="#FEFDFD" d="M316.1-680.2c0,0.2,0,0.3,0,0.5c0,0.1,0,0.2-0.2,0.2c-0.1,0-0.2-0.1-0.2-0.2c0-0.4,0-0.7,0-1.1
			c0-0.1,0-0.1,0.1-0.1c0.1,0,0.2,0.1,0.2,0.2C316.1-680.5,316.1-680.3,316.1-680.2C316.1-680.2,316.1-680.2,316.1-680.2z"/>
		<path fill="#FEFDFD" d="M317.5-680.4c-0.1,0-0.2,0-0.3,0c0-0.1,0-0.2,0-0.3c0-0.1,0.1-0.1,0.2-0.1c0.1,0,0.2,0.1,0.2,0.2
			C317.5-680.6,317.5-680.5,317.5-680.4z"/>
	</g>
</g>
<g id="qo8JK3.tif">
</g>
<g>
	<circle fill="#1DADA5" cx="129" cy="129" r="129"/>
	<g id="mT5kdH.tif">
		
			<image overflow="visible" width="172" height="140" id="Layer_0" xlink:href="68079FE271EA1B4A.png"  transform="matrix(1 0 0 1 47 66)">
		</image>
	</g>
</g>
</svg>
