<?xml version="1.0" encoding="utf-8"?>
<!-- Generator: Adobe Illustrator 18.1.1, SVG Export Plug-In . SVG Version: 6.00 Build 0)  -->
<!DOCTYPE svg PUBLIC "-//W3C//DTD SVG 1.1//EN" "http://www.w3.org/Graphics/SVG/1.1/DTD/svg11.dtd">
<svg version="1.1" id="Layer_1" xmlns="http://www.w3.org/2000/svg" xmlns:xlink="http://www.w3.org/1999/xlink" x="0px" y="0px"
	 viewBox="266.3 52.5 56.7 56" enable-background="new 266.3 52.5 56.7 56" xml:space="preserve">
<path id="video-play-3-icon" fill="#A11D29" d="M294.6,58c6.1,0,11.9,2.3,16.2,6.6c4.3,4.2,6.7,9.9,6.7,15.9s-2.4,11.6-6.7,15.9
	c-4.3,4.3-10.1,6.6-16.2,6.6s-11.9-2.3-16.2-6.6c-4.3-4.2-6.7-9.9-6.7-15.9s2.4-11.6,6.7-15.9C282.7,60.4,288.5,58,294.6,58
	 M294.6,52.5c-15.7,0-28.3,12.5-28.3,28s12.7,28,28.3,28s28.3-12.5,28.3-28S310.3,52.5,294.6,52.5L294.6,52.5z M287.8,94.4V67.3
	l22.1,13.6L287.8,94.4z"/>
</svg>
