<?xml version="1.0" encoding="utf-8"?>
<!-- Generator: Adobe Illustrator 18.0.0, SVG Export Plug-In . SVG Version: 6.00 Build 0)  -->
<!DOCTYPE svg PUBLIC "-//W3C//DTD SVG 1.1//EN" "http://www.w3.org/Graphics/SVG/1.1/DTD/svg11.dtd">
<svg version="1.1" id="Layer_1" xmlns="http://www.w3.org/2000/svg" xmlns:xlink="http://www.w3.org/1999/xlink" x="0px" y="0px"
	 viewBox="246.6 52.5 566.9 560" enable-background="new 246.6 52.5 566.9 560" xml:space="preserve">
<path id="video-play-3-icon" fill="#0D8D8F" d="M530,107.5c61.1,0,118.6,23.5,161.8,66.2c42.9,42.4,66.6,98.8,66.6,158.8
	s-23.7,116.4-66.6,158.9c-43.2,42.7-100.6,66.2-161.8,66.2s-118.6-23.5-161.8-66.2c-42.9-42.5-66.6-98.9-66.6-158.9
	s23.7-116.4,66.6-158.9C411.4,131.1,468.9,107.5,530,107.5 M530,52.5c-156.6,0-283.4,125.3-283.4,280s126.9,280,283.4,280
	s283.4-125.3,283.4-280S686.6,52.5,530,52.5L530,52.5z M461.9,471.7V200.1l221.4,135.8L461.9,471.7z"/>
</svg>
