<?xml version="1.0" encoding="utf-8"?>
<!-- Generator: Adobe Illustrator 18.1.0, SVG Export Plug-In . SVG Version: 6.00 Build 0)  -->
<!DOCTYPE svg PUBLIC "-//W3C//DTD SVG 1.1//EN" "http://www.w3.org/Graphics/SVG/1.1/DTD/svg11.dtd">
<svg version="1.1" id="Layer_1" xmlns="http://www.w3.org/2000/svg" xmlns:xlink="http://www.w3.org/1999/xlink" x="0px" y="0px"
	 viewBox="0 0 188.7 188.7" enable-background="new 0 0 188.7 188.7" xml:space="preserve">
<g id="CYdu93_1_">
	<g>
		<path fill="#1DADA5" d="M261.9-479.7c0.9,71.8-59,131-130.6,131.3c-72,0.3-132.1-59-131.9-131.6C-0.3-552.3,59-611.1,131-611
			C203.7-611,262.9-550.8,261.9-479.7z"/>
		<path fill="#FDFDFD" d="M131.1-352.8C60.9-352.7,3.4-409.2,4-480.7c0.6-70.5,57.2-126,127.2-125.8C201.8-606.4,258-549,257.6-479
			C257.3-408.9,200.1-352.9,131.1-352.8z"/>
		<path fill="#1DADA5" d="M130.9-572.1c48.7-0.8,92.5,39.1,92.5,92.4c0,51-40.5,92.9-93.5,92.6c-52.6-0.3-91.9-44.2-91.8-92.8
			C38.3-530.3,80.6-573.2,130.9-572.1z"/>
		<path fill="#1DADA5" d="M235.3-489.2c3.9-0.5,7.8-1.1,11.7-1.6c0.9-0.1,1.7,0.2,1.7,1.2c0,1-0.6,1.4-1.5,1.5
			c-4.6,0.5-9.2,1-13.9,1.5c-0.9,0.1-2,1-2.5-0.3c-0.5-1.3-0.5-2.6,0.9-3.5c1.3-0.8,2.5-1.6,3.7-2.5c2.2-1.5,4.3-3,6.7-4.7
			c-2.9-0.9-5.4,0.1-8,0.4c-1.6,0.1-4.4,1.5-4.7-0.8c-0.3-2.6,2.6-1.5,4.2-1.8c3.8-0.6,7.6-0.9,11.4-1.3c0.9-0.1,2.1-0.4,2.5,0.9
			c0.4,1.3-0.2,2.2-1.3,2.9c-3.7,2.5-7.4,5-11.1,7.4C235.2-489.6,235.2-489.4,235.3-489.2z"/>
		<path fill="#1DADA5" d="M72.9-390.7c-1.7,2.8-3.4,5.6-5.1,8.4c-0.5,0.9-1,1.9-2.2,1.4c-1.4-0.6-0.7-1.6-0.1-2.4
			c2.4-4,4.7-8,7.2-12c0.5-0.8,1-1.8,2.3-1.4c1.2,0.4,1.9,1.3,1.8,2.7c-0.2,2.3-0.1,4.6-0.6,6.9c-0.4,1.9-0.3,3.9,0.3,6.1
			c1.5-2.5,3.1-5,4.6-7.5c0.5-0.8,1-1.7,1.6-2.5c0.3-0.4,0.7-0.8,1.2-0.4c0.6,0.4,1.1,0.8,0.8,1.6c-0.2,0.5-0.4,0.9-0.7,1.3
			c-2.4,4-4.8,7.9-7.2,11.9c-0.5,0.9-1,1.8-2.3,1c-0.9-0.5-1.6-1-1.3-2.3C73.8-382,73.7-386.3,72.9-390.7z"/>
		<path fill="#1DADA5" d="M186-578.7c-1.6,2.6-3.2,5.3-4.9,7.9c-0.5,0.8-1,1.7-1.6,2.5c-0.2,0.3-1,0.3-1.3,0.1
			c-0.3-0.2-0.6-0.8-0.6-1.2c0-0.4,0.4-0.9,0.6-1.3c2.8-4.5,5.5-9,8.3-13.5c3,0.6,3.4,2.5,2.9,4.7c-0.9,3.4-0.5,6.9-0.9,11
			c2.8-2.3,3.6-5.2,5.3-7.4c0.8-1.1,1.3-3.4,3-2.5c2,1.2-0.2,2.6-0.8,3.7c-2,3.6-4.2,7.1-6.4,10.6c-0.5,0.8-1.1,1.8-2.3,1.3
			c-1-0.4-1.5-1.2-1.5-2.3c0.1-2,0.1-3.9,0.5-5.9c0.4-2.4,0.4-4.9,0.5-7.3C186.5-578.5,186.3-578.6,186-578.7z"/>
		<path fill="#1DADA5" d="M230.7-507.6c-2.5,0.2-4.4-1.4-5.4-4.1c-0.9-2.4-1.4-4.8,0.7-6.9c0.6-0.6,1.2-1.3,2.1-0.8
			c0.7,0.5,0.7,1.4,0.6,2.3c-0.1,0.9-1.2,1.1-1.6,1.8c-1.2,2-0.2,4.2,2,4.5c4.4,0.6,8.2-0.9,11.3-3.9c0.9-0.9,1.5-2.3,0.8-3.7
			c-0.6-1.3-1.3-2.8-3.3-1.8c-0.4,0.2-1,0.2-1.4,0.4c-1.8,0.6-3.6,1.1-2.2,3.7c0.3,0.5-0.2,0.9-0.7,1c-0.3,0-0.7-0.1-0.8-0.3
			c-0.3-0.4-0.5-0.8-0.7-1.3c-1.3-3.6-2.7-4.1,2.2-5.5c0.2,0,0.3-0.2,0.5-0.2c4.5-1.6,5.6-1.5,7.1,1.4c2.1,3.9,2.3,6.2-0.7,9.5
			C238.6-508.8,235.1-507.7,230.7-507.6z"/>
		<path fill="#1DADA5" d="M31.2-466.6c0.9,2.4,1.5,4.4,1.4,6.6c-0.1,4.7-3,6.5-7.2,4.4c-0.9-0.5-1.3-1.1-2.2,0.2
			c-1.3,2.1-4,2.1-6,3.2c-0.6,0.4-1.4,0.3-1.7-0.4c-0.3-0.8-0.4-1.7,0.4-2.2c0.7-0.5,1.5-0.7,2.2-1.1c0.9-0.4,1.8-0.8,2.6-1.4
			c1-0.8,2-1.9,1.3-3.4c-0.7-1.5-1.9-0.7-3-0.5c-1.1,0.2-2.3,0.3-3.4,0.5c-0.8,0.1-1.7,0-1.9-1c-0.2-1.2,0.4-1.8,1.6-2
			c4.2-0.7,8.5-1.4,12.7-2.1C29-466,29.9-466.3,31.2-466.6z"/>
		<path fill="#1DADA5" d="M241.3-442.9c-4.5-1.2-9.3-2.6-14-3.9c-0.9-0.2-1.5-0.6-1.4-1.6c0.1-1.3,1.1-1.6,2.2-1.4
			c1.3,0.2,2.5,0.7,3.8,1c1.4,0.3,2.4,0.1,2.9-1.7c1.2-3.9,1.3-3.8-2.6-5c-0.6-0.2-1.3-0.3-1.9-0.4c-1.2-0.2-1.8-0.7-1.6-2
			c0.3-1.4,1.4-1.2,2.4-1c4.6,1.2,9.2,2.6,13.8,3.8c1.1,0.3,1.9,0.6,1.6,1.9c-0.3,1.3-1.2,1.3-2.3,1.1c-1-0.3-1.9-0.6-2.8-0.8
			c-3.9-1-3.8-1-4.8,2.9c-0.5,1.8-0.3,2.8,1.7,3.1c1.5,0.3,2.9,0.8,4.3,1.1c1,0.2,1.3,0.8,1.2,1.8
			C243.6-442.5,242.6-442.7,241.3-442.9z"/>
		<path fill="#1DADA5" d="M148.7-370.4c0,6.3-2.4,8.9-7.4,8.8c-3.4-0.1-5.8-2-6.5-5.7c-0.5-2.5-0.6-5-0.2-7.5
			c0.5-3.4,2.4-5.3,5.9-5.8c2.7-0.4,5.1,0.8,6.6,3.4C148.3-375,148.9-372.6,148.7-370.4z"/>
		<path fill="#1DADA5" d="M135.9-598.2c1.5,0.1,3,0.2,4.4,0.3c4.4,0.5,6.6,2.5,7.1,6.9c0.3,2.8-0.4,5.6-1.6,8.1
			c-1,2.1-2.7,3.2-5.1,3.2c-1.3,0-2.6,0-4-0.1c-2.9-0.2-2.8-0.2-2.5-3.3c0.3-3,0.5-5.9,0.6-8.9C134.8-594.1,135.1-596.2,135.9-598.2
			z"/>
		<path fill="#1DADA5" d="M176.9-584.5c0.1,3.5-1.1,6.5-3.2,9.2c-2,2.5-4.6,3.2-7.6,2.1c-2.9-1-4.4-3.2-4.5-6.4
			c-0.1-3.5,1.2-6.5,3.3-9.2c2.3-2.9,4.2-3.4,7.4-2.3C175.9-589.9,176.9-588.5,176.9-584.5z"/>
		<path fill="#1DADA5" d="M24.6-522.6c3.9,1.3,8.2,2.7,12.4,4.1c0.6,0.2,0.9,0.9,0.7,1.7c-0.2,1.1-1,1.3-1.8,1.1
			c-2.7-0.8-5.3-1.7-8-2.6c-1.4-0.5-2.8-1-4.2-1.3c-2-0.4-3.1,0.9-3.7,2.5c-0.6,1.5,0.4,2.6,1.6,3.2c1,0.5,2.1,0.9,3.2,1.3
			c2.6,0.9,5.3,1.9,7.9,2.8c1.2,0.4,2.4,0.6,1.9,2.2c-0.5,1.7-1.9,1.1-2.9,0.8c-3.6-1.2-7.2-2.3-10.7-3.8c-3-1.3-3.7-3.5-2.6-7
			C19.6-521.3,21.5-522.9,24.6-522.6z"/>
		<path fill="#1DADA5" d="M179.8-372.1c-2.5-4.8-4.9-9.7-7.5-14.5c-0.4-0.8-0.9-1.5,0.1-2.1c1-0.6,1.9-0.4,2.5,0.7
			c0.8,1.4,1.5,2.8,2.7,4.9c1.6-3.6,0.5-7.5,3.4-10.4c0.9,2.4,0.4,4.2,0,5.9c-0.9,4.1-0.9,4.1,2.8,6.1c2.2,1.1,4.3,2.3,6.9,3.7
			c-1.4,1.6-2.6,2-4.3,1.1c-2-1.1-4.1-2.1-6.5-3.3c-0.6,2.2,0.8,3.6,1.6,5C182.9-373,181.8-372.5,179.8-372.1z"/>
		<path fill="#1DADA5" d="M248.6-465.1c-0.3,1.4-1.1,1.1-2.2,0.7c-4.4-1.9-8.8-3.7-13.3-5.5c-0.3-0.1-0.6-0.3-0.9-0.4
			c-0.9-0.4-1.8-0.8-1.7-2.1c0.1-1.1,0.6-1.9,1.7-2.2c5.3-1.4,10.5-2.8,15.8-4.1c0.7-0.2,1.3,0.1,1.4,0.9c0.1,0.7,0,1.4-0.6,1.8
			c-0.6,0.3-1.3,0.3-1.9,0.6c-1,0.6-2.7,0.1-3,1.3c-0.4,1.5-0.4,3.3-0.3,4.9c0,1.6,1.7,1.3,2.6,1.8
			C247.2-466.8,248.6-466.8,248.6-465.1z"/>
		<path fill="#1DADA5" d="M229.4-414.7c-0.4,2-1.3,3.2-3.4,2.5c-1.7-0.5-3.5-0.8-5.3-0.3c-0.4,1.6,0.7,2.6,1.1,3.8
			c0.3,0.9,0.7,1.8,0.9,2.8c0.1,0.6-0.1,1.4-0.7,1.7c-0.7,0.3-1.2-0.2-1.4-0.9c-0.6-1.5-1.4-3-1.9-4.6c-0.9-2.8-2.4-4.6-5.7-4.2
			c-1.3,0.2-2.6-0.2-4-0.2c-0.8,0-1.4-0.4-1.3-1.1c0.1-0.5,0.6-1.2,1.1-1.5c2-1,4.2,0.4,6.6-0.4c0.1-1.8-1.3-3.2-1.7-4.8
			c-0.3-1-0.4-2.1,0.8-2.5c1.1-0.4,1.4,0.8,1.5,1.5c1.1,5.5,4.5,7.9,10,7.7C227.1-415.2,228.2-414.9,229.4-414.7z"/>
		<path fill="#1DADA5" d="M31.9-444.8c1.3,0,2.7-0.1,4,0c1.7,0.2,2.4,1.9,1.5,3.3c-0.3,0.6-0.9,1-1.4,1.4c-3.7,3.1-7.4,6.2-11.2,9.2
			c-0.6,0.5-1.3,1.3-2,0.3c-0.5-0.7-0.5-1.6,0.1-2.3c0.3-0.4,0.7-0.7,1.1-1c2.6-2.6,2.5-2.6,1.2-5.8c-0.7-1.7-1.6-2.3-3.4-2.1
			c-0.8,0.1-1.7,0.1-2.5,0c-0.6-0.1-1.4-0.3-1.3-1.2c0.1-0.9,0.8-1,1.4-1C23.7-444.2,27.8-444.4,31.9-444.8
			C31.9-444.7,31.9-444.7,31.9-444.8z"/>
		<path fill="#1DADA5" d="M34.4-539.4c-0.5-0.6-1.2-1.1-1.6-1.8c-0.6-1-2.7-1.6-1.3-3.1c1.5-1.6,2.2,0.5,2.9,1.2
			c2.6,2.8,5,5.7,7.4,8.6c0.6,0.8,1.4,1.4,2,2.2c1.2,1.6,0.4,3.3-1.5,3.5c-0.8,0.1-1.7,0-2.5-0.2c-4.5-0.9-9-1.9-13.5-2.8
			c-0.8-0.2-1.8-0.2-1.5-1.4c0.2-0.8,0.8-1.5,1.7-1.5c0.2,0,0.4-0.1,0.5,0C32-532.5,33.1-536.1,34.4-539.4z"/>
		<path fill="#1DADA5" d="M45.7-397.5c5.1-2.8,10-5.5,14.9-8.3c1.1-0.6,2-0.9,3,0.2c0.9,0.9,0.6,1.7,0.2,2.7c-2,4.5-4,9.1-6,13.7
			c-0.4,0.9-0.7,2.1-2,1.3c-0.9-0.5-1.4-1.4-0.7-2.5c0.2-0.3,0.3-0.6,0.5-0.9c1.1-1.7,1.3-3.2-0.6-4.7c-1.7-1.3-3-2.6-5.2-0.8
			C48.7-396.1,47.3-395,45.7-397.5z"/>
		<path fill="#1DADA5" d="M209.8-394.4c1.6-1.4,2.7-2.6,4-3.7c0.5-0.4,1.1-0.9,1.7-0.3c0.6,0.6,0.3,1.2-0.2,1.7
			c-1.7,2-3.4,4.1-5.5,6.5c-4.9-5-9.1-9.4-13.2-13.6c2.2-2.3,4.1-4.4,6.1-6.4c0.4-0.4,0.9-0.5,1.3-0.3c0.8,0.5,0.5,1.2,0,1.7
			c-1.2,1.1-2.5,2.2-3.6,3.1c0.5,2.6,2.5,3.2,3.4,4.8c0.6-0.4,1-0.6,1.4-0.9c1.3-0.8,2.7-3.6,3.7-2.6c1.7,1.8-1.3,2.7-2.3,3.9
			c-0.9,1.1-0.6,1.7,0.1,2.5C207.7-396.7,208.7-395.7,209.8-394.4z"/>
		<path fill="#1DADA5" d="M17.4-501.8c-1,2-2.1,3.4-1.9,5.4c0.2,2.5,1.9,3.6,4,2.3c0.8-0.5,1.4-1.4,2.1-2.1c0.9-1,1.7-2.1,2.7-3
			c3.1-2.7,6.4-1.7,7.8,2.1c0.9,2.5-0.3,4.5-0.9,6.7c-0.2,0.7-1.1,0.6-1.7,0.3c-0.6-0.2-0.5-0.8-0.3-1.2c0.4-1.1,1-2.1,1.3-3.2
			c0.3-1.1-0.4-1.9-1.2-2.6c-1-0.9-2-0.4-2.7,0.3c-1.4,1.4-2.6,3-4,4.4c-2.2,2.2-4,2.6-6.2,1.5c-3.5-1.7-4.2-8.6-1-11.1
			C15.6-502.1,16.3-501.9,17.4-501.8z"/>
		<path fill="#1DADA5" d="M90.1-574.4c1.8-1,3.9,0.1,5.7-1.2c2.1-1.5,2.3-3.4,0.1-4.6c-1.3-0.7-2.8-1-4.2-1.3
			c-1.3-0.3-2.6-0.3-3.8-1.1c-2.6-1.7-3-5-0.8-7.2c1.7-1.7,4.1-2.1,6.3-2.7c0.8-0.2,1.2,0.5,1.2,1.2c0,0.5-0.1,1-0.7,1.2
			c-1.3,0.4-2.7-0.1-3.9,0.7c-0.7,0.4-1.4,0.9-1.5,1.9c-0.1,1.1,0.5,2,1.4,2.4c0.7,0.3,1.6,0.3,2.4,0.5c1.5,0.3,3,0.5,4.3,1
			c3.8,1.4,4.7,6,1.7,8.7c-1.8,1.6-3.9,2.3-6.4,2.4C90.9-572.5,90.5-573.4,90.1-574.4z"/>
		<path fill="#1DADA5" d="M104-364c-1.6-0.3-3.5-0.8-5.3-1.7c-0.9-0.5-1.1-1.3-0.8-2.1c0.4-1.2,1.2-0.6,2-0.2c0.8,0.5,1.7,1,2.6,1.5
			c1.6,0.9,3,0.3,3.9-1c0.8-1.2,0.4-2.6-0.6-3.6c-1-1.1-2.1-2.1-3.2-3.2c-2-2.1-2.5-4.4-1.6-6.3c0.9-1.9,3.2-2.8,6.1-2.3
			c0.8,0.1,1.6,0.5,2.3,0.8c0.9,0.3,2.3,0.3,2,1.7c-0.4,1.3-1.5,0.7-2.4,0.3c-0.7-0.3-1.5-0.6-2.3-0.8c-1-0.2-2,0-2.6,1
			c-0.6,1-0.3,1.9,0.5,2.7c1,1.1,2.1,2.1,3.2,3.1c1.6,1.6,2.5,3.5,2.1,5.8C109.3-365.6,107.1-364,104-364z"/>
		<path fill="#1DADA5" d="M230.5-427.6c4.5,0,5.2-0.7,6.3-4.8c0.2-0.6,0.1-1.4,1.1-1.3c0.9,0.1,0.9,0.8,1,1.4
			c0.2,5.2-3.9,8.6-9.1,7.7c-4-0.7-7.2-2.4-9.3-5.9c-1.4-2.5-0.7-4.8,0.7-7c1.2-1.8,2.8-2.9,5-2.5c0.6,0.1,1.4,0.1,1.4,1
			c0,0.7-0.4,1.3-0.9,1.7c-0.9,0.7-2,0.1-2.9,0.5c-2.1,0.7-2.8,2.5-1.4,4.3C224.8-429.5,227.8-427.7,230.5-427.6z"/>
		<path fill="#1DADA5" d="M158.5-377.9c-0.1,1.9,0.5,3.8,1.4,5.6c1.8,4,5,5.7,8.6,2.5c0.5-0.4,1.1-1,1.7-0.5
			c0.8,0.8,0.2,1.6-0.4,2.1c-3.6,3.6-9.2,3-12-1.3c-1.9-2.9-2.6-6-2.3-9.5c0.2-2.9,2-4.4,4.5-5.4c2.3-0.9,4.6-0.6,6.5,1
			c0.6,0.5,1.4,1.3,0.7,2.1c-0.6,0.7-1.5,1.3-2.6,0.8c-0.3-0.1-0.6-0.4-0.7-0.7c-0.9-1.4-2.1-2.2-3.8-1.3
			C158.3-381.5,158.4-379.8,158.5-377.9z"/>
		<path fill="#1DADA5" d="M220-525.1c-1.2-2-2.3-4-3.4-6c-0.5-0.8-1.5-1.9-0.2-2.5c1.2-0.6,1.4,1,2,1.8c0.7,0.9,1.2,2,1.8,3
			c2.1-0.2,3.4-1.5,5.1-2.4c-0.2-1.9-1.5-3.2-2.2-4.9c-0.2-0.5-0.2-1,0.3-1.3c0.5-0.3,1-0.2,1.3,0.3c0.9,1.4,1.7,2.8,2.5,4.3
			c2.3-0.2,3.6-1.9,5.4-2.4c0.1-2.6-2.4-4.1-2.3-6.6c2.2-0.4,2.5,1.5,3.2,2.6c3.3,5.2,3.3,5.3-2.1,8.3c-3.2,1.8-6.4,3.5-9.6,5.3
			C221.1-525.4,220.6-525.3,220-525.1z"/>
		<path fill="#1DADA5" d="M128.2-589.2c-1.3,0.8-2.5,0.4-3.6,0.6c-2.7,0.5-2.9,0.8-2.7,3.6c0.2,3,0.2,3,3.7,3.1
			c1.2,0,3.4-0.7,3.5,0.7c0.1,2.3-2.3,1.2-3.5,1.2c-6.5,0.4-6.6,0.4-6.8-6c-0.1-3.2-0.2-6.3-0.4-9.5c-0.1-2,0.6-2.7,2.5-2.6
			c1.8,0,3.6,0.1,5.4-0.5c0.5-0.2,1,0.1,1.2,0.6c0.3,0.8-0.2,1.1-1,1.3c-1,0.1-1.9,0.5-2.9,0.5c-1.8,0-2.1,0.9-2.1,2.5
			c0.1,3.5,0.1,3.7,3.6,3.3C126.3-590.4,127.4-591,128.2-589.2z"/>
		<path fill="#1DADA5" d="M30.7-472.1c-2.8-0.9-0.9-3.8-2.7-4.3c-1.9-0.5-3.9-0.2-5.9-0.2c-2.3,0-4.6,0.1-7,0
			c-1.1,0-2.5,0.4-2.6-1.4c-0.1-1.7,1.2-1.7,2.4-1.7c3.3,0,6.6-0.2,9.9,0c2.4,0.1,4.3,0,4-3.3c0-0.4,0.4-0.9,1-0.8
			c0.6,0.1,0.8,0.6,0.8,1C30.7-479.3,30.7-475.8,30.7-472.1z"/>
		<path fill="#1DADA5" d="M110.4-596.8c0.7,0,1.1,0.2,1.2,0.8c0.1,0.7-0.4,1-0.8,1c-3,0.1-2.8,1.8-2.2,4.1c0.9,3.5,1.5,7.1,2.2,10.7
			c0.2,0.9,0.4,2.1-1,2.4c-1.6,0.3-1.8-0.8-2.1-2c-0.6-3.6-1.5-7.1-2.1-10.7c-0.3-2.3-1-3.4-3.5-2.4c-0.6,0.2-1.4,0.1-1.5-0.7
			c-0.1-0.9,0.6-1,1.2-1.2C104.8-595.5,107.7-596.2,110.4-596.8z"/>
		<path fill="#1DADA5" d="M116.3-379.3c4.1-1.1,9.5-0.7,12.3,0.6c-0.3,1.1-1.2,0.9-2,0.8c-1.4-0.1-2,0.5-2.2,1.9
			c-0.5,3.8-0.8,7.5-0.9,11.3c0,1.2,0.4,3-1.7,2.8c-2.1-0.2-1.3-2-1.3-3.1c0-2.8,0.1-5.6,0.5-8.4C121.6-378,121.7-378,116.3-379.3z"
			/>
		<path fill="#1DADA5" d="M27.7-421.6c4.7-2.9,9.4-5.7,14.1-8.6c1.2-0.7,1.9-0.3,2.5,0.6c0.6,0.9,0,1.5-0.8,2
			c-3.1,1.9-6.2,3.8-9.3,5.8c-3,1.9-3,1.9-1.5,4.9c0.2,0.4,0.5,0.8,0.8,1.3c0.3,0.6,0.8,1.3,0,1.8c-1,0.6-1.4-0.2-1.8-1
			c-0.8-1.4-1.8-2.8-2.6-4.2C28.5-419.9,28.2-420.6,27.7-421.6z"/>
		<path fill="#1DADA5" d="M73.6-564.8c1.8-0.4,3.1-1.8,4.6-2.7c0.4-0.2,1.1-0.2,1.3,0.4c0.1,0.4,0.1,1.1-0.2,1.3
			c-2.3,1.6-4.7,3.1-7.3,4.9c-3.2-4.7-6.3-9.4-9.4-14c-0.4-0.7-0.8-1.3,0.3-2c1.1-0.7,1.7-0.5,2.4,0.5c2.1,3.2,4.2,6.3,6.3,9.5
			C72.1-566.2,72.5-565.3,73.6-564.8z"/>
		<path fill="#1DADA5" d="M55.8-556.4c0.1,2.8-1.8,4.7-4.6,4.7c-2.6,0-4.4-1.8-4.5-4.4c0-2.7,1.9-4.7,4.7-4.7
			C53.8-560.8,55.7-559,55.8-556.4z"/>
		<path fill="#1DADA5" d="M210.1-551.6c-2.9,0.1-4.4-1.3-4.6-4c-0.1-2.8,1.7-4.9,4.3-5.1c2.3-0.1,4.8,2.4,4.8,4.8
			C214.6-553.4,212.7-551.7,210.1-551.6z"/>
		<path fill="#1DADA5" d="M39.5-404.7c-0.3-0.3-0.7-0.5-1.1-0.9c-0.6-0.6-0.3-1.2,0.2-1.6c4.2-3.4,8.5-6.8,12.8-10.2
			c0.7-0.5,1.2-0.1,1.6,0.5c0.4,0.5,0.8,1.2,0.2,1.7c-4.2,3.5-8.4,6.9-12.7,10.3C40.3-404.7,39.9-404.8,39.5-404.7z"/>
		<path fill="#1DADA5" d="M85.9-570.1c-0.2,0.4-0.4,0.8-0.8,1.1c-0.6,0.5-1.2,0.5-1.8,0c-0.3-0.3-0.6-0.8-0.8-1.2
			c-2.1-4.1-4.2-8.3-6.3-12.4c-0.7-1.3-0.7-2.2,0.7-2.8c1.4-0.6,1.6,0.6,2.1,1.5c2.1,4.1,4.2,8.2,6.3,12.4
			C85.5-571.2,85.7-570.7,85.9-570.1z"/>
		<path fill="#FBFCFB" d="M130.6-391.7c-47.4,0.4-88-38.6-88-88.1c0-48.4,39.9-88.6,89.3-88c48.9,0.6,87.6,41.4,87,89.3
			C218.3-430.8,178.2-390.9,130.6-391.7z"/>
		<path fill="#E6F2F3" d="M30.7-460.9c0,2.2-1.2,3.3-3.4,3.2c-2-0.1-2.9-1.5-3.3-3.1c-0.4-1.4,1.5-2.2,4.7-2.2
			C30.2-463,30.7-462.3,30.7-460.9z"/>
		<path fill="#F6F9F9" d="M137.5-373.2c0-0.2,0-1.5,0.3-2.8c0.4-1.5,1.4-2.6,3.1-2.7c1.5-0.1,2.5,0.7,3.1,2c1.7,3.4,2,6.9,1.2,10.6
			c-0.4,1.7-1.7,3-3.5,3c-1.6,0-2.5-1.3-3.2-2.7C137.5-367.8,137.6-370,137.5-373.2z"/>
		<path fill="#F8FBFA" d="M137.3-582.1c0.2-3.6,0.3-7.2,0.5-10.8c0.1-1.1-0.4-2.6,1.2-2.9c1.5-0.3,3-0.1,4,1.3
			c1.9,2.4,1.4,9.6-0.8,11.8C141.2-581.7,141-581.7,137.3-582.1z"/>
		<path fill="#F5F9F9" d="M164.5-578.7c0.1-3.8,1.6-6.7,3.5-9.4c0.8-1.2,2.3-2.1,3.9-1.5c1.8,0.6,2.6,2.3,2.4,4
			c-0.4,3.3-1.4,6.4-3.4,9.1c-1.1,1.4-2.5,2.2-4.3,1.6C164.7-575.6,164.4-577.3,164.5-578.7z"/>
		<path fill="#E2EDF1" d="M241.1-469.7c-2.5-0.3-4.7-1.2-7.3-2.6c1.7-0.5,3-0.9,4.3-1.2C241.7-474.4,241.9-474.1,241.1-469.7z"/>
		<path fill="#D8E9EC" d="M34.5-442.7c-1.5,2.6-3.9,3.4-5.9,5.3c-1.2-1.2-1.7-2.4-1.9-4.2C29.2-442,31.7-442.3,34.5-442.7z"/>
		<path fill="#D9E9EF" d="M40.1-531.7c-2-0.5-4-0.9-6.2-1.4c-0.2-1.9,1-3,2.2-4.5c1.7,1.8,3.3,3.4,4.9,5.1
			C40.7-532.3,40.4-532,40.1-531.7z"/>
		<path fill="#D4E7EB" d="M60.5-402.9c0.1,2-0.9,3.2-1.5,4.4c-1.2,2.2-2.5,2.3-3.9,0.4c-0.6-0.9-0.4-1.5,0.3-2.1
			C56.8-401.3,58.3-402.4,60.5-402.9z"/>
		<path fill="#1DADA5" d="M201.6-516.8c4.2,7.3,6.6,15.3,8,23.4c1.9,11.1,2.1,22.3-1,33.4c-3,10.8-7.6,20.8-14.6,29.7
			c-13.5,17.1-31.2,27.2-52.6,30.2c-9.4,1.3-19.1,1.1-28.6-1.3c-5.2-1.3-10.3-2.8-15.1-5.2c2.8-4.3,7.6-3.7,11.7-4.3
			c3.6-0.6,7.3-0.9,10.9-1c11.6-0.3,21.4-5.6,31.2-10.8c3.9-2.1,7.1-5.4,11.1-7.5c2-1,4.2-0.8,6.3-0.9c1.8-0.1,3.7-0.1,4.8-2
			c1.5-3.2,0.7-6.6,0.7-9.8c0-3.3,1-5.9,3.9-7.5c5-2.9,7.7-7.8,10.1-12.7c5.8-11.6,9.9-23.9,12.5-36.5c0.8-4-0.4-8.2-0.8-12.2
			C199.8-513.8,198.7-516,201.6-516.8z"/>
		<path fill="#1DADA5" d="M201.6-516.8c-1.6,1.7-1.2,3.5-0.1,5.3c0.4,0.7,1.5,1.4,1,2.1c-1.8,2.4-1.1,4.4,0.1,6.7
			c0.5,0.9,0.3,2.4-0.2,3.4c-2,4.8-3.1,9.8-3.9,15c-0.5,3.4-2.4,6.7-3.8,9.9c-0.7,1.6-2.1,3.1-2.5,4.7c-1.4,5.3-4.5,9.7-7.1,14.4
			c-1.9,3.4-5.1,4.4-7.5,6.7c-1.3,1.3-2,2.2-1.9,4c0.1,3.2,0,6.3,0,9.5c0,0.8,0.1,1.7-0.8,2.2c-2-1.6-1.9-4-1.6-6
			c1.5-10-3.5-17.1-10.3-24.5c0,8.3,0,16,0,23.7c0,2.4,0.5,5-1.5,7.1c-0.9,0.3-1.8,0.1-2.4-0.7c-0.7-1.2-1-2.5-1-3.8
			c0.1-11.1-0.6-22.2,0.4-33.3c9.3-7.2,12.7-17.6,15.2-28.6c0.4-2-0.9-3.1-1.6-4.5c2.3-6,2.3-12.2,2.2-18.5c0-2.4-0.4-4.6-1.9-6.5
			c-0.2-7.1-3.2-13.3-6.6-19.3c-0.7-1.3-1.6-3.1,1.2-3.4c4.3,2.5,8.6,4.9,12.5,8C188.7-535.8,196.7-527.6,201.6-516.8z"/>
		<path fill="#1DADA5" d="M75.6-537.9c2.6-3.5,6.3-5.8,9.9-8.2c5.2-1,10.5,0,15.8-0.9c3.6-0.7,6.9,0.2,9.6,3
			c1.5,1.6,3.4,2.6,5.6,3.2c5.4,1.4,8.9,4.7,10.8,10c1,2.8,2.1,5.6,4,8c3.2,4,1.6,9-3.6,11.3c-3.4-3.4-5.5-7.8-9.8-11.9
			c0.6,8.9-1.2,17.2,1.1,25.4c0.4,0.8,0.5,1.6,0.4,2.5c-1.1,3.9-1.3,7.8-1.3,11.8c-0.1,17.8,0.3,35.5-0.2,53.3
			c-4.1,2.2-3.5-1.4-3.6-3.2c-0.3-5.6-0.1-11.2-0.1-16.9c0-3.3,0-6.6,0-9.9c0-8.6,0.1-17.3,0-25.9c0-2.3,0.4-4.7-1.2-6.7
			c-1.5-3.7-0.8-7.5-0.9-11.3c-0.1-6.3,0-12.6-0.1-18.9c-0.1-3.4-2.3-3.9-5-4c-2.9,0-4.9,0.7-4.9,4.1c0,11.1-0.1,22.2,0.1,33.3
			c0.1,2.8,1.6,5,3.2,7.1c1.2,2.6-0.9,2.8-2.4,3.2c-8.1,1.9-15.5,1.8-22.3-4.5c-4.6-4.2-8.5-8.8-11.9-13.9
			c-3.8-5.6-2.6-12.4-3.7-18.7C63.5-526.3,72.2-530.7,75.6-537.9z"/>
		<path fill="#1DADA5" d="M115.6-460.8c0,9,0,18,0.1,26.9c0,1.1-0.2,2.5,0.3,3.4c0.6,1,1.3,0.5,1.5-0.6c-0.8-2.5,1.1-4,2.3-5.7
			c2.7-4,6.1-7.4,8.1-11.8c0.8-4.4,0-8.9,0.5-13.4c0.1-1.1,0.3-2.7,1.6-2.8c1.8-0.1,1.8,1.6,1.9,2.8c0.6,4.4-0.5,8.9,0.7,13.3
			c2.7,5.2,6.7,9.3,10.5,15c0.5-4.2,0.1-7.4,0.3-10.5c0.1-2.1-0.5-4.3,1.4-6c1.6,0.1,2.2,1.4,2.7,2.6c0.9,3.5,0.6,7.2,0.5,10.7
			c-0.2,4,1.3,5.8,5.4,5.5c1.8-0.2,3.6-0.1,5.4,0c0.8,0.1,1.7,0.1,2.5,0.4c0.5,0.2,1,0.5,1.3,1c0.3,1.8-1.3,2-2.4,2.7
			c-1,0.6-2.3,0.2-3.1,1.3c-3.4,4.5-8.3,6.4-13.5,8.1c-1.4,0.4-2.6,1.3-3.8,2.1c-3.6,2.3-7.4,4.1-11.9,3.8c-3.1-0.2-6.2,0.8-9.2,1.3
			c-2.6,0.4-5.2,0.7-7.8,0.7c-2.5,0-5-0.1-7.1,1.4c-1.2,0.9-2.5,0.5-3.8,0.6c-1,0-2-0.2-2.4,1.2c-13.7-6.2-24.9-15.4-33.2-28.1
			c3.4-3.1,7.2-3,10.7-0.5c3.5,2.5,7.6,1.5,11.3,2.5c1.2,0.9,2.6,1.3,4.1,1.5c5.6,0.6,6.5-0.2,6.8-5.8c0.1-1.8-0.1-3.6,1.3-5.1
			c0.8-0.3,1.5-0.3,2.3,0.1c0.9,1.1,1,2.4,1.1,3.7c0.7,7.5,2.5,8.5,10.2,5.9c1.6-1.9,1-4.2,1-6.3c0.1-5.8-0.1-11.6,0.1-17.4
			C113.4-457.8,112.8-460.2,115.6-460.8z"/>
		<path fill="#1DADA5" d="M115.6-460.8c-1.6,0.6-0.9,2-0.9,3c-0.1,8.3,0,16.7-0.1,25c0,1,0.6,2.4-1.1,2.9c-1.6-2-1.3-4.4-1.3-6.7
			c0-13.8,0-27.6,0-41.5c0-1.6,0.4-3.2-0.4-5c-6.2,6.8-11,13.8-9.7,23.6c0.5,4.1,0.1,8.3,0.1,12.5c0,1.8,0.1,3.7-1.5,5.1
			c-0.6,0-1.2,0-1.8,0c-1.9-1.4-1.4-3.6-1.5-5.5c-0.1-5.1,0-10.1-0.1-15.3c-1.8,0.4-2.4,2.1-3.8,2.6c-3.8,2.6-7.5,2-12,1
			c-13.9-3-22-13.2-30.8-22.8c-0.5-10,2.1-19.3,5.7-28.4c4-10.1,10-18.9,17.7-26.5c0.5-0.5,1-0.8,1.6-1.2c-0.9,3-1.7,6-3.9,8.4
			c-1.3,1.5-2.8,2.9-4.2,4.2c-1.4,1.3-2.7,2.5-0.5,4.4c1,0.9,0.8,2.1,0,3.1c-1.4,1.9-1.2,4-0.3,5.9c1,2.1,1,4.2,0.8,6.3
			c-0.2,2.6,0.5,4.7,2,6.9c4.2,5.9,9,11.3,14.6,15.8c2.4,2,5.2,3.2,8.6,3.1c4.4-0.2,8.8,0,12.8-2c0.7-5.1,3.8-8.5,8.1-11.1
			c0.6,0.1,1.5-1.5,1.8,0c0.3,1.6,0.1,3.3,0.1,4.9C115.6-478.9,115.6-469.8,115.6-460.8z"/>
		<path fill="#1DADA5" d="M146.5-447.8c-1.1-0.2-0.6-1.9-1.8-2c-0.9-0.8-1.4-1.9-1.4-3.1c-0.1-12.5-0.8-25.1,0.3-37.6
			c0.9-2.2,2.6-2.1,4.4-1.5c2,1.3,3.1,3.4,4.6,5.2c0.9,1,1.6,2.3,3.2,1.8c1.4-0.5,1.8-1.9,2.1-3.2c0.3-1.3,0.3-2.6,0.3-4
			c0-9.8,0-19.6,0-29.4c0-5.4-0.3-5.7-5.5-5.8c-1.8-0.1-3.7,0.1-5.4-0.6c-3.3-2.6-4.2-6.6-5.9-10.1c-3.2-6.7-8.5-11.5-14.1-16.1
			c-1.9-1.5-4.3-2.6-4.6-5.4c5.6-0.3,11.1,0.1,16.7,0.4c6.9,0.5,13.3,2.1,19.7,4.3c2.8,0.9,5.6,1.9,7.9,3.9c-0.8,0.3-1.8,0.8-1,1.7
			c1.4,1.7,2.2,3.6,3.2,5.5c1.3,2.4,3.1,4.9,3.8,7.3c0.7,2.1-0.4,5-0.4,7.6c-1.5,1.7-3.6,1.4-5.6,1.4c-2.6,0.1-4,1-4,3.8
			c0,8.9,0,17.9,0,26.8c0,1.2,0,2.5,1.9,1.7c1.5-0.7,3-1.3,3.2-3.3c0.9-1.9,1.5-4.2,4.2-4.5c3.4,0.5,4.1,1.3,2.9,3.7
			c-1.2,2.5-1.1,5.1-1.8,7.5c-1.2,3.8-2.1,7.8-4.6,11.1c-2.5,3.2-5.6,6.1-5.3,10.7c0,0.5-0.4,0.9-1,0.9c-0.7,0.1-1.4,0.1-1.7-0.6
			c-0.4-0.8,0.1-2.1-1.3-2.3c-2.7,0.1-3.5-2.2-4.8-3.8c-2.2-2.7-3.8-5.8-6.7-8.8c0,10.4,0,20.2,0,30.1
			C148-452.1,148.6-449.6,146.5-447.8z"/>
		<path fill="#1DADA5" d="M122.7-559.6c2.6,1.6,4.1,5,7.8,5.2c0.4,0,0.9,0.6,1.1,1c1.9,3.7,4.6,6.6,8,9c0.7,0.5,1,1.2,1.3,2
			c1.8,4.7,4.5,9,6,13.8c1.3,1.3,1.4,3,1.4,4.6c0.1,9.8,0,19.6,0.1,29.3c0,1-0.1,2-0.8,2.8c-1,1-1.9,0.4-2.8,0
			c-3.8-1.1-4.8-4.8-7-7.4c-1.4-1.6-2.3-3.5-4.5-5.5c-0.1,7,0,13.2,0,19.5c0,10.6,0,21.2,0,31.8c0,2.3,0.4,4.7-1.5,6.6
			c-1.5-0.6-0.9-2-0.9-3c-0.1-4.8,0-9.6,0-14.4c-0.3,0-0.6,0-1,0c0,4.3,0.1,8.5-0.1,12.8c0,1.5,0.9,3.3-0.8,4.6
			c-2.2-1.9-1.6-4.6-1.6-7c-0.1-16.6,0-33.1,0-50.2c-3.4,2.3-4.1,7.1-8.5,7.3c-0.1-0.7-0.5-1.1-1.1-1.2c1.4-6,4.5-10.9,10-14
			c1.7-0.8,3.1-1.9,3.1-4c0-0.9,0.2-1.7,0.8-2.2c1.7-1.5,1-2.2-0.7-3.2c-1.8-1-2.7-2.9-3.1-4.8c-0.6-2.9-2.4-5.3-3.4-8.1
			c-0.8-2.4-3.4-3.9-6.1-4.6c-3.7-0.9-7-2.4-9.6-5.5c-2.5-2.9-6-1.6-8.9-1.3c-2.6,0.3-5,1.3-7.6,0c-0.9-0.5-1.8,0.1-2.8,0.4
			c-1.3,0.4-2.9,1.2-3.8-0.8C96.7-554,109.2-558.3,122.7-559.6z"/>
		<path fill="#1DADA5" d="M50.7-481.8c0.9,0,1.8,0,2.2,0.8c2.4,4.7,8.1,6.3,10.2,11.1c5.1,2.7,8.5,8.3,15.2,8.2c2,0,4.1,1.1,5.9,2.2
			c2.3,1.4,4.2,1.5,6.1-0.5c0.8-0.8,1.7-1,2.7-0.7c0.1,1-0.2,2-0.8,2.8c-4.8,6.1-5.9,13-5.3,20.5c0.1,1.6,0.1,3.3-1.4,4.6
			c-3.1,1.4-6,1.7-9.2-0.5c-2.3-1.6-5.3-2.3-7.9-3.4c-0.8,0.5-0.9,1.1-0.4,1.7c0.5,0.7,0.1,1.2-0.4,1.6c-0.8,0.6-1.1-0.1-1.6-0.5
			c-0.5-0.4-1-0.9-1.7-0.8c-6.6-8.9-10.4-19-12.7-29.8C50.5-470.3,50.4-476,50.7-481.8z"/>
		<path fill="#FBFCFD" d="M162.7-429.8l-0.3-0.2l-0.4,0c-1.3-0.8-1-1.8-0.4-2.9c0-11.2,0-22.4,0-33.7c2,0.2,2.5,1.6,3.2,2.6
			c2.2,2.9,4,6.1,6.5,8.8c2.9,3.2,3.7,6.8,3.5,10.9c-0.2,3.8,0.1,7.6,0.1,11.4c-0.2,1.7-0.3,3.2-2.8,3
			C169-430,165.8-429.8,162.7-429.8z"/>
		<path fill="#FDFDFD" d="M146.5-447.8c0-13.2,0-26.4,0-39.9c1.5,0,2.1,1.4,3,2.5c3.4,4.4,6.3,9.3,10.1,13.4c0,11.2,0,22.3,0.1,33.5
			c0,1.8,0.1,3.7,0.2,5.5c0.6,1.1,0.8,2.1-0.4,2.9c-2.5,0-4.9,0-7.4,0c-6.4,0-5.2,0.5-5.4-5.1C146.6-439.3,146.5-443.5,146.5-447.8z
			"/>
		<path fill="#F9FCFC" d="M166.4-494.9c-1.8,0.9-2.1,3.2-3.9,4c-0.9-0.6-0.7-1.3-0.7-1.9c0-10.9,0-21.9,0-32.8c0-3,0.1-3,2.9-3.1
			c2.6-0.1,5.3-0.1,7.9-0.2c1.7,0.1,2.8,0.8,2.8,2.7c0,5.7,0,11.5,0,17.3c0,2.5-2.4,3.9-3,6c-1.5,1.5-2.7,3.2-3.7,5.1
			C168.1-496.7,167.6-495.5,166.4-494.9z"/>
		<path fill="#1DADA5" d="M159.4-429.9c0.1-1,0.3-1.9,0.4-2.9c0.6,0,1.2,0,1.8,0c0.1,1,0.3,1.9,0.4,2.9
			C161.1-429.9,160.3-429.9,159.4-429.9z"/>
		<path fill="#FEFEFE" d="M118.7-496.7c2.7-1.8,3.9-4.8,5.9-7.2c1.2-1.5,2.3-3.1,4.2-4.5c0,20.5,0,41.1,0,61.6
			c-3.9,5.2-8,10.2-11.3,15.8c-1.4-0.4-1-1.5-1-2.5c0-18.9,0.1-37.9-0.1-56.8C116.4-492.9,118.4-494.4,118.7-496.7z"/>
		<path fill="#FBFCFB" d="M113.8-492.8c-2.9,3.5-5.7,7.1-8.1,11.1c-3.5-0.8-4.8-3.7-4.8-6.5c-0.2-12.8-0.1-25.6-0.1-38.4
			c0-1.4,0.5-2.2,2-2.1c0.2,0,0.3,0,0.5,0c3.3,0.1,7.4-1.3,9.7,0.5c2.4,2,0.7,6.2,0.8,9.5C113.9-510.1,113.8-501.5,113.8-492.8z"/>
		<path fill="#F9FBFC" d="M98.6-489.4c-4.5-6-8.2-11.1-12.1-16c-0.9-1.2-1.1-2.4-1.1-3.7c0-5.6,0.1-11.3-0.1-16.9
			c-0.1-2.3,1-2.8,3-2.7c2.5,0.1,5,0.1,7.5,0c1.7,0,2.8,0.2,2.8,2.4C98.6-514.4,98.6-502.5,98.6-489.4z"/>
		<path fill="#F9FBFA" d="M127.6-511.8c-3.7,4.4-7.2,9-10,14c-0.7-0.2-1.1-0.6-1.1-1.4c0-9.1,0-18.2,0.4-27.5
			C120.5-521.8,125.8-518.1,127.6-511.8z"/>
		<path fill="#0298D2" d="M115.1-527.3c0.5,1.7,0.8,3.4,0.2,5.5C114.2-523.9,114.9-525.6,115.1-527.3z"/>
		<path fill="#FDFDFD" d="M131.6-446.8c0-20.6,0-41.1,0-61.7c0.2-0.1,0.5-0.3,0.7-0.4c4.1,5.7,8.2,11.4,12.3,17c0,14,0,28,0.1,42
			c0,6.2,0,12.5,0,18.7c-0.3,0.1-0.6,0.2-1,0.3C139.7-436.2,135.6-441.5,131.6-446.8z"/>
		<path fill="#FBFDFB" d="M100.6-441.8c0.1-8.3,0.2-16.6,0.1-25c0-2.8,0.7-5.1,2.4-7.4c3.4-4.5,6.6-9.1,9.8-13.6
			c1,0.7,0.8,1.3,0.8,1.9c0,18,0,36,0,53.9c0,0.7-0.1,1.3-0.2,2c-3.1,0-6.2,0-9.3,0c-3.3,0-3.3-0.1-3.4-3.6
			C100.7-436.3,100.7-439,100.6-441.8z"/>
		<path fill="#F9FBFB" d="M85.6-432.8c0.1-4.1,0.3-8.3,0.1-12.4c-0.2-3.3,0.5-6.1,2.6-8.7c1.8-2.1,2.6-4.9,4.7-6.8
			c2.1-1.6,2.8-4.4,5.8-6.4c0,8.9,0,17.1,0,25.3c-0.1,3.3-0.2,6.6-0.1,9.8c0,1.4-0.5,2.1-2,2.1c-3,0-5.9-0.1-8.9,0
			C85.5-429.7,85.9-431.5,85.6-432.8z"/>
		<path fill="#FDFDFD" d="M147.4-491.8c-0.7-1.4-0.8-2.8-0.8-4.3c0.1-10.8,0.1-21.6,0.1-32.5c3.3,0,6.6-0.1,9.9-0.1
			c2.8,0,2.9,0.1,2.9,3.1c0,8.8,0,17.6,0,26.4c0,2.8,0,5.6,0,8.5c0,4.7,0,4.7-4.2,9.1C152.4-484.7,149.8-488.2,147.4-491.8z"/>
		<path fill="#F4F9F9" d="M144.3-528.2c0,10.7,0,20.4,0,30.8c-3.3-3.1-5.2-6.3-7.2-9.4c-1.4-2-4.3-3.9-3.9-6
			c0.4-2.3,2.8-4.3,4.3-6.4C139.5-522,141.6-524.7,144.3-528.2z"/>
	</g>
</g>
<g id="JvXlQn_1_">
	<g>
		<path fill="#1DADA5" d="M-450-657.4c2.1-10.9,8.3-18.5,18.5-22.9c1.2-0.5,2.4-1,3.7-1.1c0.3,0.2,0.4,0.7,0.8,0.7
			c1.9,0.2,3.3,1.3,4.8,2.3c1.3,0.9,2.6,2,3.6,3.2c0.9,1.1,1.8,2.3,2.3,3.6c0.2,0.6,0.7,1,1.3,1.2c0.3,0.1,0.6,0.3,0.7,0.6
			c0.3,2.2,0.1,4.3,0.1,6.5c0,2,0.1,3.9-0.1,5.9c-0.5,0.8-0.3,1.5,0,2.3c0.2,3.5,0.1,7,0.1,10.5c0,0.3-0.1,0.6-0.2,0.9
			c-0.8,0.2-0.6-0.5-0.6-0.8c0-1.4,0-2.8,0-4c0.1,1.6-0.1,3.4,0.1,5.2c0,0.5,0.2,1.2-0.6,1.4c-0.5-0.5-0.4-1.1-0.4-1.7
			c0-3.8,0-7.5,0-11.3c0-1.3-0.3-2.3-1-3.3c-0.8-1-1.5-2-2.3-3.1c-0.2-0.3-0.5-0.6-0.5-1.1c0,6.6,0,13.1,0,19.7
			c0,0.6,0.1,1.3-0.1,1.9c-0.1,0.1-1.2,0.1-1.4,0c-0.2-0.6-0.1-1.3-0.1-1.9c0-6.7,0-13.3,0-20c0.1,0.5-0.2,0.9-0.4,1.2
			c-0.4,0.5-0.7,1.2-1.2,1.6c-1.9,2-2.4,4.2-2.3,6.9c0.2,3.6,0,7.2,0,10.8c0,0.6,0.1,1.2-0.2,1.8c-0.6,0.5-0.6-0.1-0.6-0.4
			c-0.1-0.5,0-1,0-1.5c0,0.7,0,1.4,0,2c0,0.3,0,0.7-0.5,0.8c-0.4-0.5-0.3-1.1-0.3-1.7c0-3.9,0-7.9,0-11.8c0-0.4,0.1-0.8-0.1-1.2
			c-1.3,1.8-2.6,3.6-3.8,5.4c-0.4,1.1-0.1,2.2-0.2,3.3c0,0.5,0,1.2-0.8,1.2c-0.6-0.1-0.5-0.6-0.6-1c0-0.4,0-0.9,0-1.4
			c-0.7,0.6-0.9,1.6-1.8,1.8c-1.8-0.3-3.6-0.8-5.3-1.5c-3.1-1.2-5.4-3.4-7.4-6c-0.8-1-1.5-2-1.9-3.2C-449-656.4-449.4-657-450-657.4
			z"/>
		<path fill="#1DADA5" d="M-407.8-679.5c3.7,1.6,6.8,3.9,9.5,6.9c3.1,3.4,5.3,7.2,6.6,11.6c0.1,0.3,0.1,0.6,0.2,0.9
			c-0.4,0.6-0.4,1.4-0.5,2.1c-0.5,2.9-1.2,5.8-2.3,8.5c-1.4,3.3-3,6.6-5.3,9.5c-1.2,1.5-2.2,3.1-3.8,4.2c-0.3,0.2-0.4,0.6-0.6,1
			c-0.1,0.2-0.2,0.6-0.6,0.4c-0.5-1.1-0.3-2.3-0.2-3.4c0.3-2.7-0.5-4.9-2.3-7c-0.8-0.9-1.6-1.8-1.8-3c0.9-1.9,2.3-3.6,3-5.6
			c1-2.7,1.9-5.4,1.9-8.3c0-1.1,0.4-2.3,0.2-3.4c-0.1-0.8-0.2-1.7-0.6-2.4c-0.2-0.8-0.1-1.7-0.2-2.5c-0.2-2.9-1.6-5.3-2.9-7.7
			c-0.2-0.4-0.5-0.7-0.6-1.2C-408.2-679.2-408.3-679.6-407.8-679.5z"/>
		<path fill="#1DADA5" d="M-421-640.6c0.4-0.4,0-0.9,0.4-1.4c0.5,0.4,0,1,0.5,1.4c0.9,0.5,1.4,1.5,2,2.3c0.7,0.9,1.4,1.8,2,2.8
			c0.1,0.1,0.1,0.5,0.5,0.3c0.2-1.2-0.3-2.6,0.4-3.8c0.9,0.3,0.7,0.9,0.8,1.4c0.1,1-0.3,2,0.3,2.9c1.3,0.5,2.6,0.5,3.9,0
			c0.3-0.4,0.2-0.9,0.2-1.4c0-2.9,0-5.8,0-8.8c0-0.6-0.1-1.2,0.6-1.6c0.7,0.3,0.6,0.9,0.6,1.5c0,2.9,0,5.8,0,8.8
			c0,0.5-0.1,1,0.2,1.4c0.4,0.5,1,0.4,1.5,0.4c0.4,0,0.8,0,1.2,0.2c0.5,0.6,0,1-0.4,1.3c-2.6,2.2-5.4,4-8.5,5.4
			c-4.2,1.9-8.5,3.1-13.1,3.4c-0.5,0-0.9,0.2-1.2,0.6c-6.5-2-11.7-5.7-15.6-11.2c-0.1-0.1-0.1-0.2-0.2-0.3l0,0
			c-0.1,0-0.1-0.1-0.2-0.2c0-0.1-0.1-0.1-0.1-0.2c0-0.1-0.1-0.2-0.2-0.3l0,0c-0.1,0-0.1-0.1-0.2-0.2c0-0.1-0.1-0.1-0.1-0.2
			c-0.1-0.1-0.1-0.2-0.2-0.3c-0.1-0.1-0.3-0.3-0.3-0.5c-0.1-0.1-0.1-0.1-0.2-0.2c0-0.1-0.1-0.2-0.1-0.2c0.8-0.6,1.5-0.3,2.2,0.1
			c2,1,4,2,6.3,2.3c0.6,0.1,1.1,0.5,1.7,0.6c1.2,0,2.4,0.2,3.7-0.1c0.6-1.5-0.2-3.1,0.5-4.6c0.8-0.3,1,0.1,1.1,0.8
			c0.1,0.8,0,1.7,0,2.5c0,0.4-0.1,0.9,0.3,1.2c1.3,0.5,2.5,0.2,3.8,0.2c0.4-0.2,0.9-0.1,1.3-0.2c1.2-1.6,2.4-3.3,3.6-4.9
			C-421.7-640-421.5-640.5-421-640.6z"/>
		<path fill="#1DADA5" d="M-429.2-623.6c0-0.2-0.1-0.4-0.1-0.7c1.1-0.5,2.3-0.3,3.5-0.5c2.1-0.2,4.1-0.8,6.1-1.4
			c3.2-0.9,6.1-2.4,8.8-4.1c1.6-1,3.1-2.2,4.6-3.3c0.2-0.2,0.3-0.4,0.3-0.6c0.4-0.4,1-0.3,1.5-0.2c0.4-0.3,0.1-0.9,0.3-1.3
			c3-2.3,5-5.4,6.9-8.7c0.9-1.6,1.6-3.4,2.5-5c0.5-0.8,0.6-1.8,0.8-2.7c0.6-2.3,1.4-4.6,1.6-7.1c0-0.5,0.2-0.9,0.8-1.1l0,0
			c0,0.1,0.1,0.2,0.1,0.3c0,0.2,0.1,0.4,0.1,0.6c0,0.1,0.1,0.2,0.1,0.3c0,0.2,0.1,0.5,0.1,0.7c0.2,0.2,0,0.5,0.2,0.7
			c0,0.2,0,0.5,0.1,0.7c0.2,0.3,0,0.7,0.2,1c0,0.5,0,0.9,0.1,1.4c0.2,1.3,0.1,2.6,0,4c-0.2,6.1-2.3,11.6-6.1,16.4
			c-6.8,8.5-15.7,12.3-26.6,11.6c-0.3-0.2-0.7,0-1-0.2c-0.3,0-0.6-0.1-0.9-0.1c-0.2-0.1-0.5,0-0.7-0.2c-0.2,0-0.5-0.1-0.7-0.1
			c-0.2-0.1-0.3-0.1-0.5-0.2c-0.2,0-0.3,0-0.5-0.1c-0.2-0.1-0.4-0.1-0.5-0.2c-0.2,0-0.3-0.1-0.5-0.1c-0.1,0-0.2-0.1-0.3-0.1
			C-428.9-623.6-429.1-623.6-429.2-623.6z"/>
		<path fill="#1DADA5" d="M-409.1-634.4c-0.4-0.4-0.2-0.8-0.2-1.3c0-3.2,0-6.3,0-9.5c0-0.4,0.1-0.8-0.2-1.2
			c-0.4,0.4-0.3,0.9-0.3,1.3c0,3.2,0,6.5,0,9.7c0,0.4,0.2,0.9-0.3,1.2c-0.4-0.5-0.3-1.1-0.3-1.7c0-3.7-0.1-7.4,0-11.1
			c0-1.5-0.3-2.8-1.3-4c-0.4-0.5-0.8-1-1.1-1.6c-0.1-0.2-0.2-0.3-0.3-0.5c-0.2-0.3-0.4-0.5-0.5-0.8c-0.1-0.1-0.2-0.2-0.2-0.4
			c-0.1-0.1-0.2-0.3-0.3-0.5c-0.1-0.1-0.2-0.2-0.2-0.3c-0.1-0.2-0.2-0.3-0.3-0.5c-0.7-0.5-0.9-1.1-0.1-1.7c0.2,0,0.3,0.2,0.4,0.3
			c0.1,0.1,0.1,0.1,0.2,0.2c0,0,0.1,0.1,0.1,0.1c0.1,0.1,0.1,0.1,0.2,0.2c0.1,0.1,0.2,0.3,0.3,0.5c0.1,0.1,0.2,0.2,0.2,0.3
			c0.2,0.2,0.3,0.4,0.4,0.6c0.1,0.1,0.1,0.2,0.2,0.3c0.1,0.1,0.2,0.3,0.3,0.5c0.1,0.1,0.2,0.2,0.3,0.3c0.1,0.1,0.3,0.3,0.4,0.4
			c0.2,0,0.3-0.1,0.4-0.2c0.6-0.7,0.8-1.4,0.8-2.3c0-4.2,0-8.4,0-12.5c0-0.4,0-0.7-0.2-1.1c-1.2-0.5-2.7,0.2-3.9-0.5
			c-0.4,0-0.8-0.1-1.4-0.1c-1.3-3-3.3-5.6-6-7.7c-0.8-0.3-1.6-0.7-2.2-1.4c-0.4-0.5-1-0.5-1.6-0.7c-0.7-0.2-1.3-0.4-1.9-0.5
			c-0.2-0.3-0.2-0.6-0.2-0.9c0.1-0.1,0.1-0.1,0.2,0c0.1,0,0.2-0.1,0.3-0.1c0.2,0,0.5-0.1,0.7-0.1c0.1-0.1,0.3-0.1,0.5-0.2
			c0.3,0,0.6-0.1,0.9-0.1c0.2-0.1,0.4-0.1,0.5-0.2c0.5,0,0.9-0.1,1.4-0.1c0.2-0.1,0.5,0,0.8-0.1c0.1,0,0.2,0,0.3,0
			c0.1,0.1,0.2,0.1,0.2,0c5-0.2,9.7,0.6,14.2,2.8c-0.6,0.5,0.1,0.8,0.3,1.2c1.4,2.3,2.5,4.7,3.1,7.3c0.1,0.3,0.1,0.6-0.1,0.9
			c-0.5,0.5-1.1,0.3-1.7,0.4c-0.7,0.1-1.5-0.1-2.4,0.3c-0.1,4.2,0,8.4-0.1,12.7c1-1.4,2-2.9,3.1-4.2c0.7-0.8,1-1.8,1-2.9
			c0-1.2-0.4-2.5,0.4-3.6c0.7,0.4,0.6,1.2,0.6,1.7c0.1,2.4-0.1,4.8-0.6,7.2c-0.4,2.1-0.8,4.2-1.8,6c-0.9,1.6-1.5,3.4-2.9,4.7
			c0.3,4,0.1,8.1,0.1,12.1C-408.7-635.2-408.6-634.7-409.1-634.4z"/>
		<path fill="#1DADA5" d="M-318.7-640.4c-1.5,0-2.9,0-4.3,0c-2.4-4-4.7-8.1-7.2-12.2c-2.5,4.1-4.9,8.2-7.3,12.3
			c-1.1,0.1-2.2,0.1-3.6,0c3.1-5.1,6.1-10.1,9.1-15.2c-2.8-4.7-5.5-9.5-8.4-14.3c1.4,0,2.7,0,4.2,0c2.1,3.5,4.2,7.1,6.4,10.9
			c2.2-3.7,4.3-7.3,6.4-10.9c1.2,0,2.3,0,3.7,0c-2.8,4.7-5.5,9.3-8.3,13.9C-324.9-650.9-321.8-645.7-318.7-640.4z"/>
		<path fill="#1DADA5" d="M-360.5-640.8c0-1.2,0-2.4,0-3.7c1.2,0.4,2.3,0.9,3.5,1.3c2,0.7,4,1,6.1,0.5c1.8-0.4,3.2-1.4,3.7-3.3
			c0.6-2.1,0-3.9-1.5-5.3c-1.4-1.3-3-2.1-4.7-2.9c-1.3-0.7-2.7-1.3-4-2.2c-2.8-1.9-3.9-4.6-3.3-7.9c0.5-3,2.4-4.7,5.2-5.5
			c2.4-0.7,4.8-0.6,7.3-0.4c1.1,0.1,2.1,0.3,3.2,0.5c0,1.2,0,2.3,0,3.5c-1.8-0.7-3.5-1.4-5.3-1.6c-1.2-0.2-2.5-0.2-3.7,0.1
			c-3.4,1-4.4,4.6-1.9,7.2c1.3,1.4,3,2.1,4.6,3c1.8,0.9,3.6,2,5.2,3.2c2.6,1.9,3.4,4.5,3,7.5c-0.4,3-2.1,5-4.8,6.2
			c-2.9,1.2-5.9,1.1-8.8,0.8C-358-640.1-359.3-640.3-360.5-640.8z"/>
		<path fill="#1DADA5" d="M-436.6-634.2c-0.7-0.4-1.4-0.6-2.2-0.8c-1.8-0.2-3.4-1.1-5.1-1.9c-0.9-0.4-1.7-0.8-2.7-0.7
			c-1.7-2.6-2.6-5.5-3.3-8.5c-0.5-2.1-0.7-4.2-0.7-6.4c0.2-0.6-0.1-1.3,0.1-1.9c0-0.6,0.1-1.1,0.1-1.7c0.1-0.2,0-0.5,0.2-0.7
			c0-0.2,0-0.5,0.1-0.7c0.3,0,0.5,0,0.8,0.1c0.2,0.4,0.5,0.8,0.6,1.2c0.7,2.3,2.3,4,3.9,5.6c2.7,2.7,5.9,4.3,9.7,4.9
			c0.4,0,0.6,0.2,0.7,0.5c0.1,0.2,0,0.4-0.1,0.5c-0.1,0.1-0.2,0.3-0.2,0.4c-0.2,0.3-0.4,0.5-0.5,0.8c-0.1,0.2-0.2,0.3-0.3,0.5
			c-0.7,1-1,2.1-0.9,3.3c0.1,1.4,0,2.8,0,4.2C-436.3-635.1-436.2-634.6-436.6-634.2z"/>
		<path fill="#0069A5" d="M-390.5-650.4c0-1.3,0-2.6,0-4C-390.3-653-390.3-651.7-390.5-650.4z"/>
		<path fill="#018ECE" d="M-450.3-654.3c0,0.6,0.2,1.3-0.1,1.9C-450.4-653-450.6-653.7-450.3-654.3z"/>
		<path fill="#0069A5" d="M-424.2-622.6c0.3,0,0.7-0.1,1,0.2C-423.5-622.4-423.9-622.4-424.2-622.6z"/>
		<path fill="#0069A5" d="M-390.6-655.7c-0.3-0.3-0.2-0.6-0.2-1C-390.6-656.4-390.6-656.1-390.6-655.7z"/>
		<path fill="#018ECE" d="M-422.5-682.3c-0.2,0.2-0.5,0.2-0.8,0.1C-423-682.3-422.8-682.3-422.5-682.3z"/>
		<path fill="#0069A5" d="M-425.9-622.8c0.3,0,0.5-0.1,0.7,0.2C-425.4-622.6-425.6-622.6-425.9-622.8z"/>
		<path fill="#018ECE" d="M-450.1-656.7c0,0.3,0.1,0.5-0.2,0.7C-450.3-656.2-450.3-656.5-450.1-656.7z"/>
		<path fill="#0069A5" d="M-390.8-657.4c-0.2-0.2-0.2-0.5-0.2-0.7C-390.8-657.9-390.8-657.7-390.8-657.4z"/>
		<path fill="#0069A5" d="M-427.1-623.1c0.2,0,0.4,0,0.5,0.2C-426.8-622.9-426.9-622.9-427.1-623.1z"/>
		<path fill="#0069A5" d="M-428-623.3c0.2,0,0.4,0,0.5,0.2C-427.7-623.1-427.9-623.2-428-623.3z"/>
		<path fill="#018ECE" d="M-424.6-682.1c-0.1,0.2-0.3,0.2-0.5,0.2C-425-682.1-424.8-682.1-424.6-682.1z"/>
		<path fill="#018ECE" d="M-426.1-681.8c-0.1,0.2-0.3,0.2-0.5,0.2C-426.4-681.8-426.3-681.9-426.1-681.8z"/>
		<path fill="#0069A5" d="M-428.8-623.5c0.1,0,0.2,0.1,0.3,0.1C-428.6-623.4-428.7-623.4-428.8-623.5z"/>
		<path fill="#0179B7" d="M-445-635.1c0.1,0.1,0.1,0.2,0.2,0.3C-444.9-634.9-445-635-445-635.1z"/>
		<path fill="#0179B7" d="M-445.2-635.3c0.1,0.1,0.1,0.1,0.2,0.2C-445.1-635.2-445.1-635.3-445.2-635.3z"/>
		<path fill="#0179B7" d="M-445.5-635.8c0.1,0.1,0.1,0.2,0.2,0.3C-445.4-635.6-445.5-635.7-445.5-635.8z"/>
		<path fill="#0179B7" d="M-445.7-636c0.1,0.1,0.1,0.1,0.2,0.2C-445.6-635.9-445.6-636-445.7-636z"/>
		<path fill="#0179B7" d="M-445.9-636.5c0.1,0.1,0.1,0.2,0.2,0.3C-445.9-636.3-446-636.4-445.9-636.5z"/>
		<path fill="#0179B7" d="M-446.4-637.2c0.1,0.1,0.1,0.1,0.2,0.2C-446.3-637.1-446.3-637.2-446.4-637.2z"/>
		<path fill="#018ECE" d="M-422-682.3c-0.1,0.1-0.2,0.1-0.2,0C-422.1-682.4-422.1-682.4-422-682.3z"/>
		<path fill="#018ECE" d="M-427.3-681.6c-0.1,0-0.2,0.1-0.3,0.1C-427.5-681.5-427.4-681.5-427.3-681.6z"/>
		<path fill="#0069A5" d="M-391.3-659.8c0-0.1-0.1-0.2-0.1-0.3C-391.3-660-391.3-659.9-391.3-659.8z"/>
		<path fill="#0069A5" d="M-391.1-658.9c0-0.1-0.1-0.2-0.1-0.3C-391.2-659.1-391.2-659-391.1-658.9z"/>
		<path fill="#FEFEFE" d="M-421-640.6c-1.5,2.1-2.9,4.2-4.6,6.2c-0.3-0.3-0.4-0.8-0.4-1.2c0.1-1.6-0.4-3.2,0.3-4.8
			c0-5.2,0-10.3,0-15.5c0-0.8,0.2-1.5,0.7-2.1c1.3-1.7,2.5-3.4,3.9-5C-421-655.5-421-648.1-421-640.6z"/>
		<path fill="#FEFEFE" d="M-415.6-634.4c-1.5-2.1-3-4.1-4.5-6.2c0-7,0-14.1,0-21.1c0-0.4,0-0.8,0.2-1.3c1.4,1.9,2.7,3.8,4.1,5.7
			c0.3,0.4,0.2,0.9,0.2,1.4c0,4.6,0,9.3,0.1,13.9c0.5,0.6,0.4,1.4,0.3,2.1c-0.3,1.7-0.2,3.5-0.2,5.2
			C-415.4-634.6-415.4-634.5-415.6-634.4z"/>
		<path fill="#FEFEFE" d="M-426.5-634.4c-1.1,0.4-2.2,0.1-3.2,0.2c-0.4,0-0.9,0-1.3,0c-0.1-0.1-0.2-0.2-0.2-0.3c0.2-3-0.5-6-0.2-8.9
			c0.2-1.9,0.2-3.9,0.3-5.8c1.5-2.1,3-4.1,4.4-6.2c0.1,0,0.2,0,0.2,0c0,5.2,0,10.5,0,15.7C-426-637.9-426-636.1-426.5-634.4z"/>
		<path fill="#FEFEFE" d="M-414.5-655.5c0.2,0.2,0.3,0.3,0.5,0.5c0,0.1,0.1,0.2,0.2,0.2c0,0.2,0.2,0.4,0.3,0.5
			c0,0.1,0.1,0.2,0.1,0.2c0.1,0.3,0.4,0.5,0.5,0.8c0,0.1,0.1,0.2,0.2,0.2c0.8,1.1,1.5,2.2,2.3,3.3c0.3,0.4,0.4,0.7,0.4,1.2
			c0,4.6,0,9.1,0,13.7c0,0.2-0.1,0.5-0.1,0.7c-1.2,0-2.4,0-3.6,0c-0.3,0-0.7,0.1-1-0.2c0-2.8-0.4-5.5-0.3-8.3c0-0.4,0-0.8,0.3-1.1
			c0-3.5,0-6.9,0.1-10.4C-414.5-654.6-414.5-655-414.5-655.5z"/>
		<path fill="#FEFEFE" d="M-431.1-670.1c1.5,0,2.9,0,4.5,0c0,4.3,0,8.6,0,13c-1,1.4-2,2.8-3.1,4.3c-0.6-0.7-1.1-1.3-1.5-2
			c0.1-3.6-0.4-7.2-0.3-10.9C-431.4-667.1-431.2-668.6-431.1-670.1z"/>
		<path fill="#FEFEFE" d="M-411.7-653.1c-0.1-0.3-0.3-0.5-0.5-0.7c-0.1-0.1-0.1-0.2-0.2-0.2c-0.1-0.2-0.2-0.3-0.3-0.5
			c0-0.1-0.1-0.2-0.2-0.2c-0.1-0.3-0.3-0.5-0.5-0.7c0-0.1-0.1-0.2-0.2-0.2c-0.1-0.2-0.2-0.3-0.3-0.5c0-0.1-0.1-0.2-0.2-0.2l0,0
			c-0.1-0.1-0.1-0.2-0.2-0.3c-0.1-0.2-0.2-0.3-0.3-0.5c0-3.8,0-7.7,0-11.5c0-0.5,0-1,0.1-1.4c1.5,0,2.9,0,4.3,0
			c0.4,0.5,0.2,1,0.2,1.4c0,4.1-0.1,8.1,0,12.2c0,1.5-0.4,2.7-1.5,3.7C-411.5-652.9-411.6-653-411.7-653.1z"/>
		<path fill="#FEFEFE" d="M-432-660.5c0,1.5,0,2.9,0,4.4c-0.1,0-0.2,0-0.2,0.1c-1.5-2-3.1-4-4.6-6c0-2.6,0-5.2,0-7.9
			c1.6,0,3.1,0,4.8,0c0,0.9,0,1.7,0,2.5c0.2,0.3,0.3,0.6,0.3,1c0,1.7,0,3.3,0,5C-431.7-661.2-431.8-660.8-432-660.5z"/>
		<path fill="#FEFEFE" d="M-436.6-634.2c-0.2-2.5,0-5-0.1-7.5c0.4-0.6,0.8-1.2,1.2-1.8c0.1-0.1,0.1-0.1,0.2-0.2
			c0.2-0.2,0.5-0.4,0.5-0.7c0.1-0.1,0.1-0.1,0.2-0.2c0.1-0.2,0.2-0.3,0.3-0.5c0.7-0.8,1.3-1.7,2-2.5c0.1,0,0.2,0,0.2,0c0,1,0,2,0,3
			c0.6,1.8,0.6,3.7,0,5.5c0,1.6,0,3.2,0,5C-433.6-634.2-435.1-634.2-436.6-634.2z"/>
		<path fill="#FDFDFE" d="M-415.6-658.6c-1.4-2-2.8-3.8-4.1-5.7c1.3-1.8,2.7-3.5,4.1-5.5C-415.6-666-415.6-662.4-415.6-658.6z"/>
		<path fill="#FDFDFD" d="M-425.4-669.6c1.3,1.8,2.6,3.5,4,5.3c-1.4,1.9-2.7,3.7-4.2,5.8c0-3.9,0-7.5,0-11
			C-425.5-669.6-425.5-669.6-425.4-669.6z"/>
		<path fill="#1DADA5" d="M-414.6-643.7c0,3.1,0,6.2,0,9.4c-0.4-0.8-0.1-1.6-0.2-2.4c0-0.7,0-1.3,0-2c-0.6,0-0.5,0.4-0.5,0.6
			c0,0.9,0,1.9,0,2.8c0,0.3,0.1,0.7-0.3,0.9c0-2.6,0.1-5.1,0.1-7.7c0.4-0.5,0.2-1,0.2-1.5c0-1.7,0-3.4,0-5.1c0-0.4-0.2-0.8,0.5-1.2
			c0,1,0,1.9,0,2.8C-414.7-646-415-644.9-414.6-643.7z"/>
		<path fill="#1DADA5" d="M-432-660.5c0-2.3,0-4.6,0-7c0.2,0,0.4-0.1,0.5-0.1c0.4-0.8-0.2-1.8,0.4-2.6c0,4,0,8.1-0.1,12.1
			c0,1.1,0,2.2,0,3.2c-0.4-1.2-0.1-2.5-0.2-3.7c0-0.6,0-1.2,0-1.7C-431.6-660.6-431.8-660.5-432-660.5z"/>
		<path fill="#1DADA5" d="M-432-639.2c0-1.8,0-3.7,0-5.5c0.2,0,0.4-0.1,0.6-0.1c0.3-1.5-0.2-3,0.3-4.4c0,4.6,0,9.1,0,13.7
			c0,0.5-0.1,1,0.1,1.4c-0.5-0.2-0.3-0.7-0.3-1.1c0-1.2,0-2.5,0-3.6C-431.5-639.2-431.8-639.2-432-639.2z"/>
		<path fill="#1DADA5" d="M-426.5-634.4c0-1.8,0-3.5,0-5.3c0.4-0.8,0.1-1.6,0.2-2.4c0.1-0.6-0.1-1.2,0.2-1.9
			c0.6,1.3-0.1,2.6,0.5,3.6c0,2,0,4,0.1,6C-425.9-634.2-426.2-634.8-426.5-634.4z"/>
		<path fill="#FEFEFE" d="M-404.2-667.5c0,1.8,0,3.5,0,5.2c-1.6,2.1-3.1,4.1-4.8,6.3c0-4.8,0-9.4,0-14c1.5-0.2,3,0,4.5-0.1
			C-403.9-669.3-404.4-668.4-404.2-667.5z"/>
		<path fill="#FEFEFE" d="M-409.1-634.4c0-4.1,0-8.2,0-12.2c0-0.4-0.2-0.9,0.2-1.2c1.2,1.7,2.4,3.5,3.7,5.1c0.5,0.7,0.7,1.4,0.7,2.2
			c0,2,0,4.1,0,6.1c-0.4,0.4-1,0.1-1.5,0.2C-407-634.4-408-633.9-409.1-634.4z"/>
		<path fill="#018ECE" d="M-413.6-655.7c0.1,0.1,0.1,0.2,0.2,0.2C-413.5-655.6-413.5-655.7-413.6-655.7z"/>
		<path fill="#018ECE" d="M-414.1-656.4c0.1,0.1,0.1,0.1,0.2,0.2C-414-656.3-414-656.4-414.1-656.4z"/>
		<path fill="#018ECE" d="M-413.8-654.8c-0.1-0.1-0.1-0.1-0.2-0.2C-413.9-654.9-413.9-654.9-413.8-654.8z"/>
		<path fill="#018ECE" d="M-412.9-654.8c0.1,0.1,0.1,0.1,0.2,0.2C-412.8-654.6-412.8-654.7-412.9-654.8z"/>
		<path fill="#018ECE" d="M-414.3-656.7c0.1,0,0.2,0.1,0.2,0.3C-414.2-656.5-414.2-656.6-414.3-656.7z"/>
		<path fill="#018ECE" d="M-413.3-654.1c0-0.1-0.1-0.1-0.1-0.2C-413.4-654.2-413.4-654.1-413.3-654.1z"/>
		<path fill="#018ECE" d="M-412.4-654.1c0.1,0,0.2,0.1,0.2,0.2C-412.3-653.9-412.3-654-412.4-654.1z"/>
		<path fill="#018ECE" d="M-411.7-653.1c0.1,0.1,0.2,0.1,0.2,0.2C-411.5-652.9-411.6-653-411.7-653.1z"/>
		<path fill="#018ECE" d="M-412.6-653.1c-0.1-0.1-0.1-0.1-0.2-0.2C-412.7-653.2-412.7-653.2-412.6-653.1z"/>
		<path fill="#1DADA5" d="M-373.2-670.3c-1.4,0-2.6,0-4,0c-3.3,10-6.6,19.9-9.9,29.8c1.2,0.1,2.2,0.3,3.3,0.2c1.1-3.4,2.2-7,3.3-10
			c3.4,0,6.8,0,10.2,0c1.1,3,2.2,7,3.4,10c1.3,0,2.4,0,3.8,0C-366.5-650.3-369.8-660.3-373.2-670.3z M-379.7-653.3
			c1.4-4,2.8-8.6,4.2-13c0.1,0,0.2-0.1,0.2-0.1c1.4,4.3,2.8,9.1,4.2,13.1C-374-653.3-376.8-653.3-379.7-653.3z"/>
		<path fill="#018ECE" d="M-435.3-643.7c-0.1,0.1-0.1,0.1-0.2,0.2C-435.4-643.6-435.3-643.6-435.3-643.7z"/>
		<path fill="#018ECE" d="M-434.6-644.7c-0.1,0.1-0.1,0.1-0.2,0.2C-434.7-644.5-434.6-644.6-434.6-644.7z"/>
	</g>
</g>
<g id="XFOvHq.tif">
	<g>
		<circle fill="#1DADA5" cx="94.3" cy="94.3" r="94.3"/>
		<path fill="#1DADA5" d="M94.1,163.8c0-0.2,0-0.3,0-0.5c8.2-0.3,16.3-0.3,24.5-0.8c6.1-0.4,12.3-0.8,18.4-1.9
			c8.8-1.6,10.6-1.2,12.8-12.3c2.2-11.2,2.4-22.5,1.6-33.8c-0.4-5.3-1.4-10.5-2.3-15.8c-0.8-5.3-4-8.2-9.3-8.9
			c-4.6-0.6-9.2-1.5-13.8-1.8c-21-1.6-41.9-1.6-62.9,0c-4.6,0.4-9.2,1.3-13.8,1.8c-5.3,0.7-8.3,3.8-9.3,8.9
			c-0.7,3.8-1.4,7.5-1.7,11.3c-1.2,13.5-1.1,26.9,1.5,40.3c1.1,5.4,3.6,9.2,9.6,9.7c1.3,0.1,2.6,0.6,3.9,0.7
			C66.9,161.7,80.5,162.7,94.1,163.8z M71.3,72.3c0-1.8,0.1-3.1,0-4.4c-1-11.5,1.1-22.4,5.4-33.1c1.7-4.1,2.8-8.4,4.2-12.9
			c-3.1,0-5.7,0-8.5,0c-1.7,6.6-3.4,13-5.1,19.4c-0.2,0-0.5,0.1-0.7,0.1C64.8,35,63,28.5,61.2,21.9c-2.8,0-5.4,0-8.4,0
			c2.7,8.4,5.3,16.6,8.1,24.7c1.3,3.8,2,7.6,1.9,11.7c-0.1,4.6,0,9.2,0,14C65.7,72.3,68.2,72.3,71.3,72.3z M81.7,53.1
			C81.7,53.1,81.7,53.1,81.7,53.1c0,3.5-0.1,7,0,10.5c0.2,5.1,3.1,8.3,7.9,9.5c7.8,1.8,13.6-2.6,13.8-10.6
			c0.1-5.6-0.1-11.3,0.1-16.9c0.3-9-6.6-12.5-13.8-11.1c-5.1,1-7.9,4.1-8.1,9.2C81.6,46.8,81.7,50,81.7,53.1z M130.6,35.2
			c-2.5,0-4.6,0-7.1,0c0,1.9,0,3.5,0,5.1c0,6.8,0.1,13.6,0,20.4c0,3.9-1.3,4.8-6.5,4.7c-0.2-10,0-20-0.1-30.2c-2.6,0-4.8,0-7.3,0
			c0,10.8,0,21.3,0,31.8c0,0.5,0,1,0.1,1.5c0.6,2.9,2.2,4.2,5.2,4.2c2.9,0,5-1.5,7.1-3.2c0.3-0.2,0.8-0.3,1.2-0.4
			c0.2,1.1,0.4,2,0.6,3c2.3,0,4.4,0,6.7,0C130.6,59.9,130.6,47.8,130.6,35.2z"/>
		<path fill="#FEFDFD" d="M94.1,163.8c-13.6-1-27.2-2-40.8-3.1c-1.3-0.1-2.6-0.6-3.9-0.7c-6-0.5-8.6-4.3-9.6-9.7
			c-2.6-13.3-2.7-26.8-1.5-40.3c0.3-3.8,1.1-7.6,1.7-11.3c1-5.1,3.9-8.3,9.3-8.9c4.6-0.6,9.2-1.5,13.8-1.8c21-1.6,41.9-1.6,62.9,0
			c4.6,0.4,9.2,1.2,13.8,1.8c5.3,0.7,8.5,3.6,9.3,8.9c0.8,5.2,1.9,10.5,2.3,15.8c0.8,11.3,0.6,22.6-1.6,33.8
			c-2.2,11.1-4,10.7-12.8,12.3c-6,1.1-12.2,1.6-18.4,1.9c-8.1,0.5-15.7,1-23.9,1.2C94.7,163.8,94.1,163.6,94.1,163.8z M98.8,101.8
			c0,15.4,0,30.3,0,45.9c2.8-0.4,5.2-0.8,8.1-1.3c0.6,0.2,1.8,0.9,3,1.2c4.1,0.8,6.8-1.1,7.6-5.2c0.1-0.8,0.1-1.7,0.2-2.5
			c0-6,0.1-12,0-18c-0.1-8-3.7-10.3-11.2-7.2c-0.1,0.1-0.3,0-1,0.1c0-4.3,0-8.5,0-13C102.9,101.8,101,101.8,98.8,101.8z
			 M140.7,131.4c0-3.8,0.1-6.8,0-9.8c-0.3-5.3-3.3-8.5-8.3-8.9c-5.4-0.5-10.3,2.4-10.7,7.4c-0.6,7.1-0.4,14.2,0.1,21.3
			c0.2,3.6,3,5.8,6.6,6.6c7.8,1.9,12.9-3,12-11.7c-2,0-4.1,0-6.3,0c-0.1,1.1-0.3,1.9-0.3,2.7c0,1.9-0.8,3.2-2.9,3.2
			c-1.9-0.1-2.5-1.5-2.6-3.1c-0.1-2.4,0-4.9,0-7.8C132.3,131.4,136.3,131.4,140.7,131.4z M63.8,147.4c0-13.2,0-26.1,0-39
			c2.9-0.2,5.1-0.3,7.4-0.4c0-2.3,0-4.2,0-6.1c-7.7,0-15.1,0-22.4,0c0,2.2,0,4.1,0,6.1c2.5,0.2,4.6,0.3,7.2,0.5c0,4.5,0,8.8,0,13.1
			c0,4.3,0,8.7,0,13c0.1,4.2-0.3,8.5,0.2,12.8C58.9,147.4,60.9,147.4,63.8,147.4z M86.3,144.8c0.3,0.9,0.7,1.8,0.9,2.3
			c2.3,0,4.2,0,6,0c0-11.3,0-22.2,0-33.3c-2.2,0-4.1,0-6.5,0c0,1.8,0,3.4,0,5c0,6,0,12,0,18c0,3.7-0.5,4-5.2,4.8
			c-1.3-9.1,0-18.4-0.8-27.6c-2.2,0-4.1,0-6.2,0c0,6.4,0,12.6,0,18.7c0,3.5-0.1,7,0.1,10.5c0.3,4,2.7,5.7,6.5,4.5
			C82.8,147,84.3,145.9,86.3,144.8z"/>
		<path fill="#FEFDFD" d="M71.3,72.3c-3.1,0-5.5,0-8.6,0c0-4.8-0.1-9.4,0-14c0.1-4-0.5-7.9-1.9-11.7c-2.8-8.1-5.4-16.3-8.1-24.7
			c3,0,5.6,0,8.4,0c1.8,6.6,3.7,13.1,5.5,19.5c0.2,0,0.5-0.1,0.7-0.1c1.7-6.4,3.3-12.8,5.1-19.4c2.8,0,5.4,0,8.5,0
			c-1.5,4.5-2.6,8.8-4.2,12.9c-4.3,10.6-6.4,21.6-5.4,33.1C71.4,69.2,71.3,70.5,71.3,72.3z"/>
		<path fill="#FEFDFD" d="M81.7,53.1c0-3.2-0.1-6.3,0-9.5c0.2-5.1,3-8.2,8.1-9.2c7.2-1.4,14.1,2.1,13.8,11.1
			c-0.2,5.6,0.1,11.3-0.1,16.9c-0.2,8-6,12.4-13.8,10.6c-4.9-1.1-7.7-4.4-7.9-9.5C81.6,60.1,81.7,56.6,81.7,53.1
			C81.7,53.1,81.7,53.1,81.7,53.1z M95.7,53.7c0-3.1,0.1-6.3,0-9.4c-0.1-2.5-1.1-3.5-3.1-3.6c-2.1,0-3,0.9-3.1,3.6
			c-0.1,6.3-0.1,12.6,0,18.9c0,2.7,1,3.6,3.1,3.6c2.1,0,3-1,3.1-3.6C95.8,60,95.7,56.8,95.7,53.7z"/>
		<path fill="#FEFDFD" d="M130.6,35.2c0,12.6,0,24.6,0,37c-2.3,0-4.4,0-6.7,0c-0.2-1-0.4-1.9-0.6-3c-0.4,0.1-0.9,0.2-1.2,0.4
			c-2.1,1.6-4.3,3.2-7.1,3.2c-3,0-4.6-1.3-5.2-4.2c-0.1-0.5-0.1-1-0.1-1.5c0-10.5,0-20.9,0-31.8c2.4,0,4.6,0,7.3,0
			c0.2,10.2-0.1,20.2,0.1,30.2c5.2,0.1,6.4-0.8,6.5-4.7c0.1-6.8,0-13.6,0-20.4c0-1.6,0-3.3,0-5.1C126,35.2,128.1,35.2,130.6,35.2z"
			/>
		<path fill="#1DADA5" d="M98.8,101.8c2.2,0,4.1,0,6.6,0c0,4.5,0,8.7,0,13c0.7-0.1,0.9,0,1-0.1c7.5-3.1,11.1-0.8,11.2,7.2
			c0.1,6,0,12,0,18c0,0.8,0,1.7-0.2,2.5c-0.8,4.1-3.5,6-7.6,5.2c-1.3-0.2-2.4-0.9-3-1.2c-2.9,0.5-5.3,0.8-8.1,1.3
			C98.8,132.1,98.8,117.2,98.8,101.8z M110.7,130.7C110.7,130.7,110.7,130.7,110.7,130.7c0-3.1,0-6.3-0.1-9.4
			c-0.1-1.7-1.1-2.7-2.9-2.6c-1.6,0.1-2.4,1.1-2.4,2.6c0,6.1,0,12.2,0,18.3c0,1.8,1.1,2.8,2.8,2.9c1.9,0.1,2.6-1.1,2.6-2.9
			C110.7,136.7,110.7,133.7,110.7,130.7z"/>
		<path fill="#1DADA5" d="M140.7,131.4c-4.4,0-8.3,0-12.5,0c0,2.9-0.1,5.4,0,7.8c0.1,1.6,0.7,3,2.6,3.1c2.1,0.1,2.9-1.2,2.9-3.2
			c0-0.8,0.2-1.6,0.3-2.7c2.2,0,4.2,0,6.3,0c0.9,8.7-4.2,13.6-12,11.7c-3.6-0.9-6.3-3.1-6.6-6.6c-0.5-7.1-0.6-14.3-0.1-21.3
			c0.4-5,5.4-7.9,10.7-7.4c5,0.5,8,3.6,8.3,8.9C140.8,124.6,140.7,127.6,140.7,131.4z M133.7,126c0-1.9,0.1-3.2,0-4.4
			c-0.1-1.7-0.9-2.8-2.8-2.8c-1.6,0-2.5,0.9-2.7,2.3c-0.2,1.4-0.2,2.8-0.3,4.6C129.9,125.7,131.5,125.8,133.7,126z"/>
		<path fill="#1DADA5" d="M63.8,147.4c-2.9,0-4.9,0-7.4,0c-0.5-4.3-0.2-8.6-0.2-12.8c-0.1-4.3,0-8.7,0-13c0-4.3,0-8.6,0-13.1
			c-2.7-0.2-4.8-0.3-7.2-0.5c0-2,0-3.9,0-6.1c7.3,0,14.7,0,22.4,0c0,1.9,0,3.8,0,6.1c-2.3,0.1-4.6,0.3-7.4,0.4
			C63.8,121.3,63.8,134.1,63.8,147.4z"/>
		<path fill="#1DADA5" d="M86.3,144.8c-2,1.1-3.6,2.2-5.3,2.7c-3.8,1.2-6.2-0.5-6.5-4.5c-0.2-3.5-0.1-7-0.1-10.5
			c0-6.1,0-12.2,0-18.7c2.2,0,4.1,0,6.2,0c0.8,9.2-0.5,18.5,0.8,27.6c4.7-0.7,5.2-1.1,5.2-4.8c0.1-6,0-12,0-18c0-1.6,0-3.2,0-5
			c2.4,0,4.3,0,6.5,0c0,11.1,0,22,0,33.3c-1.8,0-3.7,0-6,0C87,146.5,86.7,145.7,86.3,144.8z"/>
		<path fill="#1DADA5" d="M95.7,53.7c0,3.1,0.1,6.3,0,9.4c-0.1,2.6-1.1,3.5-3.1,3.6c-2.1,0-3-0.8-3.1-3.6c-0.1-6.3-0.1-12.6,0-18.9
			c0-2.7,1-3.6,3.1-3.6c2,0,3,1,3.1,3.6C95.8,47.4,95.7,50.6,95.7,53.7z"/>
		<path fill="#FEFDFD" d="M110.7,130.7c0,3,0,5.9,0,8.9c0,1.7-0.8,3-2.6,2.9c-1.6-0.1-2.7-1.1-2.8-2.9c0-6.1,0-12.2,0-18.3
			c0-1.5,0.8-2.5,2.4-2.6c1.8-0.1,2.8,0.9,2.9,2.6C110.7,124.4,110.6,127.6,110.7,130.7C110.7,130.7,110.7,130.7,110.7,130.7z"/>
		<path fill="#FEFDFD" d="M133.7,126c-2.2-0.1-3.8-0.2-5.8-0.4c0.1-1.8,0.1-3.2,0.3-4.6c0.2-1.4,1.1-2.4,2.7-2.3
			c1.8,0,2.6,1.2,2.8,2.8C133.8,122.8,133.7,124.1,133.7,126z"/>
	</g>
</g>
</svg>
